<?xml version="1.0"?>
<svg xmlns="http://www.w3.org/2000/svg" role="img" viewBox="-5.55 -5.55 288.60 55.10">
  <title>community-logo.svg</title>
  <g clip-path="url(#clip0_8559_20480)">
    <path fill="#FFB800" d="M55.556 35.383H72.09V38.752H55.556zM260.997 35.383H277.531V38.752H260.997z"/>
    <path d="M66.1033 17.0345C67.1691 17.0557 68.2247 16.823 69.183 16.3559 70.1413 15.8887 70.9747 15.2004 71.6146 14.3477L74.5769 17.379C72.2346 19.9968 69.5478 21.3058 66.3788 21.3058 64.9488 21.3603 63.5224 21.1261 62.1849 20.6172 60.8473 20.1082 59.6261 19.3349 58.5941 18.3434 57.5891 17.3754 56.7997 16.2062 56.2774 14.9122 55.7551 13.6183 55.5116 12.2287 55.5629 10.8343 55.5236 9.42491 55.7791 8.02289 56.3129 6.71796 56.8468 5.41303 57.6472 4.23395 58.663 3.2562 59.7555 2.22536 61.0456 1.42658 62.4554.90807 63.8652.389559 65.3654.162068 66.8655.239327 68.3656.316586 69.8345.696993 71.1836 1.35759 72.5326 2.01819 73.7338 2.94527 74.7147 4.0829L71.8901 7.3208C71.2679 6.48298 70.4573 5.80326 69.5238 5.33654 68.5904 4.86981 67.5602 4.62916 66.5166 4.63403 64.8898 4.60273 63.3126 5.19419 62.1075 6.28743 61.4822 6.86187 60.9913 7.5672 60.6697 8.35312 60.3482 9.13905 60.2041 9.98623 60.2475 10.8343 60.2039 11.6805 60.3343 12.5267 60.6305 13.3205 60.9267 14.1144 61.3825 14.8392 61.9698 15.45 63.1033 16.4728 64.5765 17.0375 66.1033 17.0345zM78.1592 21.0302V.569458H82.706V16.9656H91.4552V21.0302H78.1592zM111.434 18.2058C109.364 20.1531 106.629 21.2373 103.787 21.2373 100.945 21.2373 98.2099 20.1531 96.1399 18.2058 95.1304 17.2377 94.3335 16.0701 93.7997 14.7774 93.266 13.4846 93.0072 12.0948 93.0398 10.6966 93.0008 9.29748 93.2567 7.90584 93.7908 6.61211 94.3249 5.31838 95.1253 4.15153 96.1399 3.1874 98.2099 1.24011 100.945.155884 103.787.155884 106.629.155884 109.364 1.24011 111.434 3.1874 112.443 4.15546 113.24 5.32302 113.774 6.61581 114.308 7.9086 114.566 9.29833 114.534 10.6966 114.573 12.0957 114.317 13.4873 113.783 14.7811 113.249 16.0748 112.448 17.2416 111.434 18.2058zM109.849 10.6966C109.862 8.96545 109.223 7.29298 108.058 6.01196 107.51 5.40493 106.84 4.91968 106.093 4.58756 105.345 4.25544 104.536 4.08384 103.718 4.08384 102.9 4.08384 102.091 4.25544 101.343 4.58756 100.596 4.91968 99.9262 5.40493 99.3778 6.01196 98.2001 7.28481 97.5586 8.96272 97.5866 10.6966 97.5739 12.4277 98.2133 14.1002 99.3778 15.3812 99.9262 15.9882 100.596 16.4735 101.343 16.8056 102.091 17.1377 102.9 17.3093 103.718 17.3093 104.536 17.3093 105.345 17.1377 106.093 16.8056 106.84 16.4735 107.51 15.9882 108.058 15.3812 108.655 14.7598 109.121 14.025 109.428 13.2204 109.736 12.4157 109.879 11.5575 109.849 10.6966zM123.834 15.7944C124.198 16.2656 124.669 16.6428 125.209 16.8945 125.748 17.1462 126.34 17.2651 126.934 17.2412 127.52 17.2723 128.105 17.1562 128.634 16.9035 129.164 16.6508 129.621 16.2695 129.966 15.7944 130.757 14.6692 131.145 13.3099 131.068 11.9365V.638306H135.615V12.0743C135.615 15.0366 134.788 17.3101 133.135 18.8946 132.302 19.6928 131.319 20.3171 130.243 20.7311 129.166 21.1451 128.018 21.3405 126.865 21.3058 125.702 21.3405 124.544 21.1454 123.456 20.7316 122.369 20.3179 121.373 19.6936 120.527 18.8946 118.874 17.3101 118.047 15.0366 118.047 12.0743V.638306H122.594V11.9365C122.593 13.3207 123.027 14.6703 123.834 15.7944zM156.007 3.25623C157.936 5.04741 158.969 7.5275 158.969 10.6965 158.969 13.8655 158.004 16.4145 156.144 18.2746 154.284 20.1347 151.322 21.0302 147.464 21.0302H140.368V.569458H147.602C151.253.569458 154.078 1.46505 156.007 3.25623zM152.7 15.45C153.802 14.4167 154.353 12.8322 154.353 10.8343 154.353 8.83644 153.802 7.25194 152.7 6.21857 151.597 5.18519 149.875 4.56517 147.533 4.56517H144.984V17.0345H147.877C149.626 17.1277 151.347 16.5624 152.7 15.45zM184.941.569458H189.488V21.0302H184.941L175.158 8.21642V21.0302H170.612V.569458H174.883L184.941 13.7277V.569458zM209.122 21.0302L207.193 16.6212H198.581L196.653 21.0302H191.761L200.579.569458H204.988L213.807 21.0302H209.122zM202.991 6.70081L200.442 12.6255H205.54L202.991 6.70081zM223.589 4.56512V21.0991H219.042V4.56512H213.255V.638306H229.445V4.56512H223.589zM232.683.569458H237.23V21.0302H232.683V.569458zM249.837 13.59L255.072.569458H260.033L251.835 21.0302H247.977L239.779.569458H244.739L249.837 13.59zM277.187.569458V4.63406H266.991V8.83644H276.154V12.7633H266.991V17.0345H277.531V21.0991H262.444V.638349H277.187V.569458zM6.37411 29.5244H.10498V44.2465H14.7789V37.9154H6.37411V29.5244zM37.9265 29.5933V37.9154H29.5217V44.2465H44.1956V29.5244H37.8576L37.9265 29.5933zM.10498 14.878H6.443L6.37411 14.8091V6.48702H14.7789V.155884H.10498V14.878zM29.5217.155884V6.48702H37.9265V14.878H44.1956V.155884H29.5217z"/>
    <path d="M28.6951 14.878L20.2904 6.48702H29.5218V.155884H14.7791V6.48702L23.1838 14.878H28.6951zM21.1171 29.5244H15.6058L22.5638 36.4756 23.9416 37.9154H14.7791V44.2465H29.5218V37.8465L25.3195 33.713 21.1171 29.5244zM37.9265 14.8779V24.0267L36.4798 22.58 29.5217 15.6288V21.2022L33.6552 25.3357 37.8576 29.5312H44.1956V14.8779H37.9265zM14.7789 23.2L6.443 14.8779H.10498V29.5243H6.37411V20.3755L14.7789 28.7734V23.2z" opacity=".65"/>
    <path d="M81.4205 42.2611C83.0127 42.2611 84.4561 41.5766 85.468 40.4903L83.6228 38.8534C83.0871 39.5231 82.2984 39.9546 81.4205 39.9546C79.858 39.9546 78.5337 38.5856 78.5337 36.9636C78.5337 35.3565 79.858 33.9875 81.4205 33.9875C82.2836 33.9875 83.0871 34.419 83.6079 35.0886L85.468 33.4369C84.4561 32.3655 83.0127 31.681 81.4205 31.681C78.4295 31.681 75.9147 34.0916 75.9147 36.9636C75.9147 39.8356 78.4295 42.2611 81.4205 42.2611ZM92.8163 42.2611C95.7925 42.2611 98.3073 39.8356 98.3073 36.9636C98.3073 34.0916 95.7925 31.681 92.8163 31.681C89.8253 31.681 87.3105 34.0916 87.3105 36.9636C87.3105 39.8356 89.8253 42.2611 92.8163 42.2611ZM92.8163 39.9546C91.2539 39.9546 89.9295 38.5856 89.9295 36.9636C89.9295 35.3565 91.2539 33.9875 92.8163 33.9875C94.3788 33.9875 95.6883 35.3565 95.6883 36.9636C95.6883 38.5856 94.3788 39.9546 92.8163 39.9546ZM100.899 42.0825H103.444V36.16L106.39 41.4873L109.336 36.16V42.0825H111.881V31.8596H109.336L106.39 37.1868L103.444 31.8596H100.899V42.0825ZM115.012 42.0825H117.557V36.16L120.503 41.4873L123.45 36.16V42.0825H125.994V31.8596H123.45L120.503 37.1868L117.557 31.8596H115.012V42.0825ZM133.649 42.2611C136.447 42.2611 138.396 40.3415 138.396 37.6035V31.8596H135.867V37.4844C135.867 38.9278 134.944 39.9546 133.649 39.9546C132.37 39.9546 131.447 38.9278 131.447 37.4844V31.8596H128.902V37.6035C128.902 40.3415 130.867 42.2611 133.649 42.2611ZM141.306 42.0825H143.851V36.041L148.315 42.0825H150.845V31.8596H148.315V37.9011L143.851 31.8596H141.306V42.0825ZM153.981 42.0825H156.525V31.8596H153.981V42.0825ZM162.062 42.0825H164.606V34.1363H167.717V31.8596H158.967V34.1363H162.062V42.0825ZM173.286 42.0825H175.845V38.5558L179.803 31.8596H176.976L174.565 36.1749L172.259 31.8596H169.327L173.286 38.5558V42.0825ZM191.402 38.1392H193.575V39.4189C193.069 39.7611 192.474 39.9546 191.878 39.9546C190.286 39.9546 188.932 38.5856 188.932 36.9636C188.932 35.3565 190.286 33.9875 191.878 33.9875C192.756 33.9875 193.634 34.4041 194.185 35.0886L196.045 33.4369C195.018 32.3357 193.441 31.681 191.878 31.681C188.858 31.681 186.313 34.0916 186.313 36.9636C186.313 39.8356 188.858 42.2611 191.878 42.2611C193.441 42.2611 195.018 41.6063 196.045 40.4903V36.2196H191.402V38.1392ZM207.502 42.0825L205.076 38.6451C206.52 38.1392 207.442 36.9338 207.442 35.3714C207.442 33.303 205.82 31.8596 203.559 31.8596H198.812V42.0825H201.356V38.8832H202.368L204.615 42.0825H207.502ZM201.356 34.1809H203.335C204.213 34.1809 204.823 34.6571 204.823 35.3714C204.823 36.0856 204.213 36.5618 203.335 36.5618H201.356V34.1809ZM215.061 42.2611C218.037 42.2611 220.552 39.8356 220.552 36.9636C220.552 34.0916 218.037 31.681 215.061 31.681C212.07 31.681 209.555 34.0916 209.555 36.9636C209.555 39.8356 212.07 42.2611 215.061 42.2611ZM215.061 39.9546C213.499 39.9546 212.174 38.5856 212.174 36.9636C212.174 35.3565 213.499 33.9875 215.061 33.9875C216.623 33.9875 217.933 35.3565 217.933 36.9636C217.933 38.5856 216.623 39.9546 215.061 39.9546ZM227.667 42.2611C230.465 42.2611 232.414 40.3415 232.414 37.6035V31.8596H229.885V37.4844C229.885 38.9278 228.962 39.9546 227.667 39.9546C226.388 39.9546 225.465 38.9278 225.465 37.4844V31.8596H222.92V37.6035C222.92 40.3415 224.885 42.2611 227.667 42.2611ZM235.324 42.0825H237.869V38.8832H240.071C242.333 38.8832 243.955 37.4398 243.955 35.3714C243.955 33.303 242.333 31.8596 240.071 31.8596H235.324V42.0825ZM237.869 36.5618V34.1809H239.848C240.726 34.1809 241.336 34.6571 241.336 35.3714C241.336 36.0856 240.726 36.5618 239.848 36.5618H237.869ZM250.476 42.2611C253.006 42.2611 254.568 40.9814 254.568 38.9278C254.568 37.0082 253.095 36.3535 250.803 35.8624C249.286 35.5351 248.794 35.3267 248.794 34.7017C248.794 34.1958 249.256 33.8089 250.074 33.8089C251.027 33.8089 252.053 34.1809 252.991 34.8952L254.285 33.0798C253.199 32.1869 251.86 31.681 250.134 31.681C247.812 31.681 246.235 32.9905 246.235 34.9547C246.235 37.0082 247.857 37.6035 250.044 38.0945C251.532 38.4517 252.009 38.5856 252.009 39.1957C252.009 39.7463 251.518 40.1332 250.565 40.1332C249.315 40.1332 248.199 39.657 247.202 38.8386L245.759 40.5498C247.009 41.6659 248.661 42.2611 250.476 42.2611Z"/>
  </g>
  <defs>
    <clipPath id="clip0_8559_20480">
      <path fill="#fff" d="M0 0H277.84V44.091H0z" transform="translate(.105 .156)"/>
    </clipPath>
  </defs>
</svg>
