<?xml version="1.0" encoding="UTF-8" standalone="no"?>
<svg width="600" height="338" viewBox="0 0 600 338" fill="none" xmlns="http://www.w3.org/2000/svg">
  <rect width="600" height="338" fill="#1E293B"/>
  <rect x="150" y="84" width="300" height="170" rx="12" fill="#334155" stroke="#475569" stroke-width="2"/>
  <circle cx="300" cy="130" r="30" fill="#64748B"/>
  <rect x="230" y="180" width="140" height="12" rx="6" fill="#64748B"/>
  <rect x="250" y="204" width="100" height="8" rx="4" fill="#475569"/>
  <path d="M286 124v12l10-6-10-6z" fill="#1E293B"/>
  <path d="M310 124v12l10-6-10-6z" fill="#1E293B"/>
  <path fill-rule="evenodd" clip-rule="evenodd" d="M320 259c0-5.523 4.477-10 10-10h40c5.523 0 10 4.477 10 10s-4.477 10-10 10h-40c-5.523 0-10-4.477-10-10zm-100 0c0-5.523 4.477-10 10-10h40c5.523 0 10 4.477 10 10s-4.477 10-10 10h-40c-5.523 0-10-4.477-10-10zm-100 0c0-5.523 4.477-10 10-10h40c5.523 0 10 4.477 10 10s-4.477 10-10 10h-40c-5.523 0-10-4.477-10-10z" fill="#475569"/>
</svg>