<?xml version="1.0" encoding="UTF-8" standalone="no"?><svg xmlns="http://www.w3.org/2000/svg" xmlns:xlink="http://www.w3.org/1999/xlink" contentStyleType="text/css" height="528px" preserveAspectRatio="none" style="width:1164px;height:528px;background:#FFFFFF;" version="1.1" viewBox="0 0 1164 528" width="1164px" zoomAndPan="magnify"><defs/><g><rect fill="#FFFFFF" height="36.2969" rx="17.5" ry="17.5" style="stroke:#FF0000;stroke-width:1.0;stroke-dasharray:8.0,3.0;" width="119" x="10" y="245.1875"/><text fill="#000000" font-family="sans-serif" font-size="14" font-weight="bold" lengthAdjust="spacing" textLength="99" x="20" y="268.1826">Project_Root</text><rect fill="#F1F1F1" height="36.2969" rx="12.5" ry="12.5" style="stroke:#181818;stroke-width:1.5;" width="481" x="179" y="20"/><text fill="#000000" font-family="sans-serif" font-size="14" font-weight="bold" lengthAdjust="spacing" textLength="80" x="189" y="42.9951">Dockerfile</text><text fill="#000000" font-family="sans-serif" font-size="14" lengthAdjust="spacing" textLength="377" x="273" y="42.9951">: Docker configuration for building the function's image</text><path d="M129,263.3359 L139,263.3359 C154,263.3359 154,38.1484 169,38.1484 L179,38.1484 " fill="none" style="stroke:#181818;stroke-width:1.0;"/><rect fill="#F1F1F1" height="36.2969" rx="12.5" ry="12.5" style="stroke:#181818;stroke-width:1.5;" width="457" x="179" y="132.5938"/><text fill="#000000" font-family="sans-serif" font-size="14" font-weight="bold" lengthAdjust="spacing" textLength="66" x="189" y="155.5889">example</text><text fill="#000000" font-family="sans-serif" font-size="14" lengthAdjust="spacing" textLength="367" x="259" y="155.5889">: Directory containing example files for the application</text><rect fill="#F1F1F1" height="36.2969" rx="12.5" ry="12.5" style="stroke:#181818;stroke-width:1.5;" width="323" x="686" y="76.2969"/><text fill="#000000" font-family="sans-serif" font-size="14" lengthAdjust="spacing" textLength="303" x="696" y="99.292">composition.yaml : Example composition file</text><path d="M636,150.7422 L646,150.7422 C661,150.7422 661,94.4453 676,94.4453 L686,94.4453 " fill="none" style="stroke:#181818;stroke-width:1.0;"/><rect fill="#F1F1F1" height="36.2969" rx="12.5" ry="12.5" style="stroke:#181818;stroke-width:1.5;" width="352" x="686" y="132.5938"/><text fill="#000000" font-family="sans-serif" font-size="14" lengthAdjust="spacing" textLength="332" x="696" y="155.5889">functions.yaml : Example functions configuration</text><path d="M636,150.7422 L646,150.7422 C661,150.7422 661,150.7422 676,150.7422 L686,150.7422 " fill="none" style="stroke:#181818;stroke-width:1.0;"/><rect fill="#F1F1F1" height="36.2969" rx="12.5" ry="12.5" style="stroke:#181818;stroke-width:1.5;" width="466" x="686" y="188.8906"/><text fill="#000000" font-family="sans-serif" font-size="14" lengthAdjust="spacing" textLength="446" x="696" y="211.8857">xr.yaml : Example Crossplane resource (XR) or claim specification</text><path d="M636,150.7422 L646,150.7422 C661,150.7422 661,207.0391 676,207.0391 L686,207.0391 " fill="none" style="stroke:#181818;stroke-width:1.0;"/><path d="M129,263.3359 L139,263.3359 C154,263.3359 154,150.7422 169,150.7422 L179,150.7422 " fill="none" style="stroke:#181818;stroke-width:1.0;"/><rect fill="#F1F1F1" height="36.2969" rx="12.5" ry="12.5" style="stroke:#181818;stroke-width:1.5;" width="320" x="179" y="188.8906"/><text fill="#000000" font-family="sans-serif" font-size="14" font-weight="bold" lengthAdjust="spacing" textLength="16" x="189" y="211.8857">fn</text><text fill="#000000" font-family="sans-serif" font-size="14" lengthAdjust="spacing" textLength="284" x="205" y="211.8857">.go : Main Go source file for function logic</text><path d="M129,263.3359 L139,263.3359 C154,263.3359 154,207.0391 169,207.0391 L179,207.0391 " fill="none" style="stroke:#181818;stroke-width:1.0;"/><rect fill="#F1F1F1" height="36.2969" rx="12.5" ry="12.5" style="stroke:#181818;stroke-width:1.5;" width="404" x="179" y="245.1875"/><text fill="#000000" font-family="sans-serif" font-size="14" font-weight="bold" lengthAdjust="spacing" textLength="54" x="189" y="268.1826">fn_test</text><text fill="#000000" font-family="sans-serif" font-size="14" lengthAdjust="spacing" textLength="330" x="243" y="268.1826">.go : Unit tests for function logic defined in fn.go</text><path d="M129,263.3359 L139,263.3359 C154,263.3359 154,263.3359 169,263.3359 L179,263.3359 " fill="none" style="stroke:#181818;stroke-width:1.0;"/><rect fill="#F1F1F1" height="36.2969" rx="12.5" ry="12.5" style="stroke:#181818;stroke-width:1.5;" width="315" x="179" y="329.6328"/><text fill="#000000" font-family="sans-serif" font-size="14" font-weight="bold" lengthAdjust="spacing" textLength="40" x="189" y="352.6279">input</text><text fill="#000000" font-family="sans-serif" font-size="14" lengthAdjust="spacing" textLength="255" x="229" y="352.6279">[optional] : Directory containing input</text><rect fill="#F1F1F1" height="36.2969" rx="12.5" ry="12.5" style="stroke:#181818;stroke-width:1.5;" width="288" x="544" y="301.4844"/><text fill="#000000" font-family="sans-serif" font-size="14" lengthAdjust="spacing" textLength="268" x="554" y="324.4795">generate.go : Code generator for input</text><path d="M494,347.7813 L504,347.7813 C519,347.7813 519,319.6328 534,319.6328 L544,319.6328 " fill="none" style="stroke:#181818;stroke-width:1.0;"/><rect fill="#F1F1F1" height="36.2969" rx="12.5" ry="12.5" style="stroke:#181818;stroke-width:1.5;" width="309" x="544" y="357.7813"/><text fill="#000000" font-family="sans-serif" font-size="14" lengthAdjust="spacing" textLength="289" x="554" y="380.7764">v1beta1 : Versioned API directory for input</text><rect fill="#F1F1F1" height="36.2969" rx="12.5" ry="12.5" style="stroke:#181818;stroke-width:1.5;" width="200" x="903" y="357.7813"/><text fill="#000000" font-family="sans-serif" font-size="14" lengthAdjust="spacing" textLength="180" x="913" y="380.7764">input.go : Input definitions</text><path d="M853,375.9297 L863,375.9297 C878,375.9297 878,375.9297 893,375.9297 L903,375.9297 " fill="none" style="stroke:#181818;stroke-width:1.0;"/><path d="M494,347.7813 L504,347.7813 C519,347.7813 519,375.9297 534,375.9297 L544,375.9297 " fill="none" style="stroke:#181818;stroke-width:1.0;"/><path d="M129,263.3359 L139,263.3359 C154,263.3359 154,347.7813 169,347.7813 L179,347.7813 " fill="none" style="stroke:#181818;stroke-width:1.0;"/><rect fill="#F1F1F1" height="36.2969" rx="12.5" ry="12.5" style="stroke:#181818;stroke-width:1.5;" width="279" x="179" y="385.9297"/><text fill="#000000" font-family="sans-serif" font-size="14" font-weight="bold" lengthAdjust="spacing" textLength="37" x="189" y="408.9248">main</text><text fill="#000000" font-family="sans-serif" font-size="14" lengthAdjust="spacing" textLength="222" x="226" y="408.9248">.go : Entry point for the Function</text><path d="M129,263.3359 L139,263.3359 C154,263.3359 154,404.0781 169,404.0781 L179,404.0781 " fill="none" style="stroke:#181818;stroke-width:1.0;"/><rect fill="#F1F1F1" height="36.2969" rx="12.5" ry="12.5" style="stroke:#181818;stroke-width:1.5;" width="502" x="179" y="442.2266"/><text fill="#000000" font-family="sans-serif" font-size="14" font-weight="bold" lengthAdjust="spacing" textLength="66" x="189" y="465.2217">package</text><text fill="#000000" font-family="sans-serif" font-size="14" lengthAdjust="spacing" textLength="412" x="259" y="465.2217">: Directory containing package specifications for Crossplane</text><rect fill="#F1F1F1" height="36.2969" rx="12.5" ry="12.5" style="stroke:#181818;stroke-width:1.5;" width="339" x="731" y="414.0781"/><text fill="#000000" font-family="sans-serif" font-size="14" lengthAdjust="spacing" textLength="319" x="741" y="437.0732">crossplane.yaml : Crossplane configuration file</text><path d="M681,460.375 L691,460.375 C706,460.375 706,432.2266 721,432.2266 L731,432.2266 " fill="none" style="stroke:#181818;stroke-width:1.0;"/><rect fill="#F1F1F1" height="36.2969" rx="12.5" ry="12.5" style="stroke:#181818;stroke-width:1.5;" width="325" x="731" y="470.375"/><text fill="#000000" font-family="sans-serif" font-size="14" lengthAdjust="spacing" textLength="305" x="741" y="493.3701">input : Input directory for package templates</text><path d="M681,460.375 L691,460.375 C706,460.375 706,488.5234 721,488.5234 L731,488.5234 " fill="none" style="stroke:#181818;stroke-width:1.0;"/><path d="M129,263.3359 L139,263.3359 C154,263.3359 154,460.375 169,460.375 L179,460.375 " fill="none" style="stroke:#181818;stroke-width:1.0;"/><!--MD5=[561e8137cc02b5190cd1bc5cbddc8036]
@startmindmap composition-funcion-mindmap
<style>
rootNode {
    LineStyle 8.0;3.0
    LineColor red
    BackgroundColor white
    LineThickness 1.0
    RoundCorner 35
    Shadowing 0.0
    FontStyle bold
}
</style>

+ Project_Root
++ **Dockerfile** : Docker configuration for building the function's image
++ **example** : Directory containing example files for the application
+++ composition.yaml : Example composition file
+++ functions.yaml : Example functions configuration
+++ xr.yaml : Example Crossplane resource (XR) or claim specification
++ **fn**.go : Main Go source file for function logic
++ **fn_test**.go : Unit tests for function logic defined in fn.go
++ **input**[optional] : Directory containing input
+++ generate.go : Code generator for input
+++ v1beta1 : Versioned API directory for input
++++ input.go : Input definitions
++ **main**.go : Entry point for the Function
++ **package** : Directory containing package specifications for Crossplane
+++ crossplane.yaml : Crossplane configuration file
+++ input : Input directory for package templates
@endmindmap

PlantUML version 1.2022.3(Tue Mar 29 18:10:57 CEST 2022)
(GPL source distribution)
Java Runtime: OpenJDK Runtime Environment
JVM: OpenJDK 64-Bit Server VM
Default Encoding: UTF-8
Language: en
Country: GB
--></g></svg>