<?xml version="1.0" encoding="us-ascii" standalone="no"?><svg xmlns="http://www.w3.org/2000/svg" xmlns:xlink="http://www.w3.org/1999/xlink" contentStyleType="text/css" height="686.5651px" preserveAspectRatio="none" style="width:1924px;height:686px;" version="1.1" viewBox="0 0 1924 686" width="1924.3316px" zoomAndPan="magnify"><defs><filter height="300%" id="f1dytdhv2tt59f" width="300%" x="-1" y="-1"><feGaussianBlur result="blurOut" stdDeviation="2.1658206429780034"/><feColorMatrix in="blurOut" result="blurOut2" type="matrix" values="0 0 0 0 0 0 0 0 0 0 0 0 0 0 0 0 0 0 .4 0"/><feOffset dx="4.331641285956007" dy="4.331641285956007" in="blurOut2" result="blurOut3"/><feBlend in="SourceGraphic" in2="blurOut3" mode="normal"/></filter></defs><g><rect fill="#ADD8E6" height="633.5533" rx="3.7902" ry="3.7902" style="stroke:#181818;stroke-width:0.5414551607445008;" width="340.5753" x="275.0592" y="46.8866"/><text fill="#000000" font-family="sans-serif" font-size="14.0778" font-weight="bold" lengthAdjust="spacing" textLength="183.0118" x="353.8409" y="59.954">Development &amp; GitOps</text><rect fill="#90EE90" height="633.5533" rx="3.7902" ry="3.7902" style="stroke:#181818;stroke-width:0.5414551607445008;" width="856.0406" x="650.2876" y="46.8866"/><text fill="#000000" font-family="sans-serif" font-size="14.0778" font-weight="bold" lengthAdjust="spacing" textLength="153.7733" x="1001.4213" y="59.954">Kubernetes Cluster</text><rect fill="#FFFFE0" height="611.7513" rx="3.7902" ry="3.7902" style="stroke:#181818;stroke-width:0.5414551607445008;" width="271.8105" x="1234.5178" y="68.6887"/><text fill="#000000" font-family="sans-serif" font-size="14.0778" font-weight="bold" lengthAdjust="spacing" textLength="210.0846" x="1265.3807" y="81.756">Namespace: devops-team</text><rect fill="#FFB6C1" height="633.5533" rx="3.7902" ry="3.7902" style="stroke:#181818;stroke-width:0.5414551607445008;" width="186.2606" x="1540.9814" y="46.8866"/><text fill="#000000" font-family="sans-serif" font-size="14.0778" font-weight="bold" lengthAdjust="spacing" textLength="160.2707" x="1553.9763" y="59.954">Cloud Infrastructure</text><text fill="#000000" font-family="sans-serif" font-size="15.1607" font-weight="bold" lengthAdjust="spacing" textLength="511.1337" x="707.6819" y="30.3162">Kubernetes as Control Plane for Infrastructure Provisioning</text><line style="stroke:#393939;stroke-width:0.5414551607445008;stroke-dasharray:5.0,5.0;" x1="47.1066" x2="47.1066" y1="175.2792" y2="673.9425"/><line style="stroke:#393939;stroke-width:0.5414551607445008;stroke-dasharray:5.0,5.0;" x1="324.3316" x2="324.3316" y1="175.2792" y2="673.9425"/><line style="stroke:#393939;stroke-width:0.5414551607445008;stroke-dasharray:5.0,5.0;" x1="534.4162" x2="534.4162" y1="175.2792" y2="673.9425"/><line style="stroke:#393939;stroke-width:0.5414551607445008;stroke-dasharray:5.0,5.0;" x1="745.5838" x2="745.5838" y1="175.2792" y2="673.9425"/><line style="stroke:#393939;stroke-width:0.5414551607445008;stroke-dasharray:5.0,5.0;" x1="1008.731" x2="1008.731" y1="175.2792" y2="673.9425"/><line style="stroke:#393939;stroke-width:0.5414551607445008;stroke-dasharray:5.0,5.0;" x1="1277.2927" x2="1277.2927" y1="462.4619" y2="673.9425"/><line style="stroke:#393939;stroke-width:0.5414551607445008;stroke-dasharray:5.0,5.0;" x1="1414.2809" x2="1414.2809" y1="499.6024" y2="673.9425"/><line style="stroke:#393939;stroke-width:0.5414551607445008;stroke-dasharray:5.0,5.0;" x1="1634.1117" x2="1634.1117" y1="568.291" y2="673.9425"/><line style="stroke:#393939;stroke-width:0.5414551607445008;stroke-dasharray:5.0,5.0;" x1="1835.533" x2="1835.533" y1="175.2792" y2="673.9425"/><text fill="#191919" font-family="sans-serif" font-size="15.1607" lengthAdjust="spacing" textLength="76.8866" x="5.4146" y="171.7037">Developer</text><ellipse cx="47.1066" cy="98.6125" fill="#191919" filter="url(#f1dytdhv2tt59f)" rx="8.6633" ry="8.6633" style="stroke:#191919;stroke-width:0.5414551607445008;"/><path d="M47.1066,107.2758 L47.1066,136.5144 M33.0288,115.9391 L61.1844,115.9391 M47.1066,136.5144 L33.0288,152.758 M47.1066,136.5144 L61.1844,152.758 " fill="none" filter="url(#f1dytdhv2tt59f)" style="stroke:#191919;stroke-width:0.5414551607445008;"/><rect fill="#E55756" filter="url(#f1dytdhv2tt59f)" height="32.8088" rx="3.7902" ry="3.7902" style="stroke:#191919;stroke-width:1.6243654822335025;" width="86.6328" x="279.3909" y="138.1387"/><text fill="#F9F9F9" font-family="sans-serif" font-size="15.1607" lengthAdjust="spacing" textLength="71.4721" x="286.9712" y="159.7917">IDP Portal</text><rect fill="#E55756" filter="url(#f1dytdhv2tt59f)" height="32.8088" rx="3.7902" ry="3.7902" style="stroke:#191919;stroke-width:1.6243654822335025;" width="150.5245" x="457.5296" y="138.1387"/><text fill="#F9F9F9" font-family="sans-serif" font-size="15.1607" lengthAdjust="spacing" textLength="135.3638" x="465.11" y="159.7917">GitOps Repository</text><rect fill="#E55756" filter="url(#f1dytdhv2tt59f)" height="32.8088" rx="3.7902" ry="3.7902" style="stroke:#191919;stroke-width:1.6243654822335025;" width="178.6802" x="654.6193" y="138.1387"/><text fill="#F9F9F9" font-family="sans-serif" font-size="15.1607" lengthAdjust="spacing" textLength="163.5195" x="662.1997" y="159.7917">ArgoCD &amp; Crossplane</text><text fill="#191919" font-family="sans-serif" font-size="15.1607" lengthAdjust="spacing" textLength="114.7885" x="948.088" y="171.7037">Kubernetes API</text><ellipse cx="1008.731" cy="140.3046" fill="#EFBABC" filter="url(#f1dytdhv2tt59f)" rx="12.9949" ry="12.9949" style="stroke:#191919;stroke-width:0.5414551607445008;"/><polygon fill="#191919" points="1004.3993,127.3096,1010.8968,121.8951,1008.731,127.3096,1010.8968,132.7242,1004.3993,127.3096" style="stroke:#191919;stroke-width:1.0829103214890017;"/><text fill="#191919" font-family="sans-serif" font-size="15.1607" lengthAdjust="spacing" textLength="132.1151" x="1766.2267" y="171.7037">Platform Engineer</text><ellipse cx="1835.533" cy="98.6125" fill="#191919" filter="url(#f1dytdhv2tt59f)" rx="8.6633" ry="8.6633" style="stroke:#191919;stroke-width:0.5414551607445008;"/><path d="M1835.533,107.2758 L1835.533,136.5144 M1821.4552,115.9391 L1849.6108,115.9391 M1835.533,136.5144 L1821.4552,152.758 M1835.533,136.5144 L1849.6108,152.758 " fill="none" filter="url(#f1dytdhv2tt59f)" style="stroke:#191919;stroke-width:0.5414551607445008;"/><polygon fill="#191919" points="311.3367,202.4958,322.1658,206.8274,311.3367,211.1591,315.6684,206.8274" style="stroke:#191919;stroke-width:1.0829103214890017;"/><line style="stroke:#191919;stroke-width:1.0829103214890017;" x1="47.1066" x2="317.8342" y1="206.8274" y2="206.8274"/><text fill="#000000" font-family="sans-serif" font-size="14.0778" font-weight="bold" lengthAdjust="spacing" textLength="9.7462" x="60.1015" y="201.3415">1</text><text fill="#000000" font-family="sans-serif" font-size="14.0778" lengthAdjust="spacing" textLength="237.1574" x="74.1794" y="201.3415">Self service app and infrastructure</text><path d="M329.7462,224.6954 L329.7462,260.4315 A3.7902,3.7902 0 0 0 333.5364,264.2217 L578.2741,264.2217 A3.7902,3.7902 0 0 0 582.0643,260.4315 L582.0643,231.7343 L571.2352,220.9052 L333.5364,220.9052 A3.7902,3.7902 0 0 0 329.7462,224.6954 " fill="#E5E5E5" filter="url(#f1dytdhv2tt59f)" style="stroke:#191919;stroke-width:1.6243654822335025;"/><path d="M571.2352,220.9052 L571.2352,229.8393 A1.8951,1.8951 0 0 0 573.1303,231.7343 L582.0643,231.7343 L571.2352,220.9052 " fill="#E5E5E5" style="stroke:#191919;stroke-width:1.6243654822335025;"/><text fill="#191919" font-family="sans-serif" font-size="14.0778" lengthAdjust="spacing" textLength="229.577" x="336.2437" y="239.3872">Developer accesses through Port</text><text fill="#191919" font-family="sans-serif" font-size="14.0778" lengthAdjust="spacing" textLength="166.7682" x="336.2437" y="255.7746">for unified UI experience</text><polygon fill="#191919" points="521.4213,291.7259,532.2504,296.0575,521.4213,300.3892,525.753,296.0575" style="stroke:#191919;stroke-width:1.0829103214890017;"/><line style="stroke:#191919;stroke-width:1.0829103214890017;" x1="324.3316" x2="527.9188" y1="296.0575" y2="296.0575"/><text fill="#000000" font-family="sans-serif" font-size="14.0778" font-weight="bold" lengthAdjust="spacing" textLength="9.7462" x="337.3266" y="290.5716">2</text><text fill="#000000" font-family="sans-serif" font-size="14.0778" lengthAdjust="spacing" textLength="170.0169" x="351.4044" y="290.5716">Push changes to remote</text><polygon fill="#191919" points="1822.5381,323.2741,1833.3672,327.6058,1822.5381,331.9374,1826.8697,327.6058" style="stroke:#191919;stroke-width:1.0829103214890017;"/><line style="stroke:#191919;stroke-width:1.0829103214890017;" x1="534.4162" x2="1829.0355" y1="327.6058" y2="327.6058"/><text fill="#000000" font-family="sans-serif" font-size="14.0778" font-weight="bold" lengthAdjust="spacing" textLength="9.7462" x="1125.956" y="322.1198">3</text><text fill="#000000" font-family="sans-serif" font-size="14.0778" lengthAdjust="spacing" textLength="103.9594" x="1140.0338" y="322.1198">Request review</text><polygon fill="#191919" points="546.3283,354.8223,535.4992,359.154,546.3283,363.4856,541.9966,359.154" style="stroke:#191919;stroke-width:1.0829103214890017;"/><line style="stroke:#191919;stroke-width:1.0829103214890017;" x1="539.8308" x2="1834.4501" y1="359.154" y2="359.154"/><text fill="#000000" font-family="sans-serif" font-size="14.0778" font-weight="bold" lengthAdjust="spacing" textLength="9.7462" x="1077.7665" y="353.668">4</text><text fill="#000000" font-family="sans-serif" font-size="14.0778" lengthAdjust="spacing" textLength="200.3384" x="1091.8443" y="353.668">Approve and merge changes</text><polygon fill="#191919" points="732.5888,386.3706,743.4179,390.7022,732.5888,395.0338,736.9205,390.7022" style="stroke:#191919;stroke-width:1.0829103214890017;"/><line style="stroke:#191919;stroke-width:1.0829103214890017;" x1="534.4162" x2="739.0863" y1="390.7022" y2="390.7022"/><text fill="#000000" font-family="sans-serif" font-size="14.0778" font-weight="bold" lengthAdjust="spacing" textLength="9.7462" x="584.7716" y="385.2163">5</text><text fill="#000000" font-family="sans-serif" font-size="14.0778" lengthAdjust="spacing" textLength="96.379" x="598.8494" y="385.2163">Sync changes</text><polygon fill="#191919" points="995.736,417.9188,1006.5651,422.2504,995.736,426.5821,1000.0677,422.2504" style="stroke:#191919;stroke-width:1.0829103214890017;"/><line style="stroke:#191919;stroke-width:1.0829103214890017;" x1="745.5838" x2="1002.2335" y1="422.2504" y2="422.2504"/><text fill="#000000" font-family="sans-serif" font-size="14.0778" font-weight="bold" lengthAdjust="spacing" textLength="9.7462" x="814.89" y="416.7645">6</text><text fill="#000000" font-family="sans-serif" font-size="14.0778" lengthAdjust="spacing" textLength="110.4569" x="828.9679" y="416.7645">Deploy changes</text><polygon fill="#191919" points="757.4958,449.467,746.6667,453.7986,757.4958,458.1303,753.1641,453.7986" style="stroke:#191919;stroke-width:1.0829103214890017;"/><polygon fill="#191919" points="995.736,449.467,1006.5651,453.7986,995.736,458.1303,1000.0677,453.7986" style="stroke:#191919;stroke-width:1.0829103214890017;"/><line style="stroke:#191919;stroke-width:1.0829103214890017;stroke-dasharray:2.0,2.0;" x1="750.9983" x2="1002.2335" y1="453.7986" y2="453.7986"/><text fill="#000000" font-family="sans-serif" font-size="14.0778" font-weight="bold" lengthAdjust="spacing" textLength="9.7462" x="758.5787" y="448.3127">7</text><text fill="#000000" font-family="sans-serif" font-size="14.0778" lengthAdjust="spacing" textLength="223.0795" x="772.6565" y="448.3127">Reconcile infrastructure and app</text><rect fill="#E55756" filter="url(#f1dytdhv2tt59f)" height="32.8088" rx="3.7902" ry="3.7902" style="stroke:#191919;stroke-width:1.6243654822335025;" width="73.6379" x="1238.8494" y="462.4619"/><text fill="#F9F9F9" font-family="sans-serif" font-size="15.1607" lengthAdjust="spacing" textLength="58.4772" x="1246.4298" y="484.1148">vcluster</text><polygon fill="#191919" points="1225.8545,481.0152,1236.6836,485.3469,1225.8545,489.6785,1230.1861,485.3469" style="stroke:#191919;stroke-width:1.0829103214890017;"/><line style="stroke:#191919;stroke-width:1.0829103214890017;" x1="745.5838" x2="1232.3519" y1="485.3469" y2="485.3469"/><text fill="#000000" font-family="sans-serif" font-size="14.0778" font-weight="bold" lengthAdjust="spacing" textLength="9.7462" x="925.0761" y="479.8609">8</text><text fill="#000000" font-family="sans-serif" font-size="14.0778" lengthAdjust="spacing" textLength="120.203" x="939.154" y="479.8609">Provision vcluster</text><rect fill="#E55756" filter="url(#f1dytdhv2tt59f)" height="32.8088" rx="3.7902" ry="3.7902" style="stroke:#191919;stroke-width:1.6243654822335025;" width="172.1827" x="1326.5651" y="499.6024"/><text fill="#F9F9F9" font-family="sans-serif" font-size="15.1607" lengthAdjust="spacing" textLength="157.022" x="1334.1455" y="521.2553">Deployed Application</text><polygon fill="#191919" points="1313.5702,518.1557,1324.3993,522.4873,1313.5702,526.819,1317.9019,522.4873" style="stroke:#191919;stroke-width:1.0829103214890017;"/><line style="stroke:#191919;stroke-width:1.0829103214890017;" x1="745.5838" x2="1320.0677" y1="522.4873" y2="522.4873"/><text fill="#000000" font-family="sans-serif" font-size="14.0778" font-weight="bold" lengthAdjust="spacing" textLength="9.7462" x="958.6464" y="517.0014">9</text><text fill="#000000" font-family="sans-serif" font-size="14.0778" lengthAdjust="spacing" textLength="140.7783" x="972.7242" y="517.0014">Provision application</text><polygon fill="#191919" points="1020.643,555.2961,1009.8139,559.6277,1020.643,563.9594,1016.3113,559.6277" style="stroke:#191919;stroke-width:1.0829103214890017;"/><line style="stroke:#191919;stroke-width:1.0829103214890017;" x1="1014.1455" x2="1276.2098" y1="559.6277" y2="559.6277"/><text fill="#000000" font-family="sans-serif" font-size="14.0778" font-weight="bold" lengthAdjust="spacing" textLength="19.4924" x="1021.7259" y="554.1418">10</text><text fill="#000000" font-family="sans-serif" font-size="14.0778" lengthAdjust="spacing" textLength="218.7479" x="1045.5499" y="554.1418">Ephemeral testing environment</text><rect fill="#E55756" filter="url(#f1dytdhv2tt59f)" height="32.8088" rx="3.7902" ry="3.7902" style="stroke:#191919;stroke-width:1.6243654822335025;" width="125.6176" x="1569.6785" y="568.291"/><text fill="#F9F9F9" font-family="sans-serif" font-size="15.1607" lengthAdjust="spacing" textLength="110.4569" x="1577.2589" y="589.944">Cloud Services</text><polygon fill="#191919" points="1556.6836,586.8443,1567.5127,591.176,1556.6836,595.5076,1561.0152,591.176" style="stroke:#191919;stroke-width:1.0829103214890017;"/><line style="stroke:#191919;stroke-width:1.0829103214890017;" x1="745.5838" x2="1563.181" y1="591.176" y2="591.176"/><text fill="#000000" font-family="sans-serif" font-size="14.0778" font-weight="bold" lengthAdjust="spacing" textLength="19.4924" x="1058.0034" y="585.69">11</text><text fill="#000000" font-family="sans-serif" font-size="14.0778" lengthAdjust="spacing" textLength="175.4315" x="1081.8274" y="585.69">Provision cloud resources</text><path d="M1639.5262,614.6362 L1639.5262,650.3723 A3.7902,3.7902 0 0 0 1643.3164,654.1624 L1909.7124,654.1624 A3.7902,3.7902 0 0 0 1913.5025,650.3723 L1913.5025,621.6751 L1902.6734,610.846 L1643.3164,610.846 A3.7902,3.7902 0 0 0 1639.5262,614.6362 " fill="#E5E5E5" filter="url(#f1dytdhv2tt59f)" style="stroke:#191919;stroke-width:1.6243654822335025;"/><path d="M1902.6734,610.846 L1902.6734,619.78 A1.8951,1.8951 0 0 0 1904.5685,621.6751 L1913.5025,621.6751 L1902.6734,610.846 " fill="#E5E5E5" style="stroke:#191919;stroke-width:1.6243654822335025;"/><text fill="#191919" font-family="sans-serif" font-size="14.0778" lengthAdjust="spacing" textLength="194.9239" x="1646.0237" y="629.3279">Resources: Resource Group,</text><text fill="#191919" font-family="sans-serif" font-size="14.0778" lengthAdjust="spacing" textLength="251.2352" x="1646.0237" y="645.7154">Storage Account, Storage Container</text><!--SRC=[RLJ1Rjim3BthAxWCsA5eWNIdhXW6f4bH11qwezqE0tfHPTeMAakQHAVfldwK73jEiXuAXtnwV2IVzC47MRSI2DrVeD2X-40DjWYj354qkaIedACNjnMo8sUxzWM3Y4eQXCild-VRo_dLNCHNRRqCieKIAzaP-ebRMXXTsnOjWU9_wTI8Ud24Xn235Kq0iP6bUzEsxZNj4ozIlTR1TRPSEkC2fwMDd6AE2Uh6RGjPbkdyvLoG9bPxtx5oYuGHP8IbinISWS98creCiBPLa97BAUe2GX7SHaVjB9C88HKnPBR23HhdCSmIHuaRmOCPmxcHJt2dwOUFC_ZuNTSDtHZM3_p7oaWhxIM3PkjL0OKB94rcylnv2kg9u16zYvhhlsTihKcWBI6j95UVDBOqNQIahgzz5n3jAUyYr6wvOgNBu6BqQGAPMN9S-OnNk_5CoHV5EiFkho9_PbYk_o1Rv1Kel4uJSJvU4CfsqF0RZN5l6NqYPAC6lKmx_FW_T8NUk7SiOU6zqKeIRwONxNl5mqWEHhCqhYkFDZi8AxHzFPrDV-89mqOhZBc2Ig6HT-S4zWsnQrgujRMskEl1en0y0xZubbSArynaAeWzNT8AaddqWI1X-JP0I9h0LSF1qMeW5Ik9l01gsFXrautpR9DdEwihpKFvjGRSCbQZLIWo0qjWfp1HqSK6L2DjdIWS16ovdaZ991CPyeX_Eep4gOt6Dy6nyJIFcoy2PjajXXe7ge6WDqtgzDsgCRcBShvtIsueRN14xE9VBwOSZyZ6Kvflw-68SlcqwJtlO1SuEqjD3hTrRwCzD8tz22NtBX8ZqrJjhK-lO926NyP8wI51kz71vTTgmftDSSpU1mD6rmNUtT62-sngTfVVVy8TRzYVFzidDfdaOI-KuhUEpc48f7TBik62-0S0]--></g></svg>