<?xml version="1.0" encoding="us-ascii" standalone="no"?><svg xmlns="http://www.w3.org/2000/svg" xmlns:xlink="http://www.w3.org/1999/xlink" contentStyleType="text/css" height="630.4893px" preserveAspectRatio="none" style="width:1920px;height:630px;" version="1.1" viewBox="0 0 1920 630" width="1920.6959px" zoomAndPan="magnify"><defs/><g><rect fill="#DDDDDD" height="562.1819" rx="4.8713" ry="4.8713" style="stroke:#181818;stroke-width:0.6959043131569409;" width="169.8007" x="331.9464" y="60.261"/><text fill="#000000" font-family="sans-serif" font-size="18.0935" font-weight="bold" lengthAdjust="spacing" textLength="6.959" x="413.3672" y="77.0558">&#160;</text><text fill="#000000" font-family="sans-serif" font-size="18.0935" font-weight="bold" lengthAdjust="spacing" textLength="136.3972" x="348.6481" y="98.1178">Development</text><rect fill="#DDDDDD" height="562.1819" rx="4.8713" ry="4.8713" style="stroke:#181818;stroke-width:0.6959043131569409;" width="442.5951" x="752.2726" y="60.261"/><text fill="#000000" font-family="sans-serif" font-size="18.0935" font-weight="bold" lengthAdjust="spacing" textLength="6.959" x="970.0906" y="77.0558">&#160;</text><text fill="#000000" font-family="sans-serif" font-size="18.0935" font-weight="bold" lengthAdjust="spacing" textLength="197.6368" x="874.7517" y="98.1178">Kubernetes Cluster</text><rect fill="#DDDDDD" height="562.1819" rx="4.8713" ry="4.8713" style="stroke:#181818;stroke-width:0.6959043131569409;" width="359.0866" x="1553.9543" y="60.261"/><text fill="#000000" font-family="sans-serif" font-size="18.0935" font-weight="bold" lengthAdjust="spacing" textLength="6.959" x="1730.0181" y="77.0558">&#160;</text><text fill="#000000" font-family="sans-serif" font-size="18.0935" font-weight="bold" lengthAdjust="spacing" textLength="69.5904" x="1698.7024" y="98.1178">GitOps</text><text fill="#000000" font-family="sans-serif" font-size="19.4853" font-weight="bold" lengthAdjust="spacing" textLength="656.9337" x="635.0127" y="38.9638">Kubernetes as Control Plane for Infrastructure Provisioning</text><line style="stroke:#393939;stroke-width:0.6959043131569409;stroke-dasharray:5.0,5.0;" x1="60.5437" x2="60.5437" y1="214.1428" y2="614.0921"/><line style="stroke:#393939;stroke-width:0.6959043131569409;stroke-dasharray:5.0,5.0;" x1="416.8467" x2="416.8467" y1="214.1428" y2="614.0921"/><line style="stroke:#393939;stroke-width:0.6959043131569409;stroke-dasharray:5.0,5.0;" x1="640.9279" x2="640.9279" y1="214.1428" y2="614.0921"/><line style="stroke:#393939;stroke-width:0.6959043131569409;stroke-dasharray:5.0,5.0;" x1="804.4654" x2="804.4654" y1="214.1428" y2="614.0921"/><line style="stroke:#393939;stroke-width:0.6959043131569409;stroke-dasharray:5.0,5.0;" x1="929.0323" x2="929.0323" y1="214.1428" y2="614.0921"/><line style="stroke:#393939;stroke-width:0.6959043131569409;stroke-dasharray:5.0,5.0;" x1="1128.7568" x2="1128.7568" y1="214.1428" y2="614.0921"/><line style="stroke:#393939;stroke-width:0.6959043131569409;stroke-dasharray:5.0,5.0;" x1="1656.2523" x2="1656.2523" y1="214.1428" y2="614.0921"/><line style="stroke:#393939;stroke-width:0.6959043131569409;stroke-dasharray:5.0,5.0;" x1="1837.1874" x2="1837.1874" y1="335.7847" y2="614.0921"/><text fill="#191919" font-family="sans-serif" font-size="19.4853" lengthAdjust="spacing" textLength="98.8184" x="6.959" y="209.5474">Developer</text><ellipse cx="60.5437" cy="119.7825" fill="#191919" rx="11.1345" ry="11.1345" style="stroke:#191919;stroke-width:0.6959043131569409;"/><path d="M60.5437,130.917 L60.5437,168.4958 M42.4502,142.0515 L78.6372,142.0515 M60.5437,168.4958 L42.4502,189.373 M60.5437,168.4958 L78.6372,189.373 " fill="none" style="stroke:#191919;stroke-width:0.6959043131569409;"/><rect fill="#E55756" height="42.1675" rx="4.8713" ry="4.8713" style="stroke:#191919;stroke-width:2.0877129394708227;" width="111.3447" x="361.1743" y="170.5835"/><text fill="#F9F9F9" font-family="sans-serif" font-size="19.4853" lengthAdjust="spacing" textLength="91.8594" x="370.917" y="198.4129">IDP Portal</text><text fill="#191919" font-family="sans-serif" font-size="19.4853" lengthAdjust="spacing" textLength="169.8007" x="551.8521" y="209.5474">Platform Engineer</text><ellipse cx="640.9279" cy="119.7825" fill="#191919" rx="11.1345" ry="11.1345" style="stroke:#191919;stroke-width:0.6959043131569409;"/><path d="M640.9279,130.917 L640.9279,168.4958 M622.8344,142.0515 L659.0214,142.0515 M640.9279,168.4958 L622.8344,189.373 M640.9279,168.4958 L659.0214,189.373 " fill="none" style="stroke:#191919;stroke-width:0.6959043131569409;"/><rect fill="#E55756" height="42.1675" rx="4.8713" ry="4.8713" style="stroke:#191919;stroke-width:2.0877129394708227;" width="93.2512" x="757.8398" y="170.5835"/><text fill="#F9F9F9" font-family="sans-serif" font-size="19.4853" lengthAdjust="spacing" textLength="73.7659" x="767.5825" y="198.4129">ArgoCD</text><rect fill="#E55756" height="42.1675" rx="4.8713" ry="4.8713" style="stroke:#191919;stroke-width:2.0877129394708227;" width="128.0464" x="865.0091" y="170.5835"/><text fill="#F9F9F9" font-family="sans-serif" font-size="19.4853" lengthAdjust="spacing" textLength="108.5611" x="874.7517" y="198.4129">Crossplane</text><text fill="#191919" font-family="sans-serif" font-size="19.4853" lengthAdjust="spacing" textLength="112.7365" x="1068.2131" y="209.5474">Kubernetes</text><ellipse cx="1128.7568" cy="169.1917" fill="#EFBABC" rx="16.7017" ry="16.7017" style="stroke:#191919;stroke-width:0.6959043131569409;"/><polygon fill="#191919" points="1123.1896,152.49,1131.5404,145.531,1128.7568,152.49,1131.5404,159.4491,1123.1896,152.49" style="stroke:#191919;stroke-width:1.3918086263138818;"/><rect fill="#E55756" height="42.1675" rx="4.8713" ry="4.8713" style="stroke:#191919;stroke-width:2.0877129394708227;" width="193.4614" x="1559.5216" y="170.5835"/><text fill="#F9F9F9" font-family="sans-serif" font-size="19.4853" lengthAdjust="spacing" textLength="173.9761" x="1569.2642" y="198.4129">GitOps Repository</text><polygon fill="#191919" points="400.145,249.1229,414.0631,254.6901,400.145,260.2573,405.7122,254.6901" style="stroke:#191919;stroke-width:1.3918086263138818;"/><line style="stroke:#191919;stroke-width:1.3918086263138818;" x1="60.5437" x2="408.4958" y1="254.6901" y2="254.6901"/><text fill="#000000" font-family="sans-serif" font-size="18.0935" font-weight="bold" lengthAdjust="spacing" textLength="12.5263" x="77.2454" y="247.6393">1</text><text fill="#000000" font-family="sans-serif" font-size="18.0935" lengthAdjust="spacing" textLength="304.8061" x="95.3389" y="247.6393">Self service app and infrastructure</text><path d="M423.8057,277.6549 L423.8057,323.5846 A4.8713,4.8713 0 0 0 428.6771,328.456 L743.2258,328.456 A4.8713,4.8713 0 0 0 748.0971,323.5846 L748.0971,286.7017 L734.1791,272.7836 L428.6771,272.7836 A4.8713,4.8713 0 0 0 423.8057,277.6549 " fill="#E5E5E5" style="stroke:#191919;stroke-width:2.0877129394708227;"/><path d="M734.1791,272.7836 L734.1791,284.266 A2.4357,2.4357 0 0 0 736.6147,286.7017 L748.0971,286.7017 L734.1791,272.7836 " fill="#E5E5E5" style="stroke:#191919;stroke-width:2.0877129394708227;"/><text fill="#191919" font-family="sans-serif" font-size="18.0935" lengthAdjust="spacing" textLength="295.0634" x="432.1566" y="296.5375">Developer accesses through Port</text><text fill="#191919" font-family="sans-serif" font-size="18.0935" lengthAdjust="spacing" textLength="214.3385" x="432.1566" y="317.5994">for unified UI experience</text><rect fill="#E55756" height="42.1675" rx="4.8713" ry="4.8713" style="stroke:#191919;stroke-width:2.0877129394708227;" width="140.5727" x="1766.9011" y="335.7847"/><text fill="#F9F9F9" font-family="sans-serif" font-size="19.4853" lengthAdjust="spacing" textLength="121.0874" x="1776.6437" y="363.6141">Pull Request</text><polygon fill="#191919" points="1750.1993,359.6303,1764.1174,365.1975,1750.1993,370.7648,1755.7666,365.1975" style="stroke:#191919;stroke-width:1.3918086263138818;"/><line style="stroke:#191919;stroke-width:1.3918086263138818;" x1="416.8467" x2="1758.5502" y1="365.1975" y2="365.1975"/><text fill="#000000" font-family="sans-serif" font-size="18.0935" font-weight="bold" lengthAdjust="spacing" textLength="12.5263" x="973.5701" y="358.1467">2</text><text fill="#000000" font-family="sans-serif" font-size="18.0935" lengthAdjust="spacing" textLength="218.514" x="991.6636" y="358.1467">Push changes to remote</text><polygon fill="#191919" points="1820.4857,403.1896,1834.4038,408.7568,1820.4857,414.324,1826.0529,408.7568" style="stroke:#191919;stroke-width:1.3918086263138818;"/><line style="stroke:#191919;stroke-width:1.3918086263138818;" x1="640.9279" x2="1828.8365" y1="408.7568" y2="408.7568"/><text fill="#000000" font-family="sans-serif" font-size="18.0935" font-weight="bold" lengthAdjust="spacing" textLength="12.5263" x="982.2689" y="401.706">3</text><text fill="#000000" font-family="sans-serif" font-size="18.0935" lengthAdjust="spacing" textLength="495.4839" x="1000.3625" y="401.706">Approve and merge changes and update configurations</text><polygon fill="#191919" points="819.7753,443.7369,805.8572,449.3041,819.7753,454.8713,814.208,449.3041" style="stroke:#191919;stroke-width:1.3918086263138818;"/><line style="stroke:#191919;stroke-width:1.3918086263138818;stroke-dasharray:2.0,2.0;" x1="811.4244" x2="1654.8605" y1="449.3041" y2="449.3041"/><text fill="#000000" font-family="sans-serif" font-size="18.0935" font-weight="bold" lengthAdjust="spacing" textLength="12.5263" x="1110.6633" y="442.2533">4</text><text fill="#000000" font-family="sans-serif" font-size="18.0935" lengthAdjust="spacing" textLength="221.2976" x="1128.7568" y="442.2533">Sync changes to ArgoCD</text><polygon fill="#191919" points="1112.0551,484.2842,1125.9732,489.8514,1112.0551,495.4186,1117.6223,489.8514" style="stroke:#191919;stroke-width:1.3918086263138818;"/><line style="stroke:#191919;stroke-width:1.3918086263138818;" x1="804.4654" x2="1120.4059" y1="489.8514" y2="489.8514"/><text fill="#000000" font-family="sans-serif" font-size="18.0935" font-weight="bold" lengthAdjust="spacing" textLength="12.5263" x="821.1671" y="482.8006">5</text><text fill="#000000" font-family="sans-serif" font-size="18.0935" lengthAdjust="spacing" textLength="272.7945" x="839.2606" y="482.8006">Deploy changes to Kubernetes</text><line style="stroke:#0000FF;stroke-width:1.3918086263138818;stroke-dasharray:2.0,2.0;" x1="1128.7568" x2="1187.2128" y1="530.3987" y2="530.3987"/><line style="stroke:#0000FF;stroke-width:1.3918086263138818;stroke-dasharray:2.0,2.0;" x1="1187.2128" x2="1187.2128" y1="530.3987" y2="548.4922"/><line style="stroke:#0000FF;stroke-width:1.3918086263138818;stroke-dasharray:2.0,2.0;" x1="1130.1486" x2="1187.2128" y1="548.4922" y2="548.4922"/><polygon fill="#0000FF" points="1144.0667,542.925,1130.1486,548.4922,1144.0667,554.0594,1138.4995,548.4922" style="stroke:#0000FF;stroke-width:1.3918086263138818;"/><text fill="#000000" font-family="sans-serif" font-size="18.0935" font-weight="bold" lengthAdjust="spacing" textLength="12.5263" x="1138.4995" y="523.3479">6</text><text fill="#000000" font-family="sans-serif" font-size="18.0935" lengthAdjust="spacing" textLength="489.9166" x="1156.593" y="523.3479">Kubernetes API reconciles infrastructure via Crossplane</text><polygon fill="#191919" points="22.2689,583.4723,8.3509,589.0395,22.2689,594.6067,16.7017,589.0395" style="stroke:#191919;stroke-width:1.3918086263138818;"/><line style="stroke:#191919;stroke-width:1.3918086263138818;" x1="13.9181" x2="927.6404" y1="589.0395" y2="589.0395"/><text fill="#000000" font-family="sans-serif" font-size="18.0935" font-weight="bold" lengthAdjust="spacing" textLength="12.5263" x="297.4991" y="581.9887">7</text><text fill="#000000" font-family="sans-serif" font-size="18.0935" lengthAdjust="spacing" textLength="322.8996" x="315.5926" y="581.9887">Provision infrastructure via providers</text><!--SRC=[RLJBRjim4BppApRgBO01kwUqA0guJb4O0LgXZrFImvfQIKGeaYMNhjElxrAMOpdjHH2fcTsPMOfN8M8t833vFy0naxhYdWQ20MDIlMa8MkzvvmyACtkNXnr5fP96Ix1wytfvM2rlbYez6XSmuW0DjPWjVwS3hwtft42EGSj3Q6VKPyzq2R7KyWoGUcpyR-CwQD4ccdtPeNxiei-ksNZheuX6b-IJ59cXFlX3ZKrJ2goMIh5XqNkNHRmZfWIOOECTHs-XjkYAomXRrqPCaeBc70dgwFSc6U-aYbAeMI2tj2Vh0yLIeQ6zacIWUd3JVh5IWG8G5Moq2IZMgkrj3RMFZBOgj22l0X4sBDwFAtWBtyYsa2ZkZIR0401T0-P2a72Sv0RHT3s3Rq_KcIQjAIMnnxqarFLZrmTNl6LdMaCD_DW27GHho6bI94tAR2TtbMJ1WXxWe-kC8uf7mNIoEKjmOtFY0X1PB_okO-StjoCLvVLVm2Rwb4B9VGJfv-K8rTDWgdEt4NPtazRrzgnvqlJ9y9SW27NHuhWBNoduPCJRqrYYCposW6Ds4dzLPsi5zYjJaj5TNqkWTKuzw1vTLwBq46cGt2VY2yAxXSGZd7K8Sbne7Dj0iQFd0cKdXmPbSkAiDLsEo7AgqbHGDC52b9Ieoa5uSdhU_1ZcX1qnWZr6CSu-MFyqnvz3cpWJTd7_QcSp_PopP-Ci6v54e3PMbfSd3_O6ONCv9O1xyNuUNSdjzCFyZrxYaUj4RfNJ0Fy2]--></g></svg>