<?xml version="1.0" encoding="us-ascii" standalone="no"?><svg xmlns="http://www.w3.org/2000/svg" xmlns:xlink="http://www.w3.org/1999/xlink" contentStyleType="text/css" height="885.4588px" preserveAspectRatio="none" style="width:1921px;height:885px;background:#F9F9F9;" version="1.1" viewBox="0 0 1921 885" width="1921.5059px" zoomAndPan="magnify"><defs/><g><rect fill="#F9F9F9" height="885.4588" style="stroke:none;stroke-width:1.5058823529411764;" width="1921.5059" x="0" y="0"/><rect fill="#DDDDDD" height="812.7059" rx="5.2706" ry="5.2706" style="stroke:#181818;stroke-width:0.7529411764705882;" width="248.4706" x="213.8353" y="65.2"/><text fill="#000000" font-family="sans-serif" font-size="19.5765" font-weight="bold" lengthAdjust="spacing" textLength="7.5294" x="334.3059" y="83.3713">&#160;</text><text fill="#000000" font-family="sans-serif" font-size="19.5765" font-weight="bold" lengthAdjust="spacing" textLength="212.3294" x="231.9059" y="106.1596">Local Development</text><rect fill="#DDDDDD" height="812.7059" rx="5.2706" ry="5.2706" style="stroke:#181818;stroke-width:0.7529411764705882;" width="1196.4235" x="524.0471" y="65.2"/><text fill="#000000" font-family="sans-serif" font-size="19.5765" font-weight="bold" lengthAdjust="spacing" textLength="7.5294" x="1118.4941" y="83.3713">&#160;</text><text fill="#000000" font-family="sans-serif" font-size="19.5765" font-weight="bold" lengthAdjust="spacing" textLength="167.1529" x="1038.6824" y="106.1596">CI Environment</text><rect fill="#DDDDDD" height="759.6" rx="5.2706" ry="5.2706" style="stroke:#181818;stroke-width:0.7529411764705882;" width="530.8235" x="524.0471" y="118.3059"/><text fill="#000000" font-family="sans-serif" font-size="19.5765" font-weight="bold" lengthAdjust="spacing" textLength="7.5294" x="785.6941" y="136.4772">&#160;</text><text fill="#000000" font-family="sans-serif" font-size="19.5765" font-weight="bold" lengthAdjust="spacing" textLength="194.2588" x="692.3294" y="159.2654">Dagger Workflow</text><rect fill="#DDDDDD" height="759.6" rx="5.2706" ry="5.2706" style="stroke:#181818;stroke-width:0.7529411764705882;" width="239.4353" x="1103.0588" y="118.3059"/><text fill="#000000" font-family="sans-serif" font-size="19.5765" font-weight="bold" lengthAdjust="spacing" textLength="7.5294" x="1219.0118" y="136.4772">&#160;</text><text fill="#000000" font-family="sans-serif" font-size="19.5765" font-weight="bold" lengthAdjust="spacing" textLength="203.2941" x="1121.1294" y="159.2654">Pipeline Execution</text><rect fill="#DDDDDD" height="759.6" rx="5.2706" ry="5.2706" style="stroke:#181818;stroke-width:0.7529411764705882;" width="329.7882" x="1390.6824" y="118.3059"/><text fill="#000000" font-family="sans-serif" font-size="19.5765" font-weight="bold" lengthAdjust="spacing" textLength="7.5294" x="1551.8118" y="136.4772">&#160;</text><text fill="#000000" font-family="sans-serif" font-size="19.5765" font-weight="bold" lengthAdjust="spacing" textLength="167.1529" x="1472" y="159.2654">CI Environment</text><text fill="#000000" font-family="sans-serif" font-size="21.0824" font-weight="bold" lengthAdjust="spacing" textLength="337.3176" x="793.6" y="42.1574">Dagger Operation Sequence</text><line style="stroke:#393939;stroke-width:0.7529411764705882;stroke-dasharray:5.0,5.0;" x1="65.5059" x2="65.5059" y1="284.8" y2="868.8706"/><line style="stroke:#393939;stroke-width:0.7529411764705882;stroke-dasharray:5.0,5.0;" x1="338.0706" x2="338.0706" y1="284.8" y2="868.8706"/><line style="stroke:#393939;stroke-width:0.7529411764705882;stroke-dasharray:5.0,5.0;" x1="618.1647" x2="618.1647" y1="284.8" y2="868.8706"/><line style="stroke:#393939;stroke-width:0.7529411764705882;stroke-dasharray:5.0,5.0;" x1="946.4471" x2="946.4471" y1="284.8" y2="868.8706"/><line style="stroke:#393939;stroke-width:0.7529411764705882;stroke-dasharray:5.0,5.0;" x1="1222.7765" x2="1222.7765" y1="284.8" y2="868.8706"/><line style="stroke:#393939;stroke-width:0.7529411764705882;stroke-dasharray:5.0,5.0;" x1="1472" x2="1472" y1="284.8" y2="868.8706"/><line style="stroke:#393939;stroke-width:0.7529411764705882;stroke-dasharray:5.0,5.0;" x1="1638.4" x2="1638.4" y1="284.8" y2="868.8706"/><text fill="#191919" font-family="sans-serif" font-size="21.0824" lengthAdjust="spacing" textLength="106.9176" x="7.5294" y="279.8279">Developer</text><ellipse cx="65.5059" cy="182.7059" fill="#191919" rx="12.0471" ry="12.0471" style="stroke:#191919;stroke-width:0.7529411764705882;"/><path d="M65.5059,194.7529 L65.5059,235.4118 M45.9294,206.8 L85.0824,206.8 M65.5059,235.4118 L45.9294,258 M65.5059,235.4118 L85.0824,258 " fill="none" style="stroke:#191919;stroke-width:0.7529411764705882;"/><rect fill="#E55756" height="45.6235" rx="5.2706" ry="5.2706" style="stroke:#191919;stroke-width:2.2588235294117647;" width="134.0235" x="271.0588" y="237.6706"/><text fill="#F9F9F9" font-family="sans-serif" font-size="21.0824" lengthAdjust="spacing" textLength="112.9412" x="281.6" y="267.7809">Dagger CLI</text><rect fill="#E55756" height="45.6235" rx="5.2706" ry="5.2706" style="stroke:#191919;stroke-width:2.2588235294117647;" width="176.1882" x="530.0706" y="237.6706"/><text fill="#F9F9F9" font-family="sans-serif" font-size="21.0824" lengthAdjust="spacing" textLength="155.1059" x="540.6118" y="267.7809">Dagger Engine</text><rect fill="#E55756" height="45.6235" rx="5.2706" ry="5.2706" style="stroke:#191919;stroke-width:2.2588235294117647;" width="204.8" x="844.0471" y="237.6706"/><text fill="#F9F9F9" font-family="sans-serif" font-size="21.0824" lengthAdjust="spacing" textLength="183.7176" x="854.5882" y="267.7809">Dagger Container</text><rect fill="#E55756" height="45.6235" rx="5.2706" ry="5.2706" style="stroke:#191919;stroke-width:2.2588235294117647;" width="156.6118" x="1144.4706" y="237.6706"/><text fill="#F9F9F9" font-family="sans-serif" font-size="21.0824" lengthAdjust="spacing" textLength="135.5294" x="1155.0118" y="267.7809">Pipeline Step</text><rect fill="#E55756" height="45.6235" rx="5.2706" ry="5.2706" style="stroke:#191919;stroke-width:2.2588235294117647;" width="150.5882" x="1396.7059" y="237.6706"/><text fill="#F9F9F9" font-family="sans-serif" font-size="21.0824" lengthAdjust="spacing" textLength="129.5059" x="1407.2471" y="267.7809">Docker Host</text><rect fill="#E55756" height="45.6235" rx="5.2706" ry="5.2706" style="stroke:#191919;stroke-width:2.2588235294117647;" width="152.0941" x="1562.3529" y="237.6706"/><text fill="#F9F9F9" font-family="sans-serif" font-size="21.0824" lengthAdjust="spacing" textLength="131.0118" x="1572.8941" y="267.7809">Repositories</text><polygon fill="#191919" points="320,322.6471,335.0588,328.6706,320,334.6941,326.0235,328.6706" style="stroke:#191919;stroke-width:1.5058823529411764;"/><line style="stroke:#191919;stroke-width:1.5058823529411764;" x1="65.5059" x2="329.0353" y1="328.6706" y2="328.6706"/><text fill="#000000" font-family="sans-serif" font-size="19.5765" font-weight="bold" lengthAdjust="spacing" textLength="13.5529" x="83.5765" y="321.0419">1</text><text fill="#000000" font-family="sans-serif" font-size="19.5765" lengthAdjust="spacing" textLength="216.8471" x="103.1529" y="321.0419">Run Dagger command</text><path d="M345.6,353.5176 L345.6,403.2118 A5.2706,5.2706 0 0 0 350.8706,408.4824 L680.6588,408.4824 A5.2706,5.2706 0 0 0 685.9294,403.2118 L685.9294,363.3059 L670.8706,348.2471 L350.8706,348.2471 A5.2706,5.2706 0 0 0 345.6,353.5176 " fill="#E5E5E5" style="stroke:#191919;stroke-width:2.2588235294117647;"/><path d="M670.8706,348.2471 L670.8706,360.6706 A2.6353,2.6353 0 0 0 673.5059,363.3059 L685.9294,363.3059 L670.8706,348.2471 " fill="#E5E5E5" style="stroke:#191919;stroke-width:2.2588235294117647;"/><text fill="#191919" font-family="sans-serif" font-size="19.5765" lengthAdjust="spacing" textLength="308.7059" x="354.6353" y="373.9478">Developer interacts with Dagger</text><text fill="#191919" font-family="sans-serif" font-size="19.5765" lengthAdjust="spacing" textLength="99.3882" x="354.6353" y="396.736">via the CLI</text><polygon fill="#191919" points="600.0941,442.2118,615.1529,448.2353,600.0941,454.2588,606.1176,448.2353" style="stroke:#191919;stroke-width:1.5058823529411764;"/><line style="stroke:#191919;stroke-width:1.5058823529411764;" x1="338.0706" x2="609.1294" y1="448.2353" y2="448.2353"/><text fill="#000000" font-family="sans-serif" font-size="19.5765" font-weight="bold" lengthAdjust="spacing" textLength="13.5529" x="356.1412" y="440.6066">2</text><text fill="#000000" font-family="sans-serif" font-size="19.5765" lengthAdjust="spacing" textLength="224.3765" x="375.7176" y="440.6066">Initialize Dagger engine</text><polygon fill="#191919" points="928.3765,486.0824,943.4353,492.1059,928.3765,498.1294,934.4,492.1059" style="stroke:#191919;stroke-width:1.5058823529411764;"/><line style="stroke:#191919;stroke-width:1.5058823529411764;" x1="618.1647" x2="937.4118" y1="492.1059" y2="492.1059"/><text fill="#000000" font-family="sans-serif" font-size="19.5765" font-weight="bold" lengthAdjust="spacing" textLength="13.5529" x="636.2353" y="484.4772">3</text><text fill="#000000" font-family="sans-serif" font-size="19.5765" lengthAdjust="spacing" textLength="272.5647" x="655.8118" y="484.4772">Start container environment</text><path d="M953.9765,516.9529 L953.9765,566.6471 A5.2706,5.2706 0 0 0 959.2471,571.9176 L1145.9765,571.9176 A5.2706,5.2706 0 0 0 1151.2471,566.6471 L1151.2471,526.7412 L1136.1882,511.6824 L959.2471,511.6824 A5.2706,5.2706 0 0 0 953.9765,516.9529 " fill="#E5E5E5" style="stroke:#191919;stroke-width:2.2588235294117647;"/><path d="M1136.1882,511.6824 L1136.1882,524.1059 A2.6353,2.6353 0 0 0 1138.8235,526.7412 L1151.2471,526.7412 L1136.1882,511.6824 " fill="#E5E5E5" style="stroke:#191919;stroke-width:2.2588235294117647;"/><text fill="#191919" font-family="sans-serif" font-size="19.5765" lengthAdjust="spacing" textLength="165.6471" x="963.0118" y="537.3831">Environment with</text><text fill="#191919" font-family="sans-serif" font-size="19.5765" lengthAdjust="spacing" textLength="161.1294" x="963.0118" y="560.1713">all dependencies</text><polygon fill="#191919" points="1204.7059,605.6471,1219.7647,611.6706,1204.7059,617.6941,1210.7294,611.6706" style="stroke:#191919;stroke-width:1.5058823529411764;"/><line style="stroke:#191919;stroke-width:1.5058823529411764;" x1="946.4471" x2="1213.7412" y1="611.6706" y2="611.6706"/><text fill="#000000" font-family="sans-serif" font-size="19.5765" font-weight="bold" lengthAdjust="spacing" textLength="13.5529" x="972.4235" y="604.0419">4</text><text fill="#000000" font-family="sans-serif" font-size="19.5765" lengthAdjust="spacing" textLength="204.8" x="992" y="604.0419">Execute pipeline step</text><polygon fill="#191919" points="634.7294,649.5176,619.6706,655.5412,634.7294,661.5647,628.7059,655.5412" style="stroke:#191919;stroke-width:1.5058823529411764;"/><line style="stroke:#191919;stroke-width:1.5058823529411764;" x1="625.6941" x2="1221.2706" y1="655.5412" y2="655.5412"/><text fill="#000000" font-family="sans-serif" font-size="19.5765" font-weight="bold" lengthAdjust="spacing" textLength="13.5529" x="845.9294" y="647.9125">5</text><text fill="#000000" font-family="sans-serif" font-size="19.5765" lengthAdjust="spacing" textLength="129.5059" x="865.5059" y="647.9125">Report status</text><polygon fill="#191919" points="1453.9294,693.3882,1468.9882,699.4118,1453.9294,705.4353,1459.9529,699.4118" style="stroke:#191919;stroke-width:1.5058823529411764;"/><line style="stroke:#191919;stroke-width:1.5058823529411764;" x1="618.1647" x2="1462.9647" y1="699.4118" y2="699.4118"/><text fill="#000000" font-family="sans-serif" font-size="19.5765" font-weight="bold" lengthAdjust="spacing" textLength="13.5529" x="915.5765" y="691.7831">6</text><text fill="#000000" font-family="sans-serif" font-size="19.5765" lengthAdjust="spacing" textLength="239.4353" x="935.1529" y="691.7831">Interact with Docker host</text><polygon fill="#191919" points="1620.3294,760.0471,1635.3882,766.0706,1620.3294,772.0941,1626.3529,766.0706" style="stroke:#191919;stroke-width:1.5058823529411764;"/><line style="stroke:#191919;stroke-width:1.5058823529411764;" x1="618.1647" x2="1629.3647" y1="766.0706" y2="766.0706"/><text fill="#000000" font-family="sans-serif" font-size="19.5765" font-weight="bold" lengthAdjust="spacing" textLength="13.5529" x="1049.2235" y="747.0478">7</text><text fill="#000000" font-family="sans-serif" font-size="19.5765" lengthAdjust="spacing" textLength="138.5412" x="1068.8" y="735.6537">Pull/push code</text><text fill="#000000" font-family="sans-serif" font-size="19.5765" lengthAdjust="spacing" textLength="120.4706" x="1077.8353" y="758.4419">and artifacts</text><path d="M1645.9294,790.9176 L1645.9294,840.6118 A5.2706,5.2706 0 0 0 1651.2,845.8824 L1905.6941,845.8824 A5.2706,5.2706 0 0 0 1910.9647,840.6118 L1910.9647,800.7059 L1895.9059,785.6471 L1651.2,785.6471 A5.2706,5.2706 0 0 0 1645.9294,790.9176 " fill="#E5E5E5" style="stroke:#191919;stroke-width:2.2588235294117647;"/><path d="M1895.9059,785.6471 L1895.9059,798.0706 A2.6353,2.6353 0 0 0 1898.5412,800.7059 L1910.9647,800.7059 L1895.9059,785.6471 " fill="#E5E5E5" style="stroke:#191919;stroke-width:2.2588235294117647;"/><text fill="#191919" font-family="sans-serif" font-size="19.5765" lengthAdjust="spacing" textLength="197.2706" x="1654.9647" y="811.3478">Repositories such as</text><text fill="#191919" font-family="sans-serif" font-size="19.5765" lengthAdjust="spacing" textLength="233.4118" x="1654.9647" y="834.136">GitHub, DockerHub, etc.</text><!--SRC=[XL9DRzim3BthLx0vxoFPQTjXmDO6Qu1Y2ve1k-IYoBGjH9OyYKg2_lfHYkmu2ufTR8by9Dzxr5tlPTD987GlG3wYkACMEuHE-Y1QNI7Kpj7EdOICv6piTkY524eQXCMd3_FJOlvnBi9UsrvwsK65jOo6Vk69lXhTs0ujWU8FbrrGFnpXDSHWJHD0Q6NbZjesK4iJS9BvvavhMLKfjPWBGPgOoODi6lJmiqSlIJiB6_mJqIeKGYfo7XxmWCPn6cHWZWV1Yc2sjK-EbGpPH6G60e0daLQwbqniLdhVFwrcgLWPpGXk0M-_f0jyXkTe1mRATPsq5ICiImIlcvR0rGLuOQ6J8Kmjm55JMwgtzg1v5IscOG9j1SdtmlH-1KlEUsSBpH8lWtyxlw-DExxAVsaRRJ5Bm7nyJQUp93djpsg76wEJ1jPyhcOrAwj9IwDVHl_7nWMJ71eQSC66UDuaWXSzjuPDwYQwirrRAutX5VHi4IzPOnZD6bnPwnvDeh0yeOhfITmQCs8sX7rM6_YGX8wpMK2A9Gwv3q8_51LiJazTUSRUiSf0acBuxn9lbk3KdkS-ka2PKPNl_wBIZA3vNRFq3FCSkBBzN9UNT7vevPsTmostluAdUWQlep7l-nXQjg12jfdPfxbrUgatAof5Kp8GecgPqDP-r_GOTs_An7n4Kkz6GuR_Nm00]--></g></svg>