<?xml version="1.0" encoding="us-ascii" standalone="no"?><svg xmlns="http://www.w3.org/2000/svg" xmlns:xlink="http://www.w3.org/1999/xlink" contentStyleType="text/css" height="1080.4888px" preserveAspectRatio="none" style="width:1720px;height:1080px;background:#FFFFFF;" version="1.1" viewBox="0 0 1720 1080" width="1720.7446px" zoomAndPan="magnify"><defs/><g><text fill="#000000" font-family="MesloLGS NF" font-size="12.7868" font-weight="bold" lengthAdjust="spacing" textLength="233.8167" x="743.0073" y="26.1936">Remote development on Kubernetes</text><rect fill="#DDDDDD" height="1034.6395" rx="3.1967" ry="3.1967" style="stroke:#181818;stroke-width:0.4566731965472018;" width="527.9142" x="10.0468" y="40.7938"/><text fill="#000000" font-family="MesloLGS NF" font-size="11.8735" font-weight="bold" lengthAdjust="spacing" textLength="124.2151" x="211.8964" y="52.3948">Local development</text><rect fill="#DDDDDD" height="1034.6395" rx="3.1967" ry="3.1967" style="stroke:#181818;stroke-width:0.4566731965472018;" width="493.2071" x="558.0546" y="40.7938"/><text fill="#000000" font-family="MesloLGS NF" font-size="11.8735" font-weight="bold" lengthAdjust="spacing" textLength="87.6813" x="760.8175" y="52.3948">CI/CD system</text><rect fill="#DDDDDD" height="1034.6395" rx="3.1967" ry="3.1967" style="stroke:#181818;stroke-width:0.4566731965472018;" width="352.5517" x="1071.3553" y="40.7938"/><text fill="#000000" font-family="MesloLGS NF" font-size="11.8735" font-weight="bold" lengthAdjust="spacing" textLength="131.5219" x="1181.8702" y="52.3948">Kubernetes Cluster</text><text fill="#000000" font-family="MesloLGS NF" font-size="11.8735" font-weight="bold" lengthAdjust="spacing" textLength="131.5219" x="1181.8702" y="67.3758">Remote Development</text><rect fill="#DDDDDD" height="1034.6395" rx="3.1967" ry="3.1967" style="stroke:#181818;stroke-width:0.4566731965472018;" width="168.0557" x="1444.0006" y="40.7938"/><text fill="#000000" font-family="MesloLGS NF" font-size="11.8735" font-weight="bold" lengthAdjust="spacing" textLength="131.5219" x="1462.2676" y="52.3948">Cluster Management</text><rect fill="#DDDDDD" height="127.8792" rx="3.1967" ry="3.1967" style="stroke:#696969;stroke-width:0.9133463930944036;" width="1209.2706" x="220.1165" y="173.6571"/><rect fill="#DDDDDD" height="175.3732" rx="3.1967" ry="3.1967" style="stroke:#696969;stroke-width:0.9133463930944036;" width="199.1095" x="713.3235" y="430.8747"/><line style="stroke:#696969;stroke-width:0.4566731965472018;stroke-dasharray:5.0,5.0;" x1="49.3207" x2="49.3207" y1="130.3624" y2="1001.759"/><line style="stroke:#696969;stroke-width:0.4566731965472018;stroke-dasharray:5.0,5.0;" x1="246.6035" x2="246.6035" y1="130.3624" y2="1001.759"/><line style="stroke:#696969;stroke-width:0.4566731965472018;stroke-dasharray:5.0,5.0;" x1="341.5916" x2="341.5916" y1="130.3624" y2="1001.759"/><line style="stroke:#696969;stroke-width:0.4566731965472018;stroke-dasharray:5.0,5.0;" x1="476.7668" x2="476.7668" y1="130.3624" y2="1001.759"/><line style="stroke:#696969;stroke-width:0.4566731965472018;stroke-dasharray:5.0,5.0;" x1="619.2489" x2="619.2489" y1="130.3624" y2="1001.759"/><line style="stroke:#696969;stroke-width:0.4566731965472018;stroke-dasharray:5.0,5.0;" x1="736.1572" x2="736.1572" y1="130.3624" y2="1001.759"/><line style="stroke:#696969;stroke-width:0.4566731965472018;stroke-dasharray:5.0,5.0;" x1="895.0795" x2="895.0795" y1="130.3624" y2="1001.759"/><line style="stroke:#696969;stroke-width:0.4566731965472018;stroke-dasharray:5.0,5.0;" x1="990.0675" x2="990.0675" y1="130.3624" y2="1001.759"/><line style="stroke:#696969;stroke-width:0.4566731965472018;stroke-dasharray:5.0,5.0;" x1="1147.1631" x2="1147.1631" y1="130.3624" y2="1001.759"/><line style="stroke:#696969;stroke-width:0.4566731965472018;stroke-dasharray:5.0,5.0;" x1="1271.3782" x2="1271.3782" y1="130.3624" y2="1001.759"/><line style="stroke:#696969;stroke-width:0.4566731965472018;stroke-dasharray:5.0,5.0;" x1="1388.2865" x2="1388.2865" y1="130.3624" y2="1001.759"/><line style="stroke:#696969;stroke-width:0.4566731965472018;stroke-dasharray:5.0,5.0;" x1="1468.661" x2="1468.661" y1="130.3624" y2="1001.759"/><line style="stroke:#696969;stroke-width:0.4566731965472018;stroke-dasharray:5.0,5.0;" x1="1576.4359" x2="1576.4359" y1="130.3624" y2="1001.759"/><text fill="#454645" font-family="MesloLGS NF" font-size="12.7868" lengthAdjust="spacing" textLength="65.7609" x="13.7002" y="126.7224">Developer</text><ellipse cx="49.3207" cy="67.1916" fill="#454645" rx="7.3068" ry="7.3068" style="stroke:#454645;stroke-width:0.4566731965472018;"/><path d="M49.3207,74.4984 L49.3207,99.1587 M37.4472,81.8052 L61.1942,81.8052 M49.3207,99.1587 L37.4472,112.8589 M49.3207,99.1587 L61.1942,112.8589 " fill="none" style="stroke:#454645;stroke-width:0.4566731965472018;"/><text fill="#454645" font-family="MesloLGS NF" font-size="12.7868" lengthAdjust="spacing" textLength="65.7609" x="13.7002" y="1013.3391">Developer</text><ellipse cx="49.3207" cy="1024.7425" fill="#454645" rx="7.3068" ry="7.3068" style="stroke:#454645;stroke-width:0.4566731965472018;"/><path d="M49.3207,1032.0493 L49.3207,1056.7097 M37.4472,1039.3561 L61.1942,1039.3561 M49.3207,1056.7097 L37.4472,1070.4099 M49.3207,1056.7097 L61.1942,1070.4099 " fill="none" style="stroke:#454645;stroke-width:0.4566731965472018;"/><rect fill="#FF6347" height="28.9203" rx="3.1967" ry="3.1967" style="stroke:#454645;stroke-width:1.3700195896416054;" width="34.7072" x="229.2499" y="100.5288"/><text fill="#FFFFFF" font-family="MesloLGS NF" font-size="12.7868" lengthAdjust="spacing" textLength="21.9203" x="235.6434" y="119.4156">IDE</text><rect fill="#FF6347" height="28.9203" rx="3.1967" ry="3.1967" style="stroke:#454645;stroke-width:1.3700195896416054;" width="34.7072" x="229.2499" y="1000.8457"/><text fill="#FFFFFF" font-family="MesloLGS NF" font-size="12.7868" lengthAdjust="spacing" textLength="21.9203" x="235.6434" y="1019.7325">IDE</text><rect fill="#FF6347" height="28.9203" rx="3.1967" ry="3.1967" style="stroke:#454645;stroke-width:1.3700195896416054;" width="137.002" x="273.0906" y="100.5288"/><text fill="#FFFFFF" font-family="MesloLGS NF" font-size="12.7868" lengthAdjust="spacing" textLength="124.2151" x="279.484" y="119.4156">Local source code</text><rect fill="#FF6347" height="28.9203" rx="3.1967" ry="3.1967" style="stroke:#454645;stroke-width:1.3700195896416054;" width="137.002" x="273.0906" y="1000.8457"/><text fill="#FFFFFF" font-family="MesloLGS NF" font-size="12.7868" lengthAdjust="spacing" textLength="124.2151" x="279.484" y="1019.7325">Local source code</text><rect fill="#FF6347" height="28.9203" rx="3.1967" ry="3.1967" style="stroke:#454645;stroke-width:1.3700195896416054;" width="115.0816" x="419.226" y="100.5288"/><text fill="#FFFFFF" font-family="MesloLGS NF" font-size="12.7868" lengthAdjust="spacing" textLength="102.2948" x="425.6194" y="119.4156">K8s yaml files</text><rect fill="#FF6347" height="28.9203" rx="3.1967" ry="3.1967" style="stroke:#454645;stroke-width:1.3700195896416054;" width="115.0816" x="419.226" y="1000.8457"/><text fill="#FFFFFF" font-family="MesloLGS NF" font-size="12.7868" lengthAdjust="spacing" textLength="102.2948" x="425.6194" y="1019.7325">K8s yaml files</text><rect fill="#FF6347" height="28.9203" rx="3.1967" ry="3.1967" style="stroke:#454645;stroke-width:1.3700195896416054;" width="115.0816" x="561.708" y="100.5288"/><text fill="#FFFFFF" font-family="MesloLGS NF" font-size="12.7868" lengthAdjust="spacing" textLength="102.2948" x="568.1015" y="119.4156">Git repository</text><rect fill="#FF6347" height="28.9203" rx="3.1967" ry="3.1967" style="stroke:#454645;stroke-width:1.3700195896416054;" width="115.0816" x="561.708" y="1000.8457"/><text fill="#FFFFFF" font-family="MesloLGS NF" font-size="12.7868" lengthAdjust="spacing" textLength="102.2948" x="568.1015" y="1019.7325">Git repository</text><rect fill="#FF6347" height="28.9203" rx="3.1967" ry="3.1967" style="stroke:#454645;stroke-width:1.3700195896416054;" width="27.4004" x="722.457" y="100.5288"/><text fill="#FFFFFF" font-family="MesloLGS NF" font-size="12.7868" lengthAdjust="spacing" textLength="14.6135" x="728.8504" y="119.4156">CI</text><rect fill="#FF6347" height="28.9203" rx="3.1967" ry="3.1967" style="stroke:#454645;stroke-width:1.3700195896416054;" width="27.4004" x="722.457" y="1000.8457"/><text fill="#FFFFFF" font-family="MesloLGS NF" font-size="12.7868" lengthAdjust="spacing" textLength="14.6135" x="728.8504" y="1019.7325">CI</text><rect fill="#FF6347" height="28.9203" rx="3.1967" ry="3.1967" style="stroke:#454645;stroke-width:1.3700195896416054;" width="27.4004" x="881.3793" y="100.5288"/><text fill="#FFFFFF" font-family="MesloLGS NF" font-size="12.7868" lengthAdjust="spacing" textLength="14.6135" x="887.7727" y="119.4156">CD</text><rect fill="#FF6347" height="28.9203" rx="3.1967" ry="3.1967" style="stroke:#454645;stroke-width:1.3700195896416054;" width="27.4004" x="881.3793" y="1000.8457"/><text fill="#FFFFFF" font-family="MesloLGS NF" font-size="12.7868" lengthAdjust="spacing" textLength="14.6135" x="887.7727" y="1019.7325">CD</text><rect fill="#FF6347" height="28.9203" rx="3.1967" ry="3.1967" style="stroke:#454645;stroke-width:1.3700195896416054;" width="115.0816" x="932.5267" y="100.5288"/><text fill="#FFFFFF" font-family="MesloLGS NF" font-size="12.7868" lengthAdjust="spacing" textLength="102.2948" x="938.9201" y="119.4156">Image registry</text><rect fill="#FF6347" height="28.9203" rx="3.1967" ry="3.1967" style="stroke:#454645;stroke-width:1.3700195896416054;" width="115.0816" x="932.5267" y="1000.8457"/><text fill="#FFFFFF" font-family="MesloLGS NF" font-size="12.7868" lengthAdjust="spacing" textLength="102.2948" x="938.9201" y="1019.7325">Image registry</text><rect fill="#FF6347" height="28.9203" rx="3.1967" ry="3.1967" style="stroke:#454645;stroke-width:1.3700195896416054;" width="144.3087" x="1075.0087" y="100.5288"/><text fill="#FFFFFF" font-family="MesloLGS NF" font-size="12.7868" lengthAdjust="spacing" textLength="131.5219" x="1081.4021" y="119.4156">Remote source code</text><rect fill="#FF6347" height="28.9203" rx="3.1967" ry="3.1967" style="stroke:#454645;stroke-width:1.3700195896416054;" width="144.3087" x="1075.0087" y="1000.8457"/><text fill="#FFFFFF" font-family="MesloLGS NF" font-size="12.7868" lengthAdjust="spacing" textLength="131.5219" x="1081.4021" y="1019.7325">Remote source code</text><rect fill="#FF6347" height="28.9203" rx="3.1967" ry="3.1967" style="stroke:#454645;stroke-width:1.3700195896416054;" width="85.8546" x="1228.4509" y="100.5288"/><text fill="#FFFFFF" font-family="MesloLGS NF" font-size="12.7868" lengthAdjust="spacing" textLength="73.0677" x="1234.8443" y="119.4156">Deployment</text><rect fill="#FF6347" height="28.9203" rx="3.1967" ry="3.1967" style="stroke:#454645;stroke-width:1.3700195896416054;" width="85.8546" x="1228.4509" y="1000.8457"/><text fill="#FFFFFF" font-family="MesloLGS NF" font-size="12.7868" lengthAdjust="spacing" textLength="73.0677" x="1234.8443" y="1019.7325">Deployment</text><rect fill="#FF6347" height="28.9203" rx="3.1967" ry="3.1967" style="stroke:#454645;stroke-width:1.3700195896416054;" width="63.9342" x="1356.3194" y="100.5288"/><text fill="#FFFFFF" font-family="MesloLGS NF" font-size="12.7868" lengthAdjust="spacing" textLength="51.1474" x="1362.7128" y="119.4156">Service</text><rect fill="#FF6347" height="28.9203" rx="3.1967" ry="3.1967" style="stroke:#454645;stroke-width:1.3700195896416054;" width="63.9342" x="1356.3194" y="1000.8457"/><text fill="#FFFFFF" font-family="MesloLGS NF" font-size="12.7868" lengthAdjust="spacing" textLength="51.1474" x="1362.7128" y="1019.7325">Service</text><rect fill="#FF6347" height="28.9203" rx="3.1967" ry="3.1967" style="stroke:#454645;stroke-width:1.3700195896416054;" width="42.0139" x="1447.654" y="100.5288"/><text fill="#FFFFFF" font-family="MesloLGS NF" font-size="12.7868" lengthAdjust="spacing" textLength="29.2271" x="1454.0475" y="119.4156">Logs</text><rect fill="#FF6347" height="28.9203" rx="3.1967" ry="3.1967" style="stroke:#454645;stroke-width:1.3700195896416054;" width="42.0139" x="1447.654" y="1000.8457"/><text fill="#FFFFFF" font-family="MesloLGS NF" font-size="12.7868" lengthAdjust="spacing" textLength="29.2271" x="1454.0475" y="1019.7325">Logs</text><rect fill="#FF6347" height="28.9203" rx="3.1967" ry="3.1967" style="stroke:#454645;stroke-width:1.3700195896416054;" width="63.9342" x="1544.4688" y="100.5288"/><text fill="#FFFFFF" font-family="MesloLGS NF" font-size="12.7868" lengthAdjust="spacing" textLength="51.1474" x="1550.8622" y="119.4156">Rancher</text><rect fill="#FF6347" height="28.9203" rx="3.1967" ry="3.1967" style="stroke:#454645;stroke-width:1.3700195896416054;" width="63.9342" x="1544.4688" y="1000.8457"/><text fill="#FFFFFF" font-family="MesloLGS NF" font-size="12.7868" lengthAdjust="spacing" textLength="51.1474" x="1550.8622" y="1019.7325">Rancher</text><polygon fill="#454645" points="235.6434,156.3035,244.7768,159.9569,235.6434,163.6103,239.2968,159.9569" style="stroke:#454645;stroke-width:0.9133463930944036;"/><line style="stroke:#454645;stroke-width:0.9133463930944036;" x1="49.3207" x2="241.1234" y1="159.9569" y2="159.9569"/><text fill="#000000" font-family="MesloLGS NF" font-size="11.8735" lengthAdjust="spacing" textLength="175.3625" x="60.2809" y="154.7502">Let's develop some YAML!</text><path d="M223.3132,173.6571 L378.1254,173.6571 L378.1254,181.3314 L368.9919,190.4648 L220.1165,190.4648 L220.1165,176.8538 A3.1967,3.1967 0 0 1 223.3132,173.6571 " fill="#EEEEEE" style="stroke:#696969;stroke-width:1.3700195896416054;"/><rect fill="none" height="127.8792" rx="3.1967" ry="3.1967" style="stroke:#696969;stroke-width:0.9133463930944036;" width="1209.2706" x="220.1165" y="173.6571"/><text fill="#454645" font-family="MesloLGS NF" font-size="11.8735" font-weight="bold" lengthAdjust="spacing" textLength="116.9083" x="233.8167" y="186.1715">Development loop</text><polygon fill="#454645" points="1260.418,207.2725,1269.5515,210.9259,1260.418,214.5793,1264.0714,210.9259" style="stroke:#454645;stroke-width:0.9133463930944036;"/><line style="stroke:#454645;stroke-width:0.9133463930944036;" x1="246.6035" x2="1265.8981" y1="210.9259" y2="210.9259"/><text fill="#000000" font-family="MesloLGS NF" font-size="11.8735" lengthAdjust="spacing" textLength="314.1912" x="601.8953" y="205.7192">Substitute image for your development image</text><polygon fill="#454645" points="351.6384,235.0404,342.5049,238.6938,351.6384,242.3472,347.985,238.6938" style="stroke:#454645;stroke-width:0.9133463930944036;"/><polygon fill="#454645" points="1136.2029,235.0404,1145.3364,238.6938,1136.2029,242.3472,1139.8563,238.6938" style="stroke:#454645;stroke-width:0.9133463930944036;"/><line style="stroke:#454645;stroke-width:0.9133463930944036;" x1="346.1583" x2="1141.683" y1="238.6938" y2="238.6938"/><text fill="#000000" font-family="MesloLGS NF" font-size="11.8735" lengthAdjust="spacing" textLength="80.3745" x="704.1901" y="233.4871">Synchronize</text><polygon fill="#454645" points="1136.2029,262.8083,1145.3364,266.4617,1136.2029,270.1151,1139.8563,266.4617" style="stroke:#454645;stroke-width:0.9133463930944036;"/><line style="stroke:#454645;stroke-width:0.9133463930944036;" x1="246.6035" x2="1141.683" y1="266.4617" y2="266.4617"/><text fill="#000000" font-family="MesloLGS NF" font-size="11.8735" lengthAdjust="spacing" textLength="175.3625" x="609.202" y="261.255">Develop and run tests on</text><polygon fill="#454645" points="256.6503,290.5762,247.5169,294.2295,256.6503,297.8829,252.997,294.2295" style="stroke:#454645;stroke-width:0.9133463930944036;"/><line style="stroke:#454645;stroke-width:0.9133463930944036;stroke-dasharray:2.0,2.0;" x1="251.1703" x2="1387.3732" y1="294.2295" y2="294.2295"/><text fill="#000000" font-family="MesloLGS NF" font-size="11.8735" lengthAdjust="spacing" textLength="306.8844" x="664.0028" y="289.0228">Redirect traffic to your IDE for debugging</text><path d="M251.1703,315.6932 L251.1703,333.0468 A3.1967,3.1967 0 0 0 254.367,336.2435 L588.6518,336.2435 A3.1967,3.1967 0 0 0 591.8485,333.0468 L591.8485,321.6299 L582.715,312.4965 L254.367,312.4965 A3.1967,3.1967 0 0 0 251.1703,315.6932 " fill="#7FFFD4" style="stroke:#454645;stroke-width:1.3700195896416054;"/><path d="M582.715,312.4965 L582.715,320.0316 A1.5984,1.5984 0 0 0 584.3134,321.6299 L591.8485,321.6299 L582.715,312.4965 " fill="#7FFFD4" style="stroke:#454645;stroke-width:1.3700195896416054;"/><text fill="#454645" font-family="MesloLGS NF" font-size="11.8735" lengthAdjust="spacing" textLength="321.4979" x="256.6503" y="328.6642">No local kubernetes installation is required</text><polygon fill="#454645" points="59.3675,357.9854,50.2341,361.6388,59.3675,365.2922,55.7141,361.6388" style="stroke:#454645;stroke-width:0.9133463930944036;"/><line style="stroke:#454645;stroke-width:0.9133463930944036;stroke-dasharray:2.0,2.0;" x1="53.8874" x2="1270.4648" y1="361.6388" y2="361.6388"/><text fill="#000000" font-family="MesloLGS NF" font-size="11.8735" lengthAdjust="spacing" textLength="116.9083" x="601.8953" y="356.4321">Instant feedback</text><polygon fill="#454645" points="608.2887,385.7533,617.4222,389.4067,608.2887,393.06,611.9421,389.4067" style="stroke:#454645;stroke-width:0.9133463930944036;"/><line style="stroke:#454645;stroke-width:0.9133463930944036;" x1="246.6035" x2="613.7688" y1="389.4067" y2="389.4067"/><text fill="#000000" font-family="MesloLGS NF" font-size="11.8735" lengthAdjust="spacing" textLength="29.2271" x="418.3126" y="384.2">Push</text><polygon fill="#454645" points="725.197,413.5211,734.3305,417.1745,725.197,420.8279,728.8504,417.1745" style="stroke:#454645;stroke-width:0.9133463930944036;"/><line style="stroke:#454645;stroke-width:0.9133463930944036;" x1="619.2489" x2="730.6771" y1="417.1745" y2="417.1745"/><text fill="#000000" font-family="MesloLGS NF" font-size="11.8735" lengthAdjust="spacing" textLength="94.988" x="630.209" y="411.9678">Trigger build</text><path d="M716.5202,430.8747 L907.8663,430.8747 L907.8663,438.549 L898.7329,447.6824 L713.3235,447.6824 L713.3235,434.0714 A3.1967,3.1967 0 0 1 716.5202,430.8747 " fill="#EEEEEE" style="stroke:#696969;stroke-width:1.3700195896416054;"/><rect fill="none" height="175.3732" rx="3.1967" ry="3.1967" style="stroke:#696969;stroke-width:0.9133463930944036;" width="199.1095" x="713.3235" y="430.8747"/><text fill="#454645" font-family="MesloLGS NF" font-size="11.8735" font-weight="bold" lengthAdjust="spacing" textLength="153.4422" x="727.0237" y="443.3891">Continous Integration</text><line style="stroke:#454645;stroke-width:0.9133463930944036;" x1="736.1572" x2="774.5177" y1="468.1435" y2="468.1435"/><line style="stroke:#454645;stroke-width:0.9133463930944036;" x1="774.5177" x2="774.5177" y1="468.1435" y2="480.017"/><line style="stroke:#454645;stroke-width:0.9133463930944036;" x1="737.0705" x2="774.5177" y1="480.017" y2="480.017"/><polygon fill="#454645" points="746.204,476.3637,737.0705,480.017,746.204,483.6704,742.5506,480.017" style="stroke:#454645;stroke-width:0.9133463930944036;"/><text fill="#000000" font-family="MesloLGS NF" font-size="11.8735" lengthAdjust="spacing" textLength="146.1354" x="742.5506" y="462.9368">Source code scanning</text><line style="stroke:#454645;stroke-width:0.9133463930944036;" x1="736.1572" x2="774.5177" y1="507.7849" y2="507.7849"/><line style="stroke:#454645;stroke-width:0.9133463930944036;" x1="774.5177" x2="774.5177" y1="507.7849" y2="519.6584"/><line style="stroke:#454645;stroke-width:0.9133463930944036;" x1="737.0705" x2="774.5177" y1="519.6584" y2="519.6584"/><polygon fill="#454645" points="746.204,516.005,737.0705,519.6584,746.204,523.3118,742.5506,519.6584" style="stroke:#454645;stroke-width:0.9133463930944036;"/><text fill="#000000" font-family="MesloLGS NF" font-size="11.8735" lengthAdjust="spacing" textLength="138.8287" x="742.5506" y="502.5782">Run automated tests</text><line style="stroke:#454645;stroke-width:0.9133463930944036;" x1="736.1572" x2="774.5177" y1="547.4263" y2="547.4263"/><line style="stroke:#454645;stroke-width:0.9133463930944036;" x1="774.5177" x2="774.5177" y1="547.4263" y2="559.2998"/><line style="stroke:#454645;stroke-width:0.9133463930944036;" x1="737.0705" x2="774.5177" y1="559.2998" y2="559.2998"/><polygon fill="#454645" points="746.204,555.6464,737.0705,559.2998,746.204,562.9532,742.5506,559.2998" style="stroke:#454645;stroke-width:0.9133463930944036;"/><text fill="#000000" font-family="MesloLGS NF" font-size="11.8735" lengthAdjust="spacing" textLength="80.3745" x="742.5506" y="542.2196">Build image</text><line style="stroke:#454645;stroke-width:0.9133463930944036;" x1="736.1572" x2="774.5177" y1="587.0677" y2="587.0677"/><line style="stroke:#454645;stroke-width:0.9133463930944036;" x1="774.5177" x2="774.5177" y1="587.0677" y2="598.9412"/><line style="stroke:#454645;stroke-width:0.9133463930944036;" x1="737.0705" x2="774.5177" y1="598.9412" y2="598.9412"/><polygon fill="#454645" points="746.204,595.2878,737.0705,598.9412,746.204,602.5946,742.5506,598.9412" style="stroke:#454645;stroke-width:0.9133463930944036;"/><text fill="#000000" font-family="MesloLGS NF" font-size="11.8735" lengthAdjust="spacing" textLength="109.6016" x="742.5506" y="581.861">Image scannning</text><polygon fill="#454645" points="884.1193,629.4491,893.2528,633.1025,884.1193,636.7558,887.7727,633.1025" style="stroke:#454645;stroke-width:0.9133463930944036;"/><line style="stroke:#454645;stroke-width:0.9133463930944036;" x1="736.1572" x2="889.5994" y1="633.1025" y2="633.1025"/><text fill="#000000" font-family="MesloLGS NF" font-size="11.8735" lengthAdjust="spacing" textLength="131.5219" x="749.8574" y="627.8958">Trigger deployment</text><polygon fill="#454645" points="979.1073,657.2169,988.2408,660.8703,979.1073,664.5237,982.7607,660.8703" style="stroke:#454645;stroke-width:0.9133463930944036;"/><line style="stroke:#454645;stroke-width:0.9133463930944036;" x1="895.0795" x2="984.5874" y1="660.8703" y2="660.8703"/><text fill="#000000" font-family="MesloLGS NF" font-size="11.8735" lengthAdjust="spacing" textLength="73.0677" x="906.0396" y="655.6636">Push image</text><polygon fill="#454645" points="1260.418,684.9848,1269.5515,688.6382,1260.418,692.2916,1264.0714,688.6382" style="stroke:#454645;stroke-width:0.9133463930944036;"/><line style="stroke:#454645;stroke-width:0.9133463930944036;" x1="895.0795" x2="1265.8981" y1="688.6382" y2="688.6382"/><text fill="#000000" font-family="MesloLGS NF" font-size="11.8735" lengthAdjust="spacing" textLength="146.1354" x="1010.1611" y="683.4315">Trigger image update</text><path d="M593.6752,703.7084 L593.6752,765.816 A3.1967,3.1967 0 0 0 596.8719,769.0127 L887.316,769.0127 A3.1967,3.1967 0 0 0 890.5127,765.816 L890.5127,709.6452 L881.3793,700.5117 L596.8719,700.5117 A3.1967,3.1967 0 0 0 593.6752,703.7084 " fill="#7FFFD4" style="stroke:#454645;stroke-width:1.3700195896416054;"/><path d="M881.3793,700.5117 L881.3793,708.0468 A1.5984,1.5984 0 0 0 882.9776,709.6452 L890.5127,709.6452 L881.3793,700.5117 " fill="#7FFFD4" style="stroke:#454645;stroke-width:1.3700195896416054;"/><text fill="#454645" font-family="MesloLGS NF" font-size="11.8735" lengthAdjust="spacing" textLength="277.6573" x="599.1552" y="716.6795">New image can be pushed to the cluster</text><text fill="#454645" font-family="MesloLGS NF" font-size="11.8735" lengthAdjust="spacing" textLength="116.9083" x="599.1552" y="731.6605">(imperative way)</text><text fill="#454645" font-family="MesloLGS NF" font-size="11.8735" lengthAdjust="spacing" textLength="255.737" x="599.1552" y="746.6415">or it can be pulled by using GitOps</text><text fill="#454645" font-family="MesloLGS NF" font-size="11.8735" lengthAdjust="spacing" textLength="124.2151" x="599.1552" y="761.6225">(declarative way)</text><polygon fill="#454645" points="1377.3264,790.9437,1386.4598,794.5971,1377.3264,798.2505,1380.9797,794.5971" style="stroke:#454645;stroke-width:0.9133463930944036;"/><line style="stroke:#454645;stroke-width:0.9133463930944036;" x1="1271.3782" x2="1382.8064" y1="794.5971" y2="794.5971"/><text fill="#000000" font-family="MesloLGS NF" font-size="11.8735" lengthAdjust="spacing" textLength="94.988" x="1282.3383" y="789.3904">Serve content</text><path d="M1275.9449,809.6673 L1275.9449,857.1613 A3.1967,3.1967 0 0 0 1279.1416,860.358 L1525.7451,860.358 A3.1967,3.1967 0 0 0 1528.9419,857.1613 L1528.9419,815.6041 L1519.8084,806.4706 L1279.1416,806.4706 A3.1967,3.1967 0 0 0 1275.9449,809.6673 " fill="#7FFFD4" style="stroke:#454645;stroke-width:1.3700195896416054;"/><path d="M1519.8084,806.4706 L1519.8084,814.0057 A1.5984,1.5984 0 0 0 1521.4068,815.6041 L1528.9419,815.6041 L1519.8084,806.4706 " fill="#7FFFD4" style="stroke:#454645;stroke-width:1.3700195896416054;"/><text fill="#454645" font-family="MesloLGS NF" font-size="11.8735" lengthAdjust="spacing" textLength="233.8167" x="1281.425" y="822.6383">Deployment can be a web page  or</text><text fill="#454645" font-family="MesloLGS NF" font-size="11.8735" lengthAdjust="spacing" textLength="189.976" x="1281.425" y="837.6194">an API, this can also be a</text><text fill="#454645" font-family="MesloLGS NF" font-size="11.8735" lengthAdjust="spacing" textLength="197.2828" x="1281.425" y="852.6004">aron job or other workload.</text><line style="stroke:#454645;stroke-width:0.9133463930944036;" x1="1468.661" x2="1507.0215" y1="885.575" y2="885.575"/><line style="stroke:#454645;stroke-width:0.9133463930944036;" x1="1507.0215" x2="1507.0215" y1="885.575" y2="897.4485"/><line style="stroke:#454645;stroke-width:0.9133463930944036;" x1="1469.5743" x2="1507.0215" y1="897.4485" y2="897.4485"/><polygon fill="#454645" points="1478.7078,893.7951,1469.5743,897.4485,1478.7078,901.1018,1475.0544,897.4485" style="stroke:#454645;stroke-width:0.9133463930944036;"/><text fill="#000000" font-family="MesloLGS NF" font-size="11.8735" lengthAdjust="spacing" textLength="94.988" x="1475.0544" y="880.3683">Observability</text><line style="stroke:#454645;stroke-width:0.9133463930944036;" x1="1576.4359" x2="1614.7964" y1="925.2163" y2="925.2163"/><line style="stroke:#454645;stroke-width:0.9133463930944036;" x1="1614.7964" x2="1614.7964" y1="925.2163" y2="937.0898"/><line style="stroke:#454645;stroke-width:0.9133463930944036;" x1="1577.3492" x2="1614.7964" y1="937.0898" y2="937.0898"/><polygon fill="#454645" points="1586.4827,933.4364,1577.3492,937.0898,1586.4827,940.7432,1582.8293,937.0898" style="stroke:#454645;stroke-width:0.9133463930944036;"/><text fill="#000000" font-family="MesloLGS NF" font-size="11.8735" lengthAdjust="spacing" textLength="131.5219" x="1582.8293" y="920.0096">Cluster management</text><path d="M1187.3503,952.16 L1187.3503,984.1272 A3.1967,3.1967 0 0 0 1190.547,987.3239 L1568.6724,987.3239 A3.1967,3.1967 0 0 0 1571.8691,984.1272 L1571.8691,958.0968 L1562.7357,948.9633 L1190.547,948.9633 A3.1967,3.1967 0 0 0 1187.3503,952.16 " fill="#7FFFD4" style="stroke:#454645;stroke-width:1.3700195896416054;"/><path d="M1562.7357,948.9633 L1562.7357,956.4984 A1.5984,1.5984 0 0 0 1564.334,958.0968 L1571.8691,958.0968 L1562.7357,948.9633 " fill="#7FFFD4" style="stroke:#454645;stroke-width:1.3700195896416054;"/><text fill="#454645" font-family="MesloLGS NF" font-size="11.8735" lengthAdjust="spacing" textLength="343.4182" x="1192.8304" y="965.1311">In this example cluster is managed with Rancher</text><text fill="#454645" font-family="MesloLGS NF" font-size="11.8735" lengthAdjust="spacing" textLength="365.3386" x="1192.8304" y="980.1121">on prem or managed service (for example Azure AKS)</text><!--SRC=[PLLDR-Cs4BtpLqpSGx904oSB54YDea1Y5u6HP3U8zrAW5qgaPTOKgUM77UsltqTAiYsl3xOrV3Dyy-P3bnTX8sj9XOwoShnbbxsXTE6QruLq8qlbf3G7IwEvCeprJpjLE6u2Oq45BMdoBciR90cvazesjJI1hA7dY9X61kadZFcI0tdtv-VRZxlR-riOjieqtF4QRciUTVWcFyA3LfN9_YM-mEY8-e8RnX0jr-44i9BVepIbV78sDezMj8-yt5PuC69kjNNqcyYV4vT7-_76XL2ceZjGkb2cr558seJG-DbqwlZ-fb9X4ulefIijA9bmKzfw-gPiS7UVx_wOYf9VDqusrriLfZNtO3qLYaFXsazVfTVsvMbresAj6Ili1qrUBAGurMh2U1d0RxBeRD9DYFk4OA0PLAaQY4sJvUAVVB3pfHLoVDO5zJQw4kN3SKQkbJx3FTzxQdcjyv7FeEszpmyC5zBrttrucj6B39T-88hOAFo_3wyl5un98mYvz0dDbzFvWdoBrEl9-Bed5GZQMA-GO9klIuziZ9elyybyUMPUTER5cGmrhoJ2LCg7GypkuPpPiGDfhcCgpN-cxzN5gVwfIvfJ4sbhc_6rlT-vn2wRVnLw8Hjjsnm-mLwbG0kC8IlfTghimlJ_MIy-oj1vp6WL2uynYxXRvSpNQ9KMB4RZbezOea5_mVd82dLSjQRSE6lKZzFuHyXio9mur7FH40GB7YFCUbfqVTeNxs3cP1aeEBvUgvA2xGYXGJCx8OjOLPYgL0x6JDBDgMg3hR0UkfVm-MAXS-hRxR5EolZ0jUP1OOEefE_tYDj4hcoAn3fXCYKeCADbye04Qob5WP4VvTXO47wBViFcIoWpMBw1JYKT5L5fqPT_Zl5MnaQFY25jo4GXyuGhWisNaF9OVS96CoObEOQyGpyUWwrvaA9JyWpnc2xjApO-wLex1pQ3VFtfueIrEFGMWptdsVL_bseVkZiQscZmxNeeDWBqkigaDPeAWpdBHP7x7WGQL63r8sJAn1AMFvNT76NebQgnhA3JJjAUjv-o4VN7q1zyjOPlqLBqQSjY7tnjEZskX2mrF_K-L7ZeEjIhB_Oi3qWIFg_WivRgXoj5FOxTG87JNXRKf8J0BODmyF2s_1tveC4IZ6jlCxOxngpG_xP8gLZax6XltLPRBcwE78T5a_PClrlebHjSa-loOYkVv4-_C_fQuFMnuuNIAhJidMCU0STn_tTs254VGuoAqmCplwNfcCiFNZVwK98qBPsxe3rUMYCVP8INL9rI6Z2-L_agZUmGw-57TFX-Ndtw9TMV]--></g></svg>