<?xml version="1.0" encoding="us-ascii" standalone="no"?><svg xmlns="http://www.w3.org/2000/svg" xmlns:xlink="http://www.w3.org/1999/xlink" contentStyleType="text/css" height="485px" preserveAspectRatio="none" style="width:1012px;height:485px;background:#F9F9F9;" version="1.1" viewBox="0 0 1012 485" width="1012px" zoomAndPan="magnify"><defs/><g><rect fill="#F9F9F9" height="485" style="stroke:none;stroke-width:1.0;" width="1012" x="0" y="0"/><rect fill="none" height="20.9531" style="stroke:none;stroke-width:1.0;" width="979" x="15" y="12.7451"/><ellipse cx="66" cy="48.6982" fill="#FFFFFF" rx="10" ry="10" style="stroke:#222222;stroke-width:1.0;"/><rect fill="#ADD8E6" height="33.9688" rx="3.5" ry="3.5" style="stroke:#4682B4;stroke-width:0.5;" width="90" x="21" y="78.6982"/><text fill="#000000" font-family="sans-serif" font-size="12" lengthAdjust="spacing" textLength="70" x="31" y="99.8369">Create Pod</text><line style="stroke:#000000;stroke-width:1.5;" x1="15" x2="15" y1="12.7451" y2="473.4639"/><path d="M278.125,132.667 L278.125,172.9326 L487.125,172.9326 L487.125,142.667 L477.125,132.667 L278.125,132.667 " fill="#E5E5E5" style="stroke:#191919;stroke-width:1.5;"/><path d="M477.125,132.667 L477.125,142.667 L487.125,142.667 L477.125,132.667 " fill="#E5E5E5" style="stroke:#191919;stroke-width:1.5;"/><text fill="#191919" font-family="sans-serif" font-size="13" lengthAdjust="spacing" textLength="188" x="284.125" y="149.7339">Init containers run first before</text><text fill="#191919" font-family="sans-serif" font-size="13" lengthAdjust="spacing" textLength="169" x="284.125" y="164.8667">the application containers.</text><path d="M578.125,140.2334 L578.125,165.3662 L829.125,165.3662 L829.125,150.2334 L819.125,140.2334 L578.125,140.2334 " fill="#E5E5E5" style="stroke:#191919;stroke-width:1.5;"/><path d="M819.125,140.2334 L819.125,150.2334 L829.125,150.2334 L819.125,140.2334 " fill="#E5E5E5" style="stroke:#191919;stroke-width:1.5;"/><text fill="#191919" font-family="sans-serif" font-size="13" lengthAdjust="spacing" textLength="230" x="584.125" y="157.3003">Pod in Pending until containers start</text><rect fill="#ADD8E6" height="33.9688" rx="3.5" ry="3.5" style="stroke:#4682B4;stroke-width:0.5;" width="71" x="497.125" y="135.8154"/><text fill="#000000" font-family="sans-serif" font-size="12" lengthAdjust="spacing" textLength="51" x="507.125" y="156.9541">Pending</text><polygon fill="#ADD8E6" points="487.625,202.9326,577.625,202.9326,589.625,214.9326,577.625,226.9326,487.625,226.9326,475.625,214.9326,487.625,202.9326" style="stroke:#4682B4;stroke-width:0.5;"/><text fill="#000000" font-family="sans-serif" font-size="11" lengthAdjust="spacing" textLength="90" x="487.625" y="218.7407">Bound to Node?</text><text fill="#000000" font-family="sans-serif" font-size="11" lengthAdjust="spacing" textLength="20" x="455.625" y="212.3384">yes</text><text fill="#000000" font-family="sans-serif" font-size="11" lengthAdjust="spacing" textLength="14" x="589.625" y="212.3384">no</text><path d="M364.25,241.3506 L364.25,249.917 L344.25,253.917 L364.25,257.917 L364.25,266.4834 A0,0 0 0 0 364.25,266.4834 L592.25,266.4834 A0,0 0 0 0 592.25,266.4834 L592.25,251.3506 L582.25,241.3506 L364.25,241.3506 A0,0 0 0 0 364.25,241.3506 " fill="#E5E5E5" style="stroke:#191919;stroke-width:1.5;"/><path d="M582.25,241.3506 L582.25,251.3506 L592.25,251.3506 L582.25,241.3506 " fill="#E5E5E5" style="stroke:#191919;stroke-width:1.5;"/><text fill="#191919" font-family="sans-serif" font-size="13" lengthAdjust="spacing" textLength="207" x="370.25" y="258.4175">At least one container is running</text><rect fill="#ADD8E6" height="33.9688" rx="3.5" ry="3.5" style="stroke:#4682B4;stroke-width:0.5;" width="71" x="273.25" y="236.9326"/><text fill="#000000" font-family="sans-serif" font-size="12" lengthAdjust="spacing" textLength="51" x="283.25" y="258.0713">Running</text><polygon fill="#ADD8E6" points="240.25,297.1982,377.25,297.1982,389.25,309.1982,377.25,321.1982,240.25,321.1982,228.25,309.1982,240.25,297.1982" style="stroke:#4682B4;stroke-width:0.5;"/><text fill="#000000" font-family="sans-serif" font-size="11" lengthAdjust="spacing" textLength="137" x="240.25" y="313.0063">All Containers Success?</text><text fill="#000000" font-family="sans-serif" font-size="11" lengthAdjust="spacing" textLength="20" x="208.25" y="306.604">yes</text><text fill="#000000" font-family="sans-serif" font-size="11" lengthAdjust="spacing" textLength="14" x="389.25" y="306.604">no</text><path d="M231,331.1982 L231,347.3311 L211,351.3311 L231,355.3311 L231,371.4639 A0,0 0 0 0 231,371.4639 L403,371.4639 A0,0 0 0 0 403,371.4639 L403,341.1982 L393,331.1982 L231,331.1982 A0,0 0 0 0 231,331.1982 " fill="#E5E5E5" style="stroke:#191919;stroke-width:1.5;"/><path d="M393,331.1982 L393,341.1982 L403,341.1982 L393,331.1982 " fill="#E5E5E5" style="stroke:#191919;stroke-width:1.5;"/><text fill="#191919" font-family="sans-serif" font-size="13" lengthAdjust="spacing" textLength="86" x="237" y="348.2651">All containers</text><text fill="#191919" font-family="sans-serif" font-size="13" lengthAdjust="spacing" textLength="151" x="237" y="363.3979">terminated successfully</text><rect fill="#ADD8E6" height="33.9688" rx="3.5" ry="3.5" style="stroke:#4682B4;stroke-width:0.5;" width="90" x="121" y="334.3467"/><text fill="#000000" font-family="sans-serif" font-size="12" lengthAdjust="spacing" textLength="70" x="131" y="355.4854">Succeeded</text><path d="M500,331.1982 L500,347.3311 L480,351.3311 L500,355.3311 L500,371.4639 A0,0 0 0 0 500,371.4639 L688,371.4639 A0,0 0 0 0 688,371.4639 L688,341.1982 L678,331.1982 L500,331.1982 A0,0 0 0 0 500,331.1982 " fill="#E5E5E5" style="stroke:#191919;stroke-width:1.5;"/><path d="M678,331.1982 L678,341.1982 L688,341.1982 L678,331.1982 " fill="#E5E5E5" style="stroke:#191919;stroke-width:1.5;"/><text fill="#191919" font-family="sans-serif" font-size="13" lengthAdjust="spacing" textLength="152" x="506" y="348.2651">One or more containers</text><text fill="#191919" font-family="sans-serif" font-size="13" lengthAdjust="spacing" textLength="167" x="506" y="363.3979">terminated unsuccessfully</text><rect fill="#ADD8E6" height="33.9688" rx="3.5" ry="3.5" style="stroke:#4682B4;stroke-width:0.5;" width="57" x="423" y="334.3467"/><text fill="#000000" font-family="sans-serif" font-size="12" lengthAdjust="spacing" textLength="37" x="433" y="355.4854">Failed</text><polygon fill="#ADD8E6" points="308.75,377.4639,320.75,389.4639,308.75,401.4639,296.75,389.4639,308.75,377.4639" style="stroke:#4682B4;stroke-width:0.5;"/><path d="M815,236.9326 L815,253.0654 L795,257.0654 L815,261.0654 L815,277.1982 A0,0 0 0 0 815,277.1982 L987,277.1982 A0,0 0 0 0 987,277.1982 L987,246.9326 L977,236.9326 L815,236.9326 A0,0 0 0 0 815,236.9326 " fill="#E5E5E5" style="stroke:#191919;stroke-width:1.5;"/><path d="M977,236.9326 L977,246.9326 L987,246.9326 L977,236.9326 " fill="#E5E5E5" style="stroke:#191919;stroke-width:1.5;"/><text fill="#191919" font-family="sans-serif" font-size="13" lengthAdjust="spacing" textLength="123" x="821" y="253.9995">State unknown due</text><text fill="#191919" font-family="sans-serif" font-size="13" lengthAdjust="spacing" textLength="151" x="821" y="269.1323">to communication error</text><rect fill="#ADD8E6" height="33.9688" rx="3.5" ry="3.5" style="stroke:#4682B4;stroke-width:0.5;" width="77" x="718" y="240.0811"/><text fill="#000000" font-family="sans-serif" font-size="12" lengthAdjust="spacing" textLength="57" x="728" y="261.2197">Unknown</text><polygon fill="#ADD8E6" points="532.625,407.4639,544.625,419.4639,532.625,431.4639,520.625,419.4639,532.625,407.4639" style="stroke:#4682B4;stroke-width:0.5;"/><ellipse cx="532.625" cy="462.4639" fill="none" rx="11" ry="11" style="stroke:#222222;stroke-width:1.0;"/><ellipse cx="532.625" cy="462.4639" fill="#222222" rx="6" ry="6" style="stroke:#222222;stroke-width:1.0;"/><line style="stroke:#000000;stroke-width:1.5;" x1="115" x2="115" y1="12.7451" y2="473.4639"/><line style="stroke:#000000;stroke-width:1.5;" x1="992" x2="992" y1="12.7451" y2="473.4639"/><line style="stroke:#191919;stroke-width:1.0;" x1="66" x2="66" y1="58.6982" y2="78.6982"/><polygon fill="#191919" points="62,68.6982,66,78.6982,70,68.6982,66,72.6982" style="stroke:#191919;stroke-width:1.0;"/><line style="stroke:#191919;stroke-width:1.0;" x1="228.25" x2="166" y1="309.1982" y2="309.1982"/><line style="stroke:#191919;stroke-width:1.0;" x1="166" x2="166" y1="309.1982" y2="334.3467"/><polygon fill="#191919" points="162,324.3467,166,334.3467,170,324.3467,166,328.3467" style="stroke:#191919;stroke-width:1.0;"/><line style="stroke:#191919;stroke-width:1.0;" x1="389.25" x2="451.5" y1="309.1982" y2="309.1982"/><line style="stroke:#191919;stroke-width:1.0;" x1="451.5" x2="451.5" y1="309.1982" y2="334.3467"/><polygon fill="#191919" points="447.5,324.3467,451.5,334.3467,455.5,324.3467,451.5,328.3467" style="stroke:#191919;stroke-width:1.0;"/><line style="stroke:#191919;stroke-width:1.0;" x1="166" x2="166" y1="368.3154" y2="389.4639"/><line style="stroke:#191919;stroke-width:1.0;" x1="166" x2="296.75" y1="389.4639" y2="389.4639"/><polygon fill="#191919" points="286.75,385.4639,296.75,389.4639,286.75,393.4639,290.75,389.4639" style="stroke:#191919;stroke-width:1.0;"/><line style="stroke:#191919;stroke-width:1.0;" x1="451.5" x2="451.5" y1="368.3154" y2="389.4639"/><line style="stroke:#191919;stroke-width:1.0;" x1="451.5" x2="320.75" y1="389.4639" y2="389.4639"/><polygon fill="#191919" points="330.75,385.4639,320.75,389.4639,330.75,393.4639,326.75,389.4639" style="stroke:#191919;stroke-width:1.0;"/><line style="stroke:#191919;stroke-width:1.0;" x1="308.75" x2="308.75" y1="270.9014" y2="297.1982"/><polygon fill="#191919" points="304.75,287.1982,308.75,297.1982,312.75,287.1982,308.75,291.1982" style="stroke:#191919;stroke-width:1.0;"/><line style="stroke:#191919;stroke-width:1.0;" x1="475.625" x2="308.75" y1="214.9326" y2="214.9326"/><line style="stroke:#191919;stroke-width:1.0;" x1="308.75" x2="308.75" y1="214.9326" y2="236.9326"/><polygon fill="#191919" points="304.75,226.9326,308.75,236.9326,312.75,226.9326,308.75,230.9326" style="stroke:#191919;stroke-width:1.0;"/><line style="stroke:#191919;stroke-width:1.0;" x1="589.625" x2="756.5" y1="214.9326" y2="214.9326"/><line style="stroke:#191919;stroke-width:1.0;" x1="756.5" x2="756.5" y1="214.9326" y2="240.0811"/><polygon fill="#191919" points="752.5,230.0811,756.5,240.0811,760.5,230.0811,756.5,234.0811" style="stroke:#191919;stroke-width:1.0;"/><line style="stroke:#191919;stroke-width:1.0;" x1="308.75" x2="308.75" y1="401.4639" y2="419.4639"/><line style="stroke:#191919;stroke-width:1.0;" x1="308.75" x2="520.625" y1="419.4639" y2="419.4639"/><polygon fill="#191919" points="510.625,415.4639,520.625,419.4639,510.625,423.4639,514.625,419.4639" style="stroke:#191919;stroke-width:1.0;"/><line style="stroke:#191919;stroke-width:1.0;" x1="756.5" x2="756.5" y1="274.0498" y2="419.4639"/><line style="stroke:#191919;stroke-width:1.0;" x1="756.5" x2="544.625" y1="419.4639" y2="419.4639"/><polygon fill="#191919" points="554.625,415.4639,544.625,419.4639,554.625,423.4639,550.625,419.4639" style="stroke:#191919;stroke-width:1.0;"/><line style="stroke:#191919;stroke-width:1.0;" x1="532.625" x2="532.625" y1="169.7842" y2="202.9326"/><polygon fill="#191919" points="528.625,192.9326,532.625,202.9326,536.625,192.9326,532.625,196.9326" style="stroke:#191919;stroke-width:1.0;"/><line style="stroke:#191919;stroke-width:1.0;" x1="532.625" x2="532.625" y1="431.4639" y2="451.4639"/><polygon fill="#191919" points="528.625,441.4639,532.625,451.4639,536.625,441.4639,532.625,445.4639" style="stroke:#191919;stroke-width:1.0;"/><line style="stroke:#191919;stroke-width:1.0;" x1="66" x2="66" y1="112.667" y2="117.667"/><line style="stroke:#191919;stroke-width:1.0;" x1="66" x2="532.625" y1="117.667" y2="117.667"/><line style="stroke:#191919;stroke-width:1.0;" x1="532.625" x2="532.625" y1="117.667" y2="135.8154"/><polygon fill="#191919" points="528.625,125.8154,532.625,135.8154,536.625,125.8154,532.625,129.8154" style="stroke:#191919;stroke-width:1.0;"/><text fill="#000000" font-family="sans-serif" font-size="18" lengthAdjust="spacing" textLength="41" x="44.5" y="29.4531">User</text><text fill="#000000" font-family="sans-serif" font-size="18" lengthAdjust="spacing" textLength="172" x="467.5" y="29.4531">Kubernetes System</text><!--SRC=[dL9DRnD13BtFhp3YabuueAggDWUKfAs4aA0YwetBTCURMfcn8yyCA2BzxtW_eDi8BipDVlPxp_QyAK-O49BNxFAU-E3L9_1jeUzKZl3JWRsrR_SxbSfX8r4KtgvkRgvlhqPCDA1E-Skhw_Vhoo6_BLxBbBuRtf2-_SCn9Pzdie5y4Wx_gVhitEaXevvSxhLTir7q1U5UmjAWJ_KHbR5WXkqn5qmdrzmZ1-BTqh5OeTBkgJHzFH33X47bGX5QuUA9KJECx4D7nCuQFZALUO5MXeuq5tZ4JXI_iIqP_E4GgVM5X6V5xvoZ3XRhVame0fybu8SBi0Q6nH7pXOtRVAtCWqs0kT5LCGFUP8JnXH9eSD0tM7rFleeHDY_sjhLjCUTp5TCP40mObaFyIYlETs0JeIPYMs-0FF9rDSQZzM7C20kMYVFEK_mRuHVpRCTBjfz_4LS-fxQBT6ukq3pmdkK7dw_6Vfy5TGGXrFu6OZefLVvz15GLTIEdVHav_080]--></g></svg>