<?xml version="1.0" encoding="us-ascii" standalone="no"?><svg xmlns="http://www.w3.org/2000/svg" xmlns:xlink="http://www.w3.org/1999/xlink" contentStyleType="text/css" height="1080.8639px" preserveAspectRatio="none" style="width:1344px;height:1080px;background:#F9F9F9;" version="1.1" viewBox="0 0 1344 1080" width="1344.8373px" zoomAndPan="magnify"><defs/><g><rect fill="#F9F9F9" height="1080.8639" style="stroke:none;stroke-width:1.1890692333496762;" width="1344.8373" x="0" y="0"/><rect fill="#DDDDDD" height="1022.5717" rx="4.1617" ry="4.1617" style="stroke:#181818;stroke-width:0.5945346166748381;" width="778.8403" x="116.5288" y="51.483"/><text fill="#000000" font-family="sans-serif" font-size="15.4579" font-weight="bold" lengthAdjust="spacing" textLength="160.5243" x="425.6868" y="65.8314">Local Environment</text><rect fill="#DDDDDD" height="1022.5717" rx="4.1617" ry="4.1617" style="stroke:#181818;stroke-width:0.5945346166748381;" width="202.1418" x="933.4193" y="51.483"/><text fill="#000000" font-family="sans-serif" font-size="15.4579" font-weight="bold" lengthAdjust="spacing" textLength="167.6588" x="947.6882" y="65.8314">Remote Repository</text><text fill="#000000" font-family="sans-serif" font-size="16.647" font-weight="bold" lengthAdjust="spacing" textLength="444.7119" x="448.2791" y="33.2881">Local Crossplane &#128187;DevTest Environment Setup&#129514;</text><rect fill="#F0F8FF" height="245.4499" rx="4.1617" ry="4.1617" style="stroke:#F0F8FF;stroke-width:1.1890692333496762;" width="993.4673" x="32.6994" y="230.5122"/><rect fill="#F0F8FF" height="195.9549" rx="4.1617" ry="4.1617" style="stroke:#F0F8FF;stroke-width:1.1890692333496762;" width="813.9179" x="32.6994" y="608.4226"/><rect fill="#F0F8FF" height="126.673" rx="4.1617" ry="4.1617" style="stroke:#F0F8FF;stroke-width:1.1890692333496762;" width="1293.1128" x="32.6994" y="877.0686"/><line style="stroke:#393939;stroke-width:0.5945346166748381;stroke-dasharray:5.0,5.0;" x1="51.7245" x2="51.7245" y1="164.9555" y2="1066.9202"/><line style="stroke:#393939;stroke-width:0.5945346166748381;stroke-dasharray:5.0,5.0;" x1="187.2784" x2="187.2784" y1="164.9555" y2="1066.9202"/><line style="stroke:#393939;stroke-width:0.5945346166748381;stroke-dasharray:5.0,5.0;" x1="324.6159" x2="324.6159" y1="262.775" y2="1066.9202"/><line style="stroke:#393939;stroke-width:0.5945346166748381;stroke-dasharray:5.0,5.0;" x1="439.9556" x2="439.9556" y1="299.9892" y2="1066.9202"/><line style="stroke:#393939;stroke-width:0.5945346166748381;stroke-dasharray:5.0,5.0;" x1="697.9836" x2="697.9836" y1="337.2033" y2="1066.9202"/><line style="stroke:#393939;stroke-width:0.5945346166748381;stroke-dasharray:5.0,5.0;" x1="827.5922" x2="827.5922" y1="164.9555" y2="1066.9202"/><line style="stroke:#393939;stroke-width:0.5945346166748381;stroke-dasharray:5.0,5.0;" x1="1034.4902" x2="1034.4902" y1="164.9555" y2="1066.9202"/><text fill="#191919" font-family="sans-serif" font-size="16.647" lengthAdjust="spacing" textLength="84.4239" x="5.9453" y="161.0295">Developer</text><ellipse cx="51.7245" cy="84.3403" fill="#191919" rx="9.5126" ry="9.5126" style="stroke:#191919;stroke-width:0.5945346166748381;"/><path d="M51.7245,93.8529 L51.7245,125.9577 M36.2666,103.3654 L67.1824,103.3654 M51.7245,125.9577 L36.2666,143.7938 M51.7245,125.9577 L67.1824,143.7938 " fill="none" style="stroke:#191919;stroke-width:0.5945346166748381;"/><rect fill="#E55756" height="36.0251" rx="4.1617" ry="4.1617" style="stroke:#191919;stroke-width:1.7836038500245142;" width="131.9867" x="121.2851" y="127.7413"/><text fill="#F9F9F9" font-family="sans-serif" font-size="16.647" lengthAdjust="spacing" textLength="115.3397" x="129.6085" y="151.5169">Local Machine</text><rect fill="#E55756" height="36.0251" rx="4.1617" ry="4.1617" style="stroke:#191919;stroke-width:1.7836038500245142;" width="126.0413" x="764.5715" y="127.7413"/><text fill="#F9F9F9" font-family="sans-serif" font-size="16.647" lengthAdjust="spacing" textLength="109.3944" x="772.895" y="151.5169">ArgoCD Apps</text><text fill="#191919" font-family="sans-serif" font-size="16.647" lengthAdjust="spacing" textLength="104.6381" x="978.604" y="161.0295">GitHub Repo</text><path d="M1013.087,102.7709 C1013.087,90.8802 1034.4902,90.8802 1034.4902,90.8802 C1034.4902,90.8802 1055.8935,90.8802 1055.8935,102.7709 L1055.8935,133.6867 C1055.8935,145.5774 1034.4902,145.5774 1034.4902,145.5774 C1034.4902,145.5774 1013.087,145.5774 1013.087,133.6867 L1013.087,102.7709 " fill="#A4DBD8" style="stroke:#191919;stroke-width:1.7836038500245142;"/><path d="M1013.087,102.7709 C1013.087,114.6616 1034.4902,114.6616 1034.4902,114.6616 C1034.4902,114.6616 1055.8935,114.6616 1055.8935,102.7709 " fill="none" style="stroke:#191919;stroke-width:1.7836038500245142;"/><rect fill="#EEEEEE" height="3.5672" rx="4.1617" ry="4.1617" style="stroke:#EEEEEE;stroke-width:1.1890692333496762;" width="1330.5685" x="5.9453" y="198.9229"/><line style="stroke:#191919;stroke-width:0.5945346166748381;" x1="5.9453" x2="1336.5138" y1="198.9229" y2="198.9229"/><line style="stroke:#191919;stroke-width:0.5945346166748381;" x1="5.9453" x2="1336.5138" y1="202.4901" y2="202.4901"/><rect fill="#EEEEEE" height="27.5065" rx="4.1617" ry="4.1617" style="stroke:#191919;stroke-width:1.1890692333496762;" width="199.7636" x="571.3478" y="186.3587"/><text fill="#191919" font-family="sans-serif" font-size="15.4579" font-weight="bold" lengthAdjust="spacing" textLength="177.1713" x="578.4822" y="205.4634">Infrastructure Setup</text><path d="M36.8611,230.5122 L253.8663,230.5122 L253.8663,238.9936 L241.9756,250.8843 L32.6994,250.8843 L32.6994,234.674 A4.1617,4.1617 0 0 1 36.8611,230.5122 " fill="#EEEEEE" style="stroke:#393939;stroke-width:1.7836038500245142;"/><rect fill="none" height="245.4499" rx="4.1617" ry="4.1617" style="stroke:#393939;stroke-width:1.1890692333496762;" width="993.4673" x="32.6994" y="230.5122"/><text fill="#191919" font-family="sans-serif" font-size="15.4579" font-weight="bold" lengthAdjust="spacing" textLength="167.6588" x="50.5354" y="246.0497">KIND Cluster Setup</text><rect fill="#E55756" height="36.0251" rx="4.1617" ry="4.1617" style="stroke:#191919;stroke-width:1.7836038500245142;" width="118.9069" x="265.1624" y="262.775"/><text fill="#F9F9F9" font-family="sans-serif" font-size="16.647" lengthAdjust="spacing" textLength="102.26" x="273.4859" y="286.5506">KIND Cluster</text><polygon fill="#191919" points="250.8936,283.1471,262.7843,287.9034,250.8936,292.6597,255.6499,287.9034" style="stroke:#191919;stroke-width:1.1890692333496762;"/><line style="stroke:#191919;stroke-width:1.1890692333496762;" x1="51.7245" x2="258.028" y1="287.9034" y2="287.9034"/><text fill="#000000" font-family="sans-serif" font-size="15.4579" lengthAdjust="spacing" textLength="148.6337" x="84.1266" y="281.8797">Create KIND cluster</text><rect fill="#E55756" height="36.0251" rx="4.1617" ry="4.1617" style="stroke:#191919;stroke-width:1.7836038500245142;" width="79.6676" x="400.1218" y="299.9892"/><text fill="#F9F9F9" font-family="sans-serif" font-size="16.647" lengthAdjust="spacing" textLength="63.0207" x="408.4453" y="323.7647">ArgoCD</text><polygon fill="#191919" points="385.853,320.3613,397.7437,325.1175,385.853,329.8738,390.6092,325.1175" style="stroke:#191919;stroke-width:1.1890692333496762;"/><line style="stroke:#191919;stroke-width:1.1890692333496762;" x1="187.2784" x2="392.9874" y1="325.1175" y2="325.1175"/><text fill="#000000" font-family="sans-serif" font-size="15.4579" lengthAdjust="spacing" textLength="184.3057" x="201.5472" y="319.0938">Install ArgoCD using just</text><rect fill="#E55756" height="36.0251" rx="4.1617" ry="4.1617" style="stroke:#191919;stroke-width:1.7836038500245142;" width="109.3944" x="643.2865" y="337.2033"/><text fill="#F9F9F9" font-family="sans-serif" font-size="16.647" lengthAdjust="spacing" textLength="92.7474" x="651.6099" y="360.9789">Crossplane</text><polygon fill="#191919" points="629.0176,357.5754,640.9083,362.3317,629.0176,367.088,633.7739,362.3317" style="stroke:#191919;stroke-width:1.1890692333496762;"/><line style="stroke:#191919;stroke-width:1.1890692333496762;" x1="187.2784" x2="636.152" y1="362.3317" y2="362.3317"/><text fill="#000000" font-family="sans-serif" font-size="15.4579" lengthAdjust="spacing" textLength="210.4653" x="310.0498" y="356.308">Install Crossplane using just</text><path d="M703.929,384.5246 L703.929,405.9278 A4.1617,4.1617 0 0 0 708.0907,410.0895 L997.0346,410.0895 A4.1617,4.1617 0 0 0 1001.1963,405.9278 L1001.1963,392.2535 L989.3056,380.3628 L708.0907,380.3628 A4.1617,4.1617 0 0 0 703.929,384.5246 " fill="#E5E5E5" style="stroke:#191919;stroke-width:1.7836038500245142;"/><path d="M989.3056,380.3628 L989.3056,390.1726 A2.0809,2.0809 0 0 0 991.3865,392.2535 L1001.1963,392.2535 L989.3056,380.3628 " fill="#E5E5E5" style="stroke:#191919;stroke-width:1.7836038500245142;"/><text fill="#191919" font-family="sans-serif" font-size="15.4579" lengthAdjust="spacing" textLength="272.2969" x="711.0634" y="400.6565">Iterative compositions development</text><path d="M445.901,426.2999 L445.901,465.5392 A4.1617,4.1617 0 0 0 450.0627,469.7009 L706.9017,469.7009 A4.1617,4.1617 0 0 0 711.0634,465.5392 L711.0634,434.0288 L699.1727,422.1382 L450.0627,422.1382 A4.1617,4.1617 0 0 0 445.901,426.2999 " fill="#E5E5E5" style="stroke:#191919;stroke-width:1.7836038500245142;"/><path d="M699.1727,422.1382 L699.1727,431.948 A2.0809,2.0809 0 0 0 701.2536,434.0288 L711.0634,434.0288 L699.1727,422.1382 " fill="#E5E5E5" style="stroke:#191919;stroke-width:1.7836038500245142;"/><text fill="#191919" font-family="sans-serif" font-size="15.4579" lengthAdjust="spacing" textLength="240.192" x="453.0354" y="442.4319">ArgoCD observes local changes</text><text fill="#191919" font-family="sans-serif" font-size="15.4579" lengthAdjust="spacing" textLength="202.1418" x="453.0354" y="460.4258">for immediate deployment</text><rect fill="#EEEEEE" height="3.5672" rx="4.1617" ry="4.1617" style="stroke:#EEEEEE;stroke-width:1.1890692333496762;" width="1330.5685" x="5.9453" y="517.064"/><line style="stroke:#191919;stroke-width:0.5945346166748381;" x1="5.9453" x2="1336.5138" y1="517.064" y2="517.064"/><line style="stroke:#191919;stroke-width:0.5945346166748381;" x1="5.9453" x2="1336.5138" y1="520.6312" y2="520.6312"/><rect fill="#EEEEEE" height="27.5065" rx="4.1617" ry="4.1617" style="stroke:#191919;stroke-width:1.1890692333496762;" width="217.5997" x="562.4297" y="504.4998"/><text fill="#191919" font-family="sans-serif" font-size="15.4579" font-weight="bold" lengthAdjust="spacing" textLength="195.0074" x="569.5642" y="523.6044">Iterative Development</text><path d="M706.9017,554.0041 L706.9017,593.2434 A4.1617,4.1617 0 0 0 711.0634,597.4051 L944.121,597.4051 A4.1617,4.1617 0 0 0 948.2827,593.2434 L948.2827,561.733 L936.392,549.8423 L711.0634,549.8423 A4.1617,4.1617 0 0 0 706.9017,554.0041 " fill="#E5E5E5" style="stroke:#191919;stroke-width:1.7836038500245142;"/><path d="M936.392,549.8423 L936.392,559.6522 A2.0809,2.0809 0 0 0 938.4729,561.733 L948.2827,561.733 L936.392,549.8423 " fill="#E5E5E5" style="stroke:#191919;stroke-width:1.7836038500245142;"/><text fill="#191919" font-family="sans-serif" font-size="15.4579" lengthAdjust="spacing" textLength="212.8434" x="714.0361" y="570.1361">Local YAML changes applied</text><text fill="#191919" font-family="sans-serif" font-size="15.4579" lengthAdjust="spacing" textLength="216.4106" x="714.0361" y="588.13">directly without remote push</text><path d="M36.8611,608.4226 L296.6728,608.4226 L296.6728,616.904 L284.7821,628.7947 L32.6994,628.7947 L32.6994,612.5843 A4.1617,4.1617 0 0 1 36.8611,608.4226 " fill="#EEEEEE" style="stroke:#393939;stroke-width:1.7836038500245142;"/><rect fill="none" height="195.9549" rx="4.1617" ry="4.1617" style="stroke:#393939;stroke-width:1.1890692333496762;" width="813.9179" x="32.6994" y="608.4226"/><text fill="#191919" font-family="sans-serif" font-size="15.4579" font-weight="bold" lengthAdjust="spacing" textLength="210.4653" x="50.5354" y="623.96">Applying Local Changes</text><polygon fill="#191919" points="813.3234,661.0575,825.214,665.8137,813.3234,670.57,818.0796,665.8137" style="stroke:#191919;stroke-width:1.1890692333496762;"/><line style="stroke:#191919;stroke-width:1.1890692333496762;" x1="51.7245" x2="820.4578" y1="665.8137" y2="665.8137"/><text fill="#000000" font-family="sans-serif" font-size="15.4579" lengthAdjust="spacing" textLength="260.4062" x="309.4553" y="659.79">Add/Modify ArgoCD App YAML files</text><polygon fill="#191919" points="425.6868,695.6984,437.5775,700.4547,425.6868,705.211,430.4431,700.4547" style="stroke:#191919;stroke-width:1.1890692333496762;"/><line style="stroke:#191919;stroke-width:1.1890692333496762;" x1="51.7245" x2="432.8212" y1="700.4547" y2="700.4547"/><text fill="#000000" font-family="sans-serif" font-size="15.4579" lengthAdjust="spacing" textLength="306.7799" x="92.4501" y="694.4309">Apply Local ArgoCD App Files via kubectl</text><polygon fill="#0000FF" points="683.7148,730.3393,695.6055,735.0956,683.7148,739.8519,688.4711,735.0956" style="stroke:#0000FF;stroke-width:1.1890692333496762;"/><line style="stroke:#0000FF;stroke-width:1.1890692333496762;stroke-dasharray:2.0,2.0;" x1="439.9556" x2="690.8492" y1="735.0956" y2="735.0956"/><text fill="#000000" font-family="sans-serif" font-size="15.4579" lengthAdjust="spacing" textLength="229.4904" x="454.2244" y="729.0719">Manage Crossplane resources</text><path d="M336.5066,754.7152 L336.5066,793.9545 A4.1617,4.1617 0 0 0 340.6683,798.1163 L687.8766,798.1163 A4.1617,4.1617 0 0 0 692.0383,793.9545 L692.0383,762.4442 L680.1476,750.5535 L340.6683,750.5535 A4.1617,4.1617 0 0 0 336.5066,754.7152 " fill="#E5E5E5" style="stroke:#191919;stroke-width:1.7836038500245142;"/><path d="M680.1476,750.5535 L680.1476,760.3633 A2.0809,2.0809 0 0 0 682.2285,762.4442 L692.0383,762.4442 L680.1476,750.5535 " fill="#E5E5E5" style="stroke:#191919;stroke-width:1.7836038500245142;"/><text fill="#191919" font-family="sans-serif" font-size="15.4579" lengthAdjust="spacing" textLength="210.4653" x="343.641" y="770.8472">Apply Crossplane resources</text><text fill="#191919" font-family="sans-serif" font-size="15.4579" lengthAdjust="spacing" textLength="330.5612" x="343.641" y="788.8412">as YAML or create new ArgoCD Applicaitons</text><rect fill="#EEEEEE" height="3.5672" rx="4.1617" ry="4.1617" style="stroke:#EEEEEE;stroke-width:1.1890692333496762;" width="1330.5685" x="5.9453" y="845.4793"/><line style="stroke:#191919;stroke-width:0.5945346166748381;" x1="5.9453" x2="1336.5138" y1="845.4793" y2="845.4793"/><line style="stroke:#191919;stroke-width:0.5945346166748381;" x1="5.9453" x2="1336.5138" y1="849.0465" y2="849.0465"/><rect fill="#EEEEEE" height="27.5065" rx="4.1617" ry="4.1617" style="stroke:#191919;stroke-width:1.1890692333496762;" width="212.8434" x="564.8079" y="832.9151"/><text fill="#191919" font-family="sans-serif" font-size="15.4579" font-weight="bold" lengthAdjust="spacing" textLength="190.2511" x="571.9423" y="852.0198">Remote Collaboration</text><path d="M36.8611,877.0686 L276.4586,877.0686 L276.4586,885.55 L264.5679,897.4407 L32.6994,897.4407 L32.6994,881.2304 A4.1617,4.1617 0 0 1 36.8611,877.0686 " fill="#EEEEEE" style="stroke:#393939;stroke-width:1.7836038500245142;"/><rect fill="none" height="126.673" rx="4.1617" ry="4.1617" style="stroke:#393939;stroke-width:1.1890692333496762;" width="1293.1128" x="32.6994" y="877.0686"/><text fill="#191919" font-family="sans-serif" font-size="15.4579" font-weight="bold" lengthAdjust="spacing" textLength="190.2511" x="50.5354" y="892.6061">Remote Collaboration</text><polygon fill="#191919" points="1020.2214,929.7035,1032.1121,934.4598,1020.2214,939.2161,1024.9777,934.4598" style="stroke:#191919;stroke-width:1.1890692333496762;"/><line style="stroke:#191919;stroke-width:1.1890692333496762;" x1="51.7245" x2="1027.3558" y1="934.4598" y2="934.4598"/><text fill="#000000" font-family="sans-serif" font-size="15.4579" lengthAdjust="spacing" textLength="278.2422" x="403.9863" y="928.4361">[Optionally] Push changes to remote</text><path d="M1040.4356,954.0794 L1040.4356,993.3187 A4.1617,4.1617 0 0 0 1044.5973,997.4805 L1296.68,997.4805 A4.1617,4.1617 0 0 0 1300.8417,993.3187 L1300.8417,961.8084 L1288.951,949.9177 L1044.5973,949.9177 A4.1617,4.1617 0 0 0 1040.4356,954.0794 " fill="#E5E5E5" style="stroke:#191919;stroke-width:1.7836038500245142;"/><path d="M1288.951,949.9177 L1288.951,959.7275 A2.0809,2.0809 0 0 0 1291.0319,961.8084 L1300.8417,961.8084 L1288.951,949.9177 " fill="#E5E5E5" style="stroke:#191919;stroke-width:1.7836038500245142;"/><text fill="#191919" font-family="sans-serif" font-size="15.4579" lengthAdjust="spacing" textLength="235.4357" x="1047.57" y="970.2114">Repo primarily for collaboration</text><text fill="#191919" font-family="sans-serif" font-size="15.4579" lengthAdjust="spacing" textLength="143.8774" x="1047.57" y="988.2054">and work recording</text><ellipse cx="1033.8957" cy="1044.6252" fill="none" rx="4.7563" ry="4.7563" style="stroke:#191919;stroke-width:1.7836038500245142;"/><polygon fill="#191919" points="1054.1099,1040.7607,1042.2192,1045.517,1054.1099,1050.2733,1049.3536,1045.517" style="stroke:#191919;stroke-width:1.1890692333496762;"/><line style="stroke:#191919;stroke-width:1.1890692333496762;" x1="1051.7317" x2="1335.3247" y1="1045.517" y2="1045.517"/><text fill="#000000" font-family="sans-serif" font-size="15.4579" lengthAdjust="spacing" textLength="267.5406" x="1051.7317" y="1039.4933">Collaboration with other developers</text><!--SRC=[RLH1SXen4Bph5HDyTWNdvAIAL648ZYlWKBOlATi7eHr0GQjH92s6F2CVy35L-K8-vITaf5rWgPZ3ihjITyzqp-gDyt9HIeX8Fo7w2iMRkCGIePG-YAKk4EP4SKOR8OAI1k7i_RlkvgnxtXLXfQsJNfPGu5nM9jxX9lQDNjWIRGJ55_IjNTSKyNYBmNbiRRZ57nLQXPUUAdT1nVP2gjM27smn84CUJaRTqVber89Sq6OgYqBR1PnrXOWwSebZuafXu2a4PwH5U7d-zNU8wpiC4JxPjVPKwzzYhDpBy-y_GaWLMO0teI677cJWhjQ26uTEpTS2TWIhHwsqaypIh4-aMcgBdGGTJuJezU3AphqCRAkAbSTQ3dez8L9J3hvSNGzXOAh0FjMB0a1vb16XqrxCdEa5hwSVLmQd7sly1suq8_AJgW4jdhvVq62O6UfRNXjF4hn-P88h6w8qPlUY2idExqpKeZcucQa6qwQKccemRT6qZ3-YIZ_BCm1UBvOHQDx0k5uPzHf1KUaewAZ9PlTJ5CdkLx7xwfiRcWNqQmnWSXfgAUq2muETSwowBB7GgOy2dQ5j9aLRv8psyiE3OWhfAE96fEzSg0DE8kb9vAfepGdktt5HzKXywq_6kqf0EcSq5W-sq1vLD5juqd59LGIFPI9nLLZkHYCfcMqohndccaIqqc_BzOlYxOGAFT_2eT9QVgxDCUvWN99e-5keKGB0MajOLRDKQ0Ot6qxlJsQcmiTTvXDfvGBRaNiCL7dLQ6PtqcU-ZxjMVGtmODdON3D7rioTnQTMRKOhgIDFHmulNI2TJFaZlQbDlC4yGkItq4dnDg_v_31oHYbfiYdTGaOvau4d-rB7pzKi0tEqwMQNmclejfTfB_Tq_zMb5Hx-xIDCESPzw96QTCN_4zo0yv_pcazSpSwaULLjFRQ5-tmYls8gHJuTThd_NViS1kt8ZljC0mR41xhVVKxempy0]--></g></svg>