<?xml version="1.0" encoding="us-ascii" standalone="no"?><svg xmlns="http://www.w3.org/2000/svg" xmlns:xlink="http://www.w3.org/1999/xlink" contentStyleType="text/css" height="745.2488px" preserveAspectRatio="none" style="width:1920px;height:745px;background:#F9F9F9;" version="1.1" viewBox="0 0 1920 745" width="1920.7292px" zoomAndPan="magnify"><defs/><g><rect fill="#F9F9F9" height="745.2488" style="stroke:none;stroke-width:1.4584124572730726;" width="1920.7292" x="0" y="0"/><rect fill="#DDDDDD" height="674.06" rx="5.1044" ry="5.1044" style="stroke:#181818;stroke-width:0.7292062286365363;" width="522.1117" x="400.3342" y="63.1447"/><text fill="#000000" font-family="sans-serif" font-size="18.9594" font-weight="bold" lengthAdjust="spacing" textLength="7.2921" x="657.744" y="80.7432">&#160;</text><text fill="#000000" font-family="sans-serif" font-size="18.9594" font-weight="bold" lengthAdjust="spacing" textLength="151.6749" x="585.5526" y="102.8131">Local Machine</text><rect fill="#DDDDDD" height="674.06" rx="5.1044" ry="5.1044" style="stroke:#181818;stroke-width:0.7292062286365363;" width="542.5294" x="1066.8287" y="63.1447"/><text fill="#000000" font-family="sans-serif" font-size="18.9594" font-weight="bold" lengthAdjust="spacing" textLength="7.2921" x="1334.4474" y="80.7432">&#160;</text><text fill="#000000" font-family="sans-serif" font-size="18.9594" font-weight="bold" lengthAdjust="spacing" textLength="207.0946" x="1234.5461" y="102.8131">Kubernetes Cluster</text><text fill="#000000" font-family="sans-serif" font-size="20.4178" font-weight="bold" lengthAdjust="spacing" textLength="224.5955" x="849.8899" y="40.8284">How mirrord Works</text><line style="stroke:#393939;stroke-width:0.7292062286365363;stroke-dasharray:5.0,5.0;" x1="63.4409" x2="63.4409" y1="224.3904" y2="728.4542"/><line style="stroke:#393939;stroke-width:0.7292062286365363;stroke-dasharray:5.0,5.0;" x1="465.9628" x2="465.9628" y1="224.3904" y2="728.4542"/><line style="stroke:#393939;stroke-width:0.7292062286365363;stroke-dasharray:5.0,5.0;" x1="843.6916" x2="843.6916" y1="224.3904" y2="728.4542"/><line style="stroke:#393939;stroke-width:0.7292062286365363;stroke-dasharray:5.0,5.0;" x1="1141.2077" x2="1141.2077" y1="224.3904" y2="728.4542"/><line style="stroke:#393939;stroke-width:0.7292062286365363;stroke-dasharray:5.0,5.0;" x1="1481.0179" x2="1481.0179" y1="447.0376" y2="728.4542"/><rect fill="#FFFFFF" height="224.3449" style="stroke:#393939;stroke-width:1.4584124572730726;" width="14.5841" x="1473.7258" y="477.858"/><line style="stroke:#393939;stroke-width:2.916824914546145;" x1="1467.8921" x2="1494.1436" y1="689.0771" y2="715.3285"/><line style="stroke:#393939;stroke-width:2.916824914546145;" x1="1467.8921" x2="1494.1436" y1="715.3285" y2="689.0771"/><text fill="#191919" font-family="sans-serif" font-size="20.4178" lengthAdjust="spacing" textLength="103.5473" x="7.2921" y="219.5751">Developer</text><ellipse cx="63.4409" cy="125.5146" fill="#191919" rx="11.6673" ry="11.6673" style="stroke:#191919;stroke-width:0.7292062286365363;"/><path d="M63.4409,137.1819 L63.4409,176.5591 M44.4816,148.8492 L82.4003,148.8492 M63.4409,176.5591 L44.4816,198.4352 M63.4409,176.5591 L82.4003,198.4352 " fill="none" style="stroke:#191919;stroke-width:0.7292062286365363;"/><rect fill="#E55756" height="44.1853" rx="5.1044" ry="5.1044" style="stroke:#191919;stroke-width:2.1876186859096087;" width="119.5898" x="406.1679" y="178.7467"/><text fill="#F9F9F9" font-family="sans-serif" font-size="20.4178" lengthAdjust="spacing" textLength="99.172" x="416.3768" y="207.9078">mirrord-cli</text><rect fill="#E55756" height="44.1853" rx="5.1044" ry="5.1044" style="stroke:#191919;stroke-width:2.1876186859096087;" width="145.8412" x="770.771" y="178.7467"/><text fill="#F9F9F9" font-family="sans-serif" font-size="20.4178" lengthAdjust="spacing" textLength="125.4235" x="780.9799" y="207.9078">mirrord-layer</text><rect fill="#E55756" height="44.1853" rx="5.1044" ry="5.1044" style="stroke:#191919;stroke-width:2.1876186859096087;" width="137.0908" x="1072.6624" y="178.7467"/><text fill="#F9F9F9" font-family="sans-serif" font-size="20.4178" lengthAdjust="spacing" textLength="116.673" x="1082.8712" y="207.9078">original pod</text><polygon fill="#191919" points="448.4618,283.1143,463.046,288.948,448.4618,294.7816,454.2955,288.948" style="stroke:#191919;stroke-width:1.4584124572730726;"/><line style="stroke:#191919;stroke-width:1.4584124572730726;" x1="63.4409" x2="457.2123" y1="288.948" y2="288.948"/><text fill="#000000" font-family="sans-serif" font-size="18.9594" font-weight="bold" lengthAdjust="spacing" textLength="13.1257" x="80.9419" y="270.5248">1</text><text fill="#000000" font-family="sans-serif" font-size="18.9594" lengthAdjust="spacing" textLength="348.5606" x="99.9013" y="259.4899">Uses mirrord-cli to execute a process</text><text fill="#000000" font-family="sans-serif" font-size="18.9594" lengthAdjust="spacing" textLength="172.0927" x="191.052" y="281.5598">(e.g., Node.js app)</text><polygon fill="#191919" points="826.1907,325.602,840.7748,331.4356,826.1907,337.2693,832.0243,331.4356" style="stroke:#191919;stroke-width:1.4584124572730726;"/><line style="stroke:#191919;stroke-width:1.4584124572730726;" x1="465.9628" x2="834.9411" y1="331.4356" y2="331.4356"/><text fill="#000000" font-family="sans-serif" font-size="18.9594" font-weight="bold" lengthAdjust="spacing" textLength="13.1257" x="483.4637" y="324.0474">2</text><text fill="#000000" font-family="sans-serif" font-size="18.9594" lengthAdjust="spacing" textLength="323.7676" x="502.4231" y="324.0474">Talks to mirrord-layer library locally</text><line style="stroke:#191919;stroke-width:1.4584124572730726;" x1="843.6916" x2="904.9449" y1="373.9233" y2="373.9233"/><line style="stroke:#191919;stroke-width:1.4584124572730726;" x1="904.9449" x2="904.9449" y1="373.9233" y2="392.8826"/><line style="stroke:#191919;stroke-width:1.4584124572730726;" x1="845.15" x2="904.9449" y1="392.8826" y2="392.8826"/><polygon fill="#191919" points="859.7341,387.049,845.15,392.8826,859.7341,398.7163,853.9005,392.8826" style="stroke:#191919;stroke-width:1.4584124572730726;"/><text fill="#000000" font-family="sans-serif" font-size="18.9594" font-weight="bold" lengthAdjust="spacing" textLength="13.1257" x="853.9005" y="366.5351">3</text><text fill="#000000" font-family="sans-serif" font-size="18.9594" lengthAdjust="spacing" textLength="258.139" x="872.8599" y="366.5351">Uses existing kubectl config</text><polygon fill="#191919" points="1123.7068,429.5367,1138.2909,435.3703,1123.7068,441.2039,1129.5404,435.3703" style="stroke:#191919;stroke-width:1.4584124572730726;"/><line style="stroke:#191919;stroke-width:1.4584124572730726;" x1="843.6916" x2="1132.4573" y1="435.3703" y2="435.3703"/><text fill="#000000" font-family="sans-serif" font-size="18.9594" font-weight="bold" lengthAdjust="spacing" textLength="13.1257" x="875.0475" y="427.9821">4</text><text fill="#000000" font-family="sans-serif" font-size="18.9594" lengthAdjust="spacing" textLength="215.845" x="894.0068" y="427.9821">Finds pod in the cluster</text><rect fill="#E55756" height="44.1853" rx="5.1044" ry="5.1044" style="stroke:#191919;stroke-width:2.1876186859096087;" width="245.0133" x="1351.2191" y="447.0376"/><text fill="#F9F9F9" font-family="sans-serif" font-size="20.4178" lengthAdjust="spacing" textLength="224.5955" x="1361.428" y="476.1987">temporary mirrord pod</text><polygon fill="#191919" points="1333.7182,472.0243,1348.3023,477.858,1333.7182,483.6916,1339.5518,477.858" style="stroke:#191919;stroke-width:1.4584124572730726;"/><line style="stroke:#191919;stroke-width:1.4584124572730726;" x1="843.6916" x2="1342.4687" y1="477.858" y2="477.858"/><text fill="#000000" font-family="sans-serif" font-size="18.9594" font-weight="bold" lengthAdjust="spacing" textLength="13.1257" x="988.8036" y="470.4698">5</text><text fill="#000000" font-family="sans-serif" font-size="18.9594" lengthAdjust="spacing" textLength="198.3441" x="1007.763" y="470.4698">Initiate mirrord-agent</text><polygon fill="#191919" points="1157.2503,517.6681,1142.6662,523.5017,1157.2503,529.3354,1151.4166,523.5017" style="stroke:#191919;stroke-width:1.4584124572730726;"/><line style="stroke:#191919;stroke-width:1.4584124572730726;" x1="1148.4998" x2="1472.2674" y1="523.5017" y2="523.5017"/><text fill="#000000" font-family="sans-serif" font-size="18.9594" font-weight="bold" lengthAdjust="spacing" textLength="13.1257" x="1158.7087" y="516.1135">6</text><text fill="#000000" font-family="sans-serif" font-size="18.9594" lengthAdjust="spacing" textLength="278.5568" x="1177.6681" y="516.1135">Mirror traffic from Original Pod</text><polygon fill="#191919" points="859.7341,560.1557,845.15,565.9894,859.7341,571.823,853.9005,565.9894" style="stroke:#191919;stroke-width:1.4584124572730726;"/><line style="stroke:#191919;stroke-width:1.4584124572730726;" x1="850.9837" x2="1472.2674" y1="565.9894" y2="565.9894"/><text fill="#000000" font-family="sans-serif" font-size="18.9594" font-weight="bold" lengthAdjust="spacing" textLength="13.1257" x="972.7611" y="558.6012">7</text><text fill="#000000" font-family="sans-serif" font-size="18.9594" lengthAdjust="spacing" textLength="352.9358" x="991.7205" y="558.6012">Send mirrored traffic to mirrord-agent</text><path d="M1495.602,590.0532 L1495.602,616.3046 A5.1044,5.1044 0 0 0 1500.7064,621.409 L1906.1451,621.409 A5.1044,5.1044 0 0 0 1911.2495,616.3046 L1911.2495,599.5329 L1896.6654,584.9487 L1500.7064,584.9487 A5.1044,5.1044 0 0 0 1495.602,590.0532 " fill="#E5E5E5" style="stroke:#191919;stroke-width:2.1876186859096087;"/><path d="M1896.6654,584.9487 L1896.6654,596.9806 A2.5522,2.5522 0 0 0 1899.2176,599.5329 L1911.2495,599.5329 L1896.6654,584.9487 " fill="#E5E5E5" style="stroke:#191919;stroke-width:2.1876186859096087;"/><text fill="#191919" font-family="sans-serif" font-size="18.9594" lengthAdjust="spacing" textLength="385.0209" x="1504.3524" y="609.8393">Relay traffic, file operations, env variables</text><polygon fill="#191919" points="482.0053,653.8815,467.4212,659.7152,482.0053,665.5488,476.1717,659.7152" style="stroke:#191919;stroke-width:1.4584124572730726;"/><line style="stroke:#191919;stroke-width:1.4584124572730726;stroke-dasharray:2.0,2.0;" x1="473.2548" x2="1472.2674" y1="659.7152" y2="659.7152"/><text fill="#000000" font-family="sans-serif" font-size="18.9594" font-weight="bold" lengthAdjust="spacing" textLength="13.1257" x="885.9856" y="652.327">8</text><text fill="#000000" font-family="sans-serif" font-size="18.9594" lengthAdjust="spacing" textLength="148.7581" x="904.9449" y="652.327">return response</text><polygon fill="#191919" points="79.4835,653.8815,64.8994,659.7152,79.4835,665.5488,73.6498,659.7152" style="stroke:#191919;stroke-width:1.4584124572730726;"/><line style="stroke:#191919;stroke-width:1.4584124572730726;stroke-dasharray:2.0,2.0;" x1="70.733" x2="464.5044" y1="659.7152" y2="659.7152"/><text fill="#000000" font-family="sans-serif" font-size="18.9594" font-weight="bold" lengthAdjust="spacing" textLength="13.1257" x="252.3054" y="652.327">9</text><text fill="#000000" font-family="sans-serif" font-size="18.9594" lengthAdjust="spacing" textLength="5.8336" x="271.2647" y="652.327">&#160;</text><polygon fill="#191919" points="448.4618,696.3692,463.046,702.2028,448.4618,708.0365,454.2955,702.2028" style="stroke:#191919;stroke-width:1.4584124572730726;"/><line style="stroke:#191919;stroke-width:1.4584124572730726;" x1="63.4409" x2="457.2123" y1="702.2028" y2="702.2028"/><text fill="#000000" font-family="sans-serif" font-size="18.9594" font-weight="bold" lengthAdjust="spacing" textLength="26.2514" x="191.7812" y="694.8146">10</text><text fill="#000000" font-family="sans-serif" font-size="18.9594" lengthAdjust="spacing" textLength="113.7562" x="223.8663" y="694.8146">quit process</text><polygon fill="#191919" points="1456.2248,696.3692,1470.809,702.2028,1456.2248,708.0365,1462.0585,702.2028" style="stroke:#191919;stroke-width:1.4584124572730726;"/><line style="stroke:#191919;stroke-width:1.4584124572730726;" x1="465.9628" x2="1464.9753" y1="702.2028" y2="702.2028"/><text fill="#000000" font-family="sans-serif" font-size="18.9594" font-weight="bold" lengthAdjust="spacing" textLength="26.2514" x="845.8792" y="694.8146">11</text><text fill="#000000" font-family="sans-serif" font-size="18.9594" lengthAdjust="spacing" textLength="215.845" x="877.9643" y="694.8146">remove temporary pod</text><!--SRC=[TLDDZzD03BtFh_3sW43gLYqdu834Xn085bQmYCjUtCH9JIVZCEDqMtuzdcdJZvMuDCtCUy_lsSvL7x7j49JaBsWSo5tfYZg23cDoAwu96X5TojRXe1A6RadHkLIX9rYyV3xVBkOlvYwjEVGOiOEQ6Xoytj5MttXkGqT1eR8VevrGNqNf4kAfqJD0Mc4j3nnQQD0dEhjvAzjRhEjyjPWxfwpcvACyGCSnIgpXbyHrSWuhbGZlQKDUUeg0oRnjd2M1oNtu8fO0Rh1QSQ09E01JLwwuHpCpEMXTLvudcMdF_q4yxYWMKFddADIGspLM-ZnOnm8f9NZdXwGP_5XB8hSSp50lTP7A1xTIFyOfTRr4ZBjZs960hJNnLDkImlNhR1jUmSzajSyIWGhGbgf12H3wA1MbT1_WAStQsTHcKzFijqds_JENuIPKefdK7VfroloBzE1vMLpvt5M_S_lJCrwnG5jEckUsjfPKwg6Iq71xGXzI6_u3XphbSC01R24jIMcTSrKapBvBNfinRqwlHw7oQZAV0Yld-z7kWLQkBmhU581z0TWqN44JfODlurJo98wSCTAFtEozBjL7ubbhzhM2RJgOq4f1ceDF-4wcCdAcqB2jS5vIL9QGfa1X0nkCZ4jFgKmroumUZeEDf4CCzaYzqSWzAUVvFc_wnGxy6LZ7KO-uKvyYTR8XEAsNTTxuIQFi3fx_0G00]--></g></svg>