<?xml version="1.0" encoding="UTF-8" standalone="no"?><svg xmlns="http://www.w3.org/2000/svg" xmlns:xlink="http://www.w3.org/1999/xlink" contentScriptType="application/ecmascript" contentStyleType="text/css" height="247px" preserveAspectRatio="none" style="width:765px;height:247px;" version="1.1" viewBox="0 0 765 247" width="765px" zoomAndPan="magnify"><defs><filter height="300%" id="fotr2r8h0pq2m" width="300%" x="-1" y="-1"><feGaussianBlur result="blurOut" stdDeviation="2.0"/><feColorMatrix in="blurOut" result="blurOut2" type="matrix" values="0 0 0 0 0 0 0 0 0 0 0 0 0 0 0 0 0 0 .4 0"/><feOffset dx="4.0" dy="4.0" in="blurOut2" result="blurOut3"/><feBlend in="SourceGraphic" in2="blurOut3" mode="normal"/></filter></defs><g><!--MD5=[406a5e0ae180932da9bcb21c819a1904]
entity A2--><rect fill="#F8F8F8" filter="url(#fotr2r8h0pq2m)" height="36.2969" rx="17.5" ry="17.5" style="stroke: #000000; stroke-width: 1.0; stroke-dasharray: 7.0,7.0;" width="165" x="309.5" y="8"/><text fill="#000000" font-family="sans-serif" font-size="14" lengthAdjust="spacingAndGlyphs" textLength="145" x="319.5" y="30.9951">Multitenancy Options</text><!--MD5=[2495d8b3bb3d36e408f3562b16b52636]
entity B2--><rect fill="#F8F8F8" filter="url(#fotr2r8h0pq2m)" height="36.2969" rx="17.5" ry="17.5" style="stroke: #000000; stroke-width: 1.0; stroke-dasharray: 7.0,7.0;" width="110" x="231" y="104"/><text fill="#000000" font-family="sans-serif" font-size="14" lengthAdjust="spacingAndGlyphs" textLength="90" x="241" y="126.9951">Namespaces</text><!--MD5=[2324993324a80522a7091d42b9118e29]
entity C2--><rect fill="#F8F8F8" filter="url(#fotr2r8h0pq2m)" height="36.2969" rx="17.5" ry="17.5" style="stroke: #000000; stroke-width: 1.0; stroke-dasharray: 7.0,7.0;" width="143" x="427.5" y="104"/><text fill="#000000" font-family="sans-serif" font-size="14" lengthAdjust="spacingAndGlyphs" textLength="123" x="437.5" y="126.9951">Separate Clusters</text><!--MD5=[a36976c252c313df2dc3293dc523a6ce]
entity D2--><rect fill="#F8F8F8" filter="url(#fotr2r8h0pq2m)" height="36.2969" rx="17.5" ry="17.5" style="stroke: #000000; stroke-width: 1.0; stroke-dasharray: 7.0,7.0;" width="130" x="6" y="200"/><text fill="#000000" font-family="sans-serif" font-size="14" lengthAdjust="spacingAndGlyphs" textLength="110" x="16" y="222.9951">Limited Isolation</text><!--MD5=[a3c437a7ee715155cf6a0fec80d7cbaf]
entity E2--><rect fill="#F8F8F8" filter="url(#fotr2r8h0pq2m)" height="36.2969" rx="17.5" ry="17.5" style="stroke: #000000; stroke-width: 1.0; stroke-dasharray: 7.0,7.0;" width="229" x="171.5" y="200"/><text fill="#000000" font-family="sans-serif" font-size="14" lengthAdjust="spacingAndGlyphs" textLength="209" x="181.5" y="222.9951">No Cluster-Scoped Resources</text><!--MD5=[fc2ea6184d7eeff6089e30f93bbb7e6e]
entity F2--><rect fill="#F8F8F8" filter="url(#fotr2r8h0pq2m)" height="36.2969" rx="17.5" ry="17.5" style="stroke: #000000; stroke-width: 1.0; stroke-dasharray: 7.0,7.0;" width="127" x="435.5" y="200"/><text fill="#000000" font-family="sans-serif" font-size="14" lengthAdjust="spacingAndGlyphs" textLength="107" x="445.5" y="222.9951">Strong Isolation</text><!--MD5=[0c9f30de428ee4c9a7419b67e573c79a]
entity G2--><rect fill="#F8F8F8" filter="url(#fotr2r8h0pq2m)" height="36.2969" rx="17.5" ry="17.5" style="stroke: #000000; stroke-width: 1.0; stroke-dasharray: 7.0,7.0;" width="157" x="597.5" y="200"/><text fill="#000000" font-family="sans-serif" font-size="14" lengthAdjust="spacingAndGlyphs" textLength="137" x="607.5" y="222.9951">Resource Inefficient</text><!--MD5=[9e2284912a4e019d73a827c684ae7693]
link A2 to B2--><path d="M325.25,44.06 C325.25,44.06 325.25,98.7 325.25,98.7 " fill="none" id="A2-&gt;B2" style="stroke: #383838; stroke-width: 1.0;"/><polygon fill="#383838" points="325.25,103.7,329.25,94.7,325.25,98.7,321.25,94.7,325.25,103.7" style="stroke: #383838; stroke-width: 1.0;"/><!--MD5=[cfb94947466807bf8fd9cc236df7a618]
link A2 to C2--><path d="M451,44.06 C451,44.06 451,98.7 451,98.7 " fill="none" id="A2-&gt;C2" style="stroke: #383838; stroke-width: 1.0;"/><polygon fill="#383838" points="451,103.7,455,94.7,451,98.7,447,94.7,451,103.7" style="stroke: #383838; stroke-width: 1.0;"/><!--MD5=[3a4b7fefc8c13cb6b55118f6bde28ab1]
link B2 to D2--><path d="M230.91,122 C167.21,122 71,122 71,122 C71,122 71,194.94 71,194.94 " fill="none" id="B2-&gt;D2" style="stroke: #383838; stroke-width: 1.0;"/><polygon fill="#383838" points="71,199.94,75,190.94,71,194.94,67,190.94,71,199.94" style="stroke: #383838; stroke-width: 1.0;"/><!--MD5=[22d7405bad3da9458f485cb9a284ed76]
link B2 to E2--><path d="M286,140.06 C286,140.06 286,194.7 286,194.7 " fill="none" id="B2-&gt;E2" style="stroke: #383838; stroke-width: 1.0;"/><polygon fill="#383838" points="286,199.7,290,190.7,286,194.7,282,190.7,286,199.7" style="stroke: #383838; stroke-width: 1.0;"/><!--MD5=[4b9eb197eb64442dc80d172f80c7eb31]
link C2 to F2--><path d="M499,140.06 C499,140.06 499,194.7 499,194.7 " fill="none" id="C2-&gt;F2" style="stroke: #383838; stroke-width: 1.0;"/><polygon fill="#383838" points="499,199.7,503,190.7,499,194.7,495,190.7,499,199.7" style="stroke: #383838; stroke-width: 1.0;"/><!--MD5=[ebd84ca3edc9d4062ed206cc7840e31f]
link C2 to G2--><path d="M566.5,140.06 C566.5,167.87 566.5,218 566.5,218 C566.5,218 592.29,218 592.29,218 " fill="none" id="C2-&gt;G2" style="stroke: #383838; stroke-width: 1.0;"/><polygon fill="#383838" points="597.29,218,588.29,214,592.29,218,588.29,222,597.29,218" style="stroke: #383838; stroke-width: 1.0;"/><!--MD5=[0a19e102fd79db0ff195c8668089c553]
@startuml multitenancy-options
skinparam monochrome true
skinparam style strictuml
skinparam componentShadowing true
skinparam rectangleRoundCorner 35
skinparam rectangleBorderStyle dashed
skinparam linetype ortho
skinparam rectangleShadowing true

skinparam DefaultTextAlignment center
skinparam linetype ortho

rectangle "Multitenancy Options" as A2

rectangle "Namespaces" as B2
rectangle "Separate Clusters" as C2

rectangle "Limited Isolation" as D2
rectangle "No Cluster-Scoped Resources" as E2

rectangle "Strong Isolation" as F2
rectangle "Resource Inefficient" as G2

A2 - -> B2
A2 - -> C2
B2 - -> D2
B2 - -> E2
C2 - -> F2
C2 - -> G2

@enduml

PlantUML version 1.2020.02(Sun Mar 01 11:22:07 CET 2020)
(GPL source distribution)
Java Runtime: OpenJDK Runtime Environment
JVM: OpenJDK 64-Bit Server VM
Java Version: 11.0.27+6-post-Ubuntu-0ubuntu122.04
Operating System: Linux
Default Encoding: UTF-8
Language: en
Country: US
--></g></svg>