<?xml version="1.0" encoding="UTF-8" standalone="no"?><svg xmlns="http://www.w3.org/2000/svg" xmlns:xlink="http://www.w3.org/1999/xlink" contentScriptType="application/ecmascript" contentStyleType="text/css" height="268px" preserveAspectRatio="none" style="width:765px;height:268px;" version="1.1" viewBox="0 0 765 268" width="765px" zoomAndPan="magnify"><defs><filter height="300%" id="f16o7hw5cxrtl1" width="300%" x="-1" y="-1"><feGaussianBlur result="blurOut" stdDeviation="2.0"/><feColorMatrix in="blurOut" result="blurOut2" type="matrix" values="0 0 0 0 0 0 0 0 0 0 0 0 0 0 0 0 0 0 .4 0"/><feOffset dx="4.0" dy="4.0" in="blurOut2" result="blurOut3"/><feBlend in="SourceGraphic" in2="blurOut3" mode="normal"/></filter></defs><g><text fill="#000000" font-family="sans-serif" font-size="18" lengthAdjust="spacingAndGlyphs" textLength="187" x="293" y="16.708">Multitenancy Options</text><!--MD5=[406a5e0ae180932da9bcb21c819a1904]
entity A2--><rect fill="#F8F8F8" filter="url(#f16o7hw5cxrtl1)" height="36.2969" rx="17.5" ry="17.5" style="stroke: #000000; stroke-width: 1.0; stroke-dasharray: 7.0,7.0;" width="165" x="309.5" y="28.9531"/><text fill="#000000" font-family="sans-serif" font-size="14" lengthAdjust="spacingAndGlyphs" textLength="145" x="319.5" y="51.9482">Multitenancy Options</text><!--MD5=[2495d8b3bb3d36e408f3562b16b52636]
entity B2--><rect fill="#F8F8F8" filter="url(#f16o7hw5cxrtl1)" height="36.2969" rx="17.5" ry="17.5" style="stroke: #000000; stroke-width: 1.0; stroke-dasharray: 7.0,7.0;" width="110" x="231" y="124.9531"/><text fill="#000000" font-family="sans-serif" font-size="14" lengthAdjust="spacingAndGlyphs" textLength="90" x="241" y="147.9482">Namespaces</text><!--MD5=[2324993324a80522a7091d42b9118e29]
entity C2--><rect fill="#F8F8F8" filter="url(#f16o7hw5cxrtl1)" height="36.2969" rx="17.5" ry="17.5" style="stroke: #000000; stroke-width: 1.0; stroke-dasharray: 7.0,7.0;" width="143" x="427.5" y="124.9531"/><text fill="#000000" font-family="sans-serif" font-size="14" lengthAdjust="spacingAndGlyphs" textLength="123" x="437.5" y="147.9482">Separate Clusters</text><!--MD5=[a36976c252c313df2dc3293dc523a6ce]
entity D2--><rect fill="#F8F8F8" filter="url(#f16o7hw5cxrtl1)" height="36.2969" rx="17.5" ry="17.5" style="stroke: #000000; stroke-width: 1.0; stroke-dasharray: 7.0,7.0;" width="130" x="6" y="220.9531"/><text fill="#000000" font-family="sans-serif" font-size="14" lengthAdjust="spacingAndGlyphs" textLength="110" x="16" y="243.9482">Limited Isolation</text><!--MD5=[a3c437a7ee715155cf6a0fec80d7cbaf]
entity E2--><rect fill="#F8F8F8" filter="url(#f16o7hw5cxrtl1)" height="36.2969" rx="17.5" ry="17.5" style="stroke: #000000; stroke-width: 1.0; stroke-dasharray: 7.0,7.0;" width="229" x="171.5" y="220.9531"/><text fill="#000000" font-family="sans-serif" font-size="14" lengthAdjust="spacingAndGlyphs" textLength="209" x="181.5" y="243.9482">No Cluster-Scoped Resources</text><!--MD5=[fc2ea6184d7eeff6089e30f93bbb7e6e]
entity F2--><rect fill="#F8F8F8" filter="url(#f16o7hw5cxrtl1)" height="36.2969" rx="17.5" ry="17.5" style="stroke: #000000; stroke-width: 1.0; stroke-dasharray: 7.0,7.0;" width="127" x="435.5" y="220.9531"/><text fill="#000000" font-family="sans-serif" font-size="14" lengthAdjust="spacingAndGlyphs" textLength="107" x="445.5" y="243.9482">Strong Isolation</text><!--MD5=[0c9f30de428ee4c9a7419b67e573c79a]
entity G2--><rect fill="#F8F8F8" filter="url(#f16o7hw5cxrtl1)" height="36.2969" rx="17.5" ry="17.5" style="stroke: #000000; stroke-width: 1.0; stroke-dasharray: 7.0,7.0;" width="157" x="597.5" y="220.9531"/><text fill="#000000" font-family="sans-serif" font-size="14" lengthAdjust="spacingAndGlyphs" textLength="137" x="607.5" y="243.9482">Resource Inefficient</text><!--MD5=[9e2284912a4e019d73a827c684ae7693]
link A2 to B2--><path d="M325.25,65.0131 C325.25,65.0131 325.25,119.6531 325.25,119.6531 " fill="none" id="A2-&gt;B2" style="stroke: #383838; stroke-width: 1.0;"/><polygon fill="#383838" points="325.25,124.6531,329.25,115.6531,325.25,119.6531,321.25,115.6531,325.25,124.6531" style="stroke: #383838; stroke-width: 1.0;"/><!--MD5=[cfb94947466807bf8fd9cc236df7a618]
link A2 to C2--><path d="M451,65.0131 C451,65.0131 451,119.6531 451,119.6531 " fill="none" id="A2-&gt;C2" style="stroke: #383838; stroke-width: 1.0;"/><polygon fill="#383838" points="451,124.6531,455,115.6531,451,119.6531,447,115.6531,451,124.6531" style="stroke: #383838; stroke-width: 1.0;"/><!--MD5=[3a4b7fefc8c13cb6b55118f6bde28ab1]
link B2 to D2--><path d="M230.91,142.9531 C167.21,142.9531 71,142.9531 71,142.9531 C71,142.9531 71,215.8931 71,215.8931 " fill="none" id="B2-&gt;D2" style="stroke: #383838; stroke-width: 1.0;"/><polygon fill="#383838" points="71,220.8931,75,211.8931,71,215.8931,67,211.8931,71,220.8931" style="stroke: #383838; stroke-width: 1.0;"/><!--MD5=[22d7405bad3da9458f485cb9a284ed76]
link B2 to E2--><path d="M286,161.0131 C286,161.0131 286,215.6531 286,215.6531 " fill="none" id="B2-&gt;E2" style="stroke: #383838; stroke-width: 1.0;"/><polygon fill="#383838" points="286,220.6531,290,211.6531,286,215.6531,282,211.6531,286,220.6531" style="stroke: #383838; stroke-width: 1.0;"/><!--MD5=[4b9eb197eb64442dc80d172f80c7eb31]
link C2 to F2--><path d="M499,161.0131 C499,161.0131 499,215.6531 499,215.6531 " fill="none" id="C2-&gt;F2" style="stroke: #383838; stroke-width: 1.0;"/><polygon fill="#383838" points="499,220.6531,503,211.6531,499,215.6531,495,211.6531,499,220.6531" style="stroke: #383838; stroke-width: 1.0;"/><!--MD5=[ebd84ca3edc9d4062ed206cc7840e31f]
link C2 to G2--><path d="M566.5,161.0131 C566.5,188.8231 566.5,238.9531 566.5,238.9531 C566.5,238.9531 592.29,238.9531 592.29,238.9531 " fill="none" id="C2-&gt;G2" style="stroke: #383838; stroke-width: 1.0;"/><polygon fill="#383838" points="597.29,238.9531,588.29,234.9531,592.29,238.9531,588.29,242.9531,597.29,238.9531" style="stroke: #383838; stroke-width: 1.0;"/><!--MD5=[839064b78234cbfce15212e2e3261b91]
@startuml multitenancy-options
skinparam monochrome true
skinparam style strictuml
skinparam componentShadowing true
skinparam rectangleRoundCorner 35
skinparam rectangleBorderStyle dashed
skinparam linetype ortho
skinparam rectangleShadowing true

title Multitenancy Options

skinparam DefaultTextAlignment center
skinparam linetype ortho

rectangle "Multitenancy Options" as A2

rectangle "Namespaces" as B2
rectangle "Separate Clusters" as C2

rectangle "Limited Isolation" as D2
rectangle "No Cluster-Scoped Resources" as E2

rectangle "Strong Isolation" as F2
rectangle "Resource Inefficient" as G2

A2 - -> B2
A2 - -> C2
B2 - -> D2
B2 - -> E2
C2 - -> F2
C2 - -> G2

@enduml

PlantUML version 1.2020.02(Sun Mar 01 11:22:07 CET 2020)
(GPL source distribution)
Java Runtime: OpenJDK Runtime Environment
JVM: OpenJDK 64-Bit Server VM
Java Version: 11.0.26+4-post-Ubuntu-1ubuntu122.04
Operating System: Linux
Default Encoding: UTF-8
Language: en
Country: US
--></g></svg>