<svg xmlns="http://www.w3.org/2000/svg" xmlns:xlink="http://www.w3.org/1999/xlink" contentStyleType="text/css" height="342px" preserveAspectRatio="none" style="width:883px;height:342px;background:#FFFFFF;" version="1.1" viewBox="0 0 883 342" width="883px" zoomAndPan="magnify"><defs><filter height="300%" id="fsyichzpxoatx" width="300%" x="-1" y="-1"><feGaussianBlur result="blurOut" stdDeviation="2"/><feColorMatrix in="blurOut" result="blurOut2" type="matrix" values="0 0 0 0 0 0 0 0 0 0 0 0 0 0 0 0 0 0 .4 0"/><feOffset dx="4" dy="4" in="blurOut2" result="blurOut3"/><feBlend in="SourceGraphic" in2="blurOut3" mode="normal"/></filter></defs><g><!--cluster iso_group--><g id="cluster_iso_group"><rect fill="none" filter="url(#fsyichzpxoatx)" height="103" style="stroke:#181818;stroke-width:1;stroke-dasharray:7.0,7.0;" width="266" x="7" y="67"/><text fill="#000000" font-family="sans-serif" font-size="14" font-weight="bold" lengthAdjust="spacing" textLength="149.4063" x="65.2969" y="81.9951">Isolation Spectrum</text></g><!--cluster res_group--><g id="cluster_res_group"><rect fill="none" filter="url(#fsyichzpxoatx)" height="103" style="stroke:#181818;stroke-width:1;stroke-dasharray:7.0,7.0;" width="292" x="313" y="67"/><text fill="#000000" font-family="sans-serif" font-size="14" font-weight="bold" lengthAdjust="spacing" textLength="138.9541" x="389.5229" y="81.9951">Resource Sharing</text></g><!--cluster trust_group--><g id="cluster_trust_group"><rect fill="none" filter="url(#fsyichzpxoatx)" height="103" style="stroke:#181818;stroke-width:1;stroke-dasharray:7.0,7.0;" width="226" x="645" y="67"/><text fill="#000000" font-family="sans-serif" font-size="14" font-weight="bold" lengthAdjust="spacing" textLength="96.4893" x="709.7554" y="81.9951">Trust Levels</text></g><!--cluster mixed--><g id="cluster_mixed"><rect fill="#E8E8E8" filter="url(#fsyichzpxoatx)" height="120" style="stroke:#181818;stroke-width:1;stroke-dasharray:7.0,7.0;" width="260" x="313" y="210"/><text fill="#000000" font-family="sans-serif" font-size="14" font-weight="bold" lengthAdjust="spacing" textLength="145.0928" x="370.4536" y="224.9951">Mixed Approaches</text></g><!--entity isolation_spectrum--><g id="elem_isolation_spectrum"><rect fill="#CCCCCC" filter="url(#fsyichzpxoatx)" height="36.2969" rx="17.5" ry="17.5" style="stroke:#181818;stroke-width:0.5;stroke-dasharray:7.0,7.0;" width="204.0439" x="45" y="110"/><text fill="#000000" font-family="sans-serif" font-size="14" lengthAdjust="spacing" textLength="184.0439" x="55" y="132.9951">None &#8594; Logical &#8594; Physical</text></g><!--entity resource_spectrum--><g id="elem_resource_spectrum"><rect fill="#C7C7C7" filter="url(#fsyichzpxoatx)" height="36.2969" rx="17.5" ry="17.5" style="stroke:#181818;stroke-width:0.5;stroke-dasharray:7.0,7.0;" width="229.2549" x="351.5" y="110"/><text fill="#000000" font-family="sans-serif" font-size="14" lengthAdjust="spacing" textLength="209.2549" x="361.5" y="132.9951">Shared &#8594; Pooled &#8594; Dedicated</text></g><!--entity trust_spectrum--><g id="elem_trust_spectrum"><rect fill="#FBFBFB" filter="url(#fsyichzpxoatx)" height="36.2969" rx="17.5" ry="17.5" style="stroke:#181818;stroke-width:0.5;stroke-dasharray:7.0,7.0;" width="163.1172" x="683.5" y="110"/><text fill="#000000" font-family="sans-serif" font-size="14" lengthAdjust="spacing" textLength="143.1172" x="693.5" y="132.9951">Full &#8594; Partial &#8594; Zero</text></g><!--entity mixed_text--><g id="elem_mixed_text"><rect fill="#F1F1F1" filter="url(#fsyichzpxoatx)" height="52.5938" rx="17.5" ry="17.5" style="stroke:#181818;stroke-width:0.5;stroke-dasharray:7.0,7.0;" width="197.0986" x="351.5" y="253"/><text fill="#000000" font-family="sans-serif" font-size="14" lengthAdjust="spacing" textLength="174.9727" x="362.563" y="275.9951">All aspects can be mixed</text><text fill="#000000" font-family="sans-serif" font-size="14" lengthAdjust="spacing" textLength="177.0986" x="361.5" y="292.292">and combined as needed</text></g><!--entity core--><g id="elem_core"><rect fill="#ADADAD" filter="url(#fsyichzpxoatx)" height="36.2969" rx="17.5" ry="17.5" style="stroke:#181818;stroke-width:0.5;stroke-dasharray:7.0,7.0;" width="110.6309" x="265.5" y="7"/><text fill="#000000" font-family="sans-serif" font-size="14" lengthAdjust="spacing" textLength="90.6309" x="275.5" y="29.9951">Multitenancy</text></g><!--link core to iso_group--><g id="link_core_iso_group"><path d="M265.33,25 C180.98,25 30.5,25 30.5,25 C30.5,25 30.5,31.4375 30.5,41.0938 C30.5,45.9219 30.5,51.5547 30.5,57.5898 C30.5,60.6074 30.5,57.7256 30.5,60.894 " fill="none" id="core-to-iso_group" style="stroke:#181818;stroke-width:1;"/><polygon fill="#181818" points="30.5,66.894,34.5,57.894,30.5,61.894,26.5,57.894,30.5,66.894" style="stroke:#181818;stroke-width:1;"/></g><!--link core to res_group--><g id="link_core_res_group"><path d="M321,43.41 C321,46.8825 321,50.7028 321,54.7417 C321,56.7612 321,58.8353 321,60.9479 C321,62.0042 321,63.0702 321,64.1437 C321,64.6805 321,65.2192 321,65.7595 C321,66.0297 321,66.3002 321,66.5712 C321,66.7067 321,60.8422 321,60.9779 " fill="none" id="core-to-res_group" style="stroke:#181818;stroke-width:1;"/><polygon fill="#181818" points="321,66.9779,325,57.9779,321,61.9779,317,57.9779,321,66.9779" style="stroke:#181818;stroke-width:1;"/></g><!--link core to trust_group--><g id="link_core_trust_group"><path d="M376.53,25 C462.06,25 616.25,25 616.25,25 C616.25,25 616.25,128 616.25,128 C616.25,128 624.325,128 632.905,128 C635.05,128 637.2266,128 639.3164,128 C640.3613,128 641.3846,128 642.3713,128 C642.8647,128 643.349,128 643.8223,128 C644.059,128 644.2929,128 644.5238,128 C644.6393,128 638.754,128 638.868,128 " fill="none" id="core-to-trust_group" style="stroke:#181818;stroke-width:1;"/><polygon fill="#181818" points="644.868,128,635.868,124,639.868,128,635.868,132,644.868,128" style="stroke:#181818;stroke-width:1;"/></g><!--link iso_group to res_group--><!--link res_group to trust_group--><!--link iso_group to mixed--><g id="link_iso_group_mixed"><path d="M15,170.6443 C15,171.6899 15,172.746 15,173.8116 C15,175.9427 15,178.1117 15,180.3101 C15,189.1035 15,198.3672 15,207.5613 C15,244.3375 15,280 15,280 C15,280 90.31,280 166.2075,280 C204.1563,280 242.2519,280 271.1541,280 C285.6052,280 297.7579,280 306.4447,280 C308.6164,280 310.5715,280 312.2918,280 C312.5068,280 306.7181,280 306.9258,280 " fill="none" id="iso_group-to-mixed" style="stroke:#181818;stroke-width:1;"/><polygon fill="#181818" points="312.9258,280,303.9258,276,307.9258,280,303.9258,284,312.9258,280" style="stroke:#181818;stroke-width:1;"/></g><!--link res_group to mixed--><g id="link_res_group_mixed"><path d="M321,170.7198 C321,170.9725 321,171.2259 321,171.4799 C321,173.5117 321,175.5815 321,177.6818 C321,186.083 321,194.9713 321,203.8575 C321,204.9683 321,206.079 321,207.1888 C321,207.7437 321,208.2983 321,208.8526 C321,209.1297 321,203.4068 321,203.6837 " fill="none" id="res_group-to-mixed" style="stroke:#181818;stroke-width:1;"/><polygon fill="#181818" points="321,209.6837,325,200.6837,321,204.6837,317,200.6837,321,209.6837" style="stroke:#181818;stroke-width:1;"/></g><!--link trust_group to mixed--><g id="link_trust_group_mixed"><path d="M653,170.3177 C653,170.6291 653,170.9417 653,171.2554 C653,173.7651 653,176.3452 653,178.9849 C653,184.2644 653,189.7825 653,195.4521 C653,206.7914 653,218.7369 653,230.5925 C653,278.015 653,324 653,324 C653,324 632.25,324 601.125,324 C593.3438,324 584.9141,324 575.998,324 C575.4408,324 580.8816,324 580.3206,324 " fill="none" id="trust_group-to-mixed" style="stroke:#181818;stroke-width:1;"/><polygon fill="#181818" points="574.3206,324,583.3206,328,579.3206,324,583.3206,320,574.3206,324" style="stroke:#181818;stroke-width:1;"/></g><!--SRC=[RLFDRjGm4BxdAORkWTEYId16MgYeaBQ0w5xuqyeRJnEhpanaJqe3uie3y8Wy2MFlJzpGosuo_duytqoUEAhzO16YZ1xZCpTqlghYhQFU1DF11TwOmSi6xsNbNKCTaa2jFnWAb7U4ClO87AJbue3OOiGUdfyNnM3eDXLVd5VLKtZD0Q5cgh4NC0B2VHMm5aEDHpYxKdSdI8RgyGnCLAZY5-zLfC74txG1zVgzKiBGGHDuw2D4fptjnlnVohsDx8qu9hW-CBAeYxpDJFXP0HJuTqm8Vt__WJKthZO-FtzenvXUZjIzulPqXyNQDQsyyWDMlwhI_ID67aADSDsQuAZ90W7Zuzu9X7RloEmFZnTerLlG7ibPSMv-gQ7Gp7qJXYYmnZlqCPCb5HxtVZFuGwycY3lq_Ha35yIPvIVqdhydppHK8ZtS3qiOZAf97jH-FbK-M2vVJibFfIaGc8h5NPF1AkG5E8wxvU1-C8dwZDKqpEMNrbcBz2sa2vRIrMJo7sXcTUNkDNhJzu5DtM8iOj9rtR48TmysDkDN9tnEhCl5nThS8LaCyxXNce_9UUg26u8TxXbVTU-jfjZjz0kpIOWGxM7s6R4L_JGVXZuFEmsWcpLHXgGjv-CoarEjt96f-Wy0]--></g></svg>