<?xml version="1.0" encoding="us-ascii" standalone="no"?><svg xmlns="http://www.w3.org/2000/svg" xmlns:xlink="http://www.w3.org/1999/xlink" contentStyleType="text/css" height="1016.0497px" preserveAspectRatio="none" style="width:1929px;height:1016px;background:#F9F9F9;" version="1.1" viewBox="0 0 1929 1016" width="1929.5404px" zoomAndPan="magnify"><defs><filter height="300%" id="fp63vqst24xy0" width="300%" x="-1" y="-1"><feGaussianBlur result="blurOut" stdDeviation="4.770186335403727"/><feColorMatrix in="blurOut" result="blurOut2" type="matrix" values="0 0 0 0 0 0 0 0 0 0 0 0 0 0 0 0 0 0 .4 0"/><feOffset dx="9.540372670807454" dy="9.540372670807454" in="blurOut2" result="blurOut3"/><feBlend in="SourceGraphic" in2="blurOut3" mode="normal"/></filter></defs><g><rect fill="#F9F9F9" height="1016.0497" style="stroke:none;stroke-width:2.3850931677018634;" width="1929.5404" x="0" y="0"/><rect fill="#90EE90" height="898.9193" rx="8.3478" ry="8.3478" style="stroke:#181818;stroke-width:1.1925465838509317;" width="1066.1366" x="403.0807" y="103.2671"/><text fill="#000000" font-family="sans-serif" font-size="31.0062" font-weight="bold" lengthAdjust="spacing" textLength="131.1801" x="870.559" y="132.0477">Neovim</text><text fill="#000000" font-family="sans-serif" font-size="33.3913" font-weight="bold" lengthAdjust="spacing" textLength="715.528" x="35.7764" y="66.771">Neovim Autocommand Execution Flow</text><line style="stroke:#393939;stroke-width:1.1925465838509317;stroke-dasharray:5.0,5.0;" x1="57.2422" x2="57.2422" y1="338.0311" y2="987.8758"/><line style="stroke:#393939;stroke-width:1.1925465838509317;stroke-dasharray:5.0,5.0;" x1="479.4037" x2="479.4037" y1="338.0311" y2="987.8758"/><line style="stroke:#393939;stroke-width:1.1925465838509317;stroke-dasharray:5.0,5.0;" x1="906.3354" x2="906.3354" y1="338.0311" y2="987.8758"/><line style="stroke:#393939;stroke-width:1.1925465838509317;stroke-dasharray:5.0,5.0;" x1="1388.1242" x2="1388.1242" y1="338.0311" y2="987.8758"/><text fill="#191919" font-family="sans-serif" font-size="33.3913" lengthAdjust="spacing" textLength="76.323" x="11.9255" y="330.1561">User</text><ellipse cx="57.2422" cy="169.1739" fill="#191919" filter="url(#fp63vqst24xy0)" rx="19.0807" ry="19.0807" style="stroke:#191919;stroke-width:1.1925465838509317;"/><path d="M57.2422,188.2547 L57.2422,252.6522 M26.236,207.3354 L88.2484,207.3354 M57.2422,252.6522 L26.236,288.4286 M57.2422,252.6522 L88.2484,288.4286 " fill="none" filter="url(#fp63vqst24xy0)" style="stroke:#191919;stroke-width:1.1925465838509317;"/><rect fill="#E55756" filter="url(#fp63vqst24xy0)" height="72.2609" rx="8.3478" ry="8.3478" style="stroke:#191919;stroke-width:3.577639751552795;" width="126.4099" x="412.6211" y="256.2298"/><text fill="#F9F9F9" font-family="sans-serif" font-size="33.3913" lengthAdjust="spacing" textLength="93.0186" x="429.3168" y="303.92">Event</text><text fill="#191919" font-family="sans-serif" font-size="33.3913" lengthAdjust="spacing" textLength="240.8944" x="778.7329" y="330.1561">Autocommand</text><ellipse cx="906.3354" cy="261" fill="#EFBABC" filter="url(#fp63vqst24xy0)" rx="28.6211" ry="28.6211" style="stroke:#191919;stroke-width:1.1925465838509317;"/><polygon fill="#191919" points="896.795,232.3789,911.1056,220.4534,906.3354,232.3789,911.1056,244.3043,896.795,232.3789" style="stroke:#191919;stroke-width:2.3850931677018634;"/><rect fill="#E55756" filter="url(#fp63vqst24xy0)" height="72.2609" rx="8.3478" ry="8.3478" style="stroke:#191919;stroke-width:3.577639751552795;" width="135.9503" x="1316.5714" y="256.2298"/><text fill="#F9F9F9" font-family="sans-serif" font-size="33.3913" lengthAdjust="spacing" textLength="102.559" x="1333.2671" y="303.92">Action</text><polygon fill="#191919" points="450.7826,397.9752,474.6335,407.5155,450.7826,417.0559,460.323,407.5155" style="stroke:#191919;stroke-width:2.3850931677018634;"/><line style="stroke:#191919;stroke-width:2.3850931677018634;" x1="57.2422" x2="465.0932" y1="407.5155" y2="407.5155"/><text fill="#000000" font-family="sans-serif" font-size="31.0062" font-weight="bold" lengthAdjust="spacing" textLength="21.4658" x="73.9379" y="395.4328">1</text><text fill="#000000" font-family="sans-serif" font-size="31.0062" lengthAdjust="spacing" textLength="333.913" x="104.9441" y="395.4328">Trigger event {event}</text><path d="M491.3292,446.8696 L491.3292,561.354 A8.3478,8.3478 0 0 0 499.677,569.7019 L762.0373,569.7019 A8.3478,8.3478 0 0 0 770.3851,561.354 L770.3851,462.3727 L746.5342,438.5217 L499.677,438.5217 A8.3478,8.3478 0 0 0 491.3292,446.8696 " fill="#E5E5E5" filter="url(#fp63vqst24xy0)" style="stroke:#191919;stroke-width:3.577639751552795;"/><path d="M746.5342,438.5217 L746.5342,458.1988 A4.1739,4.1739 0 0 0 750.7081,462.3727 L770.3851,462.3727 L746.5342,438.5217 " fill="#E5E5E5" style="stroke:#191919;stroke-width:3.577639751552795;"/><text fill="#191919" font-family="sans-serif" font-size="31.0062" lengthAdjust="spacing" textLength="157.4161" x="505.6398" y="479.2279">Examples:</text><text fill="#191919" font-family="sans-serif" font-size="31.0062" lengthAdjust="spacing" textLength="212.2733" x="505.6398" y="515.321">- 'BufReadPre'</text><text fill="#191919" font-family="sans-serif" font-size="31.0062" lengthAdjust="spacing" textLength="228.9689" x="505.6398" y="551.4142">- 'BufWritePost'</text><polygon fill="#191919" points="877.7143,630.5963,901.5652,640.1366,877.7143,649.677,887.2547,640.1366" style="stroke:#191919;stroke-width:2.3850931677018634;"/><line style="stroke:#191919;stroke-width:2.3850931677018634;" x1="479.4037" x2="892.0248" y1="640.1366" y2="640.1366"/><text fill="#000000" font-family="sans-serif" font-size="31.0062" font-weight="bold" lengthAdjust="spacing" textLength="21.4658" x="496.0994" y="628.054">2</text><text fill="#000000" font-family="sans-serif" font-size="31.0062" lengthAdjust="spacing" textLength="338.6832" x="527.1056" y="628.054">Trigger autocommand</text><polygon fill="#191919" points="1359.5031,700.0807,1383.354,709.6211,1359.5031,719.1615,1369.0435,709.6211" style="stroke:#191919;stroke-width:2.3850931677018634;"/><line style="stroke:#191919;stroke-width:2.3850931677018634;" x1="906.3354" x2="1373.8137" y1="709.6211" y2="709.6211"/><text fill="#000000" font-family="sans-serif" font-size="31.0062" font-weight="bold" lengthAdjust="spacing" textLength="21.4658" x="923.0311" y="697.5384">3</text><text fill="#000000" font-family="sans-serif" font-size="31.0062" lengthAdjust="spacing" textLength="393.5404" x="954.0373" y="697.5384">Execute based on options</text><path d="M1400.0497,748.9752 L1400.0497,935.0124 A8.3478,8.3478 0 0 0 1408.3975,943.3602 L1897.3416,943.3602 A8.3478,8.3478 0 0 0 1905.6894,935.0124 L1905.6894,764.4783 L1881.8385,740.6273 L1408.3975,740.6273 A8.3478,8.3478 0 0 0 1400.0497,748.9752 " fill="#E5E5E5" filter="url(#fp63vqst24xy0)" style="stroke:#191919;stroke-width:3.577639751552795;"/><path d="M1881.8385,740.6273 L1881.8385,760.3043 A4.1739,4.1739 0 0 0 1886.0124,764.4783 L1905.6894,764.4783 L1881.8385,740.6273 " fill="#E5E5E5" style="stroke:#191919;stroke-width:3.577639751552795;"/><text fill="#191919" font-family="sans-serif" font-size="31.0062" lengthAdjust="spacing" textLength="283.8261" x="1414.3602" y="781.3335">Options examples:</text><text fill="#191919" font-family="sans-serif" font-size="31.0062" lengthAdjust="spacing" textLength="279.0559" x="1414.3602" y="817.4266">- group: 'MyGroup'</text><text fill="#191919" font-family="sans-serif" font-size="31.0062" lengthAdjust="spacing" textLength="233.7391" x="1414.3602" y="853.5198">- pattern: '*.txt'</text><text fill="#191919" font-family="sans-serif" font-size="31.0062" lengthAdjust="spacing" textLength="345.8385" x="1414.3602" y="889.613">- callback: 'MyCallback'</text><text fill="#191919" font-family="sans-serif" font-size="31.0062" lengthAdjust="spacing" textLength="455.5528" x="1414.3602" y="925.7061">- OR command: ':echo "Hello"'</text><!--SRC=[NPB1Rjim38RlUWhMEmGeq27fQSrXG3gaxM5TWw95punCsq8bqP3erjkmTwza1OsNaqd-9F-FWi_wWAr34E8_864WTIOTEGA78QhEr0GDi-nvL3W8-y7jAQYeqHAihYwNushvRQdYg_4z1dHGKuE3bISQPMDDwnrv0KkDp7fYXpM_6zyMmwDmpUCEwpehgwKI8yda5_6RSR19vfgTGr_3TYGzY64FDvRVbK8j7A1wZXGgm0X32bGYXgeCL_3bfsaxkGr4NW4aCp7Qz9ZGgkrR8fp6A4T9rkmbi8LgvZaru34_tRBHcQTqJQ6Y19fVJMKQkFXUriCQde9fsrGg-T_fyqzv5eAGAO6RJvJjYAwt5DSfle35zT0y4jQxG8lFmaimGZkEifWiynwbokvaEaEUMSyFcNVaWOa-zPP79jXZf1fIYVkiH7M2UZWNuA7eGFynju67VWsB-z-tEIhSFOfGyAby_bL6ASNqIzazwjUf-SSXATB38nmGaxWctJ5KTsGjLyUZFm00]--></g></svg>