<?xml version="1.0" encoding="UTF-8" standalone="no"?><svg xmlns="http://www.w3.org/2000/svg" xmlns:xlink="http://www.w3.org/1999/xlink" contentStyleType="text/css" height="590px" preserveAspectRatio="none" style="width:1987px;height:590px;background:#FFFFFF;" version="1.1" viewBox="0 0 1987 590" width="1987px" zoomAndPan="magnify"><defs/><g><rect fill="#F3807B" height="36.2969" rx="12.5" ry="12.5" style="stroke:#181818;stroke-width:1.5;" width="84" x="667" y="276.1523"/><text fill="#000000" font-family="sans-serif" font-size="14" lengthAdjust="spacing" textLength="64" x="677" y="299.1475">Upbound</text><rect fill="#FDCD3C" height="52.5938" rx="12.5" ry="12.5" style="stroke:#181818;stroke-width:1.5;" width="98" x="801" y="268.0039"/><text fill="#000000" font-family="sans-serif" font-size="14" lengthAdjust="spacing" textLength="78" x="811" y="290.999">Crossplane</text><text fill="#000000" font-family="sans-serif" font-size="14" lengthAdjust="spacing" textLength="31" x="831" y="307.2959">OOS</text><rect fill="#F3807B" height="36.2969" rx="12.5" ry="12.5" style="stroke:#181818;stroke-width:1.5;" width="111" x="949" y="20"/><text fill="#000000" font-family="sans-serif" font-size="14" lengthAdjust="spacing" textLength="91" x="959" y="42.9951">Open Source</text><path d="M899,294.3008 L909,294.3008 C924,294.3008 924,38.1484 939,38.1484 L949,38.1484 " fill="none" style="stroke:#181818;stroke-width:1.0;"/><rect fill="#F3807B" height="36.2969" rx="12.5" ry="12.5" style="stroke:#181818;stroke-width:1.5;" width="150" x="949" y="76.2969"/><text fill="#000000" font-family="sans-serif" font-size="14" lengthAdjust="spacing" textLength="130" x="959" y="99.292">Kubernetes Addon</text><path d="M899,294.3008 L909,294.3008 C924,294.3008 924,94.4453 939,94.4453 L949,94.4453 " fill="none" style="stroke:#181818;stroke-width:1.0;"/><rect fill="#F3807B" height="36.2969" rx="12.5" ry="12.5" style="stroke:#181818;stroke-width:1.5;" width="112" x="949" y="132.5938"/><text fill="#000000" font-family="sans-serif" font-size="14" lengthAdjust="spacing" textLength="92" x="959" y="155.5889">Control Plane</text><path d="M899,294.3008 L909,294.3008 C924,294.3008 924,150.7422 939,150.7422 L949,150.7422 " fill="none" style="stroke:#181818;stroke-width:1.0;"/><rect fill="#F3807B" height="36.2969" rx="12.5" ry="12.5" style="stroke:#181818;stroke-width:1.5;" width="94" x="949" y="188.8906"/><text fill="#000000" font-family="sans-serif" font-size="14" lengthAdjust="spacing" textLength="74" x="959" y="211.8857">API Centric</text><path d="M899,294.3008 L909,294.3008 C924,294.3008 924,207.0391 939,207.0391 L949,207.0391 " fill="none" style="stroke:#181818;stroke-width:1.0;"/><rect fill="#F3807B" height="36.2969" rx="12.5" ry="12.5" style="stroke:#181818;stroke-width:1.5;" width="122" x="949" y="245.1875"/><text fill="#000000" font-family="sans-serif" font-size="14" lengthAdjust="spacing" textLength="102" x="959" y="268.1826">Provider Types</text><rect fill="#F3807B" height="36.2969" rx="12.5" ry="12.5" style="stroke:#181818;stroke-width:1.5;" width="133" x="1121" y="179.7422"/><text fill="#000000" font-family="sans-serif" font-size="14" lengthAdjust="spacing" textLength="113" x="1131" y="202.7373">Regular Provider</text><a href="https://github.com/crossplane/crossplane/blob/master/docs/contributing/provider_development_guide.md" target="_top" title="https://github.com/crossplane/crossplane/blob/master/docs/contributing/provider_development_guide.md" xlink:actuate="onRequest" xlink:href="https://github.com/crossplane/crossplane/blob/master/docs/contributing/provider_development_guide.md" xlink:show="new" xlink:title="https://github.com/crossplane/crossplane/blob/master/docs/contributing/provider_development_guide.md" xlink:type="simple"><text fill="#0000FF" font-family="sans-serif" font-size="14" lengthAdjust="spacing" text-decoration="underline" textLength="107" x="1307" y="193.5889">Documentation</text></a><path d="M1254,197.8906 L1264,197.8906 C1279,197.8906 1279,188.7422 1294,188.7422 L1304,188.7422 " fill="none" style="stroke:#181818;stroke-width:1.0;"/><a href="https://github.com/crossplane/provider-template" target="_top" title="https://github.com/crossplane/provider-template" xlink:actuate="onRequest" xlink:href="https://github.com/crossplane/provider-template" xlink:show="new" xlink:title="https://github.com/crossplane/provider-template" xlink:type="simple"><text fill="#0000FF" font-family="sans-serif" font-size="14" lengthAdjust="spacing" text-decoration="underline" textLength="65" x="1307" y="211.8857">Template</text></a><text fill="#000000" font-family="sans-serif" font-size="14" lengthAdjust="spacing" textLength="4" x="1372" y="211.8857"> </text><path d="M1254,197.8906 L1264,197.8906 C1279,197.8906 1279,207.0391 1294,207.0391 L1304,207.0391 " fill="none" style="stroke:#181818;stroke-width:1.0;"/><path d="M1071,263.3359 L1081,263.3359 C1096,263.3359 1096,197.8906 1111,197.8906 L1121,197.8906 " fill="none" style="stroke:#181818;stroke-width:1.0;"/><rect fill="#F3807B" height="36.2969" rx="12.5" ry="12.5" style="stroke:#181818;stroke-width:1.5;" width="133" x="1121" y="236.0391"/><text fill="#000000" font-family="sans-serif" font-size="14" lengthAdjust="spacing" textLength="113" x="1131" y="259.0342">Terrajet Provider</text><a href="https://github.com/crossplane/terrajet/blob/main/docs/generating-a-provider.md" target="_top" title="https://github.com/crossplane/terrajet/blob/main/docs/generating-a-provider.md" xlink:actuate="onRequest" xlink:href="https://github.com/crossplane/terrajet/blob/main/docs/generating-a-provider.md" xlink:show="new" xlink:title="https://github.com/crossplane/terrajet/blob/main/docs/generating-a-provider.md" xlink:type="simple"><text fill="#0000FF" font-family="sans-serif" font-size="14" lengthAdjust="spacing" text-decoration="underline" textLength="107" x="1307" y="249.8857">Documentation</text></a><path d="M1254,254.1875 L1264,254.1875 C1279,254.1875 1279,245.0391 1294,245.0391 L1304,245.0391 " fill="none" style="stroke:#181818;stroke-width:1.0;"/><a href="https://github.com/crossplane-contrib/provider-jet-template" target="_top" title="https://github.com/crossplane-contrib/provider-jet-template" xlink:actuate="onRequest" xlink:href="https://github.com/crossplane-contrib/provider-jet-template" xlink:show="new" xlink:title="https://github.com/crossplane-contrib/provider-jet-template" xlink:type="simple"><text fill="#0000FF" font-family="sans-serif" font-size="14" lengthAdjust="spacing" text-decoration="underline" textLength="65" x="1307" y="268.1826">Template</text></a><text fill="#000000" font-family="sans-serif" font-size="14" lengthAdjust="spacing" textLength="4" x="1372" y="268.1826"> </text><path d="M1254,254.1875 L1264,254.1875 C1279,254.1875 1279,263.3359 1294,263.3359 L1304,263.3359 " fill="none" style="stroke:#181818;stroke-width:1.0;"/><path d="M1071,263.3359 L1081,263.3359 C1096,263.3359 1096,254.1875 1111,254.1875 L1121,254.1875 " fill="none" style="stroke:#181818;stroke-width:1.0;"/><rect fill="#F3807B" height="36.2969" rx="12.5" ry="12.5" style="stroke:#181818;stroke-width:1.5;" width="58" x="1121" y="301.4844"/><text fill="#000000" font-family="sans-serif" font-size="14" lengthAdjust="spacing" textLength="38" x="1131" y="324.4795">Tools</text><rect fill="#F3807B" height="36.2969" rx="12.5" ry="12.5" style="stroke:#181818;stroke-width:1.5;" width="76" x="1229" y="292.3359"/><a href="https://github.com/crossplane/crossplane-tools/blob/master/README.md" target="_top" title="https://github.com/crossplane/crossplane-tools/blob/master/README.md" xlink:actuate="onRequest" xlink:href="https://github.com/crossplane/crossplane-tools/blob/master/README.md" xlink:show="new" xlink:title="https://github.com/crossplane/crossplane-tools/blob/master/README.md" xlink:type="simple"><text fill="#0000FF" font-family="sans-serif" font-size="14" lengthAdjust="spacing" text-decoration="underline" textLength="56" x="1239" y="315.3311">Angryjet</text></a><path d="M1179,319.6328 L1189,319.6328 C1204,319.6328 1204,310.4844 1219,310.4844 L1229,310.4844 " fill="none" style="stroke:#181818;stroke-width:1.0;"/><text fill="#000000" font-family="sans-serif" font-size="14" lengthAdjust="spacing" textLength="361" x="1232" y="352.6279">Adds Crossplane required scaffold to resource kinds</text><path d="M1179,319.6328 L1189,319.6328 C1204,319.6328 1204,347.7813 1219,347.7813 L1229,347.7813 " fill="none" style="stroke:#181818;stroke-width:1.0;"/><path d="M1071,263.3359 L1081,263.3359 C1096,263.3359 1096,319.6328 1111,319.6328 L1121,319.6328 " fill="none" style="stroke:#181818;stroke-width:1.0;"/><path d="M899,294.3008 L909,294.3008 C924,294.3008 924,263.3359 939,263.3359 L949,263.3359 " fill="none" style="stroke:#181818;stroke-width:1.0;"/><rect fill="#F3807B" height="36.2969" rx="12.5" ry="12.5" style="stroke:#181818;stroke-width:1.5;" width="180" x="949" y="449.6172"/><text fill="#000000" font-family="sans-serif" font-size="14" lengthAdjust="spacing" textLength="160" x="959" y="472.6123">Managed Infrastructure</text><rect fill="#F3807B" height="36.2969" rx="12.5" ry="12.5" style="stroke:#181818;stroke-width:1.5;" width="178" x="1179" y="421.8203"/><text fill="#000000" font-family="sans-serif" font-size="14" lengthAdjust="spacing" textLength="158" x="1189" y="444.8154">Configuration resource</text><rect fill="#F3807B" height="36.2969" rx="12.5" ry="12.5" style="stroke:#181818;stroke-width:1.5;" width="155" x="1407" y="375.375"/><text fill="#000000" font-family="sans-serif" font-size="14" lengthAdjust="spacing" textLength="135" x="1417" y="398.3701">Managed Resource</text><text fill="#000000" font-family="sans-serif" font-size="14" lengthAdjust="spacing" textLength="105" x="1615" y="370.9248">Cluster scoped</text><path d="M1562,393.5234 L1572,393.5234 C1587,393.5234 1587,366.0781 1602,366.0781 L1612,366.0781 " fill="none" style="stroke:#181818;stroke-width:1.0;"/><text fill="#000000" font-family="sans-serif" font-size="14" lengthAdjust="spacing" textLength="78" x="1615" y="389.2217">High fidelity</text><path d="M1562,393.5234 L1572,393.5234 C1587,393.5234 1587,384.375 1602,384.375 L1612,384.375 " fill="none" style="stroke:#181818;stroke-width:1.0;"/><text fill="#000000" font-family="sans-serif" font-size="14" lengthAdjust="spacing" textLength="277" x="1615" y="407.5186">Represent resource in extenrnal system</text><path d="M1562,393.5234 L1572,393.5234 C1587,393.5234 1587,402.6719 1602,402.6719 L1612,402.6719 " fill="none" style="stroke:#181818;stroke-width:1.0;"/><text fill="#000000" font-family="sans-serif" font-size="14" lengthAdjust="spacing" textLength="134" x="1615" y="425.8154">Defined by provider</text><path d="M1562,393.5234 L1572,393.5234 C1587,393.5234 1587,420.9688 1602,420.9688 L1612,420.9688 " fill="none" style="stroke:#181818;stroke-width:1.0;"/><path d="M1357,439.9688 L1367,439.9688 C1382,439.9688 1382,393.5234 1397,393.5234 L1407,393.5234 " fill="none" style="stroke:#181818;stroke-width:1.0;"/><rect fill="#F3807B" height="36.2969" rx="12.5" ry="12.5" style="stroke:#181818;stroke-width:1.5;" width="76" x="1407" y="458.4141"/><text fill="#000000" font-family="sans-serif" font-size="14" lengthAdjust="spacing" textLength="56" x="1417" y="481.4092">Provider</text><rect fill="#F3807B" height="36.2969" rx="12.5" ry="12.5" style="stroke:#181818;stroke-width:1.5;" width="260" x="1533" y="440.1172"/><text fill="#000000" font-family="sans-serif" font-size="14" lengthAdjust="spacing" textLength="240" x="1543" y="463.1123">Enable access to extenrnal system</text><text fill="#000000" font-family="sans-serif" font-size="14" lengthAdjust="spacing" textLength="129" x="1846" y="453.9639">Kubernetes secret</text><path d="M1793,458.2656 L1803,458.2656 C1818,458.2656 1818,449.1172 1833,449.1172 L1843,449.1172 " fill="none" style="stroke:#181818;stroke-width:1.0;"/><text fill="#000000" font-family="sans-serif" font-size="14" lengthAdjust="spacing" textLength="108" x="1846" y="472.2607">Other metadata</text><path d="M1793,458.2656 L1803,458.2656 C1818,458.2656 1818,467.4141 1833,467.4141 L1843,467.4141 " fill="none" style="stroke:#181818;stroke-width:1.0;"/><path d="M1483,476.5625 L1493,476.5625 C1508,476.5625 1508,458.2656 1523,458.2656 L1533,458.2656 " fill="none" style="stroke:#181818;stroke-width:1.0;"/><text fill="#000000" font-family="sans-serif" font-size="14" lengthAdjust="spacing" textLength="105" x="1536" y="500.4092">Cluster scoped</text><path d="M1483,476.5625 L1493,476.5625 C1508,476.5625 1508,495.5625 1523,495.5625 L1533,495.5625 " fill="none" style="stroke:#181818;stroke-width:1.0;"/><text fill="#000000" font-family="sans-serif" font-size="14" lengthAdjust="spacing" textLength="166" x="1536" y="518.7061">ProviderConfig resource</text><path d="M1483,476.5625 L1493,476.5625 C1508,476.5625 1508,513.8594 1523,513.8594 L1533,513.8594 " fill="none" style="stroke:#181818;stroke-width:1.0;"/><path d="M1357,439.9688 L1367,439.9688 C1382,439.9688 1382,476.5625 1397,476.5625 L1407,476.5625 " fill="none" style="stroke:#181818;stroke-width:1.0;"/><path d="M1129,467.7656 L1139,467.7656 C1154,467.7656 1154,439.9688 1169,439.9688 L1179,439.9688 " fill="none" style="stroke:#181818;stroke-width:1.0;"/><rect fill="#F3807B" height="36.2969" rx="12.5" ry="12.5" style="stroke:#181818;stroke-width:1.5;" width="87" x="1179" y="532.3047"/><text fill="#000000" font-family="sans-serif" font-size="14" lengthAdjust="spacing" textLength="67" x="1189" y="555.2998">Controller</text><text fill="#000000" font-family="sans-serif" font-size="14" lengthAdjust="spacing" textLength="360" x="1319" y="537.0029">Watches for changes in managed resources (CRUD)</text><path d="M1266,550.4531 L1276,550.4531 C1291,550.4531 1291,532.1563 1306,532.1563 L1316,532.1563 " fill="none" style="stroke:#181818;stroke-width:1.0;"/><text fill="#000000" font-family="sans-serif" font-size="14" lengthAdjust="spacing" textLength="320" x="1319" y="555.2998">Calls provider API as a response to the change</text><path d="M1266,550.4531 L1276,550.4531 C1291,550.4531 1291,550.4531 1306,550.4531 L1316,550.4531 " fill="none" style="stroke:#181818;stroke-width:1.0;"/><text fill="#000000" font-family="sans-serif" font-size="14" lengthAdjust="spacing" textLength="256" x="1319" y="573.5967">Matches actual state to desired state</text><path d="M1266,550.4531 L1276,550.4531 C1291,550.4531 1291,568.75 1306,568.75 L1316,568.75 " fill="none" style="stroke:#181818;stroke-width:1.0;"/><path d="M1129,467.7656 L1139,467.7656 C1154,467.7656 1154,550.4531 1169,550.4531 L1179,550.4531 " fill="none" style="stroke:#181818;stroke-width:1.0;"/><path d="M899,294.3008 L909,294.3008 C924,294.3008 924,467.7656 939,467.7656 L949,467.7656 " fill="none" style="stroke:#181818;stroke-width:1.0;"/><path d="M751,294.3008 L761,294.3008 C776,294.3008 776,294.3008 791,294.3008 L801,294.3008 " fill="none" style="stroke:#181818;stroke-width:1.0;"/><rect fill="#FDCD3C" height="52.5938" rx="12.5" ry="12.5" style="stroke:#181818;stroke-width:1.5;" width="91" x="526" y="268.0039"/><text fill="#000000" font-family="sans-serif" font-size="14" lengthAdjust="spacing" textLength="71" x="536" y="290.999">Enterprise</text><text fill="#000000" font-family="sans-serif" font-size="14" lengthAdjust="spacing" textLength="62" x="540" y="307.2959">Products</text><rect fill="#F3807B" height="36.2969" rx="12.5" ry="12.5" style="stroke:#181818;stroke-width:1.5;" width="164" x="312" y="163.5586"/><a href="https://github.com/upbound/universal-crossplane" target="_top" title="https://github.com/upbound/universal-crossplane" xlink:actuate="onRequest" xlink:href="https://github.com/upbound/universal-crossplane" xlink:show="new" xlink:title="https://github.com/upbound/universal-crossplane" xlink:type="simple"><text fill="#0000FF" font-family="sans-serif" font-size="14" lengthAdjust="spacing" text-decoration="underline" textLength="144" x="322" y="186.5537">Universal Crossplane</text></a><rect fill="#F3807B" height="36.2969" rx="12.5" ry="12.5" style="stroke:#181818;stroke-width:1.5;" width="198" x="64" y="22.8164"/><text fill="#000000" font-family="sans-serif" font-size="14" lengthAdjust="spacing" textLength="178" x="74" y="45.8115">Distribution of Crossplane</text><path d="M312,181.707 L302,181.707 C287,181.707 287,40.9648 272,40.9648 L262,40.9648 " fill="none" style="stroke:#181818;stroke-width:1.0;"/><rect fill="#F3807B" height="36.2969" rx="12.5" ry="12.5" style="stroke:#181818;stroke-width:1.5;" width="228" x="34" y="79.1133"/><text fill="#000000" font-family="sans-serif" font-size="14" lengthAdjust="spacing" textLength="208" x="44" y="102.1084">Feature parity with Crossplane</text><path d="M312,181.707 L302,181.707 C287,181.707 287,97.2617 272,97.2617 L262,97.2617 " fill="none" style="stroke:#181818;stroke-width:1.0;"/><rect fill="#F3807B" height="36.2969" rx="12.5" ry="12.5" style="stroke:#181818;stroke-width:1.5;" width="174" x="88" y="135.4102"/><text fill="#000000" font-family="sans-serif" font-size="14" lengthAdjust="spacing" textLength="154" x="98" y="158.4053">Integrated with the CLI</text><path d="M312,181.707 L302,181.707 C287,181.707 287,153.5586 272,153.5586 L262,153.5586 " fill="none" style="stroke:#181818;stroke-width:1.0;"/><rect fill="#F3807B" height="36.2969" rx="12.5" ry="12.5" style="stroke:#181818;stroke-width:1.5;" width="246" x="16" y="191.707"/><text fill="#000000" font-family="sans-serif" font-size="14" lengthAdjust="spacing" textLength="226" x="26" y="214.7021">Stable 18 month version support</text><path d="M312,181.707 L302,181.707 C287,181.707 287,209.8555 272,209.8555 L262,209.8555 " fill="none" style="stroke:#181818;stroke-width:1.0;"/><rect fill="#F3807B" height="36.2969" rx="12.5" ry="12.5" style="stroke:#181818;stroke-width:1.5;" width="203" x="59" y="248.0039"/><text fill="#000000" font-family="sans-serif" font-size="14" lengthAdjust="spacing" textLength="183" x="69" y="270.999">Enables connectivity to UC</text><path d="M312,181.707 L302,181.707 C287,181.707 287,266.1523 272,266.1523 L262,266.1523 " fill="none" style="stroke:#181818;stroke-width:1.0;"/><rect fill="#F3807B" height="36.2969" rx="12.5" ry="12.5" style="stroke:#181818;stroke-width:1.5;" width="213" x="49" y="304.3008"/><text fill="#000000" font-family="sans-serif" font-size="14" lengthAdjust="spacing" textLength="193" x="59" y="327.2959">Language server integration</text><path d="M312,181.707 L302,181.707 C287,181.707 287,322.4492 272,322.4492 L262,322.4492 " fill="none" style="stroke:#181818;stroke-width:1.0;"/><path d="M526,294.3008 L516,294.3008 C501,294.3008 501,181.707 486,181.707 L476,181.707 " fill="none" style="stroke:#181818;stroke-width:1.0;"/><rect fill="#F3807B" height="36.2969" rx="12.5" ry="12.5" style="stroke:#181818;stroke-width:1.5;" width="60" x="416" y="219.8555"/><text fill="#000000" font-family="sans-serif" font-size="14" lengthAdjust="spacing" textLength="40" x="426" y="242.8506">Cloud</text><path d="M526,294.3008 L516,294.3008 C501,294.3008 501,238.0039 486,238.0039 L476,238.0039 " fill="none" style="stroke:#181818;stroke-width:1.0;"/><rect fill="#F3807B" height="36.2969" rx="12.5" ry="12.5" style="stroke:#181818;stroke-width:1.5;" width="165" x="311" y="416.8945"/><text fill="#000000" font-family="sans-serif" font-size="14" lengthAdjust="spacing" textLength="145" x="321" y="439.8896">Registry/Marketplace</text><rect fill="#F3807B" height="36.2969" rx="12.5" ry="12.5" style="stroke:#181818;stroke-width:1.5;" width="119" x="142" y="360.5977"/><text fill="#000000" font-family="sans-serif" font-size="14" lengthAdjust="spacing" textLength="99" x="152" y="383.5928">React frontent</text><path d="M311,435.043 L301,435.043 C286,435.043 286,378.7461 271,378.7461 L261,378.7461 " fill="none" style="stroke:#181818;stroke-width:1.0;"/><rect fill="#F3807B" height="36.2969" rx="12.5" ry="12.5" style="stroke:#181818;stroke-width:1.5;" width="81" x="180" y="445.043"/><text fill="#000000" font-family="sans-serif" font-size="14" lengthAdjust="spacing" textLength="61" x="190" y="468.0381">Artefacts</text><rect fill="#F3807B" height="36.2969" rx="12.5" ry="12.5" style="stroke:#181818;stroke-width:1.5;" width="84" x="46" y="416.8945"/><text fill="#000000" font-family="sans-serif" font-size="14" lengthAdjust="spacing" textLength="64" x="56" y="439.8896">Providers</text><path d="M180,463.1914 L170,463.1914 C155,463.1914 155,435.043 140,435.043 L130,435.043 " fill="none" style="stroke:#181818;stroke-width:1.0;"/><rect fill="#F3807B" height="36.2969" rx="12.5" ry="12.5" style="stroke:#181818;stroke-width:1.5;" width="120" x="10" y="473.1914"/><text fill="#000000" font-family="sans-serif" font-size="14" lengthAdjust="spacing" textLength="100" x="20" y="496.1865">Configurations</text><path d="M180,463.1914 L170,463.1914 C155,463.1914 155,491.3398 140,491.3398 L130,491.3398 " fill="none" style="stroke:#181818;stroke-width:1.0;"/><path d="M311,435.043 L301,435.043 C286,435.043 286,463.1914 271,463.1914 L261,463.1914 " fill="none" style="stroke:#181818;stroke-width:1.0;"/><path d="M526,294.3008 L516,294.3008 C501,294.3008 501,435.043 486,435.043 L476,435.043 " fill="none" style="stroke:#181818;stroke-width:1.0;"/><rect fill="#F3807B" height="36.2969" rx="12.5" ry="12.5" style="stroke:#181818;stroke-width:1.5;" width="40" x="436" y="501.3398"/><text fill="#000000" font-family="sans-serif" font-size="14" lengthAdjust="spacing" textLength="20" x="446" y="524.335">CLI</text><rect fill="#F3807B" height="36.2969" rx="12.5" ry="12.5" style="stroke:#181818;stroke-width:1.5;" width="40" x="346" y="473.1914"/><text fill="#000000" font-family="sans-serif" font-size="14" lengthAdjust="spacing" textLength="20" x="356" y="496.1865">Go</text><path d="M436,519.4883 L426,519.4883 C411,519.4883 411,491.3398 396,491.3398 L386,491.3398 " fill="none" style="stroke:#181818;stroke-width:1.0;"/><rect fill="#F3807B" height="36.2969" rx="12.5" ry="12.5" style="stroke:#181818;stroke-width:1.5;" width="38" x="348" y="529.4883"/><text fill="#000000" font-family="sans-serif" font-size="14" lengthAdjust="spacing" textLength="18" x="358" y="552.4834">up</text><path d="M436,519.4883 L426,519.4883 C411,519.4883 411,547.6367 396,547.6367 L386,547.6367 " fill="none" style="stroke:#181818;stroke-width:1.0;"/><path d="M526,294.3008 L516,294.3008 C501,294.3008 501,519.4883 486,519.4883 L476,519.4883 " fill="none" style="stroke:#181818;stroke-width:1.0;"/><path d="M667,294.3008 L657,294.3008 C642,294.3008 642,294.3008 627,294.3008 L617,294.3008 " fill="none" style="stroke:#181818;stroke-width:1.0;"/><!--MD5=[4d65a69d0d0db14cc7e312af54cb457b]
@startmindmap
<style>
mindmapDiagram {
    node {
        BackgroundColor #f3807b
    }
    :depth(1) {
      BackGroundColor #fdcd3c
    }
}
</style>
* Upbound
left
** Enterprise\n Products
*** [[https://github.com/upbound/universal-crossplane Universal Crossplane]]
**** Distribution of Crossplane
**** Feature parity with Crossplane
**** Integrated with the CLI
**** Stable 18 month version support
**** Enables connectivity to UC
**** Language server integration
*** Cloud
*** Registry/Marketplace
**** React frontent
**** Artefacts
***** Providers
***** Configurations
*** CLI
**** Go
**** up
right
** Crossplane\n     OOS
*** Open Source
*** Kubernetes Addon
*** Control Plane
*** API Centric
*** Provider Types
**** Regular Provider
*****_ [[https://github.com/crossplane/crossplane/blob/master/docs/contributing/provider_development_guide.md Documentation]]
*****_ [[https://github.com/crossplane/provider-template Template]] 
**** Terrajet Provider
*****_ [[https://github.com/crossplane/terrajet/blob/main/docs/generating-a-provider.md Documentation]]
*****_ [[https://github.com/crossplane-contrib/provider-jet-template Template]] 
**** Tools
***** [[https://github.com/crossplane/crossplane-tools/blob/master/README.md Angryjet]]
*****_ Adds Crossplane required scaffold to resource kinds
*** Managed Infrastructure
**** Configuration resource
***** Managed Resource
******_ Cluster scoped
******_ High fidelity
******_ Represent resource in extenrnal system
******_ Defined by provider
***** Provider
****** Enable access to extenrnal system
*******_ Kubernetes secret
*******_ Other metadata
******_ Cluster scoped
******_ ProviderConfig resource
**** Controller
*****_ Watches for changes in managed resources (CRUD)
*****_ Calls provider API as a response to the change
*****_ Matches actual state to desired state
@endmindmap

PlantUML version 1.2022.2(Sat Mar 05 17:30:19 CET 2022)
(GPL source distribution)
Java Runtime: OpenJDK Runtime Environment
JVM: OpenJDK 64-Bit Server VM
Default Encoding: UTF-8
Language: en
Country: GB
--></g></svg>