<?xml version="1.0" encoding="UTF-8" standalone="no"?><svg xmlns="http://www.w3.org/2000/svg" xmlns:xlink="http://www.w3.org/1999/xlink" contentScriptType="application/ecmascript" contentStyleType="text/css" height="247px" preserveAspectRatio="none" style="width:834px;height:247px;background:#FFFFFF;" version="1.1" viewBox="0 0 834 247" width="834px" zoomAndPan="magnify"><defs/><g><rect fill="#F3807B" height="36.2969" rx="3.5" ry="3.5" style="stroke:#A80036;stroke-width:1.5;" width="82" x="526" y="104.4453"/><text fill="#000000" font-family="sans-serif" font-size="14" lengthAdjust="spacing" textLength="62" x="536" y="127.4404">products</text><rect fill="#FDCD3C" height="36.2969" rx="3.5" ry="3.5" style="stroke:#A80036;stroke-width:1.5;" width="164" x="658" y="76.2969"/><a href="https://github.com/upbound/universal-crossplane" target="_top" title="https://github.com/upbound/universal-crossplane" xlink:actuate="onRequest" xlink:href="https://github.com/upbound/universal-crossplane" xlink:show="new" xlink:title="https://github.com/upbound/universal-crossplane" xlink:type="simple"><text fill="#0000FF" font-family="sans-serif" font-size="14" lengthAdjust="spacing" text-decoration="underline" textLength="144" x="668" y="99.292">Universal Crossplane</text></a><path d="M608,122.5938 L618,122.5938 C633,122.5938 633,94.4453 648,94.4453 L658,94.4453 " fill="none" style="stroke:#454645;stroke-width:1.0;"/><rect fill="#FDCD3C" height="36.2969" rx="3.5" ry="3.5" style="stroke:#A80036;stroke-width:1.5;" width="60" x="658" y="132.5938"/><text fill="#000000" font-family="sans-serif" font-size="14" lengthAdjust="spacing" textLength="40" x="668" y="155.5889">Cloud</text><path d="M608,122.5938 L618,122.5938 C633,122.5938 633,150.7422 648,150.7422 L658,150.7422 " fill="none" style="stroke:#454645;stroke-width:1.0;"/><rect fill="#FDCD3C" height="36.2969" rx="3.5" ry="3.5" style="stroke:#A80036;stroke-width:1.5;" width="165" x="311" y="76.2969"/><text fill="#000000" font-family="sans-serif" font-size="14" lengthAdjust="spacing" textLength="145" x="321" y="99.292">Registry/Marketplace</text><rect fill="#F3807B" height="36.2969" rx="3.5" ry="3.5" style="stroke:#A80036;stroke-width:1.5;" width="119" x="142" y="20"/><text fill="#000000" font-family="sans-serif" font-size="14" lengthAdjust="spacing" textLength="99" x="152" y="42.9951">React frontent</text><path d="M311,94.4453 L301,94.4453 C286,94.4453 286,38.1484 271,38.1484 L261,38.1484 " fill="none" style="stroke:#454645;stroke-width:1.0;"/><rect fill="#F3807B" height="36.2969" rx="3.5" ry="3.5" style="stroke:#A80036;stroke-width:1.5;" width="81" x="180" y="104.4453"/><text fill="#000000" font-family="sans-serif" font-size="14" lengthAdjust="spacing" textLength="61" x="190" y="127.4404">Artefacts</text><rect fill="#F3807B" height="36.2969" rx="3.5" ry="3.5" style="stroke:#A80036;stroke-width:1.5;" width="84" x="46" y="76.2969"/><text fill="#000000" font-family="sans-serif" font-size="14" lengthAdjust="spacing" textLength="64" x="56" y="99.292">Providers</text><path d="M180,122.5938 L170,122.5938 C155,122.5938 155,94.4453 140,94.4453 L130,94.4453 " fill="none" style="stroke:#454645;stroke-width:1.0;"/><rect fill="#F3807B" height="36.2969" rx="3.5" ry="3.5" style="stroke:#A80036;stroke-width:1.5;" width="120" x="10" y="132.5938"/><text fill="#000000" font-family="sans-serif" font-size="14" lengthAdjust="spacing" textLength="100" x="20" y="155.5889">Configurations</text><path d="M180,122.5938 L170,122.5938 C155,122.5938 155,150.7422 140,150.7422 L130,150.7422 " fill="none" style="stroke:#454645;stroke-width:1.0;"/><path d="M311,94.4453 L301,94.4453 C286,94.4453 286,122.5938 271,122.5938 L261,122.5938 " fill="none" style="stroke:#454645;stroke-width:1.0;"/><path d="M526,122.5938 L516,122.5938 C501,122.5938 501,94.4453 486,94.4453 L476,94.4453 " fill="none" style="stroke:#454645;stroke-width:1.0;"/><rect fill="#FDCD3C" height="36.2969" rx="3.5" ry="3.5" style="stroke:#A80036;stroke-width:1.5;" width="40" x="436" y="160.7422"/><text fill="#000000" font-family="sans-serif" font-size="14" lengthAdjust="spacing" textLength="20" x="446" y="183.7373">CLI</text><rect fill="#F3807B" height="36.2969" rx="3.5" ry="3.5" style="stroke:#A80036;stroke-width:1.5;" width="40" x="346" y="132.5938"/><text fill="#000000" font-family="sans-serif" font-size="14" lengthAdjust="spacing" textLength="20" x="356" y="155.5889">Go</text><path d="M436,178.8906 L426,178.8906 C411,178.8906 411,150.7422 396,150.7422 L386,150.7422 " fill="none" style="stroke:#454645;stroke-width:1.0;"/><rect fill="#F3807B" height="36.2969" rx="3.5" ry="3.5" style="stroke:#A80036;stroke-width:1.5;" width="38" x="348" y="188.8906"/><text fill="#000000" font-family="sans-serif" font-size="14" lengthAdjust="spacing" textLength="18" x="358" y="211.8857">up</text><path d="M436,178.8906 L426,178.8906 C411,178.8906 411,207.0391 396,207.0391 L386,207.0391 " fill="none" style="stroke:#454645;stroke-width:1.0;"/><path d="M526,122.5938 L516,122.5938 C501,122.5938 501,178.8906 486,178.8906 L476,178.8906 " fill="none" style="stroke:#454645;stroke-width:1.0;"/><!--MD5=[e0e66d1f6676df995001219065f16b72]
@startmindmap
!theme vibrant
<style>
mindmapDiagram {
    node {
        BackgroundColor #f3807b
    }
    :depth(1) {
      BackGroundColor #fdcd3c
    }
}
</style>
* products
++ [[https://github.com/upbound/universal-crossplane Universal Crossplane]]
++ Cloud
- - Registry/Marketplace
- - - React frontent
- - - Artefacts
- - - - Providers
- - - - Configurations
- - CLI
- - - Go
- - - up
@endmindmap

@startmindmap
skinparam BackgroundColor FFFFFF
skinparam shadowing false
skinparam RoundCorner 7
skinparam ArrowColor 454645
skinparam FontColor 454645
skinparam SequenceLifeLineBorderColor 696969
skinparam SequenceGroupHeaderFontColor 454645
skinparam SequenceGroupFontColor 696969
skinparam SequenceGroupBorderColor 696969
skinparam SequenceGroupBorderThickness 1

skinparam sequenceDivider {
    BorderColor 454645
    BorderThickness 1
    FontColor 454645
}

skinparam participant {
    BackgroundColor FF6347
    BorderColor 454645
    FontColor FFFFFF
    BorderThickness 1.5
}

skinparam database {
    BackgroundColor 00FFFF
    BorderColor 454645
    FontColor 454645
}

skinparam entity {
    BackgroundColor FFE552
    BorderColor 454645
    FontColor 454645
}

skinparam note {
    BackgroundColor 7FFFD4
    BorderColor 454645
    FontColor 454645
    BorderThickness 1.5
}

skinparam actor {
    BackgroundColor 454645
    BorderColor 454645
    FontColor 454645
}

skinparam boundary {
    BackgroundColor FFE552
    BorderColor 454645
    FontColor 454645
}

skinparam control {
    BackgroundColor FFE552
    BorderColor 454645
    FontColor 454645
}

skinparam collections {
    BackgroundColor FF5F42
    BorderColor 454645
    FontColor 454645
}

skinparam queue {
    BackgroundColor FF6347
    BorderColor 454645
    FontColor FFF
    BorderThickness 1.5
}
<style>
mindmapDiagram {
    node {
        BackgroundColor #f3807b
    }
    :depth(1) {
      BackGroundColor #fdcd3c
    }
}
</style>
* products
++ [[https://github.com/upbound/universal-crossplane Universal Crossplane]]
++ Cloud
- - Registry/Marketplace
- - - React frontent
- - - Artefacts
- - - - Providers
- - - - Configurations
- - CLI
- - - Go
- - - up
@endmindmap

PlantUML version 1.2022.0(Tue Jan 11 17:16:42 CET 2022)
(GPL source distribution)
Java Runtime: OpenJDK Runtime Environment
JVM: OpenJDK 64-Bit Server VM
Default Encoding: UTF-8
Language: en
Country: GB
--></g></svg>