<?xml version="1.0" encoding="UTF-8" standalone="no"?><svg xmlns="http://www.w3.org/2000/svg" xmlns:xlink="http://www.w3.org/1999/xlink" contentScriptType="application/ecmascript" contentStyleType="text/css" height="584px" preserveAspectRatio="none" style="width:1435px;height:584px;background:#FFFFFF;" version="1.1" viewBox="0 0 1435 584" width="1435px" zoomAndPan="magnify"><defs/><g><rect fill="#F3807B" height="36.2969" rx="3.5" ry="3.5" style="stroke:#A80036;stroke-width:1.5;" width="84" x="667" y="273.3359"/><text fill="#000000" font-family="sans-serif" font-size="14" lengthAdjust="spacing" textLength="64" x="677" y="296.3311">Upbound</text><rect fill="#FDCD3C" height="52.5938" rx="3.5" ry="3.5" style="stroke:#A80036;stroke-width:1.5;" width="98" x="801" y="265.1875"/><text fill="#000000" font-family="sans-serif" font-size="14" lengthAdjust="spacing" textLength="78" x="811" y="288.1826">Crossplane</text><text fill="#000000" font-family="sans-serif" font-size="14" lengthAdjust="spacing" textLength="31" x="831" y="304.4795">OOS</text><rect fill="#F3807B" height="36.2969" rx="3.5" ry="3.5" style="stroke:#A80036;stroke-width:1.5;" width="111" x="949" y="146.668"/><text fill="#000000" font-family="sans-serif" font-size="14" lengthAdjust="spacing" textLength="91" x="959" y="169.6631">Open Source</text><path d="M899,291.4844 L909,291.4844 C924,291.4844 924,164.8164 939,164.8164 L949,164.8164 " fill="none" style="stroke:#454645;stroke-width:1.0;"/><rect fill="#F3807B" height="36.2969" rx="3.5" ry="3.5" style="stroke:#A80036;stroke-width:1.5;" width="150" x="949" y="202.9648"/><text fill="#000000" font-family="sans-serif" font-size="14" lengthAdjust="spacing" textLength="130" x="959" y="225.96">Kubernetes Addon</text><path d="M899,291.4844 L909,291.4844 C924,291.4844 924,221.1133 939,221.1133 L949,221.1133 " fill="none" style="stroke:#454645;stroke-width:1.0;"/><rect fill="#F3807B" height="36.2969" rx="3.5" ry="3.5" style="stroke:#A80036;stroke-width:1.5;" width="112" x="949" y="259.2617"/><text fill="#000000" font-family="sans-serif" font-size="14" lengthAdjust="spacing" textLength="92" x="959" y="282.2568">Control Plane</text><path d="M899,291.4844 L909,291.4844 C924,291.4844 924,277.4102 939,277.4102 L949,277.4102 " fill="none" style="stroke:#454645;stroke-width:1.0;"/><rect fill="#F3807B" height="36.2969" rx="3.5" ry="3.5" style="stroke:#A80036;stroke-width:1.5;" width="94" x="949" y="315.5586"/><text fill="#000000" font-family="sans-serif" font-size="14" lengthAdjust="spacing" textLength="74" x="959" y="338.5537">API Centric</text><path d="M899,291.4844 L909,291.4844 C924,291.4844 924,333.707 939,333.707 L949,333.707 " fill="none" style="stroke:#454645;stroke-width:1.0;"/><rect fill="#F3807B" height="36.2969" rx="3.5" ry="3.5" style="stroke:#A80036;stroke-width:1.5;" width="84" x="949" y="371.8555"/><text fill="#000000" font-family="sans-serif" font-size="14" lengthAdjust="spacing" textLength="64" x="959" y="394.8506">Providers</text><rect fill="#F3807B" height="36.2969" rx="3.5" ry="3.5" style="stroke:#A80036;stroke-width:1.5;" width="127" x="1083" y="343.707"/><text fill="#000000" font-family="sans-serif" font-size="14" lengthAdjust="spacing" textLength="107" x="1093" y="366.7021">Documentation</text><a href="https://github.com/crossplane/terrajet/blob/main/docs/generating-a-provider.md" target="_top" title="https://github.com/crossplane/terrajet/blob/main/docs/generating-a-provider.md" xlink:actuate="onRequest" xlink:href="https://github.com/crossplane/terrajet/blob/main/docs/generating-a-provider.md" xlink:show="new" xlink:title="https://github.com/crossplane/terrajet/blob/main/docs/generating-a-provider.md" xlink:type="simple"><text fill="#0000FF" font-family="sans-serif" font-size="14" lengthAdjust="spacing" text-decoration="underline" textLength="93" x="1263" y="357.5537">Terrajet Docs</text></a><path d="M1210,361.8555 L1220,361.8555 C1235,361.8555 1235,352.707 1250,352.707 L1260,352.707 " fill="none" style="stroke:#454645;stroke-width:1.0;"/><a href="https://github.com/crossplane/crossplane/blob/master/docs/contributing/provider_development_guide.md" target="_top" title="https://github.com/crossplane/crossplane/blob/master/docs/contributing/provider_development_guide.md" xlink:actuate="onRequest" xlink:href="https://github.com/crossplane/crossplane/blob/master/docs/contributing/provider_development_guide.md" xlink:show="new" xlink:title="https://github.com/crossplane/crossplane/blob/master/docs/contributing/provider_development_guide.md" xlink:type="simple"><text fill="#0000FF" font-family="sans-serif" font-size="14" lengthAdjust="spacing" text-decoration="underline" textLength="93" x="1263" y="375.8506">Regular Docs</text></a><path d="M1210,361.8555 L1220,361.8555 C1235,361.8555 1235,371.0039 1250,371.0039 L1260,371.0039 " fill="none" style="stroke:#454645;stroke-width:1.0;"/><path d="M1033,390.0039 L1043,390.0039 C1058,390.0039 1058,361.8555 1073,361.8555 L1083,361.8555 " fill="none" style="stroke:#454645;stroke-width:1.0;"/><rect fill="#F3807B" height="36.2969" rx="3.5" ry="3.5" style="stroke:#A80036;stroke-width:1.5;" width="161" x="1083" y="400.0039"/><text fill="#000000" font-family="sans-serif" font-size="14" lengthAdjust="spacing" textLength="141" x="1093" y="422.999">Providers Templates</text><a href="https://github.com/crossplane-contrib/provider-jet-template" target="_top" title="https://github.com/crossplane-contrib/provider-jet-template" xlink:actuate="onRequest" xlink:href="https://github.com/crossplane-contrib/provider-jet-template" xlink:show="new" xlink:title="https://github.com/crossplane-contrib/provider-jet-template" xlink:type="simple"><text fill="#0000FF" font-family="sans-serif" font-size="14" lengthAdjust="spacing" text-decoration="underline" textLength="122" x="1297" y="413.8506">Terrajet Template</text></a><text fill="#000000" font-family="sans-serif" font-size="14" lengthAdjust="spacing" textLength="0" x="1423" y="413.8506"/><path d="M1244,418.1523 L1254,418.1523 C1269,418.1523 1269,409.0039 1284,409.0039 L1294,409.0039 " fill="none" style="stroke:#454645;stroke-width:1.0;"/><a href="https://github.com/crossplane/provider-template" target="_top" title="https://github.com/crossplane/provider-template" xlink:actuate="onRequest" xlink:href="https://github.com/crossplane/provider-template" xlink:show="new" xlink:title="https://github.com/crossplane/provider-template" xlink:type="simple"><text fill="#0000FF" font-family="sans-serif" font-size="14" lengthAdjust="spacing" text-decoration="underline" textLength="122" x="1297" y="432.1475">Regular Template</text></a><text fill="#000000" font-family="sans-serif" font-size="14" lengthAdjust="spacing" textLength="0" x="1423" y="432.1475"/><path d="M1244,418.1523 L1254,418.1523 C1269,418.1523 1269,427.3008 1284,427.3008 L1294,427.3008 " fill="none" style="stroke:#454645;stroke-width:1.0;"/><path d="M1033,390.0039 L1043,390.0039 C1058,390.0039 1058,418.1523 1073,418.1523 L1083,418.1523 " fill="none" style="stroke:#454645;stroke-width:1.0;"/><path d="M899,291.4844 L909,291.4844 C924,291.4844 924,390.0039 939,390.0039 L949,390.0039 " fill="none" style="stroke:#454645;stroke-width:1.0;"/><path d="M751,291.4844 L761,291.4844 C776,291.4844 776,291.4844 791,291.4844 L801,291.4844 " fill="none" style="stroke:#454645;stroke-width:1.0;"/><rect fill="#FDCD3C" height="52.5938" rx="3.5" ry="3.5" style="stroke:#A80036;stroke-width:1.5;" width="91" x="526" y="265.1875"/><text fill="#000000" font-family="sans-serif" font-size="14" lengthAdjust="spacing" textLength="71" x="536" y="288.1826">Enterprise</text><text fill="#000000" font-family="sans-serif" font-size="14" lengthAdjust="spacing" textLength="62" x="540" y="304.4795">Products</text><rect fill="#F3807B" height="36.2969" rx="3.5" ry="3.5" style="stroke:#A80036;stroke-width:1.5;" width="164" x="312" y="160.7422"/><a href="https://github.com/upbound/universal-crossplane" target="_top" title="https://github.com/upbound/universal-crossplane" xlink:actuate="onRequest" xlink:href="https://github.com/upbound/universal-crossplane" xlink:show="new" xlink:title="https://github.com/upbound/universal-crossplane" xlink:type="simple"><text fill="#0000FF" font-family="sans-serif" font-size="14" lengthAdjust="spacing" text-decoration="underline" textLength="144" x="322" y="183.7373">Universal Crossplane</text></a><rect fill="#F3807B" height="36.2969" rx="3.5" ry="3.5" style="stroke:#A80036;stroke-width:1.5;" width="198" x="64" y="20"/><text fill="#000000" font-family="sans-serif" font-size="14" lengthAdjust="spacing" textLength="178" x="74" y="42.9951">Distribution of Crossplane</text><path d="M312,178.8906 L302,178.8906 C287,178.8906 287,38.1484 272,38.1484 L262,38.1484 " fill="none" style="stroke:#454645;stroke-width:1.0;"/><rect fill="#F3807B" height="36.2969" rx="3.5" ry="3.5" style="stroke:#A80036;stroke-width:1.5;" width="228" x="34" y="76.2969"/><text fill="#000000" font-family="sans-serif" font-size="14" lengthAdjust="spacing" textLength="208" x="44" y="99.292">Feature parity with Crossplane</text><path d="M312,178.8906 L302,178.8906 C287,178.8906 287,94.4453 272,94.4453 L262,94.4453 " fill="none" style="stroke:#454645;stroke-width:1.0;"/><rect fill="#F3807B" height="36.2969" rx="3.5" ry="3.5" style="stroke:#A80036;stroke-width:1.5;" width="174" x="88" y="132.5938"/><text fill="#000000" font-family="sans-serif" font-size="14" lengthAdjust="spacing" textLength="154" x="98" y="155.5889">Integrated with the CLI</text><path d="M312,178.8906 L302,178.8906 C287,178.8906 287,150.7422 272,150.7422 L262,150.7422 " fill="none" style="stroke:#454645;stroke-width:1.0;"/><rect fill="#F3807B" height="36.2969" rx="3.5" ry="3.5" style="stroke:#A80036;stroke-width:1.5;" width="246" x="16" y="188.8906"/><text fill="#000000" font-family="sans-serif" font-size="14" lengthAdjust="spacing" textLength="226" x="26" y="211.8857">Stable 18 month version support</text><path d="M312,178.8906 L302,178.8906 C287,178.8906 287,207.0391 272,207.0391 L262,207.0391 " fill="none" style="stroke:#454645;stroke-width:1.0;"/><rect fill="#F3807B" height="36.2969" rx="3.5" ry="3.5" style="stroke:#A80036;stroke-width:1.5;" width="203" x="59" y="245.1875"/><text fill="#000000" font-family="sans-serif" font-size="14" lengthAdjust="spacing" textLength="183" x="69" y="268.1826">Enables connectivity to UC</text><path d="M312,178.8906 L302,178.8906 C287,178.8906 287,263.3359 272,263.3359 L262,263.3359 " fill="none" style="stroke:#454645;stroke-width:1.0;"/><rect fill="#F3807B" height="36.2969" rx="3.5" ry="3.5" style="stroke:#A80036;stroke-width:1.5;" width="213" x="49" y="301.4844"/><text fill="#000000" font-family="sans-serif" font-size="14" lengthAdjust="spacing" textLength="193" x="59" y="324.4795">Language server integration</text><path d="M312,178.8906 L302,178.8906 C287,178.8906 287,319.6328 272,319.6328 L262,319.6328 " fill="none" style="stroke:#454645;stroke-width:1.0;"/><path d="M526,291.4844 L516,291.4844 C501,291.4844 501,178.8906 486,178.8906 L476,178.8906 " fill="none" style="stroke:#454645;stroke-width:1.0;"/><rect fill="#F3807B" height="36.2969" rx="3.5" ry="3.5" style="stroke:#A80036;stroke-width:1.5;" width="60" x="416" y="217.0391"/><text fill="#000000" font-family="sans-serif" font-size="14" lengthAdjust="spacing" textLength="40" x="426" y="240.0342">Cloud</text><path d="M526,291.4844 L516,291.4844 C501,291.4844 501,235.1875 486,235.1875 L476,235.1875 " fill="none" style="stroke:#454645;stroke-width:1.0;"/><rect fill="#F3807B" height="36.2969" rx="3.5" ry="3.5" style="stroke:#A80036;stroke-width:1.5;" width="165" x="311" y="414.0781"/><text fill="#000000" font-family="sans-serif" font-size="14" lengthAdjust="spacing" textLength="145" x="321" y="437.0732">Registry/Marketplace</text><rect fill="#F3807B" height="36.2969" rx="3.5" ry="3.5" style="stroke:#A80036;stroke-width:1.5;" width="119" x="142" y="357.7813"/><text fill="#000000" font-family="sans-serif" font-size="14" lengthAdjust="spacing" textLength="99" x="152" y="380.7764">React frontent</text><path d="M311,432.2266 L301,432.2266 C286,432.2266 286,375.9297 271,375.9297 L261,375.9297 " fill="none" style="stroke:#454645;stroke-width:1.0;"/><rect fill="#F3807B" height="36.2969" rx="3.5" ry="3.5" style="stroke:#A80036;stroke-width:1.5;" width="81" x="180" y="442.2266"/><text fill="#000000" font-family="sans-serif" font-size="14" lengthAdjust="spacing" textLength="61" x="190" y="465.2217">Artefacts</text><rect fill="#F3807B" height="36.2969" rx="3.5" ry="3.5" style="stroke:#A80036;stroke-width:1.5;" width="84" x="46" y="414.0781"/><text fill="#000000" font-family="sans-serif" font-size="14" lengthAdjust="spacing" textLength="64" x="56" y="437.0732">Providers</text><path d="M180,460.375 L170,460.375 C155,460.375 155,432.2266 140,432.2266 L130,432.2266 " fill="none" style="stroke:#454645;stroke-width:1.0;"/><rect fill="#F3807B" height="36.2969" rx="3.5" ry="3.5" style="stroke:#A80036;stroke-width:1.5;" width="120" x="10" y="470.375"/><text fill="#000000" font-family="sans-serif" font-size="14" lengthAdjust="spacing" textLength="100" x="20" y="493.3701">Configurations</text><path d="M180,460.375 L170,460.375 C155,460.375 155,488.5234 140,488.5234 L130,488.5234 " fill="none" style="stroke:#454645;stroke-width:1.0;"/><path d="M311,432.2266 L301,432.2266 C286,432.2266 286,460.375 271,460.375 L261,460.375 " fill="none" style="stroke:#454645;stroke-width:1.0;"/><path d="M526,291.4844 L516,291.4844 C501,291.4844 501,432.2266 486,432.2266 L476,432.2266 " fill="none" style="stroke:#454645;stroke-width:1.0;"/><rect fill="#F3807B" height="36.2969" rx="3.5" ry="3.5" style="stroke:#A80036;stroke-width:1.5;" width="40" x="436" y="498.5234"/><text fill="#000000" font-family="sans-serif" font-size="14" lengthAdjust="spacing" textLength="20" x="446" y="521.5186">CLI</text><rect fill="#F3807B" height="36.2969" rx="3.5" ry="3.5" style="stroke:#A80036;stroke-width:1.5;" width="40" x="346" y="470.375"/><text fill="#000000" font-family="sans-serif" font-size="14" lengthAdjust="spacing" textLength="20" x="356" y="493.3701">Go</text><path d="M436,516.6719 L426,516.6719 C411,516.6719 411,488.5234 396,488.5234 L386,488.5234 " fill="none" style="stroke:#454645;stroke-width:1.0;"/><rect fill="#F3807B" height="36.2969" rx="3.5" ry="3.5" style="stroke:#A80036;stroke-width:1.5;" width="38" x="348" y="526.6719"/><text fill="#000000" font-family="sans-serif" font-size="14" lengthAdjust="spacing" textLength="18" x="358" y="549.667">up</text><path d="M436,516.6719 L426,516.6719 C411,516.6719 411,544.8203 396,544.8203 L386,544.8203 " fill="none" style="stroke:#454645;stroke-width:1.0;"/><path d="M526,291.4844 L516,291.4844 C501,291.4844 501,516.6719 486,516.6719 L476,516.6719 " fill="none" style="stroke:#454645;stroke-width:1.0;"/><path d="M667,291.4844 L657,291.4844 C642,291.4844 642,291.4844 627,291.4844 L617,291.4844 " fill="none" style="stroke:#454645;stroke-width:1.0;"/><!--MD5=[cd728ec26e48c739d3ef4dd3e4f1f90b]
@startmindmap
!theme vibrant
<style>
mindmapDiagram {
    node {
        BackgroundColor #f3807b
    }
    :depth(1) {
      BackGroundColor #fdcd3c
    }
}
</style>
* Upbound
left
** Enterprise\n Products
*** [[https://github.com/upbound/universal-crossplane Universal Crossplane]]
**** Distribution of Crossplane
**** Feature parity with Crossplane
**** Integrated with the CLI
**** Stable 18 month version support
**** Enables connectivity to UC
**** Language server integration
*** Cloud
*** Registry/Marketplace
**** React frontent
**** Artefacts
***** Providers
***** Configurations
*** CLI
**** Go
**** up
right
** Crossplane\n     OOS
*** Open Source
*** Kubernetes Addon
*** Control Plane
*** API Centric
*** Providers
**** Documentation
*****_ [[https://github.com/crossplane/terrajet/blob/main/docs/generating-a-provider.md Terrajet Docs]]
*****_ [[https://github.com/crossplane/crossplane/blob/master/docs/contributing/provider_development_guide.md Regular Docs]]
**** Providers Templates
*****_ [[https://github.com/crossplane-contrib/provider-jet-template Terrajet Template]] 
*****_ [[https://github.com/crossplane/provider-template Regular Template]] 
@endmindmap

@startmindmap
skinparam BackgroundColor FFFFFF
skinparam shadowing false
skinparam RoundCorner 7
skinparam ArrowColor 454645
skinparam FontColor 454645
skinparam SequenceLifeLineBorderColor 696969
skinparam SequenceGroupHeaderFontColor 454645
skinparam SequenceGroupFontColor 696969
skinparam SequenceGroupBorderColor 696969
skinparam SequenceGroupBorderThickness 1

skinparam sequenceDivider {
    BorderColor 454645
    BorderThickness 1
    FontColor 454645
}

skinparam participant {
    BackgroundColor FF6347
    BorderColor 454645
    FontColor FFFFFF
    BorderThickness 1.5
}

skinparam database {
    BackgroundColor 00FFFF
    BorderColor 454645
    FontColor 454645
}

skinparam entity {
    BackgroundColor FFE552
    BorderColor 454645
    FontColor 454645
}

skinparam note {
    BackgroundColor 7FFFD4
    BorderColor 454645
    FontColor 454645
    BorderThickness 1.5
}

skinparam actor {
    BackgroundColor 454645
    BorderColor 454645
    FontColor 454645
}

skinparam boundary {
    BackgroundColor FFE552
    BorderColor 454645
    FontColor 454645
}

skinparam control {
    BackgroundColor FFE552
    BorderColor 454645
    FontColor 454645
}

skinparam collections {
    BackgroundColor FF5F42
    BorderColor 454645
    FontColor 454645
}

skinparam queue {
    BackgroundColor FF6347
    BorderColor 454645
    FontColor FFF
    BorderThickness 1.5
}
<style>
mindmapDiagram {
    node {
        BackgroundColor #f3807b
    }
    :depth(1) {
      BackGroundColor #fdcd3c
    }
}
</style>
* Upbound
left
** Enterprise\n Products
*** [[https://github.com/upbound/universal-crossplane Universal Crossplane]]
**** Distribution of Crossplane
**** Feature parity with Crossplane
**** Integrated with the CLI
**** Stable 18 month version support
**** Enables connectivity to UC
**** Language server integration
*** Cloud
*** Registry/Marketplace
**** React frontent
**** Artefacts
***** Providers
***** Configurations
*** CLI
**** Go
**** up
right
** Crossplane\n     OOS
*** Open Source
*** Kubernetes Addon
*** Control Plane
*** API Centric
*** Providers
**** Documentation
*****_ [[https://github.com/crossplane/terrajet/blob/main/docs/generating-a-provider.md Terrajet Docs]]
*****_ [[https://github.com/crossplane/crossplane/blob/master/docs/contributing/provider_development_guide.md Regular Docs]]
**** Providers Templates
*****_ [[https://github.com/crossplane-contrib/provider-jet-template Terrajet Template]] 
*****_ [[https://github.com/crossplane/provider-template Regular Template]] 
@endmindmap

PlantUML version 1.2022.0(Tue Jan 11 17:16:42 CET 2022)
(GPL source distribution)
Java Runtime: OpenJDK Runtime Environment
JVM: OpenJDK 64-Bit Server VM
Default Encoding: UTF-8
Language: en
Country: GB
--></g></svg>