<?xml version="1.0" encoding="UTF-8" standalone="no"?><svg xmlns="http://www.w3.org/2000/svg" xmlns:xlink="http://www.w3.org/1999/xlink" contentScriptType="application/ecmascript" contentStyleType="text/css" height="359px" preserveAspectRatio="none" style="width:1130px;height:359px;background:#FFFFFF;" version="1.1" viewBox="0 0 1130 359" width="1130px" zoomAndPan="magnify"><defs/><g><rect fill="#F3807B" height="36.2969" rx="3.5" ry="3.5" style="stroke:#A80036;stroke-width:1.5;" width="82" x="526" y="160.7422"/><text fill="#000000" font-family="sans-serif" font-size="14" lengthAdjust="spacing" textLength="62" x="536" y="183.7373">products</text><rect fill="#FDCD3C" height="36.2969" rx="3.5" ry="3.5" style="stroke:#A80036;stroke-width:1.5;" width="164" x="658" y="160.7422"/><a href="https://github.com/upbound/universal-crossplane" target="_top" title="https://github.com/upbound/universal-crossplane" xlink:actuate="onRequest" xlink:href="https://github.com/upbound/universal-crossplane" xlink:show="new" xlink:title="https://github.com/upbound/universal-crossplane" xlink:type="simple"><text fill="#0000FF" font-family="sans-serif" font-size="14" lengthAdjust="spacing" text-decoration="underline" textLength="144" x="668" y="183.7373">Universal Crossplane</text></a><rect fill="#F3807B" height="36.2969" rx="3.5" ry="3.5" style="stroke:#A80036;stroke-width:1.5;" width="198" x="872" y="20"/><text fill="#000000" font-family="sans-serif" font-size="14" lengthAdjust="spacing" textLength="178" x="882" y="42.9951">Distribution of Crossplane</text><path d="M822,178.8906 L832,178.8906 C847,178.8906 847,38.1484 862,38.1484 L872,38.1484 " fill="none" style="stroke:#454645;stroke-width:1.0;"/><rect fill="#F3807B" height="36.2969" rx="3.5" ry="3.5" style="stroke:#A80036;stroke-width:1.5;" width="228" x="872" y="76.2969"/><text fill="#000000" font-family="sans-serif" font-size="14" lengthAdjust="spacing" textLength="208" x="882" y="99.292">Feature parity with Crossplane</text><path d="M822,178.8906 L832,178.8906 C847,178.8906 847,94.4453 862,94.4453 L872,94.4453 " fill="none" style="stroke:#454645;stroke-width:1.0;"/><rect fill="#F3807B" height="36.2969" rx="3.5" ry="3.5" style="stroke:#A80036;stroke-width:1.5;" width="174" x="872" y="132.5938"/><text fill="#000000" font-family="sans-serif" font-size="14" lengthAdjust="spacing" textLength="154" x="882" y="155.5889">Integrated with the CLI</text><path d="M822,178.8906 L832,178.8906 C847,178.8906 847,150.7422 862,150.7422 L872,150.7422 " fill="none" style="stroke:#454645;stroke-width:1.0;"/><rect fill="#F3807B" height="36.2969" rx="3.5" ry="3.5" style="stroke:#A80036;stroke-width:1.5;" width="246" x="872" y="188.8906"/><text fill="#000000" font-family="sans-serif" font-size="14" lengthAdjust="spacing" textLength="226" x="882" y="211.8857">Stable 18 month version support</text><path d="M822,178.8906 L832,178.8906 C847,178.8906 847,207.0391 862,207.0391 L872,207.0391 " fill="none" style="stroke:#454645;stroke-width:1.0;"/><rect fill="#F3807B" height="36.2969" rx="3.5" ry="3.5" style="stroke:#A80036;stroke-width:1.5;" width="203" x="872" y="245.1875"/><text fill="#000000" font-family="sans-serif" font-size="14" lengthAdjust="spacing" textLength="183" x="882" y="268.1826">Enables connectivity to UC</text><path d="M822,178.8906 L832,178.8906 C847,178.8906 847,263.3359 862,263.3359 L872,263.3359 " fill="none" style="stroke:#454645;stroke-width:1.0;"/><rect fill="#F3807B" height="36.2969" rx="3.5" ry="3.5" style="stroke:#A80036;stroke-width:1.5;" width="213" x="872" y="301.4844"/><text fill="#000000" font-family="sans-serif" font-size="14" lengthAdjust="spacing" textLength="193" x="882" y="324.4795">Language server integration</text><path d="M822,178.8906 L832,178.8906 C847,178.8906 847,319.6328 862,319.6328 L872,319.6328 " fill="none" style="stroke:#454645;stroke-width:1.0;"/><path d="M608,178.8906 L618,178.8906 C633,178.8906 633,178.8906 648,178.8906 L658,178.8906 " fill="none" style="stroke:#454645;stroke-width:1.0;"/><rect fill="#FDCD3C" height="36.2969" rx="3.5" ry="3.5" style="stroke:#A80036;stroke-width:1.5;" width="60" x="658" y="217.0391"/><text fill="#000000" font-family="sans-serif" font-size="14" lengthAdjust="spacing" textLength="40" x="668" y="240.0342">Cloud</text><path d="M608,178.8906 L618,178.8906 C633,178.8906 633,235.1875 648,235.1875 L658,235.1875 " fill="none" style="stroke:#454645;stroke-width:1.0;"/><rect fill="#FDCD3C" height="36.2969" rx="3.5" ry="3.5" style="stroke:#A80036;stroke-width:1.5;" width="165" x="311" y="132.5938"/><text fill="#000000" font-family="sans-serif" font-size="14" lengthAdjust="spacing" textLength="145" x="321" y="155.5889">Registry/Marketplace</text><rect fill="#F3807B" height="36.2969" rx="3.5" ry="3.5" style="stroke:#A80036;stroke-width:1.5;" width="119" x="142" y="76.2969"/><text fill="#000000" font-family="sans-serif" font-size="14" lengthAdjust="spacing" textLength="99" x="152" y="99.292">React frontent</text><path d="M311,150.7422 L301,150.7422 C286,150.7422 286,94.4453 271,94.4453 L261,94.4453 " fill="none" style="stroke:#454645;stroke-width:1.0;"/><rect fill="#F3807B" height="36.2969" rx="3.5" ry="3.5" style="stroke:#A80036;stroke-width:1.5;" width="81" x="180" y="160.7422"/><text fill="#000000" font-family="sans-serif" font-size="14" lengthAdjust="spacing" textLength="61" x="190" y="183.7373">Artefacts</text><rect fill="#F3807B" height="36.2969" rx="3.5" ry="3.5" style="stroke:#A80036;stroke-width:1.5;" width="84" x="46" y="132.5938"/><text fill="#000000" font-family="sans-serif" font-size="14" lengthAdjust="spacing" textLength="64" x="56" y="155.5889">Providers</text><path d="M180,178.8906 L170,178.8906 C155,178.8906 155,150.7422 140,150.7422 L130,150.7422 " fill="none" style="stroke:#454645;stroke-width:1.0;"/><rect fill="#F3807B" height="36.2969" rx="3.5" ry="3.5" style="stroke:#A80036;stroke-width:1.5;" width="120" x="10" y="188.8906"/><text fill="#000000" font-family="sans-serif" font-size="14" lengthAdjust="spacing" textLength="100" x="20" y="211.8857">Configurations</text><path d="M180,178.8906 L170,178.8906 C155,178.8906 155,207.0391 140,207.0391 L130,207.0391 " fill="none" style="stroke:#454645;stroke-width:1.0;"/><path d="M311,150.7422 L301,150.7422 C286,150.7422 286,178.8906 271,178.8906 L261,178.8906 " fill="none" style="stroke:#454645;stroke-width:1.0;"/><path d="M526,178.8906 L516,178.8906 C501,178.8906 501,150.7422 486,150.7422 L476,150.7422 " fill="none" style="stroke:#454645;stroke-width:1.0;"/><rect fill="#FDCD3C" height="36.2969" rx="3.5" ry="3.5" style="stroke:#A80036;stroke-width:1.5;" width="40" x="436" y="217.0391"/><text fill="#000000" font-family="sans-serif" font-size="14" lengthAdjust="spacing" textLength="20" x="446" y="240.0342">CLI</text><rect fill="#F3807B" height="36.2969" rx="3.5" ry="3.5" style="stroke:#A80036;stroke-width:1.5;" width="40" x="346" y="188.8906"/><text fill="#000000" font-family="sans-serif" font-size="14" lengthAdjust="spacing" textLength="20" x="356" y="211.8857">Go</text><path d="M436,235.1875 L426,235.1875 C411,235.1875 411,207.0391 396,207.0391 L386,207.0391 " fill="none" style="stroke:#454645;stroke-width:1.0;"/><rect fill="#F3807B" height="36.2969" rx="3.5" ry="3.5" style="stroke:#A80036;stroke-width:1.5;" width="38" x="348" y="245.1875"/><text fill="#000000" font-family="sans-serif" font-size="14" lengthAdjust="spacing" textLength="18" x="358" y="268.1826">up</text><path d="M436,235.1875 L426,235.1875 C411,235.1875 411,263.3359 396,263.3359 L386,263.3359 " fill="none" style="stroke:#454645;stroke-width:1.0;"/><path d="M526,178.8906 L516,178.8906 C501,178.8906 501,235.1875 486,235.1875 L476,235.1875 " fill="none" style="stroke:#454645;stroke-width:1.0;"/><!--MD5=[3ffc5eb8b579c83ba2d12c8b90c08cb2]
@startmindmap
!theme vibrant
<style>
mindmapDiagram {
    node {
        BackgroundColor #f3807b
    }
    :depth(1) {
      BackGroundColor #fdcd3c
    }
}
</style>
* products
++ [[https://github.com/upbound/universal-crossplane Universal Crossplane]]
+++ Distribution of Crossplane
+++ Feature parity with Crossplane
+++ Integrated with the CLI
+++ Stable 18 month version support
+++ Enables connectivity to UC
+++ Language server integration
++ Cloud
- - Registry/Marketplace
- - - React frontent
- - - Artefacts
- - - - Providers
- - - - Configurations
- - CLI
- - - Go
- - - up
@endmindmap

@startmindmap
skinparam BackgroundColor FFFFFF
skinparam shadowing false
skinparam RoundCorner 7
skinparam ArrowColor 454645
skinparam FontColor 454645
skinparam SequenceLifeLineBorderColor 696969
skinparam SequenceGroupHeaderFontColor 454645
skinparam SequenceGroupFontColor 696969
skinparam SequenceGroupBorderColor 696969
skinparam SequenceGroupBorderThickness 1

skinparam sequenceDivider {
    BorderColor 454645
    BorderThickness 1
    FontColor 454645
}

skinparam participant {
    BackgroundColor FF6347
    BorderColor 454645
    FontColor FFFFFF
    BorderThickness 1.5
}

skinparam database {
    BackgroundColor 00FFFF
    BorderColor 454645
    FontColor 454645
}

skinparam entity {
    BackgroundColor FFE552
    BorderColor 454645
    FontColor 454645
}

skinparam note {
    BackgroundColor 7FFFD4
    BorderColor 454645
    FontColor 454645
    BorderThickness 1.5
}

skinparam actor {
    BackgroundColor 454645
    BorderColor 454645
    FontColor 454645
}

skinparam boundary {
    BackgroundColor FFE552
    BorderColor 454645
    FontColor 454645
}

skinparam control {
    BackgroundColor FFE552
    BorderColor 454645
    FontColor 454645
}

skinparam collections {
    BackgroundColor FF5F42
    BorderColor 454645
    FontColor 454645
}

skinparam queue {
    BackgroundColor FF6347
    BorderColor 454645
    FontColor FFF
    BorderThickness 1.5
}
<style>
mindmapDiagram {
    node {
        BackgroundColor #f3807b
    }
    :depth(1) {
      BackGroundColor #fdcd3c
    }
}
</style>
* products
++ [[https://github.com/upbound/universal-crossplane Universal Crossplane]]
+++ Distribution of Crossplane
+++ Feature parity with Crossplane
+++ Integrated with the CLI
+++ Stable 18 month version support
+++ Enables connectivity to UC
+++ Language server integration
++ Cloud
- - Registry/Marketplace
- - - React frontent
- - - Artefacts
- - - - Providers
- - - - Configurations
- - CLI
- - - Go
- - - up
@endmindmap

PlantUML version 1.2022.0(Tue Jan 11 17:16:42 CET 2022)
(GPL source distribution)
Java Runtime: OpenJDK Runtime Environment
JVM: OpenJDK 64-Bit Server VM
Default Encoding: UTF-8
Language: en
Country: GB
--></g></svg>