<svg width="512" height="512" viewBox="0 0 512 512" fill="none" xmlns="http://www.w3.org/2000/svg">
<g clip-path="url(#clip0_6_15)">
<path d="M255.968 0C114.624 0 0.000147727 115.072 0.000147727 257.024C-0.0576001 310.897 16.8166 363.427 48.238 407.188C79.6593 450.95 124.039 483.73 175.104 500.896C187.904 503.264 192.576 495.328 192.576 488.512C192.576 482.4 192.352 466.24 192.224 444.8C121.024 460.32 105.984 410.336 105.984 410.336C94.3681 380.64 77.5681 372.736 77.5681 372.736C54.3041 356.8 79.2961 357.12 79.2961 357.12C104.992 358.944 118.496 383.616 118.496 383.616C141.344 422.88 178.432 411.552 193.024 404.96C195.328 388.352 201.952 377.024 209.28 370.592C152.448 364.096 92.6721 342.048 92.6721 243.584C92.6721 215.52 102.656 192.576 119.04 174.592C116.384 168.096 107.616 141.952 121.536 106.592C121.536 106.592 143.04 99.68 191.936 132.928C212.824 127.22 234.378 124.314 256.032 124.288C277.687 124.331 299.24 127.247 320.128 132.96C368.992 99.712 390.464 106.624 390.464 106.624C404.416 142.016 395.648 168.128 393.024 174.624C409.44 192.608 419.328 215.552 419.328 243.616C419.328 342.336 359.488 364.064 302.464 370.432C311.648 378.368 319.84 394.048 319.84 418.016C319.84 452.384 319.52 480.096 319.52 488.512C319.52 495.392 324.128 503.392 337.12 500.864C388.136 483.657 432.46 450.864 463.838 407.114C495.216 363.363 512.062 310.863 512 257.024C512 115.072 397.376 0 255.968 0Z" fill="white"/>
</g>
<defs>
<clipPath id="clip0_6_15">
<rect width="512" height="512" fill="white"/>
</clipPath>
</defs>
</svg>
