<svg xmlns="http://www.w3.org/2000/svg" enable-background="new 0 0 1200 900" viewBox="0 0 1200 900"><path fill="#edf5fc" d="m1040.044 706.726 1.225-.26c36.57-69.57 61.68-145.149 74.02-222.779 10.7-67.36 9.01-144.08-37.79-193.7-37.42-39.68-96.41-52.6-150.72-47.52-54.31 5.08-105.74 25.71-157.04 44.26-51.3 18.55-104.75 35.42-159.22 32.5-83.02-4.46-157.29-54.05-239.42-66.97-81.97-12.91-170.28 14.32-227.51 74.41-57.23 60.08-79.96 152.27-52.97 230.74 30.548 88.8 118.094 138.465 207.335 149.319h742.09z"/><path fill="#9bb2e1" d="M374.206 505.452a.5.5 0 0 1-.021-1 33.407 33.407 0 0 0 5.852-.773.5.5 0 1 1 .219.976c-1.964.44-3.992.708-6.028.796h-.022zm-5.985-.244a.457.457 0 0 1-.063-.004 40.682 40.682 0 0 1-5.947-1.197.5.5 0 0 1 .27-.962c1.93.538 3.882.931 5.8 1.167a.5.5 0 0 1-.06.996zm-11.526-3.182a.502.502 0 0 1-.198-.04 50.505 50.505 0 0 1-5.407-2.726.5.5 0 1 1 .502-.865 49.414 49.414 0 0 0 5.3 2.672.5.5 0 0 1-.197.959zm-10.364-5.998a.5.5 0 0 1-.298-.098 57.23 57.23 0 0 1-4.664-3.858.5.5 0 0 1 .678-.735 55.99 55.99 0 0 0 4.582 3.79.5.5 0 0 1-.298.901zm-8.816-8.112a.498.498 0 0 1-.375-.17 72.323 72.323 0 0 1-3.777-4.715.5.5 0 1 1 .805-.592 71.09 71.09 0 0 0 3.722 4.647.5.5 0 0 1-.375.83zm-7.111-9.649a.5.5 0 0 1-.424-.235 94.52 94.52 0 0 1-3.025-5.217.5.5 0 0 1 .881-.475 94.143 94.143 0 0 0 2.991 5.163.5.5 0 0 1-.423.764zm-5.707-10.547a.5.5 0 0 1-.453-.287 147.157 147.157 0 0 1-2.454-5.497.5.5 0 0 1 .922-.39 145.202 145.202 0 0 0 2.437 5.46.5.5 0 0 1-.452.714zm-4.692-11.043a.5.5 0 0 1-.466-.32 284.768 284.768 0 0 1-2.105-5.63.5.5 0 1 1 .94-.342 289.15 289.15 0 0 0 2.098 5.612.5.5 0 0 1-.467.68zm-4.113-11.273a.5.5 0 0 1-.472-.334l-.586-1.674a946.159 946.159 0 0 1-1.387-3.993.5.5 0 0 1 .946-.326c.46 1.335.923 2.665 1.385 3.989l.585 1.672a.5.5 0 0 1-.471.666zm-3.904-11.343a.499.499 0 0 1-.474-.342 569.12 569.12 0 0 1-1.881-5.702.5.5 0 0 1 .951-.309 621.99 621.99 0 0 0 1.877 5.694.5.5 0 0 1-.473.659zm-3.694-11.417a.5.5 0 0 1-.477-.352 416.111 416.111 0 0 1-1.74-5.75.5.5 0 1 1 .96-.283c.564 1.918 1.144 3.83 1.735 5.737a.5.5 0 0 1-.478.648zm-3.385-11.514a.499.499 0 0 1-.481-.367 311.274 311.274 0 0 1-1.547-5.808.5.5 0 1 1 .969-.248 308.26 308.26 0 0 0 1.54 5.79.5.5 0 0 1-.48.633zm-2.97-11.629a.5.5 0 0 1-.487-.386 256.05 256.05 0 0 1-1.296-5.872.5.5 0 1 1 .979-.204c.402 1.93.837 3.898 1.292 5.849a.5.5 0 0 1-.487.613zm-2.439-11.75a.5.5 0 0 1-.491-.412c-.358-1.99-.687-3.988-.979-5.937a.5.5 0 1 1 .989-.147c.29 1.938.618 3.926.974 5.907a.5.5 0 0 1-.493.588zm-1.767-11.871a.5.5 0 0 1-.496-.442c-.233-2.008-.43-4.024-.585-5.991a.5.5 0 0 1 .459-.538.515.515 0 0 1 .537.459c.155 1.955.35 3.959.583 5.954a.5.5 0 0 1-.498.558zm552.476-8.484a149.557 149.557 0 0 1-5.427-.098.5.5 0 0 1-.482-.517c.01-.276.268-.5.518-.482a147.596 147.596 0 0 0 5.392.097l.585-.001.005 1h-.59zm6.588-.145a.5.5 0 0 1-.021-1 149.97 149.97 0 0 0 5.965-.382.5.5 0 1 1 .084.996c-1.988.168-4.01.297-6.006.385h-.022zm-17.984-.267-.036-.001a178.751 178.751 0 0 1-5.993-.521c-.274-.03-.473-.275-.445-.55s.283-.47.549-.446c1.986.207 3.991.382 5.959.52a.5.5 0 0 1-.034.998zm29.937-.741a.5.5 0 0 1-.061-.996c1.967-.247 3.958-.537 5.917-.864a.5.5 0 1 1 .164.986c-1.972.33-3.976.622-5.956.87a.554.554 0 0 1-.064.004zm-41.868-.496a.536.536 0 0 1-.068-.005 195.708 195.708 0 0 1-5.948-.907.5.5 0 1 1 .166-.986c1.982.333 3.972.637 5.916.902a.5.5 0 0 1-.066.996zm53.702-1.482a.5.5 0 0 1-.102-.99c1.957-.41 3.916-.866 5.822-1.353a.5.5 0 1 1 .248.969c-1.92.49-3.894.949-5.865 1.363a.495.495 0 0 1-.103.01zm-583.79-.349a.5.5 0 0 1-.5-.48c-.071-1.808-.107-3.62-.107-5.385l.002-.635a.5.5 0 0 1 .5-.498h.002a.5.5 0 0 1 .498.503l-.002.63c0 1.753.035 3.55.106 5.346a.5.5 0 0 1-.48.519h-.02zm518.256-.159a.49.49 0 0 1-.099-.01 213.917 213.917 0 0 1-5.881-1.256.5.5 0 1 1 .222-.974c1.96.447 3.929.867 5.855 1.25a.5.5 0 0 1-.097.99zm77.161-2.46a.5.5 0 0 1-.144-.979c1.916-.58 3.828-1.205 5.681-1.857a.5.5 0 1 1 .332.943 133.958 133.958 0 0 1-5.724 1.871.494.494 0 0 1-.145.022zm-88.862-.207a.49.49 0 0 1-.124-.015c-1.916-.492-3.87-1.02-5.806-1.569a.5.5 0 1 1 .274-.961 242.24 242.24 0 0 0 5.78 1.561.5.5 0 0 1-.124.984zm-11.545-3.27a.498.498 0 0 1-.148-.023 265.574 265.574 0 0 1-5.723-1.842.5.5 0 0 1 .316-.948c1.907.637 3.824 1.254 5.702 1.835a.5.5 0 0 1-.147.977zm111.722-.511a.501.501 0 0 1-.188-.964c1.85-.75 3.696-1.55 5.484-2.376a.501.501 0 0 1 .42.908 126.1 126.1 0 0 1-5.529 2.395.498.498 0 0 1-.187.037zm-123.106-3.29a.495.495 0 0 1-.168-.03 300.092 300.092 0 0 1-5.638-2.08.5.5 0 0 1 .355-.935c1.867.71 3.741 1.402 5.62 2.074a.5.5 0 0 1-.169.97zm133.994-1.747a.5.5 0 0 1-.232-.943c1.773-.93 3.53-1.909 5.218-2.91a.5.5 0 0 1 .51.86 116.312 116.312 0 0 1-5.263 2.935.502.502 0 0 1-.233.058zm-617.555-.351-.027-.001a.5.5 0 0 1-.472-.526c.106-2.021.264-4.042.47-6.007a.5.5 0 0 1 .994.105 115.76 115.76 0 0 0-.466 5.955.5.5 0 0 1-.5.474zm472.342-2.163a.503.503 0 0 1-.186-.036 355.08 355.08 0 0 1-5.557-2.286.5.5 0 0 1 .389-.922c1.84.776 3.687 1.536 5.54 2.28a.5.5 0 0 1-.186.964zm155.534-3.6a.5.5 0 0 1-.278-.916 107.443 107.443 0 0 0 4.875-3.449.5.5 0 0 1 .6.8 107.568 107.568 0 0 1-4.92 3.48.499.499 0 0 1-.277.085zM758.143 345.1a.498.498 0 0 1-.201-.043 400.28 400.28 0 0 1-5.48-2.46.5.5 0 0 1 .415-.91 398.3 398.3 0 0 0 5.467 2.455.5.5 0 0 1-.201.958zm-10.911-4.993a.495.495 0 0 1-.214-.048 492.69 492.69 0 0 1-5.411-2.608.5.5 0 0 1 .44-.898c1.792.877 3.592 1.745 5.399 2.602a.5.5 0 0 1-.214.952zm-449.116-.116a.499.499 0 0 1-.494-.58c.324-2.003.706-3.995 1.135-5.92a.501.501 0 0 1 .977.218 101.236 101.236 0 0 0-1.125 5.862.5.5 0 0 1-.493.42zm636.21-1.033a.5.5 0 0 1-.322-.882 101.748 101.748 0 0 0 4.444-3.981.5.5 0 0 1 .689.724 102.59 102.59 0 0 1-4.49 4.02.495.495 0 0 1-.322.12zm-197.872-4.123a.5.5 0 0 1-.224-.054c-1.79-.9-3.573-1.808-5.352-2.723a.5.5 0 1 1 .457-.89 638.07 638.07 0 0 0 5.344 2.72.5.5 0 0 1-.225.947zm206.559-4.138a.499.499 0 0 1-.366-.84 97.731 97.731 0 0 0 3.532-4.007.5.5 0 1 1 .768.64 99.389 99.389 0 0 1-3.568 4.048.5.5 0 0 1-.366.159zm-217.23-1.35a.502.502 0 0 1-.232-.058 915.481 915.481 0 0 1-5.307-2.807.5.5 0 0 1 .471-.883c1.764.94 3.53 1.875 5.3 2.804a.5.5 0 0 1-.232.943zm-425.05-1.059a.501.501 0 0 1-.48-.64 92.937 92.937 0 0 1 1.864-5.734.5.5 0 1 1 .94.34 92.473 92.473 0 0 0-1.844 5.673.5.5 0 0 1-.48.361zm414.46-4.585a.492.492 0 0 1-.238-.06c-1.76-.95-3.518-1.905-5.276-2.862a.5.5 0 0 1 .478-.878c1.756.956 3.514 1.91 5.273 2.86a.5.5 0 0 1-.237.94zm-10.54-5.739a.494.494 0 0 1-.24-.061l-5.26-2.888a.5.5 0 0 1 .482-.876l5.259 2.887a.5.5 0 0 1-.24.938zm-399.84-.95a.5.5 0 0 1-.458-.701 89.6 89.6 0 0 1 2.489-5.197l.122-.237a.5.5 0 0 1 .89.457l-.124.24a88.08 88.08 0 0 0-2.46 5.14.5.5 0 0 1-.458.299zm389.324-4.828a.5.5 0 0 1-.24-.061l-5.261-2.886a.5.5 0 1 1 .48-.877l5.261 2.886a.5.5 0 0 1-.24.938zm-10.53-5.76a.503.503 0 0 1-.239-.06c-1.755-.956-3.513-1.908-5.274-2.855a.5.5 0 1 1 .475-.881c1.76.948 3.52 1.9 5.278 2.857a.5.5 0 0 1-.24.94zm-373.23-.033a.5.5 0 0 1-.426-.762 89.04 89.04 0 0 1 3.337-5.026.501.501 0 0 1 .815.581 88.102 88.102 0 0 0-3.3 4.97.5.5 0 0 1-.426.237zm362.665-5.653a.49.49 0 0 1-.234-.058 832.802 832.802 0 0 0-5.306-2.796.5.5 0 1 1 .463-.886c1.774.926 3.544 1.86 5.312 2.799a.5.5 0 0 1-.235.941zm-355.706-4.111a.5.5 0 0 1-.388-.816 98.639 98.639 0 0 1 3.956-4.55.501.501 0 0 1 .734.678 96.875 96.875 0 0 0-3.914 4.503.501.501 0 0 1-.388.185zm345.069-1.442a.492.492 0 0 1-.228-.056 623.52 623.52 0 0 0-5.35-2.707.5.5 0 0 1 .448-.894c1.79.895 3.576 1.8 5.357 2.712a.5.5 0 0 1-.227.945zm-10.734-5.365a.498.498 0 0 1-.219-.05 472.92 472.92 0 0 0-5.405-2.59.5.5 0 1 1 .426-.904c1.811.853 3.617 1.719 5.417 2.595a.5.5 0 0 1-.219.95zm-326.2-2.002a.5.5 0 0 1-.347-.86 108.266 108.266 0 0 1 4.461-4.053.5.5 0 0 1 .653.759 106.613 106.613 0 0 0-4.42 4.014.498.498 0 0 1-.346.14zm315.345-3.111a.5.5 0 0 1-.203-.043l-.24-.109c-1.74-.79-3.486-1.569-5.238-2.334a.5.5 0 0 1 .4-.916c1.756.767 3.506 1.548 5.252 2.34l.232.105a.5.5 0 0 1-.203.957zm-306.25-4.707a.499.499 0 0 1-.304-.896c1.573-1.21 3.21-2.405 4.867-3.55a.5.5 0 1 1 .568.822 117.804 117.804 0 0 0-4.826 3.52.498.498 0 0 1-.304.104zm295.255-.1a.5.5 0 0 1-.194-.04 419.165 419.165 0 0 0-5.54-2.28.5.5 0 1 1 .372-.928 410.56 410.56 0 0 1 5.555 2.287.5.5 0 0 1-.193.96zm-11.128-4.486a.494.494 0 0 1-.18-.034 419.175 419.175 0 0 0-5.607-2.118.5.5 0 0 1 .346-.938 409.61 409.61 0 0 1 5.62 2.124.5.5 0 0 1-.18.966zm-274.26-2.237a.5.5 0 0 1-.264-.925 126.72 126.72 0 0 1 5.194-3.053.5.5 0 0 1 .486.874 125.93 125.93 0 0 0-5.152 3.03.499.499 0 0 1-.264.074zm263.005-1.924a.5.5 0 0 1-.167-.029 407.93 407.93 0 0 0-5.665-1.956c-.262-.088-.403-.372-.314-.634s.367-.403.634-.314c1.897.64 3.79 1.294 5.679 1.962a.5.5 0 0 1-.167.971zm-11.37-3.836a.507.507 0 0 1-.154-.024 406.16 406.16 0 0 0-5.718-1.793.5.5 0 0 1 .293-.956c1.915.585 3.825 1.184 5.732 1.796a.5.5 0 0 1-.153.977zm-241.154-.076a.5.5 0 0 1-.223-.948 133.784 133.784 0 0 1 5.453-2.559.5.5 0 0 1 .404.914 130.587 130.587 0 0 0-5.411 2.54.496.496 0 0 1-.223.053zm229.677-3.432a.498.498 0 0 1-.14-.02c-1.918-.557-3.84-1.1-5.767-1.63a.5.5 0 1 1 .265-.963c1.931.53 3.858 1.074 5.782 1.633a.5.5 0 0 1-.14.98zm-218.71-1.436a.5.5 0 0 1-.184-.965c1.84-.728 3.737-1.436 5.638-2.105a.5.5 0 0 1 .332.943c-1.89.665-3.774 1.368-5.603 2.092a.496.496 0 0 1-.184.035zm207.14-1.743a.495.495 0 0 1-.126-.016c-1.934-.502-3.871-.99-5.81-1.464a.5.5 0 0 1 .237-.972c1.944.475 3.885.965 5.825 1.468a.5.5 0 0 1-.126.984zm-195.826-2.244a.501.501 0 0 1-.15-.978 183.61 183.61 0 0 1 5.773-1.695.5.5 0 0 1 .265.963 181.46 181.46 0 0 0-5.739 1.687.5.5 0 0 1-.15.023zm184.169-.605a.487.487 0 0 1-.112-.012c-1.948-.447-3.898-.88-5.85-1.299a.5.5 0 1 1 .209-.977c1.958.42 3.912.853 5.864 1.301a.5.5 0 0 1-.111.987zm-11.732-2.516a.483.483 0 0 1-.099-.01c-1.96-.39-3.92-.768-5.885-1.131a.5.5 0 1 1 .181-.984c1.97.365 3.936.743 5.9 1.135a.5.5 0 0 1-.097.99zm-160.874-.077a.5.5 0 0 1-.118-.986 214.18 214.18 0 0 1 5.863-1.337.5.5 0 0 1 .21.977c-1.98.423-3.943.871-5.837 1.332a.495.495 0 0 1-.118.014zm149.075-2.105a.554.554 0 0 1-.085-.007c-1.97-.336-3.94-.657-5.915-.965a.5.5 0 0 1-.417-.571.505.505 0 0 1 .572-.417c1.978.308 3.955.63 5.928.967a.5.5 0 0 1-.083.993zm-137.343-.405a.5.5 0 0 1-.091-.991 257.78 257.78 0 0 1 5.923-1.032.5.5 0 0 1 .16.987c-1.985.322-3.97.668-5.9 1.028a.494.494 0 0 1-.092.008zm125.486-1.443a.51.51 0 0 1-.071-.004c-1.978-.28-3.958-.545-5.94-.797a.5.5 0 0 1-.434-.559.507.507 0 0 1 .56-.433c1.986.252 3.97.518 5.954.798a.5.5 0 0 1-.07.995zm-113.645-.483a.5.5 0 0 1-.068-.996c1.984-.279 3.97-.538 5.959-.78a.506.506 0 0 1 .557.437.5.5 0 0 1-.436.557c-1.982.24-3.963.498-5.941.777a.486.486 0 0 1-.07.005zm101.742-1.027a.55.55 0 0 1-.057-.003 422.149 422.149 0 0 0-5.961-.628.5.5 0 0 1 .098-.995c1.992.196 3.984.406 5.974.63a.501.501 0 0 1-.054.996zm-89.828-.424a.5.5 0 0 1-.05-.997 440.743 440.743 0 0 1 5.979-.58.5.5 0 0 1 .09.996 430.277 430.277 0 0 0-6.019.58zm77.883-.748c-.015 0-.028 0-.043-.002-1.99-.166-3.982-.319-5.975-.457a.5.5 0 0 1-.464-.534.513.513 0 0 1 .533-.464c1.998.139 3.994.292 5.99.46a.499.499 0 0 1-.04.997zm-65.931-.32a.501.501 0 0 1-.037-.999c1.996-.15 3.995-.284 5.994-.404.305-.008.513.194.529.47a.5.5 0 0 1-.469.528 413.692 413.692 0 0 0-6.017.405zm53.96-.511-.027-.001c-1.995-.11-3.99-.206-5.986-.288a.501.501 0 0 1 .04-.999c2 .082 4.002.177 6 .289a.5.5 0 0 1-.027.999zm-41.981-.208a.5.5 0 0 1-.022-1c2-.09 4.001-.167 6.002-.229h.016a.5.5 0 0 1 .016 1c-1.997.061-3.993.137-5.99.228h-.022zm29.991-.282h-.013a414.88 414.88 0 0 0-5.99-.116.5.5 0 0 1 .005-1h.006c2.003.024 4.005.063 6.006.116a.5.5 0 0 1-.014 1zm-17.997-.09a.5.5 0 0 1-.009-1c2.003-.033 4.005-.052 6.008-.055h.001a.5.5 0 0 1 .001 1c-1.998.003-3.995.022-5.992.055h-.009z"/><path fill="#c2d1f2" d="M811.065 435.507a.47.47 0 0 1-.47-.47v-55.415a.47.47 0 1 1 .94 0v55.416c0 .26-.21.47-.47.47zM811.065 554.153a.47.47 0 0 1-.47-.47V442.86a.47.47 0 1 1 .94 0v110.823c0 .26-.21.47-.47.47zM799.291 659.649h-6.964a.47.47 0 1 1 0-.94h6.964c6.233 0 11.304-5.89 11.304-13.13V566.08a.47.47 0 1 1 .94 0v79.5c0 7.757-5.493 14.069-12.244 14.069zM658.61 710.251h-13.099a.47.47 0 1 1 0-.939h12.624c-.225-8.576-6.58-15.477-14.359-15.477h-9.287a.47.47 0 0 1-.47-.47v-23.46a.47.47 0 1 1 .94 0v22.99h8.817c8.439 0 15.305 7.576 15.305 16.887 0 .259-.21.47-.47.47z"/><path fill="#0039b2" d="M549.048 649.008h73.754v47.112h-73.754z"/><path d="M622.812 650.812v47.112h-4.716v-1.804h-69.048v-6.407h69.048v-17.079c0-5.382-4.369-9.741-9.751-9.741h-59.287v-12.081h73.754z" opacity=".1"/><path fill="#0039b2" d="M799.877 359.195v285.92c0 7.77-6.3 14.07-14.08 14.07h-399.74c-3.2 0-6.15-1.07-8.52-2.88-3.37-2.57-5.55-6.63-5.55-11.19v-285.92c0-7.78 6.3-14.08 14.07-14.08h399.74c7.78 0 14.08 6.3 14.08 14.08z"/><path fill="#fff" d="M386.059 629.979c-5.688 0-10.315-4.627-10.315-10.315V359.196c0-5.693 4.627-10.324 10.315-10.324h399.733c5.693 0 10.324 4.631 10.324 10.324v260.468c0 5.688-4.631 10.315-10.324 10.315H386.059z"/><path d="M799.877 467.955v2h-124.17c-2.94 0-5.34-2.4-5.34-5.34v-48.74h-8.94c-1.75 0-3.16-1.42-3.16-3.17v-15.77h-48.96v15.77c0 1.75-1.42 3.17-3.16 3.17h-10.37v81.82c3.91.45 7 3.55 7.46 7.45h31.15c2.54 0 4.61 2.07 4.61 4.61v31.09c4.23.49 7.52 4.08 7.52 8.45a8.52 8.52 0 0 1-8.52 8.52c-4.71 0-8.52-3.81-8.52-8.52 0-4.37 3.28-7.96 7.52-8.45v-31.09c0-1.44-1.17-2.61-2.61-2.61h-31.15c-.5 4.23-4.09 7.52-8.46 7.52-4.36 0-7.96-3.29-8.45-7.52h-31.15c-1.44 0-2.61 1.17-2.61 2.61v31.09c4.23.49 7.52 4.08 7.52 8.45a8.52 8.52 0 0 1-17.04 0c0-4.37 3.29-7.96 7.52-8.45v-31.09c0-2.54 2.07-4.61 4.61-4.61h31.15c.46-3.9 3.55-7 7.45-7.45v-81.82h-9.83c-1.74 0-3.16-1.42-3.16-3.17v-15.77h-62.84v15.77c0 1.75-1.42 3.17-3.17 3.17h-8.94v48.74c0 2.94-2.4 5.34-5.34 5.34h-128.51v-2h128.51c1.84 0 3.34-1.5 3.34-3.34v-48.74h-11.25c-1.74 0-3.16-1.42-3.16-3.17v-15.77h-21.47c-29.5 0-53.66-22.84-55.72-51.82h342.26c-9.22 29.1-35.89 50.43-67.72 51.74v15.85c0 1.75-1.41 3.17-3.16 3.17h-11.25v48.74c0 1.84 1.5 3.34 3.34 3.34h124.17z" opacity=".08"/><path fill="#0039b2" d="M646.926 710.313h-121.99c0-4.534 1.656-8.64 4.344-11.603 2.678-2.975 6.388-4.808 10.485-4.808h92.331c8.184 0 14.83 7.343 14.83 16.41z"/><circle cx="585.925" cy="644.79" r="5.147" fill="#fff"/><path fill="#5388f2" d="M417.873 337.112c0 30.846 25.012 55.828 55.857 55.828h215.709c41.038 0 74.299-33.26 74.299-74.299 0-41.01-33.261-74.299-74.3-74.299-2.445 0-4.89.117-7.276.353.383-3.182.56-6.422.56-9.692 0-48.904-39.654-88.558-88.558-88.558-42.07 0-77.275 29.343-86.29 68.672h-.589c-30.845 0-55.857 25.012-55.857 55.827 0 4.92.619 9.663 1.827 14.2-20.71 8.16-35.382 28.341-35.382 51.968z"/><path fill="#0039b2" d="M679.641 411.876H657.45a3.162 3.162 0 0 1-3.162-3.161v-17.72a3.162 3.162 0 0 1 3.162-3.161h22.192a3.162 3.162 0 0 1 3.162 3.161v17.72a3.162 3.162 0 0 1-3.162 3.161zM602.169 411.876h-22.193a3.162 3.162 0 0 1-3.161-3.161v-17.72a3.162 3.162 0 0 1 3.161-3.161h22.193a3.162 3.162 0 0 1 3.161 3.161v17.72a3.162 3.162 0 0 1-3.161 3.161zM488.614 411.876h22.192a3.162 3.162 0 0 0 3.162-3.161v-17.72a3.162 3.162 0 0 0-3.162-3.161h-22.192a3.162 3.162 0 0 0-3.162 3.161v17.72a3.162 3.162 0 0 0 3.162 3.161z"/><path fill="#0039b2" d="M270.135 537.13h-2V469.3a5.346 5.346 0 0 1 5.34-5.34h223.044a3.344 3.344 0 0 0 3.34-3.34v-53.29h2v53.29a5.346 5.346 0 0 1-5.34 5.34H273.475a3.344 3.344 0 0 0-3.34 3.34v67.83z"/><path fill="#719bff" d="M408.122 337.112c0 30.846 25.012 55.828 55.857 55.828h215.71c41.037 0 74.298-33.26 74.298-74.299 0-41.01-33.26-74.299-74.299-74.299-2.445 0-4.89.117-7.276.353.383-3.182.56-6.422.56-9.692 0-48.904-39.654-88.558-88.559-88.558-42.07 0-77.274 29.343-86.29 68.672h-.588c-30.845 0-55.857 25.012-55.857 55.827 0 4.92.618 9.663 1.826 14.2-20.71 8.16-35.382 28.341-35.382 51.968z"/><path d="M799.877 506.915v138.2c0 7.77-6.3 14.07-14.08 14.07h-56.34v-141.15c0-6.14 4.99-11.12 11.12-11.12h59.3z" opacity=".05"/><path fill="#0039b2" d="M838.269 537.13h-2V469.3a3.345 3.345 0 0 0-3.341-3.34H671.737a5.346 5.346 0 0 1-5.34-5.34v-53.29h2v53.29a3.344 3.344 0 0 0 3.34 3.34h161.191a5.346 5.346 0 0 1 5.34 5.34v67.83z"/><path fill="#1258ff" d="M830.127 514.475v-8.153c0-.407.33-.737.737-.737h12.817c.401 0 .726.325.726.726v10.597c0 .4-.327.727-.726.727h-10.394a3.16 3.16 0 0 1-3.16-3.16z"/><path fill="#1258ff" d="M867.887 524.081v197.452c0 6.136-4.996 11.133-11.132 11.133H746.626c-6.136 0-11.121-4.997-11.121-11.133V524.08c0-6.142 4.985-11.121 11.121-11.121h110.129c6.136 0 11.132 4.98 11.132 11.121z"/><path fill="#fff" d="M746.629 728.586c-3.887 0-7.05-3.166-7.05-7.057V524.085c0-3.89 3.163-7.056 7.05-7.056h110.126c3.89 0 7.056 3.166 7.056 7.056V721.53c0 3.891-3.165 7.057-7.056 7.057H746.63z"/><path fill="#1258ff" d="m826.214 516.052-2.71 3.572a5.323 5.323 0 0 1-4.237 2.105h-32.333a5.346 5.346 0 0 1-4.244-2.105l-2.703-3.572h46.227z"/><circle cx="789.865" cy="517.593" r="1.541" fill="#fff"/><path fill="#fff" d="M817.877 517.634a.736.736 0 0 1-.74.733h-22.981a.736.736 0 1 1 0-1.473h22.98c.408 0 .74.333.74.74z"/><path fill="#0a48d8" d="M346.17 571.245v49.92H196.26v-52.5h147.33c1.42 0 2.58 1.16 2.58 2.58z"/><path fill="#0039b2" d="M261.995 544.846v-8.153c0-.407.33-.737.737-.737h12.816c.401 0 .727.325.727.727v10.596c0 .4-.327.727-.727.727h-10.393a3.16 3.16 0 0 1-3.16-3.16z"/><path fill="#ffc837" d="M337.07 548.925v72.24H162.04v-72.24c0-2.94 2.38-5.33 5.33-5.33h164.37c2.94 0 5.33 2.39 5.33 5.33z"/><path d="M325.31 554.213v11.49c0 1.15-.94 2.09-2.09 2.09h-42.64c-1.15 0-2.08-.94-2.08-2.09v-11.49c0-1.15.93-2.08 2.08-2.08h42.64c1.15 0 2.09.93 2.09 2.08zM346.17 586.065v35.1H162.04v-58.22h63.42c1.77 0 3.2 1.43 3.2 3.19v13.54c0 1.76 1.43 3.19 3.19 3.19h111.12c1.77 0 3.2 1.43 3.2 3.2z" opacity=".08"/><path fill="#1258ff" d="M346.167 590.912v116.206a3.195 3.195 0 0 1-3.194 3.195H157.99a3.195 3.195 0 0 1-3.194-3.195v-136.13a3.194 3.194 0 0 1 3.194-3.195h67.473a3.195 3.195 0 0 1 3.194 3.194v13.536a3.195 3.195 0 0 0 3.195 3.195h111.12a3.195 3.195 0 0 1 3.194 3.194z"/><path d="m295.817 654.878-11.427-14.63a1.236 1.236 0 0 0-1.947 0l-11.427 14.63c-.634.811-.056 1.997.974 1.997h6.998c-2.27 12.787-13.46 22.53-26.889 22.53a4 4 0 0 0 0 8c17.85 0 32.64-13.313 34.984-30.53h7.76c1.03 0 1.608-1.186.974-1.997zM232.607 647.77h-7.48c2.075-13.018 13.378-23 26.972-23a4 4 0 0 0 0-8c-18.012 0-32.907 13.557-35.044 31h-7.302c-1.03 0-1.607 1.186-.974 1.997l11.427 14.63a1.236 1.236 0 0 0 1.948 0l11.427-14.63c.633-.81.055-1.996-.974-1.996z" opacity=".15"/><path fill="#ff5252" d="M323.692 552.064v11.49c0 1.15-.94 2.09-2.09 2.09h-42.64c-1.15 0-2.08-.94-2.08-2.09v-11.49c0-1.15.93-2.08 2.08-2.08h42.64c1.15 0 2.09.93 2.09 2.08z"/><path fill="#fff" d="M219.165 654.811a4 4 0 0 1-4-4c0-19.474 15.843-35.317 35.317-35.317a4 4 0 0 1 0 8c-15.063 0-27.317 12.254-27.317 27.317a4 4 0 0 1-4 4zM250.482 686.129a4 4 0 0 1 0-8c15.063 0 27.317-12.255 27.317-27.318a4 4 0 0 1 8 0c0 19.475-15.843 35.318-35.317 35.318z"/><path fill="#fff" d="M293.226 655.598h-22.853c-1.03 0-1.608-1.185-.974-1.996l11.427-14.63a1.236 1.236 0 0 1 1.947 0l11.427 14.63c.634.81.056 1.996-.974 1.996zM208.136 646.494h22.854c1.03 0 1.607 1.186.974 1.997l-11.427 14.63a1.236 1.236 0 0 1-1.948 0l-11.427-14.63c-.633-.811-.055-1.997.974-1.997z"/><path d="m848.749 626.283-11.567-14.808a1.25 1.25 0 0 0-1.971 0l-11.567 14.808c-.641.821-.056 2.021.986 2.021h7.084c-2.299 12.944-13.624 22.807-27.218 22.807a4.05 4.05 0 0 0 0 8.098c18.068 0 33.04-13.477 35.412-30.905h7.855c1.042 0 1.627-1.2.986-2.021zM784.765 619.089h-7.573c2.102-13.178 13.543-23.282 27.304-23.282a4.05 4.05 0 0 0 0-8.098c-18.233 0-33.31 13.723-35.473 31.38h-7.392c-1.042 0-1.627 1.2-.985 2.02l11.566 14.81c.501.64 1.47.64 1.972 0l11.566-14.81c.642-.82.057-2.02-.985-2.02z" opacity=".15"/><path fill="#ff5252" d="M771.158 626.216a4.05 4.05 0 0 1-4.05-4.05c0-19.712 16.038-35.75 35.75-35.75a4.05 4.05 0 0 1 0 8.099c-15.247 0-27.651 12.404-27.651 27.652a4.05 4.05 0 0 1-4.049 4.049z"/><path fill="#ffc837" d="M802.859 657.916a4.05 4.05 0 0 1 0-8.098c15.247 0 27.652-12.404 27.652-27.651a4.05 4.05 0 0 1 8.098 0c0 19.712-16.038 35.75-35.75 35.75z"/><path fill="#ffc837" d="M846.126 627.012h-23.133c-1.042 0-1.627-1.2-.986-2.021l11.567-14.809c.5-.64 1.47-.64 1.972 0l11.566 14.809c.642.821.056 2.02-.986 2.02z"/><path fill="#ff5252" d="M759.995 617.797h23.133c1.042 0 1.627 1.2.986 2.02l-11.567 14.809c-.5.641-1.47.641-1.972 0l-11.566-14.808c-.642-.822-.057-2.021.986-2.021z"/><path d="m493.287 320.365.457 13.11c.074 2.142 1.618 3.964 3.728 4.36l4.148.792c1.466.295 2.732 1.237 3.298 2.625.215.485.454.97.693 1.48.639 1.334.546 2.917-.223 4.201l-2.118 3.651a4.618 4.618 0 0 0 .838 5.67l9.613 8.966a4.62 4.62 0 0 0 5.714.442l3.52-2.366c1.229-.833 2.8-1.036 4.177-.491.5.204 1 .384 1.524.563 1.424.493 2.452 1.69 2.847 3.133l1.055 4.083c.541 2.079 2.465 3.49 4.61 3.416l13.133-.457a4.563 4.563 0 0 0 4.335-3.727l.817-4.174c.295-1.44 1.238-2.707 2.599-3.297.51-.215.996-.43 1.482-.668 1.333-.663 2.94-.57 4.225.199l3.65 2.117a4.62 4.62 0 0 0 5.67-.838l8.942-9.612a4.594 4.594 0 0 0 .467-5.715l-2.393-3.543c-.832-1.23-1.034-2.777-.49-4.153.205-.5.385-1 .541-1.474.493-1.423 1.691-2.451 3.133-2.847l4.106-1.106a4.585 4.585 0 0 0 3.418-4.584l-.458-13.158a4.585 4.585 0 0 0-3.728-4.335l-4.198-.817c-1.441-.295-2.707-1.238-3.298-2.6a15.09 15.09 0 0 0-.666-1.431c-.64-1.36-.546-2.942.197-4.25l2.143-3.652a4.619 4.619 0 0 0-.839-5.67l-9.588-8.967a4.62 4.62 0 0 0-5.714-.442l-3.52 2.367c-1.229.833-2.8 1.036-4.176.491-.5-.18-1-.384-1.525-.563-1.399-.494-2.452-1.69-2.847-3.133l-1.08-4.082c-.54-2.079-2.465-3.492-4.609-3.418l-13.108.456c-2.12.074-3.94 1.618-4.337 3.704l-.816 4.198c-.294 1.466-1.262 2.709-2.623 3.298-.511.216-.997.43-1.482.669-1.335.639-2.917.546-4.201-.2l-3.65-2.117a4.62 4.62 0 0 0-5.67.838l-8.967 9.588a4.62 4.62 0 0 0-.443 5.715l2.392 3.519c.832 1.228 1.035 2.8.49 4.176a40.62 40.62 0 0 0-.588 1.525c-.468 1.423-1.666 2.451-3.108 2.847l-4.082 1.08c-2.078.54-3.491 2.465-3.417 4.608z" opacity=".1"/><path fill="#fff" d="m490.247 316.984.456 13.11c.075 2.143 1.618 3.964 3.729 4.36l4.148.792c1.465.295 2.732 1.238 3.298 2.625.214.485.453.97.693 1.48.638 1.335.546 2.917-.224 4.201l-2.118 3.652a4.618 4.618 0 0 0 .839 5.67l9.612 8.966a4.62 4.62 0 0 0 5.715.442l3.52-2.367c1.228-.833 2.8-1.036 4.176-.491.5.204 1 .384 1.525.564 1.423.492 2.451 1.69 2.847 3.132l1.055 4.084c.54 2.078 2.465 3.49 4.609 3.416l13.133-.457a4.563 4.563 0 0 0 4.336-3.728l.817-4.173c.295-1.442 1.238-2.708 2.598-3.297.511-.216.997-.43 1.482-.669 1.334-.663 2.94-.57 4.226.199l3.65 2.117a4.62 4.62 0 0 0 5.67-.838l8.942-9.612a4.594 4.594 0 0 0 .467-5.715l-2.393-3.543c-.832-1.23-1.034-2.777-.49-4.153.205-.5.385-1 .54-1.474.494-1.423 1.692-2.451 3.134-2.847l4.106-1.105a4.585 4.585 0 0 0 3.417-4.585l-.458-13.157a4.585 4.585 0 0 0-3.728-4.336l-4.197-.817c-1.442-.295-2.708-1.238-3.298-2.599-.19-.486-.428-.971-.667-1.432-.639-1.36-.546-2.942.198-4.25l2.143-3.651a4.619 4.619 0 0 0-.839-5.67l-9.588-8.967a4.62 4.62 0 0 0-5.714-.442l-3.52 2.366c-1.23.833-2.801 1.036-4.177.491-.5-.18-1-.384-1.524-.563-1.399-.494-2.452-1.69-2.847-3.133l-1.08-4.082c-.541-2.079-2.465-3.492-4.61-3.417l-13.108.456c-2.119.073-3.94 1.617-4.336 3.703l-.816 4.199c-.295 1.465-1.263 2.708-2.624 3.298-.51.215-.996.43-1.481.668-1.335.64-2.917.546-4.202-.2l-3.65-2.117a4.62 4.62 0 0 0-5.67.839l-8.967 9.587a4.62 4.62 0 0 0-.442 5.716l2.392 3.518c.832 1.229 1.035 2.8.49 4.176a40.62 40.62 0 0 0-.588 1.525c-.469 1.424-1.666 2.452-3.108 2.848l-4.082 1.079c-2.078.54-3.492 2.466-3.417 4.608z"/><circle cx="542.188" cy="321.85" r="26.719" fill="#eceaff"/><circle cx="542.188" cy="321.85" r="21.385" fill="#719bff"/><path d="m595.67 281.557.457 13.109c.074 2.143 1.618 3.965 3.728 4.36l4.148.793c1.466.294 2.732 1.237 3.298 2.624.215.485.454.97.693 1.48.639 1.335.546 2.917-.223 4.202l-2.118 3.65a4.618 4.618 0 0 0 .838 5.67l9.613 8.967a4.62 4.62 0 0 0 5.714.442l3.52-2.367c1.229-.833 2.8-1.036 4.177-.49.5.203 1 .384 1.524.563 1.424.492 2.452 1.69 2.847 3.133l1.055 4.083c.541 2.078 2.465 3.49 4.61 3.416l13.133-.457a4.563 4.563 0 0 0 4.335-3.728l.817-4.173c.295-1.441 1.238-2.708 2.599-3.297.51-.215.996-.43 1.482-.669 1.333-.663 2.94-.57 4.225.2l3.65 2.116a4.62 4.62 0 0 0 5.67-.838l8.942-9.612a4.594 4.594 0 0 0 .467-5.715l-2.393-3.543c-.832-1.23-1.034-2.776-.49-4.153.205-.5.385-1 .541-1.474.493-1.423 1.691-2.451 3.133-2.847l4.106-1.105a4.585 4.585 0 0 0 3.418-4.585l-.458-13.157a4.585 4.585 0 0 0-3.728-4.336l-4.198-.816c-1.441-.296-2.708-1.238-3.298-2.6-.189-.486-.428-.971-.666-1.432-.64-1.359-.546-2.941.197-4.249l2.143-3.652a4.619 4.619 0 0 0-.839-5.67l-9.588-8.967a4.62 4.62 0 0 0-5.714-.442l-3.52 2.367c-1.229.833-2.8 1.035-4.176.49-.5-.18-1-.384-1.525-.563-1.399-.493-2.452-1.69-2.847-3.133l-1.08-4.082c-.54-2.078-2.465-3.492-4.609-3.417l-13.108.456c-2.12.074-3.94 1.618-4.337 3.703l-.816 4.199c-.294 1.465-1.262 2.708-2.623 3.298-.511.215-.997.43-1.482.668-1.335.64-2.917.546-4.201-.2l-3.65-2.116a4.62 4.62 0 0 0-5.67.838l-8.967 9.587a4.62 4.62 0 0 0-.443 5.716l2.392 3.518c.832 1.229 1.035 2.801.49 4.176a40.725 40.725 0 0 0-.588 1.525c-.468 1.424-1.666 2.452-3.108 2.848l-4.082 1.08c-2.078.54-3.491 2.465-3.417 4.608z" opacity=".1"/><path fill="#fff" d="m592.63 278.176.456 13.11c.075 2.142 1.618 3.964 3.729 4.36l4.148.792c1.465.295 2.732 1.237 3.298 2.624.214.486.453.971.693 1.48.638 1.335.546 2.917-.224 4.202l-2.118 3.651a4.618 4.618 0 0 0 .839 5.67l9.612 8.966a4.62 4.62 0 0 0 5.715.442l3.52-2.366c1.228-.833 2.8-1.036 4.176-.492.5.205 1 .385 1.525.564 1.423.493 2.451 1.69 2.847 3.133l1.055 4.083c.54 2.078 2.465 3.49 4.609 3.416l13.133-.457a4.563 4.563 0 0 0 4.336-3.727l.817-4.174c.295-1.441 1.238-2.707 2.598-3.297.511-.215.997-.43 1.482-.668 1.334-.663 2.94-.571 4.226.198l3.65 2.118a4.62 4.62 0 0 0 5.67-.839l8.942-9.611a4.594 4.594 0 0 0 .467-5.716l-2.393-3.542c-.832-1.23-1.034-2.777-.49-4.154.205-.5.385-1 .54-1.474.494-1.422 1.692-2.45 3.134-2.847l4.106-1.105a4.585 4.585 0 0 0 3.417-4.584l-.458-13.158a4.585 4.585 0 0 0-3.728-4.336l-4.197-.816c-1.442-.296-2.708-1.238-3.298-2.6a15.09 15.09 0 0 0-.667-1.431c-.639-1.36-.546-2.942.198-4.25l2.143-3.652a4.619 4.619 0 0 0-.839-5.67l-9.588-8.967a4.62 4.62 0 0 0-5.715-.442l-3.519 2.367c-1.23.833-2.801 1.036-4.177.491-.5-.18-1-.384-1.524-.564-1.399-.493-2.452-1.69-2.847-3.133l-1.08-4.082c-.541-2.078-2.465-3.492-4.61-3.417l-13.108.456c-2.119.074-3.94 1.618-4.336 3.703l-.816 4.2c-.295 1.465-1.263 2.708-2.624 3.297-.51.215-.996.43-1.481.668-1.335.64-2.917.547-4.202-.199l-3.65-2.117a4.62 4.62 0 0 0-5.67.838l-8.967 9.587a4.62 4.62 0 0 0-.442 5.716l2.392 3.519c.832 1.228 1.035 2.8.49 4.176a40.515 40.515 0 0 0-.588 1.525c-.469 1.423-1.666 2.451-3.108 2.847l-4.082 1.08c-2.078.54-3.492 2.465-3.417 4.608z"/><circle cx="644.571" cy="283.042" r="26.719" fill="#eceaff"/><circle cx="644.571" cy="283.042" r="21.385" fill="#719bff"/><path fill="#0039b2" d="M635.019 546.832h-2v-41.077a2.607 2.607 0 0 0-2.605-2.605h-40.61v-97.935h2v95.935h38.61a4.61 4.61 0 0 1 4.605 4.605v41.077z"/><path fill="#0039b2" d="M548.592 546.832h-2v-41.077a4.61 4.61 0 0 1 4.605-4.605h39.608v2h-39.608a2.607 2.607 0 0 0-2.605 2.605v41.077z"/><circle cx="634.019" cy="545.3" r="8.518" fill="#ffc837"/><circle cx="547.592" cy="545.3" r="8.518" fill="#ff5252"/><circle cx="590.805" cy="502.15" r="8.518" fill="#3cd278"/><path fill="#ff5d5d" d="M992.055 739.455a.39.39 0 0 1-.386.423h-2.935a.378.378 0 0 1-.376-.338l-.357-2.897h-1.534l-.282.639-.207.47-.837 1.891a.379.379 0 0 1-.348.235h-15.22a.382.382 0 0 1-.385-.386v-2.097c0-.752.216-1.477.63-2.098.094-.17.216-.33.357-.47a3.6 3.6 0 0 1 1.1-.875l6.717-3.508s.687-2.559.856-2.728c.17-.17 12.153 0 12.153 0l.508 5.615.038.47.508 5.654z"/><path fill="#fff" d="M991.547 733.802h-7.478v-.47h7.44zM986.185 737.282l-.207.47h-10.63a.239.239 0 0 1-.234-.235v-2.22h-5.296c.094-.17.216-.33.357-.47h5.174c.132 0 .235.103.235.235v2.22h10.601z"/><path d="m1027.428 740.107-34.939-59.27-34.947 59.27h-2.572l37.52-63.632 37.509 63.632z"/><path fill="#ffc6b2" d="M954.922 613.504s-6.146 33.962-5.892 33.86c.255-.101 22.505.256 22.71 0s-2.445-44.908-2.445-44.908l-4.379 1.578-9.994 9.47z"/><path fill="#c2d1f2" d="M921.483 684.453c0 2.195.89 4.173 2.334 5.617a7.872 7.872 0 0 0 5.616 2.334h90.143c8.8 0 15.92-7.12 15.92-15.902H929.434c-4.39 0-7.95 3.56-7.95 7.95zM964.514 676.475h71.005l.25-.982 18.284-72.446c2.488-9.872-4.97-19.442-15.145-19.442h-50.957l-23.437 92.87z"/><path d="M952.256 600.448c.347 1.506 1.558 2.703 2.946 3.39 1.389.686 2.947.937 4.483 1.13 6.623.834 13.527.73 19.774-1.633 6.247-2.362 11.778-7.258 13.72-13.645 1.905-6.284.125-13.314-3.656-18.675-3.788-5.368-9.377-9.237-15.3-12.073l1.064-2.488c-2.791 1.02-2.24 3.001-3.51 5.689-1.277 2.688-4.354 6.044-3.372 8.85 1.322 3.78 4.645 7.037 4.35 11.032-.281 3.736-3.693 6.468-7.141 7.938-3.448 1.47-7.266 2.208-10.308 4.393-1.957 1.403-3.604 3.744-3.05 6.092z"/><path fill="#3cd278" d="M954.275 613.837c.085-.546.223-1.106.366-1.724 3.47-15 10.946-22.78 12.455-23.562l9.447 11.78 3.117 13.506c0 .914-25.385.914-25.385 0z"/><path fill="#1258ff" d="m948.199 644.191 11.879-.809s16.233-9.018 16.874-8.777c.641.24 6.013 14.832 5.773 15.073-.24.24-13.55 14.592-13.55 14.592l24.942 65.057c0 2.094-17.567 1.654-17.567-.44L936.788 667.8c-6.624-9.633-.253-22.815 11.411-23.609z"/><path fill="#fff" d="M996.58 675.493v.982h38.91l.28-.982"/><path fill="#ff5d5d" d="M939.761 739.455a.39.39 0 0 1-.385.423h-2.935a.378.378 0 0 1-.376-.338l-.358-2.897h-1.533l-.282.639-.207.47-.837 1.891a.379.379 0 0 1-.348.235h-15.22a.382.382 0 0 1-.386-.386v-2.097c0-.752.217-1.477.63-2.098.095-.17.217-.33.358-.47a3.599 3.599 0 0 1 1.1-.875l6.717-3.508s.686-2.559.856-2.728c.17-.17 12.153 0 12.153 0l.508 5.615.037.47.508 5.654z"/><path fill="#fff" d="M939.253 733.802h-7.478v-.47h7.44zM933.892 737.282l-.207.47h-10.63a.239.239 0 0 1-.235-.235v-2.22h-5.295c.094-.17.216-.33.357-.47h5.174c.131 0 .235.103.235.235v2.22h10.6z"/><path fill="#1258ff" d="m971.908 676.47-31.456 52.514-16.304-.294s12.895-54.118 21.066-70.136a18.575 18.575 0 0 1 11.54-9.445l26.291-5.204 25.46 1.132c.32.826 3.408 29.015-9.56 31.432h-27.037z"/><path fill="#fff" d="M926.472 722.253c.023-.141 1.232-.078 3.646.25l6.108.984c2.392.446 3.56.765 3.537.91s-1.232.079-3.644-.246l-6.108-.984c-2.394-.449-3.563-.765-3.539-.914z"/><path d="M1001.43 552.622c4.376 2.244 5.656 9.235 6.678 14.046s2.03 10.104 5.833 13.223c5 4.103 13.3 3.056 17.307 8.134 1.328 1.684 1.947 3.803 2.538 5.864l2.959 10.324c.245.855.492 1.735.4 2.62-.144 1.374-1.108 2.557-2.278 3.291s-2.534 1.086-3.881 1.39c-5.871 1.329-12.014 1.961-17.903.713-5.889-1.248-11.52-4.566-14.596-9.74-1.48-2.49-2.326-5.306-3.707-7.85-1.381-2.546-3.51-4.932-6.344-5.526-1.625-.34-3.432-.087-4.847-.955-1.359-.834-1.968-2.478-2.323-4.033-1.407-6.172-.169-12.901 3.344-18.168 3.512-5.266 9.249-8.995 15.488-10.068"/><path fill="#3cd278" d="M960.076 643.38c.812 3.684 46.645 5.25 50.736 1.653 2.761-2.414 8.388-52.921 4.563-58.26-.628-.879-6.203-1.529-13.372-1.787h-.008c-5.996-.221-13.107-.162-19.376.266-7.827.539-14.069 1.868-15.69 3.551-3.943 4.093-2.677 18.253-3.559 30.725-.83 11.742-3.53 22.78-3.294 23.851z"/><path fill="#fff" d="m982.063 603.089 19.932-18.103c-5.996-.221-13.107-.162-19.376.266-.14.007-.556 17.837-.556 17.837z"/><path fill="#ffc6b2" d="M1006.446 614.956c.187.187 0 9.836 0 9.836l-30.098 2.406c-1.285.392-.018 10.422.986 10.297.222-.028 42.808 14.813 49.095 6.845 5.03-6.374.872-29.944.872-29.944l-20.855.56z"/><path fill="#3cd278" d="M1003.34 615.504c.125 3.515 25.363 2.15 25.577 1.182 0 0-2-19.73-2.636-21.303-3.204-7.997-11.157-8.817-11.157-8.817s-9.29 1.55-11.785 8.817c-1.72 5.006-.059 18.519 0 20.121z"/><path fill="#0df3ff" d="M1003.476 566.251c-.02-.02-.02-.04-.02-.04v.04h.02z"/><path fill="#ffc6b2" d="M974.008 574.357c.475 5.992 10.743 5.143 10.743 5.143l.094 5.62s.498 7.365 2.493 8.019c3.312 1.085 11.217-8.28 11.217-8.28l-.003-12.397s5.735-2.611 4.924-6.211h-.02v-.06a5.25 5.25 0 0 0-.316-.81c-2.097-4.015-7.793 0-7.793 0v-6.468s-3.916-3.421-4.35-3.58c-.436-.157-9.613-3.065-10.226-3.065-.593 0-6.389 4.905-6.389 4.905s-.177 2.65-.296 6.052c-.1 3.264-.316 8.185-.078 11.132z"/><path d="M971.435 562.236c.554.989 1.503 1.207 2.65.989 3.917-.85 10.107-7.278 10.107-7.278.159 3.837 9.098 10.165 9.672 10.522.554.356 1.483-1.088 1.483-1.088s5.696-4.015 7.793 0c.138.277.237.554.316.81.04-.73.277-7.475-1.068-11.57-1.424-4.35-5.603-6.501-15.526-7.713-9.363-1.144-17.88 10.937-15.427 15.328z"/><path fill="#fff" d="M994.866 636.692h80.96v1.001h-80.96z" transform="rotate(-75.069 1035.346 637.192)"/><path fill="#fff" d="M962.478 647.98c.014.07-.683.278-2.102.618l-2.67.608c-.268.058-.547.12-.837.182l-.846.272c-.594.21-1.22.463-1.873.764a18.224 18.224 0 0 0-8.042 7.218c-.632 1.034-1.106 2.196-1.641 3.31-1.261 2.637-2.227 4.599-2.895 5.894-.668 1.295-1.038 1.924-1.105 1.894-.067-.03.177-.714.74-2.06s1.446-3.353 2.657-6.025c.54-1.123 1.003-2.27 1.667-3.358a18.895 18.895 0 0 1 8.338-7.484 20.28 20.28 0 0 1 1.96-.742c.322-.09.59-.18.925-.262l.844-.15 2.7-.454c1.441-.226 2.166-.299 2.18-.225zM963.11 689.804c-.12-.079.687-1.539 2.49-4.379l4.704-7.135 1.458-2.092.762.027.533.029.818.065c.437.046.653.097.653.15 0 .053-.216.104-.653.15l-.818.064-1.004.056c.02-.017-.1.176-.193.328l-.303.49-.691 1.103-4.705 7.135c-1.905 2.773-2.926 4.092-3.051 4.01zM1003.245 665.717c-.015.058-.492.03-1.381-.304-.875-.337-2.194-1.014-3.49-2.453a9.874 9.874 0 0 1-2.182-4.328c-.366-1.587-.395-3.222-.236-4.817.229-1.879.61-3.23.864-4.123.265-.891.442-1.322.513-1.305.073.017.029.48-.122 1.394-.141.914-.425 2.275-.586 4.1-.154 1.542-.122 3.106.222 4.6a9.195 9.195 0 0 0 2.036 4.039 10.403 10.403 0 0 0 3.147 2.529c.804.422 1.24.585 1.215.668zM972.083 722.842c-.01-.144 1.44-.378 4.389-.65l7.504-.541c2.954-.153 4.423-.13 4.434.017s-1.44.378-4.386.654l-7.504.54c-2.957.15-4.426.13-4.437-.02zM971.378 715.892c-.124.073-1.174-1.454-3.122-4.645l-4.82-8.187c-1.844-3.248-2.67-4.907-2.543-4.981.126-.075 1.173 1.454 3.122 4.64l4.82 8.187c1.843 3.253 2.673 4.91 2.543 4.986zM929.744 720.847c-.067-.025.246-1.047.947-3.074l3.19-9.135a608.352 608.352 0 0 0 6.98-20.764l2.976-9.2c.666-2.037 1.034-3.04 1.105-3.02.07.02-.166 1.063-.722 3.135a291.304 291.304 0 0 1-2.717 9.288 608.444 608.444 0 0 1-6.989 20.787 290.601 290.601 0 0 1-3.448 9.05c-.81 1.987-1.252 2.96-1.322 2.933z"/><path fill="#253066" d="m984.758 579.75-.014-.5c.022 0 2.207-.08 4.676-1.47l.246.435c-2.583 1.456-4.814 1.533-4.908 1.536zM998.933 569.222c-.056-.157.443-.315.971-.93.464-.468.514-1.327.06-1.703-.556-.502-1.05-.283-1.111-.425-.037-.054.027-.206.298-.317.261-.104.757-.137 1.25.23.82.74.65 1.99 0 2.668-.406.389-.802.51-1.055.554-.259.039-.394-.006-.413-.077z"/><path fill="#fff" d="M980.044 615.716c.025.06-.251.264-.882.518-.63.244-1.628.542-3.007.597-2.334.05-4.68-.672-6.58-2.026-1.11-.82-1.766-1.627-2.15-2.183-.378-.565-.491-.89-.435-.926.158-.123.835 1.076 2.972 2.559a10.357 10.357 0 0 0 6.182 1.903c2.603-.024 3.837-.637 3.9-.442zM997.054 617.189c.034.055-.27.343-.988.775-.718.42-1.86.99-3.507 1.387-2.796.63-5.775.431-8.462-.566-1.578-.612-2.634-1.327-3.29-1.84-.651-.522-.915-.85-.872-.901.05-.062.4.157 1.099.57.703.405 1.765 1.01 3.294 1.54a14.338 14.338 0 0 0 8.086.54c1.587-.321 2.721-.78 3.472-1.088.749-.317 1.125-.487 1.168-.417zM964.031 614.778c-.143 0-.279-.97-.352-2.932l-.032-4.988c.047-1.962.17-2.933.317-2.934.147-.001.28.969.356 2.93l.032 4.988c-.05 1.963-.17 2.935-.32 2.936zM1005.802 599.346c-.12-.018-.186-1.128.217-3.36.408-1.864 1.177-3.763 2.607-5.155.855-.801 1.686-1.162 2.24-1.31.563-.142.857-.105.868-.041.063.193-1.13.301-2.636 1.831-1.304 1.267-2.027 3.019-2.423 4.823-.508 2.134-.703 3.24-.873 3.212zM1006.278 613.32c.143-.013.305.337.43 1.062l.165 1.857c.006.736-.09 1.108-.238 1.122-.146.013-.304-.338-.432-1.062l-.166-1.857c-.002-.736.091-1.109.241-1.122z"/><path fill="#719bff" d="m934.173 607.206 12.575 34.197c.143.39.515.65.93.65h25.378l-13.304-36.18h-24.648a.991.991 0 0 0-.93 1.333z"/><path fill="#ffc6b2" d="m976.348 627.198-5.058-.926c-.204-.216-2.043-2.102-1.574-3.376.504-1.358 6.632 4.302 6.632 4.302z"/><path fill="#2a0054" d="m959.752 605.872 13.304 36.18h2.289a.991.991 0 0 0 .93-1.333L963.7 606.522a.991.991 0 0 0-.93-.65h-3.018z"/><path fill="#6385d2" d="m959.752 605.872 13.304 36.18h2.289a.991.991 0 0 0 .93-1.333L963.7 606.522a.991.991 0 0 0-.93-.65h-3.018z"/><path fill="#ffc6b2" d="M977.334 637.495s-12.533 3.16-14.323-5.996c-1.742-8.88 7.726-5.43 8.279-5.227l5.058.926.986 10.297z"/><path fill="#f0e6ff" d="M950.152 623.037c.157.02.184.458.386 1.235.205.756.619 1.94 1.757 2.96.472.443 1.004.79 1.562.906.577.123 1.021-.001 1.216-.35.22-.343.201-1.003.034-1.628a8.77 8.77 0 0 0-.721-1.898c-.7-1.449-1.533-2.372-2.09-2.979-.569-.602-.878-.918-.797-1.051.069-.119.527-.04 1.302.429.758.473 1.851 1.368 2.777 2.979.361.695.643 1.433.835 2.196.175.765.343 1.693-.186 2.645a2.13 2.13 0 0 1-1.24.95c-.499.142-.98.113-1.417.02-.885-.191-1.614-.69-2.201-1.244-1.365-1.42-1.632-2.938-1.627-3.843.018-.935.28-1.35.41-1.327z"/><path d="M205.648 609.28a.42.42 0 0 1-.414.454h-3.152a.406.406 0 0 1-.404-.363l-.384-3.112h-1.646l-.303.687-.223.505-.899 2.03a.407.407 0 0 1-.374.253h-16.345a.41.41 0 0 1-.414-.414v-2.253c0-.808.233-1.586.677-2.252.101-.182.232-.354.384-.506a3.865 3.865 0 0 1 1.182-.94l7.213-3.767s.737-2.748.919-2.93c.182-.181 13.052 0 13.052 0l.545 6.031.04.505.546 6.071z"/><path fill="#fff" d="M205.103 603.208h-8.031v-.505h7.99zM199.345 606.946l-.223.505h-11.415a.256.256 0 0 1-.252-.253v-2.383h-5.688c.101-.182.232-.354.384-.506h5.556a.25.25 0 0 1 .253.253v2.384h11.385z"/><path fill="#ffc6b2" d="M165.77 474.016s-6.6 36.474-6.328 36.364 24.17.274 24.388 0c.22-.273-2.624-48.229-2.624-48.229l-4.703 1.695-10.734 10.17z"/><path fill="#d250dc" d="M165.075 474.374c.091-.587.24-1.188.393-1.852 3.727-16.108 11.755-24.464 13.376-25.304l10.145 12.652 3.348 14.504c0 .982-27.262.982-27.262 0z"/><path fill="#0039b2" d="m158.55 506.972 12.757-.869s17.433-9.684 18.122-9.426c.689.258 6.458 15.93 6.2 16.188-.259.258-14.552 15.67-14.552 15.67l26.786 69.868c0 2.249-18.866 1.776-18.866-.473l-42.702-65.603c-7.113-10.345-.271-24.502 12.255-25.355z"/><path d="M149.488 609.28a.42.42 0 0 1-.414.454h-3.152a.406.406 0 0 1-.404-.363l-.384-3.112h-1.646l-.303.687-.223.505-.899 2.03a.407.407 0 0 1-.373.253h-16.345a.41.41 0 0 1-.415-.414v-2.253c0-.808.233-1.586.677-2.252.101-.182.233-.354.384-.506a3.865 3.865 0 0 1 1.182-.94l7.213-3.767s.737-2.748.92-2.93c.181-.181 13.05 0 13.05 0l.546 6.031.04.505.546 6.071z"/><path fill="#fff" d="M148.943 603.208h-8.031v-.505h7.99zM143.185 606.946l-.223.505h-11.415a.256.256 0 0 1-.252-.253v-2.383h-5.688c.101-.182.233-.354.384-.506h5.556a.25.25 0 0 1 .253.253v2.384h11.385z"/><path fill="#0039b2" d="m184.012 543.47-33.782 54.564-17.51-.315s13.85-58.12 22.624-75.322a19.948 19.948 0 0 1 12.394-10.143l28.235-5.589 27.343 1.215c.343.888 6.856 23.324-10.269 33.757-7.915 4.821-29.035 1.832-29.035 1.832z"/><path fill="#fff" d="M135.217 590.806c.022-.141 1.32-.064 3.91.293l6.56 1.057c2.57.474 3.826.808 3.803.953s-1.32.064-3.91-.289l-6.56-1.057c-2.57-.478-3.827-.808-3.803-.957z"/><path fill="#d250dc" d="M171.305 506.1c.872 3.957 50.094 5.638 54.487 1.777 2.966-2.594 11.714-51.927 7.606-57.66-.674-.944-5.334-5.669-17.066-6.828l-3.11-.089c-6.44-.237-10.974-.085-17.707.375-8.406.579-15.109 2.006-16.851 3.814-4.234 4.395-2.875 19.603-3.821 32.997-.892 12.61-3.792 24.464-3.538 25.614z"/><path fill="#ffc6b2" d="M217.457 473.494c.2.2 0 10.563 0 10.563l-32.324 2.584c-1.38.421-.02 11.193 1.058 11.058.24-.03 42.524 11.067 49.277 2.51 5.4-6.846 4.385-27.316 4.385-27.316l-22.396.601z"/><path fill="#d250dc" d="M214.058 475.078c.134 3.775 27.24 2.308 27.47 1.269 0 0-2.867-15.24-4.854-20.836-3.254-9.158-11.889-8.875-11.889-8.875s-8.047-.97-10.727 6.833c-1.848 5.377-.064 19.888 0 21.61z"/><path fill="#fff" d="M173.885 511.041c.014.07-.737.289-2.26.65l-2.87.646-.898.195-.912.292a23.22 23.22 0 0 0-2.015.819 19.597 19.597 0 0 0-8.647 7.762c-.68 1.112-1.189 2.36-1.763 3.557-1.353 2.833-2.388 4.94-3.101 6.334-.713 1.392-1.106 2.07-1.173 2.04-.067-.03.2-.763.808-2.206.609-1.443 1.56-3.597 2.862-6.466.58-1.205 1.078-2.437 1.79-3.604a20.263 20.263 0 0 1 8.943-8.028c.734-.32 1.435-.585 2.101-.797.345-.098.635-.194.992-.282l.906-.162 2.898-.494c1.547-.247 2.324-.33 2.339-.256zM174.563 555.958c-.12-.08.755-1.642 2.694-4.69l5.053-7.662 1.555-2.241.808.027.572.03.879.065c.468.046.702.097.702.15 0 .053-.234.103-.702.15-.236.016-.529.038-.88.064l-1.087.056c.022-.022-.121.207-.216.362l-.326.526-.743 1.181-5.053 7.663c-2.041 2.98-3.13 4.402-3.256 4.319zM217.666 530.09c-.015.057-.525.02-1.477-.34-.937-.365-2.349-1.094-3.735-2.637a10.58 10.58 0 0 1-2.339-4.638c-.391-1.7-.423-3.454-.252-5.164.242-2.017.648-3.469.917-4.428.28-.958.466-1.422.537-1.405.072.017.02.514-.146 1.494-.156.98-.464 2.443-.639 4.405-.166 1.657-.132 3.34.239 4.947a9.897 9.897 0 0 0 2.192 4.348 11.107 11.107 0 0 0 3.392 2.713c.867.451 1.336.62 1.311.704zM184.2 591.438c-.01-.143 1.548-.385 4.715-.673l8.058-.581c3.172-.17 4.75-.153 4.76-.006.011.146-1.548.385-4.711.677l-8.059.58c-3.175.166-4.753.154-4.763.003zM183.443 583.975c-.124.073-1.243-1.572-3.332-5.002l-5.176-8.792c-1.984-3.486-2.88-5.262-2.753-5.337.127-.075 1.243 1.572 3.332 4.996l5.177 8.792c1.983 3.492 2.881 5.266 2.752 5.343zM138.73 589.296c-.067-.025.275-1.12 1.031-3.296l3.435-9.808a652.462 652.462 0 0 0 7.497-22.3l3.186-9.883c.712-2.19 1.102-3.268 1.173-3.247.07.02-.188 1.138-.79 3.362a325.41 325.41 0 0 1-2.927 9.971 654.338 654.338 0 0 1-7.505 22.323 324.32 324.32 0 0 1-3.694 9.722c-.865 2.136-1.335 3.183-1.405 3.156zM175.553 475.384c-.143.001-.28-1.04-.353-3.148l-.035-5.358c.045-2.106.168-3.15.315-3.15.147-.002.28 1.04.357 3.146l.035 5.357c-.049 2.109-.168 3.152-.319 3.153z"/><path fill="#719bff" d="m143.487 467.252 13.504 36.726c.154.419.553.697 1 .697h27.253l-14.287-38.855h-26.47c-.741 0-1.256.737-1 1.432z"/><path fill="#ffc6b2" d="m188.78 488.723-5.432-.995c-.22-.231-2.194-2.258-1.69-3.625.541-1.459 7.122 4.62 7.122 4.62z"/><path fill="#2a0054" d="m170.957 465.82 14.287 38.855h2.458c.74 0 1.255-.737 1-1.432l-13.505-36.726a1.065 1.065 0 0 0-1-.697h-3.24z"/><path fill="#6385d2" d="m170.957 465.82 14.287 38.855h2.458c.74 0 1.255-.737 1-1.432l-13.505-36.726a1.065 1.065 0 0 0-1-.697h-3.24z"/><path fill="#ffc6b2" d="M189.838 499.781s-13.458 3.394-15.381-6.44c-1.871-9.535 8.297-5.832 8.89-5.613l5.433.995 1.058 11.058zM198.427 435.011c1.322 1.404.852 4.385.931 7.1-.717 3.682 12.051 4.558 13.677-.013-1.163-3.973-1.197-9.393-.317-13.608.88-4.215-14.29 6.521-14.29 6.521z"/><path fill="#ffc6b2" d="M197.834 435.77c6.084 2.845 12.02-3.568 14.308-6.522.608-.765.978-1.324.978-1.324.14-.204 5.148-1.796 3.536-6.063-.834-2.234-5.066.216-5.066.216s-2.525-8.37-6.328-8.551c-3.802-.185-9.93 5.202-9.93 5.202s-.124.547-.233 1.44c-.53 3.768-1.49 13.614 2.735 15.602z"/><path d="M191.231 418.46c.598 1.305 2.045 1.737 3.868 1.707 4.089-.025 9.946-2.493 11.467-2.657 2.156-.29 2.667 4.766 3.178 5.187.56.419 1.846-.62 1.846-.62s4.232-2.45 5.066-.216c1.612 4.267-3.396 5.86-3.536 6.063 0 0-.37.56-.978 1.324l.134 2.72s6.177-7.277 6.994-10.072c.866-2.797-2.687-6.39-3.885-6.733-1.195-.293-.115-8.472-1.277-10.294-1.16-1.775-8.88.92-11.755 1.685-2.873.81-6.821-.498-10.224 1.764-3.402 2.265-2.853 5.89-.898 10.142z"/><path fill="#fff" d="M212.547 459.698c-.098.01-.361-1.48.363-4.355a18.592 18.592 0 0 1 3.43-6.605c1.933-2.243 3.303-2.885 3.354-2.797.12.149-1.069.987-2.83 3.22a17.92 17.92 0 0 0-3.308 6.368c-.814 2.728-.815 4.182-1.01 4.17zM213.506 471.05c.072 0 .135.163.182.497.054.334.034.838.085 1.448.021.516.154.988.47 1.325.315.342.783.565 1.273.663.582.144 1.07.16 1.391.21.326.043.493.1.498.174.003.073-.153.153-.48.226a4.307 4.307 0 0 1-1.544.05c-.595-.123-1.188-.389-1.634-.868-.457-.487-.625-1.16-.646-1.748.01-.704.127-1.178.187-1.498.068-.319.143-.48.218-.48zM212.416 439.204l3.023 2.77-10.137 7.358-2.114-4.355zM203.188 444.977l-4.542 2.878-2.179-5.634 2.906-2.63z"/><path fill="#829ed9" d="M981.975 451.079v66.581a3.45 3.45 0 0 1-3.45 3.45h-94.89a3.45 3.45 0 0 1-3.451-3.45v-66.581a3.45 3.45 0 0 1 3.45-3.45h94.891a3.45 3.45 0 0 1 3.45 3.45z"/><path fill="#fff" d="M884.5 519.126a2.332 2.332 0 0 1-2.332-2.332v-64.85a2.332 2.332 0 0 1 2.331-2.332h93.16a2.332 2.332 0 0 1 2.333 2.332v64.85a2.332 2.332 0 0 1-2.332 2.332H884.5z"/><path fill="#829ed9" d="M981.975 453.52v.796H880.184v-.796a5.899 5.899 0 0 1 5.892-5.892h90.007a5.899 5.899 0 0 1 5.892 5.892z"/><path fill="#fff" d="M885.785 451.86a.979.979 0 1 1-1.957.01.979.979 0 0 1 1.957-.01zM888.323 451.86a.979.979 0 1 1-1.957.01.979.979 0 0 1 1.957-.01zM890.861 451.86a.979.979 0 1 1-1.957.01.979.979 0 0 1 1.957-.01z"/><path fill="#e8edf7" d="M896.718 483.955h11.499c.372 0 .674.303.674.675v.008a.676.676 0 0 1-.674.675h-11.5a.676.676 0 0 1-.674-.675v-.008c0-.372.303-.675.675-.675z"/><path fill="#b05efa" d="M886.188 466.14c0-.372.303-.674.675-.674h30.343a.676.676 0 0 1 0 1.35h-30.343a.676.676 0 0 1-.675-.676z" opacity=".6"/><path fill="#b05efa" d="M886.188 498.508c0-.372.303-.675.675-.675h1.28a.676.676 0 0 1 0 1.35h-1.28a.676.676 0 0 1-.675-.675z" opacity=".6"/><path fill="#e8edf7" d="M886.188 484.638v-.008c0-.372.303-.675.675-.675h3.288c.372 0 .675.303.675.675v.008a.676.676 0 0 1-.675.675h-3.288a.676.676 0 0 1-.675-.675z"/><path fill="#e4f0fd" d="M886.188 470.76c0-.371.303-.674.675-.674h6.74a.676.676 0 0 1 0 1.35h-6.74a.676.676 0 0 1-.675-.675z"/><path fill="#b05efa" d="M886.188 480.01c0-.372.303-.675.675-.675h16.292a.676.676 0 0 1 0 1.35h-16.292a.676.676 0 0 1-.675-.675z" opacity=".6"/><path fill="#e8edf7" d="M916.28 512.377a.676.676 0 0 1-.675.675h-28.742a.676.676 0 0 1 0-1.35h28.742c.372 0 .675.303.675.675z"/><path fill="#e4f0fd" d="M886.188 461.512c0-.372.303-.675.684-.675h12.51c.373 0 .676.303.676.675 0 .38-.303.683-.675.683h-12.511a.68.68 0 0 1-.684-.683z"/><path fill="#e8edf7" d="M886.188 503.128c0-.372.303-.675.675-.675h21.596a.676.676 0 0 1 0 1.35h-21.596a.676.676 0 0 1-.675-.675zM891.899 497.833h27.159a.676.676 0 0 1 0 1.35h-27.16a.676.676 0 0 1 0-1.35zM918.928 493.88c0-.373.303-.676.675-.676h6.835a.676.676 0 0 1 0 1.35h-6.835a.676.676 0 0 1-.675-.675zM886.188 493.88c0-.373.303-.676.675-.676h25.524a.676.676 0 0 1 0 1.35h-25.524a.676.676 0 0 1-.675-.675z"/><path fill="#ff784b" d="M886.188 507.757v-.009c0-.372.303-.675.675-.675h11.395c.372 0 .675.303.675.675v.009a.676.676 0 0 1-.675.675h-11.395a.676.676 0 0 1-.675-.675z"/><path fill="#e4f0fd" d="M912.871 470.086a.676.676 0 0 1 0 1.35H900.17a.676.676 0 0 1 0-1.35h12.701zM929.925 480.01a.676.676 0 0 1-.675.675h-23.378a.676.676 0 0 1 0-1.35h23.378c.372 0 .675.303.675.675z"/><path fill="#ffc837" d="M931.534 512.377a.676.676 0 0 1-.675.675h-9.007a.676.676 0 0 1 0-1.35h9.007c.372 0 .675.303.675.675z"/><path fill="#e8edf7" d="M911.617 503.128c0-.372.303-.675.675-.675h25.151a.676.676 0 0 1 0 1.35h-25.151a.676.676 0 0 1-.675-.675z"/><path fill="#e4f0fd" d="M903.19 461.512c0-.372.303-.675.675-.675h30.438a.68.68 0 1 1 0 1.358h-30.438a.678.678 0 0 1-.675-.683z"/><path fill="#ff784b" d="M896.199 489.259c0-.372.303-.675.675-.675h35.75a.676.676 0 0 1 0 1.35h-35.75a.676.676 0 0 1-.675-.675z"/><path fill="#e4f0fd" d="M886.188 475.39c0-.372.303-.675.675-.675h51.86a.676.676 0 0 1 0 1.35h-51.86a.676.676 0 0 1-.675-.676z"/><path fill="#ff784b" d="M941.216 466.815h-19.13a.676.676 0 0 1 0-1.35h19.13a.676.676 0 0 1 0 1.35z"/><path fill="#e4f0fd" d="M927.32 470.086a.676.676 0 0 1 0 1.35h-10.694a.676.676 0 0 1 0-1.35h10.694zM975.962 475.39a.676.676 0 0 1-.675.674h-28.543a.676.676 0 0 1 0-1.35h28.543c.372 0 .675.304.675.675z"/><path fill="#e8edf7" d="M975.962 493.88a.676.676 0 0 1-.675.674h-14.336a.676.676 0 0 1 0-1.35h14.336c.372 0 .675.303.675.675zM929.717 493.204h13.904a.676.676 0 0 1 0 1.35h-13.904a.676.676 0 0 1 0-1.35zM947.592 507.748v.009a.676.676 0 0 1-.675.675h-43.78a.676.676 0 0 1-.674-.675v-.009c0-.372.303-.675.675-.675h43.78c.371 0 .674.303.674.675z"/><path fill="#dae3f7" d="M942.885 502.453h17.928a.676.676 0 0 1 0 1.35h-17.928a.676.676 0 0 1 0-1.35z"/><path fill="#ff784b" d="M950.646 498.508a.676.676 0 0 1-.675.675h-27.08a.676.676 0 0 1 0-1.35h27.08c.372 0 .675.303.675.675z"/><path fill="#b05efa" d="M962.69 484.63v.008a.676.676 0 0 1-.675.675H946.9a.676.676 0 0 1-.675-.675v-.008c0-.372.303-.675.675-.675h15.115c.372 0 .675.303.675.675z" opacity=".6"/><path fill="#b05efa" d="M975.962 498.508a.676.676 0 0 1-.675.675h-9.837a.676.676 0 0 1 0-1.35h9.837c.372 0 .675.303.675.675z" opacity=".6"/><path fill="#e4f0fd" d="M975.962 480.01a.676.676 0 0 1-.675.675h-19.311a.676.676 0 0 1 0-1.35h19.311c.372 0 .675.303.675.675z"/><path fill="#ff784b" d="M951.771 480.01a.676.676 0 0 1-.675.675H933.17a.676.676 0 0 1 0-1.35h17.927c.372 0 .675.303.675.675z"/><path fill="#e4f0fd" d="M938.04 461.512c0-.372.303-.675.675-.675h18.55a.68.68 0 1 1 0 1.358h-18.55a.678.678 0 0 1-.675-.683z"/><path fill="#ff784b" d="M961.21 461.512c0-.372.303-.675.684-.675h13.385a.68.68 0 1 1 0 1.358h-13.385a.68.68 0 0 1-.684-.683z"/><path fill="#e4f0fd" d="M962.898 466.815H944.97a.676.676 0 0 1 0-1.35h17.927a.676.676 0 0 1 0 1.35z"/><path fill="#e8edf7" d="M975.962 503.128a.676.676 0 0 1-.675.675h-9.673a.676.676 0 0 1 0-1.35h9.673c.372 0 .675.303.675.675z"/><path fill="#e4f0fd" d="M975.962 466.14a.676.676 0 0 1-.675.675h-7.51a.676.676 0 0 1 0-1.35h7.51c.372 0 .675.303.675.675zM930.41 470.76c0-.371.302-.674.674-.674h18.239a.676.676 0 0 1 0 1.35h-18.239a.676.676 0 0 1-.675-.675z"/><path fill="#e8edf7" d="M975.962 489.259a.676.676 0 0 1-.675.675h-6.947a.676.676 0 0 1 0-1.35h6.947c.372 0 .675.303.675.675zM911.331 483.955h30.69c.371 0 .674.303.674.675v.008a.676.676 0 0 1-.675.675h-30.689a.676.676 0 0 1-.675-.675v-.008c0-.372.303-.675.675-.675zM963.053 489.934h-24.182a.676.676 0 0 1 0-1.35h24.182a.676.676 0 0 1 0 1.35z"/><path fill="#e4f0fd" d="M896.718 483.909h11.499c.372 0 .674.303.674.675v.008a.676.676 0 0 1-.674.675h-11.5a.676.676 0 0 1-.674-.675v-.008c0-.372.303-.675.675-.675zM886.188 484.592v-.008c0-.372.303-.675.675-.675h3.288c.372 0 .675.303.675.675v.008a.676.676 0 0 1-.675.675h-3.288a.676.676 0 0 1-.675-.675zM916.28 512.331a.676.676 0 0 1-.675.675h-28.742a.676.676 0 0 1 0-1.35h28.742c.372 0 .675.303.675.675zM886.188 503.082c0-.372.303-.675.675-.675h21.596a.676.676 0 0 1 0 1.35h-21.596a.676.676 0 0 1-.675-.675zM891.899 497.787h27.159a.676.676 0 0 1 0 1.35h-27.16a.676.676 0 0 1 0-1.35zM918.928 493.833c0-.372.303-.675.675-.675h6.835a.676.676 0 0 1 0 1.35h-6.835a.676.676 0 0 1-.675-.675zM911.617 503.082c0-.372.303-.675.675-.675h25.151a.676.676 0 0 1 0 1.35h-25.151a.676.676 0 0 1-.675-.675zM975.962 493.833a.676.676 0 0 1-.675.675h-14.336a.676.676 0 0 1 0-1.35h14.336c.372 0 .675.303.675.675zM929.717 493.158h13.904a.676.676 0 0 1 0 1.35h-13.904a.676.676 0 0 1 0-1.35zM947.592 507.702v.009a.676.676 0 0 1-.675.675h-43.78a.676.676 0 0 1-.674-.675v-.009c0-.372.303-.675.675-.675h43.78c.371 0 .674.303.674.675zM942.885 502.407h17.928a.676.676 0 0 1 0 1.35h-17.928a.676.676 0 0 1 0-1.35zM975.962 503.082a.676.676 0 0 1-.675.675h-9.673a.676.676 0 0 1 0-1.35h9.673c.372 0 .675.303.675.675zM975.962 489.213a.676.676 0 0 1-.675.675h-6.947a.676.676 0 0 1 0-1.35h6.947c.372 0 .675.303.675.675zM911.331 483.909h30.69c.371 0 .674.303.674.675v.008a.676.676 0 0 1-.675.675h-30.689a.676.676 0 0 1-.675-.675v-.008c0-.372.303-.675.675-.675zM963.053 489.888h-24.182a.676.676 0 0 1 0-1.35h24.182a.676.676 0 0 1 0 1.35z"/><path fill="#b05efa" d="M975.962 507.748v.009a.676.676 0 0 1-.675.675h-23.81a.676.676 0 0 1-.675-.675v-.009c0-.372.303-.675.675-.675h23.81c.372 0 .675.303.675.675z" opacity=".6"/><path fill="#b05efa" d="M975.962 470.76a.676.676 0 0 1-.675.675h-22.123a.676.676 0 0 1 0-1.35h22.123c.372 0 .675.304.675.676z" opacity=".6"/><path fill="#ffc837" d="M886.757 497.939c0-.372.303-.675.675-.675h1.28a.676.676 0 0 1 0 1.35h-1.28a.676.676 0 0 1-.675-.675z"/><path fill="#ffc6b2" d="m459.25 597.964 12.125 32.722s.88 11.012 7.673 10.613c6.792-.41 3.312-7.7 3.402-8.14.09-.455 2.015.96 2.669.036 1.332-1.888-2.872-4.492-2.872-4.492l-5.223-35.047-17.773 4.308z"/><path d="M474.035 734.589h5.346v32.151h-5.346z" transform="rotate(-89.224 476.708 750.664)"/><path d="m475.662 734.22 17.156 13.989-32.148-.436.187-13.753z"/><path fill="#fff" d="m492.82 748.462-15.944-.217.006-.5 15.943.217zM467.373 751.775a5.654 5.654 0 0 1-.186 1.433l-.64-.008c0-.026 0-.052.013-.077.108-.422.166-.87.172-1.357a6.01 6.01 0 0 0-1.219-3.735c-.05-.065-.1-.13-.163-.194a6.093 6.093 0 0 0-4.65-2.269l.009-.64c2.09.028 4.089 1.042 5.323 2.725.05.065.088.13.138.195a6.646 6.646 0 0 1 1.203 3.927z"/><path d="M424.841 733.922h5.346v32.151h-5.346z" transform="rotate(-89.224 427.514 749.998)"/><path d="m426.468 733.554 17.156 13.988-32.148-.435.187-13.753z"/><path fill="#fff" d="m443.626 747.795-15.944-.216.006-.5 15.944.216zM418.18 751.108a5.653 5.653 0 0 1-.187 1.434l-.64-.009c0-.025 0-.051.013-.077.108-.421.166-.87.172-1.357a6.01 6.01 0 0 0-1.219-3.734c-.05-.065-.1-.13-.163-.195a6.093 6.093 0 0 0-4.65-2.268l.009-.641c2.09.028 4.089 1.042 5.323 2.726.05.065.088.13.138.194a6.646 6.646 0 0 1 1.203 3.927z"/><path fill="#ffc837" d="M464.641 557.972c.096.082 5.762 3.674 8.837 12.178 3.074 8.504 1.51 13.496.983 13.944s-13.318 2.75-15.074 2.66c-1.757-.088-8.03-7.92-8.03-7.92l13.284-20.862z"/><path fill="#fff" d="M469.44 581.622c-.167-.009-.107-1.632-.319-4.878a43.263 43.263 0 0 0-1.208-8.163c-.737-3.165-1.264-4.701-1.103-4.76.114-.045.887 1.411 1.756 4.599a43.943 43.943 0 0 1 1.227 8.289c.091 3.306-.227 4.924-.353 4.913z"/><path fill="#1258ff" d="M408.166 723.265c-.012.886-.024 1.724-.023 2.526-.024 5.362.143 8.871.6 9.584 3.235 5.13 26.64 3.09 28.192.693.22-.344.662-4.683 1.217-11.187.085-.957.17-1.961.256-3.001 1.906-23.148 4.802-66.439 4.802-66.439s6.393 43.226 10.57 66.264c.178.96.345 1.884.513 2.772 1.239 6.6 2.22 10.995 2.707 11.288 5.912 3.636 21.421 2.146 24.506.655.482-.233.473-3.105.093-7.79-.05-.756-.122-1.558-.195-2.397-2.5-27.516-14.058-101.203-14.058-101.203s-50.19-5.17-52.296.01c-1.696 4.166-6.47 70.342-6.884 98.225z"/><path fill="#fff" d="M415.306 713.593c-.143-.002-.21-4.713-.14-14.237l.327-24.2c.188-9.512.381-14.22.528-14.218.147.002.21 4.713.144 14.227l-.326 24.2c-.192 9.522-.382 14.23-.533 14.228zM412.929 643.321c-.03-.076.393-.289 1.194-.769.79-.49 1.977-1.26 3.25-2.62a12.76 12.76 0 0 0 3.602-8.489c.093-1.858-.177-3.245-.373-4.154-.21-.91-.35-1.362-.273-1.394.058-.025.327.377.658 1.282.315.904.694 2.335.66 4.29a13.715 13.715 0 0 1-1.055 4.823 13.708 13.708 0 0 1-2.734 4.11c-1.385 1.384-2.678 2.105-3.548 2.506-.882.391-1.358.476-1.381.415zM472.256 641.701c-.02.06-.47.002-1.319-.313-.84-.323-2.093-.912-3.51-2.078a14.346 14.346 0 0 1-4.722-7.836c-.37-1.796-.305-3.179-.198-4.072.118-.897.278-1.322.342-1.311.08.012.058.457.057 1.335.011.876.044 2.2.455 3.901a13.669 13.669 0 0 0 4.502 7.471c1.313 1.159 2.47 1.807 3.24 2.226.777.41 1.18.599 1.153.677z"/><path fill="#ffc837" d="M465.491 559.04c-2.612-6.157-41.755-9.018-50.888-.135-3.778 3.676-1.9 65.255-.92 67.887 1.665 4.47 51.747 4.713 55.168.201.627-.826 3.336-52.166-3.36-67.953z"/><path fill="#ffc6b2" d="M427.023 588.95c-.073.337-.035 7.231-.035 7.231 1.274.761 20.886 3.465 20.886 3.465s-.418 9.665-1.177 10.804c-.76 1.14-35.987 4.04-40.344-2.477-2.448-3.663 1.015-19.696 1.015-19.696l19.655.673z"/><path fill="#ffc837" d="M429.037 589.046s2.525-17.652 1.779-20.701c-2.422-9.902-11.206-12.297-15.51-10.053-3.37 1.757-9.007 19.391-9.48 27.373-.692 4.755 22.518 8.135 23.21 3.38z"/><path fill="#719bff" d="m492.455 579.251-13.693 35.735c-.156.407-.55.674-.986.668l-26.65-.36 14.486-37.807 25.885.35c.724.01 1.217.738.958 1.414z"/><path fill="#ffc6b2" d="m447.879 599.647 5.325-.9c.218-.225 2.175-2.18 1.701-3.524-.51-1.433-7.026 4.424-7.026 4.424z"/><path fill="#6385d2" d="m465.612 577.487-14.487 37.806-2.403-.033a1.041 1.041 0 0 1-.959-1.413l13.693-35.735c.156-.407.55-.674.986-.668l3.17.043z"/><path fill="#ffc6b2" d="M446.988 545.912c-1.278 1.44-.723 4.4-.723 7.112.822 3.652-11.892 4.896-13.647.383 1.045-3.998.923-9.407-.078-13.587-1-4.18 14.448 6.092 14.448 6.092z"/><path fill="#ffc6b2" d="M447.602 546.652c-5.988 3.015-12.096-3.211-14.465-6.092-.63-.745-1.015-1.293-1.015-1.293-.145-.198-5.187-1.642-3.704-5.946.768-2.253 5.062.068 5.062.068s2.276-8.423 6.065-8.715c3.788-.294 10.058 4.902 10.058 4.902s.14.542.275 1.43c.638 3.745 1.88 13.54-2.276 15.646z"/><path fill="#2a0054" d="M453.687 529.19c-.558 1.32-1.99 1.792-3.809 1.815-4.08.094-9.996-2.199-11.518-2.318-2.16-.226-2.523 4.833-3.02 5.268-.547.434-1.86-.566-1.86-.566s-4.294-2.32-5.062-.068c-1.483 4.304 3.56 5.748 3.704 5.946 0 0 .386.548 1.015 1.293l-.055 2.718s-6.374-7.081-7.27-9.846c-.945-2.765 2.496-6.453 3.68-6.83 1.184-.328-.13-8.457.976-10.309 1.105-1.804 8.886.66 11.777 1.34 2.89.726 6.791-.695 10.252 1.464 3.46 2.161 3.018 5.793 1.19 10.093z"/><path fill="#ffc6b2" d="M446.698 610.446s13.116 3.497 15.126-6.093c1.956-9.3-8.036-5.813-8.62-5.607l-5.325.9-1.181 10.8z"/><path fill="#fff" d="M430.542 570.52c.068-.006.184.467.302 1.432.118.964.235 2.422.237 4.378a58.264 58.264 0 0 1-.983 9.878c-.205.955-.363 1.789-.627 2.51-.257.715-.654 1.272-1.067 1.59-.85.652-1.462.468-1.432.421-.019-.094.518-.078 1.164-.72.32-.315.61-.803.807-1.469.198-.66.322-1.506.493-2.455.6-3.22.929-6.49.972-9.764.102-3.866-.044-5.787.134-5.8z"/><path fill="#2a0054" d="M444.36 547.515a8.636 8.636 0 0 1-4.213-1.092l.123-.218a8.396 8.396 0 0 0 6.084.817l.06.242a8.477 8.477 0 0 1-2.054.25z"/><path fill="#fff" d="M444.828 635.426c.063-.03.339.37.806 1.225.455.859 1.148 2.16 1.76 4.05.481 1.608.735 3.323.545 5.026a10.467 10.467 0 0 1-1.777 4.747c-.576.832-1.243 1.423-1.72 1.935-.491.514-.803.989-.965 1.415-.324.859-.114 1.343-.207 1.364-.035.044-.423-.45-.175-1.485.122-.503.445-1.09.927-1.661.481-.582 1.075-1.157 1.586-1.95a9.8 9.8 0 0 0 1.663-4.44c.177-1.588-.058-3.209-.522-4.758-.531-1.842-1.13-3.171-1.477-4.073-.36-.899-.513-1.362-.444-1.395zM430.62 553.683s7.466 7.381 7.61 7.383c.024-.083 3.42-5.053 3.42-5.053l-8.498-5.512c-.013.096-2.532 3.182-2.532 3.182zM441.596 556.158s3.612 3.384 3.692 3.412c.08.027 3.75-5.8 3.75-5.8l-2.833-2.659-4.555 4.902M408.166 723.265c-.012.886-.024 1.724-.023 2.526 3.659 1.21 7.428 2.147 11.313 2.571 1.171.124 2.32.187 3.456.203 5.697.077 10.969-1.204 15.24-3.684.085-.957.17-1.961.256-3.001-4.846 3.393-11.485 4.871-18.693 4.103-3.944-.424-7.796-1.434-11.55-2.718zM453.78 721.705c.178.96.345 1.884.513 2.772 5.381 2.12 10.946 3.954 16.815 4.585 1.16.123 2.32.187 3.456.202 2.442.033 4.79-.186 7.035-.634-.05-.756-.122-1.558-.195-2.397-3.109.664-6.51.821-10.037.45-6.083-.645-11.92-2.699-17.587-4.978z"/><path fill="#2a0054" d="m419.502 599.115-.066-.24c.999-.276 1.93-.795 2.832-1.298.274-.152.548-.305.823-.45 1.072-.57 2.492-1.2 3.964-1.048l-.025.249c-1.407-.15-2.78.467-3.822 1.019-.274.145-.546.297-.818.449-.914.51-1.86 1.036-2.888 1.32z"/><path fill="#fff" d="M475.481 711.296c-.141.023-1.09-4.987-2.808-15.149l-4.216-25.85c-1.6-10.17-2.292-15.222-2.147-15.245.145-.024 1.09 4.986 2.81 15.137l4.217 25.85c1.597 10.182 2.293 15.232 2.144 15.257z"/><circle cx="137.21" cy="399.855" r="33.84" fill="#719bff"/><path fill="#fff" d="M115.71 389.366v20.978c0 3.033 2.476 5.51 5.534 5.51h33.793c3.058 0 5.535-2.477 5.535-5.51v-20.978c0-3.033-2.477-5.51-5.535-5.51h-33.793c-3.058 0-5.534 2.477-5.534 5.51z"/><path fill="#719bff" d="M138.128 403.401a.917.917 0 0 0 .598-.222l16.833-14.482a.918.918 0 0 0-1.197-1.391l-16.234 13.967-16.21-13.942a.918.918 0 0 0-1.196 1.39l16.807 14.458a.917.917 0 0 0 .599.222z"/><path fill="#719bff" d="M121.32 411.008a.92.92 0 0 0 .6-.222l12.814-11.044a.919.919 0 0 0-1.2-1.39l-12.813 11.043a.919.919 0 0 0 .6 1.613zM154.96 410.958a.918.918 0 0 0 .599-1.613l-12.813-11.02a.918.918 0 0 0-1.198 1.39l12.814 11.021c.174.15.386.222.598.222zM939.949 354.407l34.187-44.005-58.578 8.447a.05.05 0 0 0-.035.079l24.344 35.476c.02.029.06.03.082.003z"/><path fill="#5388f2" d="m976.373 309.464-45.959 31.158a.05.05 0 0 0-.006.005l-6.537 6.47a.05.05 0 0 1-.086-.037l.298-15.623c0-.02.013-.039 2.268-.985l50.022-20.988z"/><path fill="#5388f2" d="m923.968 347.135 9.132-2.473a.05.05 0 0 0 .028-.077l-2.683-3.91a.05.05 0 0 0-.077-.008l-6.449 6.382c-.037.037-.001.1.05.086z"/><path fill="#3cd278" d="M333.833 364.655h-64.338a6.507 6.507 0 0 1-6.507-6.507v-45.581a6.507 6.507 0 0 1 6.507-6.507h64.338a6.507 6.507 0 0 1 6.507 6.507v45.581a6.507 6.507 0 0 1-6.507 6.507z"/><path d="m318.11 320.124.03-.028-.625-.595a22.288 22.288 0 0 0-15.358-6.164c-.027 0-.053-.007-.08-.007-.027 0-.052.007-.079.007a22.263 22.263 0 0 0-15.36 6.162l-.002.002-.625.595.029.028c-4.12 4.2-6.401 9.711-6.401 15.646 0 6.204 2.482 11.982 6.988 16.268a22.309 22.309 0 0 0 15.448 6.168c5.784 0 11.27-2.19 15.448-6.168 4.507-4.286 6.989-10.064 6.989-16.268 0-5.936-2.282-11.449-6.401-15.646zm-29.226-.397c.228-.188.457-.374.691-.552.278-.21.563-.41.85-.605.243-.165.485-.33.733-.483.295-.184.599-.353.903-.52.253-.14.505-.283.764-.412.314-.157.636-.296.957-.436.26-.114.519-.233.783-.335.336-.13.68-.24 1.022-.353.187-.061.373-.126.561-.182-1.757 1.581-3.274 3.843-4.447 6.582a20.597 20.597 0 0 1-3.261-2.32c.147-.129.293-.26.444-.384zm20.703-3.342c.262.101.517.219.775.33.325.142.65.283.967.442.255.127.504.268.754.406.308.17.614.34.913.526.246.152.484.315.724.478.29.198.578.399.86.612.232.175.458.36.683.546.152.125.299.257.448.387-1.006.877-2.1 1.65-3.26 2.318-1.172-2.738-2.688-4.999-4.445-6.58.186.055.37.12.554.18.344.113.69.224 1.027.355zm-6.688-1.333c3.314.443 6.23 3.527 8.137 8.12a20.55 20.55 0 0 1-8.137 2.01v-10.13zm-1.645 10.13a20.546 20.546 0 0 1-8.138-2.009c1.908-4.594 4.823-7.678 8.138-8.121v10.13zm-8.722-.465a22.163 22.163 0 0 0 8.722 2.11v8.118h-10.443c.08-3.749.698-7.241 1.721-10.228zm8.722 11.873v8.114c-3.052.109-5.98.818-8.721 2.117-1.024-2.988-1.642-6.48-1.722-10.231h10.443zm0 9.759v10.135c-3.314-.443-6.23-3.527-8.137-8.12a20.445 20.445 0 0 1 8.137-2.015zm1.645 10.135v-10.135c2.848.109 5.577.786 8.137 2.016-1.908 4.593-4.823 7.676-8.137 8.119zm8.72-9.663a22.061 22.061 0 0 0-8.72-2.117v-8.114h10.442c-.08 3.75-.698 7.244-1.721 10.231zm-8.72-11.876v-8.118a22.162 22.162 0 0 0 8.721-2.111c1.023 2.987 1.641 6.48 1.721 10.23H302.9zm-11.803-10.973c-1.15 3.212-1.843 6.956-1.928 10.973h-7.843c.2-5.2 2.277-10.008 5.923-13.709a22.212 22.212 0 0 0 3.848 2.736zm-1.928 12.618c.085 4.018.778 7.763 1.929 10.976a21.92 21.92 0 0 0-3.856 2.736c-3.642-3.717-5.717-8.528-5.917-13.712h7.844zm2.535 12.52c1.18 2.754 2.71 5.024 4.48 6.606-2.844-.837-5.473-2.298-7.743-4.28a20.337 20.337 0 0 1 3.263-2.326zm20.746 0a20.277 20.277 0 0 1 3.262 2.325c-2.269 1.982-4.897 3.443-7.74 4.28 1.77-1.582 3.298-3.851 4.478-6.604zm.606-1.544c1.152-3.212 1.845-6.958 1.93-10.976h7.841c-.2 5.184-2.274 9.995-5.917 13.712a21.935 21.935 0 0 0-3.854-2.736zm1.93-12.62c-.085-4.018-.778-7.763-1.929-10.975a22.21 22.21 0 0 0 3.846-2.735c3.646 3.7 5.724 8.51 5.924 13.71h-7.842z" opacity=".2"/><path fill="#fff" d="m317.287 319.302.03-.027-.626-.596a22.288 22.288 0 0 0-15.358-6.163c-.027 0-.053-.007-.08-.007-.026 0-.052.006-.078.007a22.263 22.263 0 0 0-15.36 6.162h-.002v.001l-.626.596.03.028c-4.12 4.199-6.401 9.71-6.401 15.645 0 6.204 2.481 11.982 6.988 16.269a22.309 22.309 0 0 0 15.448 6.167c5.784 0 11.27-2.19 15.448-6.167 4.507-4.287 6.988-10.065 6.988-16.269 0-5.936-2.281-11.448-6.4-15.646zm-29.227-.396c.228-.189.457-.375.692-.553.278-.21.563-.409.85-.604.242-.165.484-.33.733-.484.295-.183.598-.353.902-.52.254-.14.506-.283.765-.412.314-.156.635-.296.957-.436.26-.113.518-.232.783-.335.336-.13.68-.24 1.022-.353.187-.06.372-.126.561-.182-1.758 1.581-3.274 3.844-4.447 6.582a20.593 20.593 0 0 1-3.261-2.32c.147-.128.293-.26.443-.383zm20.704-3.343c.262.101.517.219.775.331.325.142.65.283.967.44.255.128.504.27.754.407.307.17.614.34.913.526.245.152.484.316.723.478.29.198.58.399.86.612.232.176.459.36.684.546.152.125.299.257.447.387-1.005.878-2.1 1.65-3.26 2.318-1.171-2.737-2.688-4.999-4.445-6.58.187.056.37.12.555.18.344.113.69.224 1.027.355zm-6.689-1.333c3.315.443 6.23 3.527 8.138 8.12a20.55 20.55 0 0 1-8.138 2.01v-10.13zm-1.644 10.13a20.546 20.546 0 0 1-8.138-2.008c1.907-4.595 4.823-7.679 8.138-8.122v10.13zm-8.722-.465a22.163 22.163 0 0 0 8.722 2.11v8.119h-10.443c.08-3.75.698-7.242 1.72-10.229zm8.722 11.873v8.115c-3.052.108-5.98.818-8.722 2.116-1.023-2.987-1.64-6.48-1.721-10.23h10.443zm0 9.76v10.134c-3.314-.443-6.23-3.527-8.137-8.12a20.445 20.445 0 0 1 8.137-2.015zm1.644 10.134v-10.135c2.849.11 5.577.786 8.137 2.016-1.907 4.593-4.823 7.676-8.137 8.12zm8.721-9.662a22.06 22.06 0 0 0-8.72-2.117v-8.115h10.442c-.08 3.751-.698 7.244-1.722 10.232zm-8.72-11.876v-8.119a22.162 22.162 0 0 0 8.721-2.111c1.023 2.987 1.641 6.48 1.721 10.23h-10.443zm-11.803-10.974c-1.15 3.213-1.843 6.956-1.928 10.974h-7.844c.2-5.2 2.277-10.009 5.924-13.71a22.212 22.212 0 0 0 3.848 2.736zm-1.928 12.618c.085 4.018.777 7.763 1.929 10.976a21.92 21.92 0 0 0-3.856 2.736c-3.642-3.717-5.717-8.528-5.917-13.712h7.844zm2.535 12.52c1.18 2.754 2.709 5.024 4.48 6.606-2.844-.837-5.473-2.298-7.743-4.28a20.338 20.338 0 0 1 3.263-2.326zm20.746.001a20.276 20.276 0 0 1 3.261 2.325c-2.268 1.981-4.897 3.442-7.74 4.279 1.77-1.582 3.299-3.851 4.479-6.604zm.606-1.544c1.151-3.213 1.845-6.958 1.93-10.977h7.84c-.199 5.184-2.274 9.995-5.916 13.712a21.938 21.938 0 0 0-3.854-2.735zm1.93-12.621c-.085-4.018-.778-7.763-1.93-10.975a22.209 22.209 0 0 0 3.847-2.734c3.646 3.698 5.723 8.508 5.924 13.709h-7.842z"/></svg>