<svg width="650" height="500" viewBox="0 0 650 500" fill="none" xmlns="http://www.w3.org/2000/svg">
<circle cx="346" cy="250" r="250" fill="#326CE5" fill-opacity="0.31"/>
<g clip-path="url(#clip0_12_75)">
<path d="M435.686 234.537H400.195V318H483.268V282.119H435.686V234.537ZM614.314 234.927V282.118H566.732V281.729V318H649.805V234.537H613.924L614.314 234.927ZM400.195 151.463H436.076L435.686 151.073V103.881H483.268V68H400.195L400.195 151.463ZM566.732 68V103.881H614.314V151.463H649.805V68H566.732Z" fill="#446CA9"/>
<path d="M562.051 151.463L514.47 103.881H566.732V68H483.268V103.881L530.85 151.463H562.051ZM519.15 234.537H487.949L527.34 273.928L535.14 282.119H483.268V318H566.732V281.729L542.941 258.328L519.15 234.537ZM614.314 151.463V203.335L606.123 195.145L566.732 155.754V187.345L590.133 210.746L613.924 234.537H649.805V151.463H614.314ZM483.268 198.655L436.076 151.463H400.195V234.537H435.686V182.665L483.268 230.246V198.655Z" fill="#76C4D5"/>
</g>
<g clip-path="url(#clip1_12_75)">
<path d="M124.219 143.719C121.983 143.85 119.797 144.429 117.789 145.422L30.7188 186.953C26.1719 189.117 22.8672 193.234 21.7344 198.141L0.421875 291.352C-0.59375 295.727 0.226563 300.313 2.76563 304.063C3.0625 304.516 3.375 304.953 3.70313 305.375L63.8594 380.172C67.0391 384.078 71.8125 386.32 76.8438 386.297H173.328C178.375 386.305 183.156 383.953 186.328 380.102L246.453 305.289C249.609 301.383 250.789 296.227 249.578 291.336L228.125 198.047C226.992 193.141 223.672 189.023 219.141 186.859L132.211 145.43C129.706 144.194 126.931 143.606 124.141 143.719H124.219Z" fill="#326CE5"/>
<path d="M125.016 175.484C122.016 175.695 119.742 178.266 119.898 181.266V182.734C120.039 184.398 120.289 186.047 120.617 187.68C121.096 190.806 121.269 193.973 121.133 197.133C120.836 198.172 120.242 199.109 119.43 199.828L119.313 202.031C116.148 202.297 113.008 202.781 109.914 203.484C96.8984 206.422 85.0469 213.172 75.8984 222.898L74.0234 221.57C72.9922 221.883 71.8828 221.766 70.9375 221.258C68.4017 219.381 66.0547 217.262 63.9297 214.93C62.8623 213.654 61.7224 212.441 60.5156 211.297L59.3594 210.375C58.3281 209.547 57.0625 209.07 55.7422 209.008C54.9543 208.966 54.1677 209.111 53.4467 209.432C52.7256 209.752 52.0907 210.239 51.5938 210.852C49.8281 213.328 50.4063 216.758 52.875 218.531L53.9531 219.391C55.3409 220.314 56.7808 221.157 58.2656 221.914C61.0313 223.453 63.6406 225.258 66.0625 227.383C66.682 228.266 67.042 229.305 67.1016 230.383L68.8047 231.945C59.6094 245.742 55.8359 262.453 58.1953 278.867L56.0078 279.492C55.4375 280.398 54.6797 281.172 53.7734 281.742C50.7215 282.557 47.5973 283.073 44.4453 283.281C42.7725 283.315 41.1031 283.446 39.4453 283.672L38.0625 283.984H37.9063C36.9466 284.118 36.0428 284.514 35.2954 285.131C34.5479 285.747 33.9863 286.559 33.6729 287.476C33.3595 288.393 33.3066 289.378 33.5202 290.323C33.7339 291.268 34.2056 292.135 34.8828 292.828C35.5664 293.517 36.4282 294.003 37.3719 294.231C38.3155 294.458 39.3039 294.419 40.2266 294.117H40.3281L41.7344 293.961C43.3203 293.492 44.8828 292.914 46.4063 292.258C49.3359 291.086 52.375 290.188 55.4844 289.602C56.5625 289.664 57.5938 290.031 58.4688 290.656L60.8125 290.266C65.8906 306.023 76.5625 319.375 90.8125 327.789L89.8594 329.781C90.2969 330.695 90.4609 331.711 90.3281 332.719C89.0391 335.703 87.4609 338.563 85.6172 341.25C84.6057 342.583 83.6719 343.974 82.8203 345.414L82.1562 346.82C81.6744 347.656 81.433 348.609 81.4585 349.573C81.4841 350.538 81.7756 351.476 82.301 352.285C82.8264 353.094 83.5652 353.742 84.4358 354.158C85.3064 354.574 86.2749 354.741 87.2344 354.641C88.1961 354.532 89.109 354.16 89.8717 353.564C90.6344 352.968 91.217 352.173 91.5547 351.266L92.2031 349.937C92.7969 348.375 93.2969 346.781 93.7031 345.172C95.0859 341.758 95.8359 338.094 97.7266 335.828C98.3445 335.247 99.1231 334.866 99.9609 334.734L101.133 332.602C116.58 338.539 133.672 338.581 149.148 332.719L150.188 334.711C151.25 334.867 152.203 335.453 152.844 336.313C154.312 339.109 155.5 342.039 156.406 345.062C156.819 346.681 157.325 348.275 157.922 349.836L158.57 351.164C158.911 352.068 159.496 352.859 160.259 353.451C161.022 354.043 161.933 354.413 162.893 354.519C163.853 354.624 164.824 354.463 165.697 354.051C166.571 353.64 167.314 352.995 167.844 352.188C168.368 351.375 168.658 350.434 168.68 349.467C168.702 348.5 168.456 347.546 167.969 346.711L167.289 345.305C166.437 343.869 165.504 342.484 164.492 341.156C162.695 338.562 161.148 335.797 159.805 332.898C159.679 332.369 159.662 331.819 159.753 331.282C159.844 330.745 160.042 330.232 160.336 329.773C160.003 329.092 159.713 328.39 159.469 327.672C173.688 319.195 184.313 305.797 189.336 290.016L191.555 290.406C192.352 289.68 193.398 289.297 194.469 289.328C197.57 289.922 200.609 290.891 203.547 291.984C205.07 292.688 206.633 293.281 208.219 293.781C208.594 293.883 209.141 293.969 209.562 294.07H209.664C210.586 294.368 211.573 294.404 212.514 294.174C213.456 293.944 214.315 293.458 214.996 292.769C215.677 292.079 216.153 291.215 216.372 290.271C216.591 289.327 216.543 288.34 216.234 287.422C215.919 286.504 215.354 285.692 214.603 285.077C213.853 284.462 212.946 284.067 211.984 283.937L210.469 283.578C208.811 283.352 207.142 283.221 205.469 283.187C202.312 282.984 199.188 282.469 196.141 281.648C195.203 281.125 194.422 280.344 193.891 279.398L191.781 278.773C194.03 262.367 190.177 245.706 180.953 231.953L182.797 230.25C182.719 229.18 183.07 228.117 183.766 227.297C186.164 225.234 188.766 223.414 191.5 221.859C192.985 221.102 194.425 220.259 195.812 219.336L196.953 218.414C197.793 217.893 198.468 217.144 198.9 216.256C199.332 215.367 199.504 214.373 199.395 213.391C199.287 212.409 198.902 211.477 198.286 210.704C197.67 209.931 196.848 209.348 195.914 209.023C194.981 208.699 193.976 208.645 193.014 208.867C192.052 209.09 191.172 209.58 190.477 210.281L189.32 211.203C188.114 212.348 186.974 213.561 185.906 214.836C183.844 217.195 181.563 219.344 179.086 221.266C178.087 221.673 176.993 221.792 175.93 221.609L173.953 223.016C162.547 211.063 147.18 203.641 130.711 202.156C130.711 201.375 130.609 200.203 130.594 199.836C129.711 199.227 129.094 198.297 128.891 197.242C128.782 194.087 128.981 190.929 129.484 187.813C129.82 186.172 130.055 184.531 130.203 182.867V181.305C130.359 178.305 128.094 175.734 125.086 175.523L125.016 175.484ZM118.5 215.844L116.938 243.133H116.82C116.742 244.82 115.75 246.258 114.227 247.07C112.703 247.883 110.898 247.641 109.539 246.648L87.1562 230.789C94.2805 223.792 103.218 218.924 112.961 216.734C114.789 216.344 116.633 216.047 118.484 215.844H118.5ZM131.531 215.844C143.289 217.305 154.234 222.586 162.703 230.875L140.531 246.633C139.164 247.727 137.289 247.945 135.703 247.195C134.117 246.445 133.102 244.852 133.078 243.102L131.531 215.844ZM79.0313 241.055L99.5 259.32V259.438C100.773 260.547 101.328 262.273 100.953 263.922C100.578 265.57 99.3125 266.875 97.6953 267.32V267.398L71.4297 274.953C70.13 263.12 72.8072 251.19 79.0391 241.047L79.0313 241.055ZM170.852 241.055C177.07 251.172 179.82 263.039 178.68 274.859L152.375 267.281V267.18C150.734 266.734 149.484 265.43 149.117 263.781C148.75 262.133 149.297 260.422 150.57 259.297L170.883 241.117L170.852 241.055ZM120.82 260.742H129.195L134.312 267.242L132.453 275.367L124.93 278.984L117.391 275.367L115.617 267.242L120.82 260.742ZM147.648 282.914C148 282.875 148.43 282.875 148.703 282.914L175.789 287.484C171.883 298.734 164.172 308.344 154.109 314.773L143.641 289.43C143.353 288.75 143.233 288.011 143.29 287.275C143.347 286.538 143.581 285.827 143.97 285.2C144.36 284.573 144.895 284.048 145.529 283.671C146.164 283.294 146.88 283.074 147.617 283.031L147.648 282.914ZM102.156 283.031C103.688 283.055 105.102 283.844 105.938 285.125C106.773 286.406 106.906 288.016 106.305 289.422V289.523L95.8984 314.664C85.9375 308.281 78.375 298.789 74.3516 287.656L101.203 283.102C101.5 283.07 101.805 283.07 102.109 283.102L102.156 283.031ZM124.844 293.969C125.697 293.942 126.542 294.153 127.282 294.577C128.023 295.002 128.631 295.625 129.039 296.375H129.141L142.375 320.258L137.086 321.82C127.352 324.047 117.187 323.523 107.727 320.305L121.008 296.422C121.813 295.016 123.297 294.156 124.914 294.117L124.844 293.969Z" fill="white" stroke="white" stroke-width="0.11"/>
</g>
<path d="M432.205 308.394H476.417V353.591H498.775C509.227 353.541 519.603 351.801 529.5 348.439C534.317 346.805 539.7 344.543 544.433 341.695C538.192 333.548 535.008 323.264 533.961 313.106C532.683 299.315 535.469 281.355 544.81 270.559L549.459 265.187L555.01 269.637C568.958 280.842 580.687 296.498 582.76 314.353C599.547 309.41 619.266 310.583 634.073 319.128L640.147 322.636L636.953 328.877C624.523 353.277 598.343 360.848 572.76 359.508C534.474 454.855 451.127 500 350.073 500C297.859 500 249.961 480.48 222.692 434.163C221.089 431.283 219.728 428.277 218.272 425.324C209.057 404.935 205.989 382.599 208.062 360.398L208.69 353.717H246.39V308.425H290.602V264.213H379.038V220H432.1V308.436" fill="#394D54"/>
<mask id="mask0_12_75" style="mask-type:luminance" maskUnits="userSpaceOnUse" x="214" y="223" width="417" height="270">
<path d="M293.97 223.827V312.779H251.427V357.256H215.808L215.409 361.123C213.186 385.353 217.413 407.703 227.134 426.812L230.398 432.672C232.332 436.185 234.652 439.484 237.046 442.704C239.44 445.924 240.306 447.699 241.822 449.836C267.516 478.695 305.824 492.618 350.048 492.618C447.989 492.618 531.111 449.228 567.897 351.756C593.996 354.432 619.033 347.742 630.442 325.471C612.264 314.982 588.909 318.345 575.452 325.109L611.104 223.827L471.874 312.779H427.398V223.827H293.97Z" fill="white"/>
</mask>
<g mask="url(#mask0_12_75)">
<path d="M386.519 227.327H424.842V265.65H386.519V227.327Z" fill="#20C2EF"/>
<path d="M391.222 262.457V230.518ZM396.969 262.456V230.518ZM402.774 262.456V230.518ZM408.581 262.456V230.518ZM414.388 262.456V230.518ZM420.131 262.456V230.518Z" fill="black"/>
<path d="M391.222 262.457V230.518M396.969 262.456V230.518M402.774 262.456V230.518M408.581 262.456V230.518M414.388 262.456V230.518M420.131 262.456V230.518" stroke="#394D54" stroke-width="0.39144"/>
<path d="M430.736 265.671H469.059V227.35H430.736V265.671Z" fill="#00ACD3"/>
<path d="M435.439 230.521V262.461ZM441.186 230.523V262.461ZM446.991 230.523V262.461ZM452.798 230.523V262.461ZM458.605 230.523V262.461ZM464.348 230.523V262.461Z" fill="black"/>
<path d="M435.439 230.521V262.461M441.186 230.523V262.461M446.991 230.523V262.461M452.798 230.523V262.461M458.605 230.523V262.461M464.348 230.523V262.461" stroke="#394D54" stroke-width="0.39144"/>
<path d="M209.651 271.525H247.974V309.846H209.651V271.525Z" fill="#00ACD3"/>
<path d="M209.651 315.761H247.974V354.084H209.651V315.761Z" fill="#20C2EF"/>
<path d="M214.353 306.675V274.735ZM220.101 306.673V274.735ZM225.906 306.673V274.735ZM231.713 306.673V274.735ZM237.52 306.673V274.735ZM243.263 306.673V274.735Z" fill="black"/>
<path d="M214.353 306.675V274.735M220.101 306.673V274.735M225.906 306.673V274.735M231.713 306.673V274.735M237.52 306.673V274.735M243.263 306.673V274.735" stroke="#394D54" stroke-width="0.39144"/>
<path d="M214.353 350.892V318.952ZM220.101 350.89V318.952ZM225.906 350.89V318.952ZM231.713 350.89V318.952ZM237.52 350.89V318.952ZM243.263 350.89V318.952Z" fill="black"/>
<path d="M214.353 350.892V318.952M220.101 350.89V318.952M225.906 350.89V318.952M231.713 350.89V318.952M237.52 350.89V318.952M243.263 350.89V318.952" stroke="#394D54" stroke-width="0.39144"/>
<path d="M253.868 354.105H292.191V315.784H253.868V354.105Z" fill="#00ACD3"/>
<path d="M253.868 309.868H292.191V271.545H253.868V309.868Z" fill="#20C2EF"/>
<path d="M258.57 318.955V350.895ZM264.318 318.957V350.895ZM270.123 318.957V350.895ZM275.93 318.957V350.895ZM281.737 318.957V350.895ZM287.48 318.957V350.895Z" fill="black"/>
<path d="M258.57 318.955V350.895M264.318 318.957V350.895M270.123 318.957V350.895M275.93 318.957V350.895M281.737 318.957V350.895M287.48 318.957V350.895" stroke="#394D54" stroke-width="0.39144"/>
<path d="M258.57 274.738V306.678ZM264.318 274.74V306.678ZM270.123 274.74V306.678ZM275.93 274.74V306.678ZM281.737 274.74V306.678ZM287.48 274.74V306.678Z" fill="black"/>
<path d="M258.57 274.738V306.678M264.318 274.74V306.678M270.123 274.74V306.678M275.93 274.74V306.678M281.737 274.74V306.678M287.48 274.74V306.678" stroke="#394D54" stroke-width="0.39144"/>
<path d="M298.085 271.525H336.408V309.846H298.085V271.525Z" fill="#00ACD3"/>
<path d="M298.085 315.761H336.408V354.084H298.085V315.761Z" fill="#20C2EF"/>
<path d="M302.788 306.675V274.735ZM308.535 306.673V274.735ZM314.34 306.673V274.735ZM320.147 306.673V274.735ZM325.954 306.673V274.735ZM331.697 306.673V274.735Z" fill="black"/>
<path d="M302.788 306.675V274.735M308.535 306.673V274.735M314.34 306.673V274.735M320.147 306.673V274.735M325.954 306.673V274.735M331.697 306.673V274.735" stroke="#394D54" stroke-width="0.39144"/>
<path d="M302.788 350.892V318.952ZM308.535 350.89V318.952ZM314.34 350.89V318.952ZM320.147 350.89V318.952ZM325.954 350.89V318.952ZM331.697 350.89V318.952Z" fill="black"/>
<path d="M302.788 350.892V318.952M308.535 350.89V318.952M314.34 350.89V318.952M320.147 350.89V318.952M325.954 350.89V318.952M331.697 350.89V318.952" stroke="#394D54" stroke-width="0.39144"/>
<path d="M342.302 354.105H380.625V315.784H342.302V354.105Z" fill="#00ACD3"/>
<path d="M342.302 309.868H380.625V271.545H342.302V309.868Z" fill="#20C2EF"/>
<path d="M347.005 318.955V350.895ZM352.752 318.957V350.895ZM358.557 318.957V350.895ZM364.364 318.957V350.895ZM370.171 318.957V350.895ZM375.914 318.957V350.895Z" fill="black"/>
<path d="M347.005 318.955V350.895M352.752 318.957V350.895M358.557 318.957V350.895M364.364 318.957V350.895M370.171 318.957V350.895M375.914 318.957V350.895" stroke="#394D54" stroke-width="0.39144"/>
<path d="M347.005 274.738V306.678ZM352.752 274.74V306.678ZM358.557 274.74V306.678ZM364.364 274.74V306.678ZM370.171 274.74V306.678ZM375.914 274.74V306.678Z" fill="black"/>
<path d="M347.005 274.738V306.678M352.752 274.74V306.678M358.557 274.74V306.678M364.364 274.74V306.678M370.171 274.74V306.678M375.914 274.74V306.678" stroke="#394D54" stroke-width="0.39144"/>
<path d="M386.519 271.525H424.842V309.846H386.519V271.525Z" fill="#00ACD3"/>
<path d="M386.519 315.761H424.842V354.084H386.519V315.761Z" fill="#20C2EF"/>
<path d="M391.222 306.675V274.735ZM396.969 306.673V274.735ZM402.774 306.673V274.735ZM408.581 306.673V274.735ZM414.388 306.673V274.735ZM420.131 306.673V274.735Z" fill="black"/>
<path d="M391.222 306.675V274.735M396.969 306.673V274.735M402.774 306.673V274.735M408.581 306.673V274.735M414.388 306.673V274.735M420.131 306.673V274.735" stroke="#394D54" stroke-width="0.39144"/>
<path d="M391.222 350.892V318.952ZM396.969 350.89V318.952ZM402.774 350.89V318.952ZM408.581 350.89V318.952ZM414.388 350.89V318.952ZM420.131 350.89V318.952Z" fill="black"/>
<path d="M391.222 350.892V318.952M396.969 350.89V318.952M402.774 350.89V318.952M408.581 350.89V318.952M414.388 350.89V318.952M420.131 350.89V318.952" stroke="#394D54" stroke-width="0.39144"/>
<path d="M430.736 354.105H469.059V315.784H430.736V354.105Z" fill="#00ACD3"/>
<path d="M430.736 309.868H469.059V271.545H430.736V309.868Z" fill="#20C2EF"/>
<path d="M435.439 318.955V350.895ZM441.186 318.957V350.895ZM446.991 318.957V350.895ZM452.798 318.957V350.895ZM458.605 318.957V350.895ZM464.348 318.957V350.895Z" fill="black"/>
<path d="M435.439 318.955V350.895M441.186 318.957V350.895M446.991 318.957V350.895M452.798 318.957V350.895M458.605 318.957V350.895M464.348 318.957V350.895" stroke="#394D54" stroke-width="0.39144"/>
<path d="M435.439 274.738V306.678ZM441.186 274.74V306.678ZM446.991 274.74V306.678ZM452.798 274.74V306.678ZM458.605 274.74V306.678ZM464.348 274.74V306.678Z" fill="black"/>
<path d="M435.439 274.738V306.678M441.186 274.74V306.678M446.991 274.74V306.678M452.798 274.74V306.678M458.605 274.74V306.678M464.348 274.74V306.678" stroke="#394D54" stroke-width="0.39144"/>
<path d="M575.465 325.117C578.43 302.076 561.186 283.976 550.493 275.385C538.169 289.632 536.255 326.973 555.588 342.693C544.798 352.276 522.063 360.963 498.783 360.963H212.752C210.49 385.264 212.752 502.287 212.752 502.287H632.375L630.467 325.496C612.29 315.007 588.922 318.354 575.465 325.117Z" fill="#17B5EB"/>
<path d="M212.752 392.063V502.287H632.375V392.063" fill="black" fill-opacity="0.17"/>
<path d="M362.109 492.424C335.926 480 321.555 463.109 313.559 444.673L234.024 448.142L274.632 502.287L362.109 492.424Z" fill="#D4EDF1"/>
<path d="M577.264 324.262V324.32C536.926 376.338 479.062 421.742 416.944 445.605C361.533 466.891 313.222 466.992 279.89 449.898C276.301 447.871 272.782 445.62 269.254 443.493C244.818 426.414 231.055 398.166 232.212 360.947H212.752V502.287H632.375V316.647H584.032L577.264 324.262Z" fill="black" fill-opacity="0.085"/>
</g>
<path d="M235.237 446.268C262.632 447.766 291.859 448.048 317.358 440.048" stroke="#394D54" stroke-width="0.853355" stroke-linecap="round"/>
<path d="M344.575 426.79C344.572 429.592 343.458 432.278 341.477 434.259C339.496 436.24 336.81 437.354 334.009 437.357C331.206 437.357 328.517 436.244 326.534 434.262C324.55 432.281 323.435 429.594 323.432 426.79C323.432 423.985 324.546 421.295 326.53 419.311C328.513 417.328 331.204 416.214 334.009 416.214C336.812 416.216 339.5 417.332 341.481 419.315C343.462 421.298 344.575 423.987 344.575 426.79Z" fill="#D4EDF1"/>
<path d="M336.857 419.743C335.936 420.266 335.307 421.272 335.307 422.424C335.307 424.13 336.69 425.513 338.397 425.513C339.569 425.513 340.491 424.863 341.119 423.9C341.498 424.82 341.694 425.806 341.695 426.801C341.695 430.99 338.302 434.372 334.124 434.372C329.946 434.372 326.553 430.979 326.553 426.801C326.553 422.622 329.946 419.23 334.124 419.23C335.062 419.228 335.983 419.402 336.857 419.743ZM147 394.296H638.806C628.094 391.573 604.93 388.013 608.752 373.875C589.274 396.411 542.318 389.583 530.474 378.567C517.279 397.71 440.446 390.432 435.095 375.425C418.549 394.84 367.289 394.84 350.743 375.425C345.381 390.337 268.559 397.626 255.448 378.567C243.489 389.583 196.533 396.422 177.055 373.875C180.877 387.908 157.702 391.678 147 394.296Z" fill="#394D54"/>
<defs>
<clipPath id="clip0_12_75">
<rect width="250" height="250" fill="white" transform="translate(400 68)"/>
</clipPath>
<clipPath id="clip1_12_75">
<rect width="250" height="250" fill="white" transform="translate(0 140)"/>
</clipPath>
</defs>
</svg>
