<svg xmlns="http://www.w3.org/2000/svg" width="48" height="48" fill="none" id="medium">
    <path fill="#12100E" fill-rule="evenodd" d="M24 48c13.255 0 24-10.745 24-24S37.255 0 24 0 0 10.745 0 24s10.745 24 24 24Z" clip-rule="evenodd"></path>
    <path fill="#fff" d="M11.795 16.304c.04-.402-.11-.8-.404-1.07L8.403 11.55V11h9.278l7.17 16.095L31.157 11H40v.55l-2.555 2.507a.773.773 0 0 0-.284.734v18.418a.773.773 0 0 0 .284.734l2.495 2.507V37H27.391v-.55l2.585-2.568c.254-.26.254-.336.254-.734V18.26L23.044 36.94h-.971L13.707 18.26V30.78c-.07.526.1 1.056.463 1.437l3.361 4.173v.55H8v-.55l3.361-4.173c.36-.382.52-.915.434-1.437V16.304Z"></path>
</svg>