<?xml version="1.0" encoding="UTF-8" standalone="no"?><svg xmlns="http://www.w3.org/2000/svg" xmlns:xlink="http://www.w3.org/1999/xlink" contentScriptType="application/ecmascript" contentStyleType="text/css" height="1080.4444px" preserveAspectRatio="none" style="width:1714px;height:1080px;background:#FFFFFF;" version="1.1" viewBox="0 0 1714 1080" width="1714.8756px" zoomAndPan="magnify"><defs/><g><text fill="#000000" font-family="MesloLGS NF" font-size="16.3842" lengthAdjust="spacing" textLength="320.4014" x="697.2371" y="26.9309">Remote development on Kubernetes</text><rect fill="#DDDDDD" height="1036.572" rx="3.1858" ry="3.1858" style="stroke:#A80036;stroke-width:0.9102312121601202;" width="526.1136" x="10.0125" y="38.8768"/><text fill="#000000" font-family="MesloLGS NF" font-size="11.833" font-weight="bold" lengthAdjust="spacing" textLength="123.7914" x="211.1736" y="50.4383">Local development</text><rect fill="#DDDDDD" height="1036.572" rx="3.1858" ry="3.1858" style="stroke:#A80036;stroke-width:0.9102312121601202;" width="491.5249" x="556.1513" y="38.8768"/><text fill="#000000" font-family="MesloLGS NF" font-size="11.833" font-weight="bold" lengthAdjust="spacing" textLength="87.3822" x="758.2226" y="50.4383">CI/CD system</text><rect fill="#DDDDDD" height="1036.572" rx="3.1858" ry="3.1858" style="stroke:#A80036;stroke-width:0.9102312121601202;" width="351.3492" x="1067.7012" y="38.8768"/><text fill="#000000" font-family="MesloLGS NF" font-size="11.833" font-weight="bold" lengthAdjust="spacing" textLength="131.0733" x="1177.8392" y="50.4383">Kubernetes Cluster</text><text fill="#000000" font-family="MesloLGS NF" font-size="11.833" font-weight="bold" lengthAdjust="spacing" textLength="131.0733" x="1177.8392" y="65.3682">Remote Development</text><rect fill="#DDDDDD" height="1036.572" rx="3.1858" ry="3.1858" style="stroke:#A80036;stroke-width:0.9102312121601202;" width="167.4825" x="1439.0755" y="38.8768"/><text fill="#000000" font-family="MesloLGS NF" font-size="11.833" font-weight="bold" lengthAdjust="spacing" textLength="131.0733" x="1457.2802" y="50.4383">Cluster Management</text><rect fill="#DDDDDD" height="127.443" rx="3.1858" ry="3.1858" style="stroke:#696969;stroke-width:0.9102312121601202;" width="1205.1461" x="219.3657" y="174.0177"/><rect fill="#DDDDDD" height="174.7751" rx="3.1858" ry="3.1858" style="stroke:#696969;stroke-width:0.9102312121601202;" width="198.4304" x="710.8906" y="430.358"/><line style="stroke:#696969;stroke-width:0.9102312121601202;stroke-dasharray:5.0,5.0;" x1="49.1525" x2="49.1525" y1="130.8706" y2="999.2952"/><line style="stroke:#696969;stroke-width:0.9102312121601202;stroke-dasharray:5.0,5.0;" x1="245.7624" x2="245.7624" y1="130.8706" y2="999.2952"/><line style="stroke:#696969;stroke-width:0.9102312121601202;stroke-dasharray:5.0,5.0;" x1="340.4265" x2="340.4265" y1="130.8706" y2="999.2952"/><line style="stroke:#696969;stroke-width:0.9102312121601202;stroke-dasharray:5.0,5.0;" x1="475.1407" x2="475.1407" y1="130.8706" y2="999.2952"/><line style="stroke:#696969;stroke-width:0.9102312121601202;stroke-dasharray:5.0,5.0;" x1="617.1368" x2="617.1368" y1="130.8706" y2="999.2952"/><line style="stroke:#696969;stroke-width:0.9102312121601202;stroke-dasharray:5.0,5.0;" x1="733.6464" x2="733.6464" y1="130.8706" y2="999.2952"/><line style="stroke:#696969;stroke-width:0.9102312121601202;stroke-dasharray:5.0,5.0;" x1="892.0266" x2="892.0266" y1="130.8706" y2="999.2952"/><line style="stroke:#696969;stroke-width:0.9102312121601202;stroke-dasharray:5.0,5.0;" x1="986.6906" x2="986.6906" y1="130.8706" y2="999.2952"/><line style="stroke:#696969;stroke-width:0.9102312121601202;stroke-dasharray:5.0,5.0;" x1="1143.2504" x2="1143.2504" y1="130.8706" y2="999.2952"/><line style="stroke:#696969;stroke-width:0.9102312121601202;stroke-dasharray:5.0,5.0;" x1="1267.0418" x2="1267.0418" y1="130.8706" y2="999.2952"/><line style="stroke:#696969;stroke-width:0.9102312121601202;stroke-dasharray:5.0,5.0;" x1="1383.5514" x2="1383.5514" y1="130.8706" y2="999.2952"/><line style="stroke:#696969;stroke-width:0.9102312121601202;stroke-dasharray:5.0,5.0;" x1="1463.6518" x2="1463.6518" y1="130.8706" y2="999.2952"/><line style="stroke:#696969;stroke-width:0.9102312121601202;stroke-dasharray:5.0,5.0;" x1="1571.0591" x2="1571.0591" y1="130.8706" y2="999.2952"/><text fill="#454645" font-family="MesloLGS NF" font-size="12.7432" lengthAdjust="spacing" textLength="65.5366" x="13.6535" y="127.243">Developer</text><ellipse cx="49.1525" cy="66.55" fill="#454645" rx="7.2818" ry="7.2818" style="stroke:#454645;stroke-width:1.8204624243202403;"/><path d="M49.1525,73.8318 L49.1525,98.4081 M37.3195,81.1137 L60.9855,81.1137 M49.1525,98.4081 L37.3195,112.0616 M49.1525,98.4081 L60.9855,112.0616 " fill="none" style="stroke:#454645;stroke-width:1.8204624243202403;"/><text fill="#454645" font-family="MesloLGS NF" font-size="12.7432" lengthAdjust="spacing" textLength="65.5366" x="13.6535" y="1010.8358">Developer</text><ellipse cx="49.1525" cy="1023.5657" fill="#454645" rx="7.2818" ry="7.2818" style="stroke:#454645;stroke-width:1.8204624243202403;"/><path d="M49.1525,1030.8475 L49.1525,1055.4238 M37.3195,1038.1294 L60.9855,1038.1294 M49.1525,1055.4238 L37.3195,1069.0772 M49.1525,1055.4238 L60.9855,1069.0772 " fill="none" style="stroke:#454645;stroke-width:1.8204624243202403;"/><rect fill="#FF6347" height="28.8216" rx="3.1858" ry="3.1858" style="stroke:#FF6F61;stroke-width:1.3653468182401802;" width="34.5888" x="228.468" y="101.1388"/><text fill="#FFFFFF" font-family="MesloLGS NF" font-size="12.7432" lengthAdjust="spacing" textLength="21.8455" x="234.8397" y="119.9612">IDE</text><rect fill="#FF6347" height="28.8216" rx="3.1858" ry="3.1858" style="stroke:#FF6F61;stroke-width:1.3653468182401802;" width="34.5888" x="228.468" y="998.385"/><text fill="#FFFFFF" font-family="MesloLGS NF" font-size="12.7432" lengthAdjust="spacing" textLength="21.8455" x="234.8397" y="1017.2074">IDE</text><rect fill="#FF6347" height="28.8216" rx="3.1858" ry="3.1858" style="stroke:#FF6F61;stroke-width:1.3653468182401802;" width="136.5347" x="272.1591" y="101.1388"/><text fill="#FFFFFF" font-family="MesloLGS NF" font-size="12.7432" lengthAdjust="spacing" textLength="123.7914" x="278.5308" y="119.9612">Local source code</text><rect fill="#FF6347" height="28.8216" rx="3.1858" ry="3.1858" style="stroke:#FF6F61;stroke-width:1.3653468182401802;" width="136.5347" x="272.1591" y="998.385"/><text fill="#FFFFFF" font-family="MesloLGS NF" font-size="12.7432" lengthAdjust="spacing" textLength="123.7914" x="278.5308" y="1017.2074">Local source code</text><rect fill="#FF6347" height="28.8216" rx="3.1858" ry="3.1858" style="stroke:#FF6F61;stroke-width:1.3653468182401802;" width="114.6891" x="417.7961" y="101.1388"/><text fill="#FFFFFF" font-family="MesloLGS NF" font-size="12.7432" lengthAdjust="spacing" textLength="101.9459" x="424.1677" y="119.9612">K8s yaml files</text><rect fill="#FF6347" height="28.8216" rx="3.1858" ry="3.1858" style="stroke:#FF6F61;stroke-width:1.3653468182401802;" width="114.6891" x="417.7961" y="998.385"/><text fill="#FFFFFF" font-family="MesloLGS NF" font-size="12.7432" lengthAdjust="spacing" textLength="101.9459" x="424.1677" y="1017.2074">K8s yaml files</text><rect fill="#FF6347" height="28.8216" rx="3.1858" ry="3.1858" style="stroke:#FF6F61;stroke-width:1.3653468182401802;" width="114.6891" x="559.7922" y="101.1388"/><text fill="#FFFFFF" font-family="MesloLGS NF" font-size="12.7432" lengthAdjust="spacing" textLength="101.9459" x="566.1638" y="119.9612">Git repository</text><rect fill="#FF6347" height="28.8216" rx="3.1858" ry="3.1858" style="stroke:#FF6F61;stroke-width:1.3653468182401802;" width="114.6891" x="559.7922" y="998.385"/><text fill="#FFFFFF" font-family="MesloLGS NF" font-size="12.7432" lengthAdjust="spacing" textLength="101.9459" x="566.1638" y="1017.2074">Git repository</text><rect fill="#FF6347" height="28.8216" rx="3.1858" ry="3.1858" style="stroke:#FF6F61;stroke-width:1.3653468182401802;" width="27.3069" x="719.9929" y="101.1388"/><text fill="#FFFFFF" font-family="MesloLGS NF" font-size="12.7432" lengthAdjust="spacing" textLength="14.5637" x="726.3645" y="119.9612">CI</text><rect fill="#FF6347" height="28.8216" rx="3.1858" ry="3.1858" style="stroke:#FF6F61;stroke-width:1.3653468182401802;" width="27.3069" x="719.9929" y="998.385"/><text fill="#FFFFFF" font-family="MesloLGS NF" font-size="12.7432" lengthAdjust="spacing" textLength="14.5637" x="726.3645" y="1017.2074">CI</text><rect fill="#FF6347" height="28.8216" rx="3.1858" ry="3.1858" style="stroke:#FF6F61;stroke-width:1.3653468182401802;" width="27.3069" x="878.3731" y="101.1388"/><text fill="#FFFFFF" font-family="MesloLGS NF" font-size="12.7432" lengthAdjust="spacing" textLength="14.5637" x="884.7447" y="119.9612">CD</text><rect fill="#FF6347" height="28.8216" rx="3.1858" ry="3.1858" style="stroke:#FF6F61;stroke-width:1.3653468182401802;" width="27.3069" x="878.3731" y="998.385"/><text fill="#FFFFFF" font-family="MesloLGS NF" font-size="12.7432" lengthAdjust="spacing" textLength="14.5637" x="884.7447" y="1017.2074">CD</text><rect fill="#FF6347" height="28.8216" rx="3.1858" ry="3.1858" style="stroke:#FF6F61;stroke-width:1.3653468182401802;" width="114.6891" x="929.3461" y="101.1388"/><text fill="#FFFFFF" font-family="MesloLGS NF" font-size="12.7432" lengthAdjust="spacing" textLength="101.9459" x="935.7177" y="119.9612">Image registry</text><rect fill="#FF6347" height="28.8216" rx="3.1858" ry="3.1858" style="stroke:#FF6F61;stroke-width:1.3653468182401802;" width="114.6891" x="929.3461" y="998.385"/><text fill="#FFFFFF" font-family="MesloLGS NF" font-size="12.7432" lengthAdjust="spacing" textLength="101.9459" x="935.7177" y="1017.2074">Image registry</text><rect fill="#FF6347" height="28.8216" rx="3.1858" ry="3.1858" style="stroke:#FF6F61;stroke-width:1.3653468182401802;" width="143.8165" x="1071.3421" y="101.1388"/><text fill="#FFFFFF" font-family="MesloLGS NF" font-size="12.7432" lengthAdjust="spacing" textLength="131.0733" x="1077.7138" y="119.9612">Remote source code</text><rect fill="#FF6347" height="28.8216" rx="3.1858" ry="3.1858" style="stroke:#FF6F61;stroke-width:1.3653468182401802;" width="143.8165" x="1071.3421" y="998.385"/><text fill="#FFFFFF" font-family="MesloLGS NF" font-size="12.7432" lengthAdjust="spacing" textLength="131.0733" x="1077.7138" y="1017.2074">Remote source code</text><rect fill="#FF6347" height="28.8216" rx="3.1858" ry="3.1858" style="stroke:#FF6F61;stroke-width:1.3653468182401802;" width="85.5617" x="1224.261" y="101.1388"/><text fill="#FFFFFF" font-family="MesloLGS NF" font-size="12.7432" lengthAdjust="spacing" textLength="72.8185" x="1230.6326" y="119.9612">Deployment</text><rect fill="#FF6347" height="28.8216" rx="3.1858" ry="3.1858" style="stroke:#FF6F61;stroke-width:1.3653468182401802;" width="85.5617" x="1224.261" y="998.385"/><text fill="#FFFFFF" font-family="MesloLGS NF" font-size="12.7432" lengthAdjust="spacing" textLength="72.8185" x="1230.6326" y="1017.2074">Deployment</text><rect fill="#FF6347" height="28.8216" rx="3.1858" ry="3.1858" style="stroke:#FF6F61;stroke-width:1.3653468182401802;" width="63.7162" x="1351.6934" y="101.1388"/><text fill="#FFFFFF" font-family="MesloLGS NF" font-size="12.7432" lengthAdjust="spacing" textLength="50.9729" x="1358.065" y="119.9612">Service</text><rect fill="#FF6347" height="28.8216" rx="3.1858" ry="3.1858" style="stroke:#FF6F61;stroke-width:1.3653468182401802;" width="63.7162" x="1351.6934" y="998.385"/><text fill="#FFFFFF" font-family="MesloLGS NF" font-size="12.7432" lengthAdjust="spacing" textLength="50.9729" x="1358.065" y="1017.2074">Service</text><rect fill="#FF6347" height="28.8216" rx="3.1858" ry="3.1858" style="stroke:#FF6F61;stroke-width:1.3653468182401802;" width="41.8706" x="1442.7165" y="101.1388"/><text fill="#FFFFFF" font-family="MesloLGS NF" font-size="12.7432" lengthAdjust="spacing" textLength="29.1274" x="1449.0881" y="119.9612">Logs</text><rect fill="#FF6347" height="28.8216" rx="3.1858" ry="3.1858" style="stroke:#FF6F61;stroke-width:1.3653468182401802;" width="41.8706" x="1442.7165" y="998.385"/><text fill="#FFFFFF" font-family="MesloLGS NF" font-size="12.7432" lengthAdjust="spacing" textLength="29.1274" x="1449.0881" y="1017.2074">Logs</text><rect fill="#FF6347" height="28.8216" rx="3.1858" ry="3.1858" style="stroke:#FF6F61;stroke-width:1.3653468182401802;" width="63.7162" x="1539.201" y="101.1388"/><text fill="#FFFFFF" font-family="MesloLGS NF" font-size="12.7432" lengthAdjust="spacing" textLength="50.9729" x="1545.5726" y="119.9612">Rancher</text><rect fill="#FF6347" height="28.8216" rx="3.1858" ry="3.1858" style="stroke:#FF6F61;stroke-width:1.3653468182401802;" width="63.7162" x="1539.201" y="998.385"/><text fill="#FFFFFF" font-family="MesloLGS NF" font-size="12.7432" lengthAdjust="spacing" textLength="50.9729" x="1545.5726" y="1017.2074">Rancher</text><polygon fill="#454645" points="234.8397,156.7233,243.942,160.3643,234.8397,164.0052,238.4806,160.3643" style="stroke:#454645;stroke-width:0.9102312121601202;"/><line style="stroke:#454645;stroke-width:0.9102312121601202;" x1="49.1525" x2="240.301" y1="160.3643" y2="160.3643"/><text fill="#000000" font-family="MesloLGS NF" font-size="11.833" lengthAdjust="spacing" textLength="174.7644" x="55.5241" y="155.1753">Let's develop some YAML!</text><path d="M222.5515,174.0177 L376.8357,174.0177 L376.8357,181.2996 L367.7334,190.4019 L219.3657,190.4019 L219.3657,177.2035 " fill="#EEEEEE" style="stroke:#696969;stroke-width:0.9102312121601202;"/><rect fill="none" height="127.443" rx="3.1858" ry="3.1858" style="stroke:#696969;stroke-width:0.9102312121601202;" width="1205.1461" x="219.3657" y="174.0177"/><text fill="#454645" font-family="MesloLGS NF" font-size="11.833" font-weight="bold" lengthAdjust="spacing" textLength="116.5096" x="233.0192" y="186.4894">Development loop</text><polygon fill="#454645" points="1256.1191,207.5185,1265.2214,211.1594,1256.1191,214.8003,1259.76,211.1594" style="stroke:#454645;stroke-width:0.9102312121601202;"/><line style="stroke:#454645;stroke-width:0.9102312121601202;" x1="245.7624" x2="1261.5805" y1="211.1594" y2="211.1594"/><text fill="#000000" font-family="MesloLGS NF" font-size="11.833" lengthAdjust="spacing" textLength="313.1195" x="252.134" y="205.9705">Substitute image for your development image</text><polygon fill="#454645" points="350.439,235.1917,341.3367,238.8326,350.439,242.4735,346.7981,238.8326" style="stroke:#454645;stroke-width:0.9102312121601202;"/><polygon fill="#454645" points="1132.3276,235.1917,1141.4299,238.8326,1132.3276,242.4735,1135.9686,238.8326" style="stroke:#454645;stroke-width:0.9102312121601202;"/><line style="stroke:#454645;stroke-width:0.9102312121601202;" x1="344.9776" x2="1137.789" y1="238.8326" y2="238.8326"/><text fill="#000000" font-family="MesloLGS NF" font-size="11.833" lengthAdjust="spacing" textLength="80.1003" x="355.9004" y="233.6436">Synchronize</text><polygon fill="#454645" points="1132.3276,262.8648,1141.4299,266.5057,1132.3276,270.1467,1135.9686,266.5057" style="stroke:#454645;stroke-width:0.9102312121601202;"/><line style="stroke:#454645;stroke-width:0.9102312121601202;" x1="245.7624" x2="1137.789" y1="266.5057" y2="266.5057"/><text fill="#000000" font-family="MesloLGS NF" font-size="11.833" lengthAdjust="spacing" textLength="174.7644" x="252.134" y="261.3168">Develop and run tests on</text><polygon fill="#454645" points="255.775,290.538,246.6727,294.1789,255.775,297.8198,252.134,294.1789" style="stroke:#454645;stroke-width:0.9102312121601202;"/><line style="stroke:#454645;stroke-width:0.9102312121601202;stroke-dasharray:2.0,2.0;" x1="250.3136" x2="1382.6412" y1="294.1789" y2="294.1789"/><text fill="#000000" font-family="MesloLGS NF" font-size="11.833" lengthAdjust="spacing" textLength="305.8377" x="261.2364" y="288.99">Redirect traffic to your IDE for debugging</text><path d="M250.3136,315.5693 L250.3136,332.8637 A3.1858,3.1858 0 0 0 253.4994,336.0495 L586.644,336.0495 A3.1858,3.1858 0 0 0 589.8298,332.8637 L589.8298,321.4858 L580.7275,312.3835 L253.4994,312.3835 A3.1858,3.1858 0 0 0 250.3136,315.5693 " fill="#7FFFD4" style="stroke:#7FFFD4;stroke-width:0.9102312121601202;"/><path d="M580.7275,312.3835 L580.7275,319.8929 A1.5929,1.5929 0 0 0 582.3204,321.4858 L589.8298,321.4858 L580.7275,312.3835 " fill="#7FFFD4" style="stroke:#7FFFD4;stroke-width:0.9102312121601202;"/><text fill="#454645" font-family="MesloLGS NF" font-size="11.833" lengthAdjust="spacing" textLength="320.4014" x="255.775" y="328.4961">No local kubernetes installation is required</text><polygon fill="#454645" points="59.165,357.7173,50.0627,361.3582,59.165,364.9992,55.5241,361.3582" style="stroke:#454645;stroke-width:0.9102312121601202;"/><line style="stroke:#454645;stroke-width:0.9102312121601202;stroke-dasharray:2.0,2.0;" x1="53.7036" x2="1266.1316" y1="361.3582" y2="361.3582"/><text fill="#000000" font-family="MesloLGS NF" font-size="11.833" lengthAdjust="spacing" textLength="116.5096" x="64.6264" y="356.1693">Instant feedback</text><polygon fill="#454645" points="606.214,385.3905,615.3163,389.0314,606.214,392.6723,609.8549,389.0314" style="stroke:#454645;stroke-width:0.9102312121601202;"/><line style="stroke:#454645;stroke-width:0.9102312121601202;" x1="245.7624" x2="611.6754" y1="389.0314" y2="389.0314"/><text fill="#000000" font-family="MesloLGS NF" font-size="11.833" lengthAdjust="spacing" textLength="29.1274" x="252.134" y="383.8425">Push</text><polygon fill="#454645" points="722.7236,413.0636,731.8259,416.7046,722.7236,420.3455,726.3645,416.7046" style="stroke:#454645;stroke-width:0.9102312121601202;"/><line style="stroke:#454645;stroke-width:0.9102312121601202;" x1="617.1368" x2="728.185" y1="416.7046" y2="416.7046"/><text fill="#000000" font-family="MesloLGS NF" font-size="11.833" lengthAdjust="spacing" textLength="94.664" x="623.5084" y="411.5156">Trigger build</text><path d="M714.0764,430.358 L904.7698,430.358 L904.7698,437.6399 L895.6675,446.7422 L710.8906,446.7422 L710.8906,433.5438 " fill="#EEEEEE" style="stroke:#696969;stroke-width:0.9102312121601202;"/><rect fill="none" height="174.7751" rx="3.1858" ry="3.1858" style="stroke:#696969;stroke-width:0.9102312121601202;" width="198.4304" x="710.8906" y="430.358"/><text fill="#454645" font-family="MesloLGS NF" font-size="11.833" font-weight="bold" lengthAdjust="spacing" textLength="152.9188" x="724.544" y="442.8297">Continous Integration</text><line style="stroke:#454645;stroke-width:0.9102312121601202;" x1="733.6464" x2="771.8761" y1="467.4997" y2="467.4997"/><line style="stroke:#454645;stroke-width:0.9102312121601202;" x1="771.8761" x2="771.8761" y1="467.4997" y2="479.3327"/><line style="stroke:#454645;stroke-width:0.9102312121601202;" x1="734.5566" x2="771.8761" y1="479.3327" y2="479.3327"/><polygon fill="#454645" points="743.6589,475.6918,734.5566,479.3327,743.6589,482.9737,740.018,479.3327" style="stroke:#454645;stroke-width:0.9102312121601202;"/><text fill="#000000" font-family="MesloLGS NF" font-size="11.833" lengthAdjust="spacing" textLength="145.637" x="740.018" y="462.3108">Source code scanning</text><line style="stroke:#454645;stroke-width:0.9102312121601202;" x1="733.6464" x2="771.8761" y1="507.0059" y2="507.0059"/><line style="stroke:#454645;stroke-width:0.9102312121601202;" x1="771.8761" x2="771.8761" y1="507.0059" y2="518.8389"/><line style="stroke:#454645;stroke-width:0.9102312121601202;" x1="734.5566" x2="771.8761" y1="518.8389" y2="518.8389"/><polygon fill="#454645" points="743.6589,515.198,734.5566,518.8389,743.6589,522.4798,740.018,518.8389" style="stroke:#454645;stroke-width:0.9102312121601202;"/><text fill="#000000" font-family="MesloLGS NF" font-size="11.833" lengthAdjust="spacing" textLength="138.3551" x="740.018" y="501.817">Run automated tests</text><line style="stroke:#454645;stroke-width:0.9102312121601202;" x1="733.6464" x2="771.8761" y1="546.5121" y2="546.5121"/><line style="stroke:#454645;stroke-width:0.9102312121601202;" x1="771.8761" x2="771.8761" y1="546.5121" y2="558.3451"/><line style="stroke:#454645;stroke-width:0.9102312121601202;" x1="734.5566" x2="771.8761" y1="558.3451" y2="558.3451"/><polygon fill="#454645" points="743.6589,554.7041,734.5566,558.3451,743.6589,561.986,740.018,558.3451" style="stroke:#454645;stroke-width:0.9102312121601202;"/><text fill="#000000" font-family="MesloLGS NF" font-size="11.833" lengthAdjust="spacing" textLength="80.1003" x="740.018" y="541.3231">Build image</text><line style="stroke:#454645;stroke-width:0.9102312121601202;" x1="733.6464" x2="771.8761" y1="586.0182" y2="586.0182"/><line style="stroke:#454645;stroke-width:0.9102312121601202;" x1="771.8761" x2="771.8761" y1="586.0182" y2="597.8512"/><line style="stroke:#454645;stroke-width:0.9102312121601202;" x1="734.5566" x2="771.8761" y1="597.8512" y2="597.8512"/><polygon fill="#454645" points="743.6589,594.2103,734.5566,597.8512,743.6589,601.4922,740.018,597.8512" style="stroke:#454645;stroke-width:0.9102312121601202;"/><text fill="#000000" font-family="MesloLGS NF" font-size="11.833" lengthAdjust="spacing" textLength="109.2277" x="740.018" y="580.8293">Image scannning</text><polygon fill="#454645" points="881.1038,628.2551,890.2061,631.896,881.1038,635.5369,884.7447,631.896" style="stroke:#454645;stroke-width:0.9102312121601202;"/><line style="stroke:#454645;stroke-width:0.9102312121601202;" x1="733.6464" x2="886.5652" y1="631.896" y2="631.896"/><text fill="#000000" font-family="MesloLGS NF" font-size="11.833" lengthAdjust="spacing" textLength="131.0733" x="740.018" y="626.7071">Trigger deployment</text><polygon fill="#454645" points="975.7679,655.9283,984.8702,659.5692,975.7679,663.2101,979.4088,659.5692" style="stroke:#454645;stroke-width:0.9102312121601202;"/><line style="stroke:#454645;stroke-width:0.9102312121601202;" x1="892.0266" x2="981.2292" y1="659.5692" y2="659.5692"/><text fill="#000000" font-family="MesloLGS NF" font-size="11.833" lengthAdjust="spacing" textLength="72.8185" x="898.3982" y="654.3802">Push image</text><polygon fill="#454645" points="1256.1191,683.6014,1265.2214,687.2423,1256.1191,690.8833,1259.76,687.2423" style="stroke:#454645;stroke-width:0.9102312121601202;"/><line style="stroke:#454645;stroke-width:0.9102312121601202;" x1="892.0266" x2="1261.5805" y1="687.2423" y2="687.2423"/><text fill="#000000" font-family="MesloLGS NF" font-size="11.833" lengthAdjust="spacing" textLength="145.637" x="898.3982" y="682.0534">Trigger image update</text><path d="M591.6503,702.2612 L591.6503,764.1569 A3.1858,3.1858 0 0 0 594.8361,767.3427 L884.2896,767.3427 A3.1858,3.1858 0 0 0 887.4754,764.1569 L887.4754,708.1777 L878.3731,699.0753 L594.8361,699.0753 A3.1858,3.1858 0 0 0 591.6503,702.2612 " fill="#7FFFD4" style="stroke:#7FFFD4;stroke-width:0.9102312121601202;"/><path d="M878.3731,699.0753 L878.3731,706.5848 A1.5929,1.5929 0 0 0 879.966,708.1777 L887.4754,708.1777 L878.3731,699.0753 " fill="#7FFFD4" style="stroke:#7FFFD4;stroke-width:0.9102312121601202;"/><text fill="#454645" font-family="MesloLGS NF" font-size="11.833" lengthAdjust="spacing" textLength="276.7103" x="597.1117" y="715.188">New image can be pushed to the cluster</text><text fill="#454645" font-family="MesloLGS NF" font-size="11.833" lengthAdjust="spacing" textLength="116.5096" x="597.1117" y="730.1179">(imperative way)</text><text fill="#454645" font-family="MesloLGS NF" font-size="11.833" lengthAdjust="spacing" textLength="254.8647" x="597.1117" y="745.0478">or it can be pulled by using GitOps</text><text fill="#454645" font-family="MesloLGS NF" font-size="11.833" lengthAdjust="spacing" textLength="123.7914" x="597.1117" y="759.9777">(declarative way)</text><polygon fill="#454645" points="1372.6287,789.1989,1381.731,792.8398,1372.6287,796.4808,1376.2696,792.8398" style="stroke:#454645;stroke-width:0.9102312121601202;"/><line style="stroke:#454645;stroke-width:0.9102312121601202;" x1="1267.0418" x2="1378.0901" y1="792.8398" y2="792.8398"/><text fill="#000000" font-family="MesloLGS NF" font-size="11.833" lengthAdjust="spacing" textLength="94.664" x="1273.4135" y="787.6509">Serve content</text><path d="M1271.593,807.8586 L1271.593,855.1907 A3.1858,3.1858 0 0 0 1274.7788,858.3765 L1520.5412,858.3765 A3.1858,3.1858 0 0 0 1523.727,855.1907 L1523.727,813.7751 L1514.6247,804.6728 L1274.7788,804.6728 A3.1858,3.1858 0 0 0 1271.593,807.8586 " fill="#7FFFD4" style="stroke:#7FFFD4;stroke-width:0.9102312121601202;"/><path d="M1514.6247,804.6728 L1514.6247,812.1822 A1.5929,1.5929 0 0 0 1516.2176,813.7751 L1523.727,813.7751 L1514.6247,804.6728 " fill="#7FFFD4" style="stroke:#7FFFD4;stroke-width:0.9102312121601202;"/><text fill="#454645" font-family="MesloLGS NF" font-size="11.833" lengthAdjust="spacing" textLength="233.0192" x="1277.0544" y="820.7854">Deployment can be a web page  or</text><text fill="#454645" font-family="MesloLGS NF" font-size="11.833" lengthAdjust="spacing" textLength="189.3281" x="1277.0544" y="835.7154">an API, this can also be a</text><text fill="#454645" font-family="MesloLGS NF" font-size="11.833" lengthAdjust="spacing" textLength="196.6099" x="1277.0544" y="850.6453">aron job or other workload.</text><line style="stroke:#454645;stroke-width:0.9102312121601202;" x1="1463.6518" x2="1501.8815" y1="883.5074" y2="883.5074"/><line style="stroke:#454645;stroke-width:0.9102312121601202;" x1="1501.8815" x2="1501.8815" y1="883.5074" y2="895.3404"/><line style="stroke:#454645;stroke-width:0.9102312121601202;" x1="1464.562" x2="1501.8815" y1="895.3404" y2="895.3404"/><polygon fill="#454645" points="1473.6643,891.6995,1464.562,895.3404,1473.6643,898.9813,1470.0234,895.3404" style="stroke:#454645;stroke-width:0.9102312121601202;"/><text fill="#000000" font-family="MesloLGS NF" font-size="11.833" lengthAdjust="spacing" textLength="94.664" x="1470.0234" y="878.3185">Observability</text><line style="stroke:#454645;stroke-width:0.9102312121601202;" x1="1571.0591" x2="1609.2888" y1="923.0136" y2="923.0136"/><line style="stroke:#454645;stroke-width:0.9102312121601202;" x1="1609.2888" x2="1609.2888" y1="923.0136" y2="934.8466"/><line style="stroke:#454645;stroke-width:0.9102312121601202;" x1="1571.9693" x2="1609.2888" y1="934.8466" y2="934.8466"/><polygon fill="#454645" points="1581.0716,931.2056,1571.9693,934.8466,1581.0716,938.4875,1577.4307,934.8466" style="stroke:#454645;stroke-width:0.9102312121601202;"/><text fill="#000000" font-family="MesloLGS NF" font-size="11.833" lengthAdjust="spacing" textLength="131.0733" x="1577.4307" y="917.8246">Cluster management</text><path d="M1183.3006,949.8654 L1183.3006,981.7235 A3.1858,3.1858 0 0 0 1186.4864,984.9093 L1563.3221,984.9093 A3.1858,3.1858 0 0 0 1566.5079,981.7235 L1566.5079,955.7819 L1557.4056,946.6796 L1186.4864,946.6796 A3.1858,3.1858 0 0 0 1183.3006,949.8654 " fill="#7FFFD4" style="stroke:#7FFFD4;stroke-width:0.9102312121601202;"/><path d="M1557.4056,946.6796 L1557.4056,954.189 A1.5929,1.5929 0 0 0 1558.9985,955.7819 L1566.5079,955.7819 L1557.4056,946.6796 " fill="#7FFFD4" style="stroke:#7FFFD4;stroke-width:0.9102312121601202;"/><text fill="#454645" font-family="MesloLGS NF" font-size="11.833" lengthAdjust="spacing" textLength="342.2469" x="1188.762" y="962.7922">In this example cluster is managed with Rancher</text><text fill="#454645" font-family="MesloLGS NF" font-size="11.833" lengthAdjust="spacing" textLength="364.0925" x="1188.762" y="977.7221">on prem or managed service (for example Azure AKS)</text><!--MD5=[2d45b4853092a0c849a7bfdf23f0ecb8]
@startuml k8s-developer-flow-remote
'!theme bluegray
'!theme crt-amber
'!theme crt-green
'!theme plain

!theme vibrant

title "Remote development on Kubernetes"

scale 1920x1080

skinparam defaultTextAlignment center
skinparam NoteTextAlignment left
skinparam SequenceGroupBodyBackgroundColor #dddddd
skinparam BoxPadding 10

!include https://raw.githubusercontent.com/Piotr1215/dca-prep-kit/master/diagrams/MesloLGS.iuml

box "Local development"
actor "Developer" as dev
participant "IDE" as vscode
participant "Local source code" as file
participant "K8s yaml files" as k8sfiles
dev -> vscode : Let's develop some YAML!

end box

box "CI/CD system"
participant "Git repository" as repo

participant "CI" as CI
participant "CD" as CD
participant "Image registry" as registry

end box

box "Kubernetes Cluster\nRemote Development"
group Development loop
participant "Remote source code" as remotefile
participant "Deployment" as Medium
participant "Service" as Service
vscode -> Medium: Substitute image for your development image
file <-> remotefile : Synchronize
vscode -> remotefile: Develop and run tests on
Service - -> vscode : Redirect traffic to your IDE for debugging
end

note right of vscode
    No local kubernetes installation is required
end note
Medium - -> dev: Instant feedback
vscode -> repo : Push
CI <- repo : Trigger build
group Continous Integration
    CI -> CI: Source code scanning
    CI -> CI: Run automated tests
    CI -> CI: Build image
    CI -> CI: Image scannning
end
CI -> CD : Trigger deployment
CD -> registry: Push image
CD -> Medium: Trigger image update
note left of CD
    New image can be pushed to the cluster
    (imperative way)
    or it can be pulled by using GitOps
    (declarative way)
end note
Service <- Medium : Serve content
note right of Medium
    Deployment can be a web page  or
    an API, this can also be a
    aron job or other workload.
end note
end box
box Cluster Management
Logs -> Logs: Observability
Rancher -> Rancher: Cluster management
note left of Rancher
    In this example cluster is managed with Rancher
    on prem or managed service (for example Azure AKS)
end note
end box
@enduml

@startuml k8s-developer-flow-remote

skinparam BackgroundColor FFFFFF
skinparam shadowing false
skinparam RoundCorner 7
skinparam ArrowColor 454645
skinparam FontColor 454645
skinparam SequenceLifeLineBorderColor 696969
skinparam SequenceGroupHeaderFontColor 454645
skinparam SequenceGroupFontColor 696969
skinparam SequenceGroupBorderColor 696969
skinparam SequenceGroupBorderThickness 1

skinparam sequenceDivider {
    BorderColor 454645
    BorderThickness 1
    FontColor 454645
}

skinparam participant {
    BackgroundColor FF6347
    BorderColor FF6F61
    FontColor FFFFFF
}

skinparam database {
    BackgroundColor 00FFFF
    BorderColor 454645
    FontColor 454645
}

skinparam entity {
    BackgroundColor FFE552
    BorderColor 454645
    FontColor 454645
}

skinparam note {
    BackgroundColor 7FFFD4
    BorderColor 7FFFD4
    FontColor 454645
}

skinparam actor {
    BackgroundColor 454645
    BorderColor 454645
    FontColor 454645
}

skinparam boundary {
    BackgroundColor FFE552
    BorderColor 454645
    FontColor 454645
}

skinparam control {
    BackgroundColor FFE552
    BorderColor 454645
    FontColor 454645
}

skinparam collections {
    BackgroundColor FF6347
    BorderColor FFFFFF
    FontColor 454645
}

title "Remote development on Kubernetes"

scale 1920x1080

skinparam defaultTextAlignment center
skinparam NoteTextAlignment left
skinparam SequenceGroupBodyBackgroundColor #dddddd
skinparam BoxPadding 10


skinparam SequenceBoxFontName MesloLGS NF
skinparam ParticipantFontName MesloLGS NF
skinparam ArrowFontName MesloLGS NF
skinparam BoxFontName MesloLGS NF
skinparam NoteFontName MesloLGS NF
skinparam ActivityFontName MesloLGS NF
skinparam DefaultFontName MesloLGS NF
skinparam RectangleFontName MesloLGS NF

box "Local development"
actor "Developer" as dev
participant "IDE" as vscode
participant "Local source code" as file
participant "K8s yaml files" as k8sfiles
dev -> vscode : Let's develop some YAML!

end box

box "CI/CD system"
participant "Git repository" as repo

participant "CI" as CI
participant "CD" as CD
participant "Image registry" as registry

end box

box "Kubernetes Cluster\nRemote Development"
group Development loop
participant "Remote source code" as remotefile
participant "Deployment" as Medium
participant "Service" as Service
vscode -> Medium: Substitute image for your development image
file <-> remotefile : Synchronize
vscode -> remotefile: Develop and run tests on
Service - -> vscode : Redirect traffic to your IDE for debugging
end

note right of vscode
    No local kubernetes installation is required
end note
Medium - -> dev: Instant feedback
vscode -> repo : Push
CI <- repo : Trigger build
group Continous Integration
    CI -> CI: Source code scanning
    CI -> CI: Run automated tests
    CI -> CI: Build image
    CI -> CI: Image scannning
end
CI -> CD : Trigger deployment
CD -> registry: Push image
CD -> Medium: Trigger image update
note left of CD
    New image can be pushed to the cluster
    (imperative way)
    or it can be pulled by using GitOps
    (declarative way)
end note
Service <- Medium : Serve content
note right of Medium
    Deployment can be a web page  or
    an API, this can also be a
    aron job or other workload.
end note
end box
box Cluster Management
Logs -> Logs: Observability
Rancher -> Rancher: Cluster management
note left of Rancher
    In this example cluster is managed with Rancher
    on prem or managed service (for example Azure AKS)
end note
end box
@enduml

PlantUML version 1.2021.9(Sun Jul 25 12:13:56 CEST 2021)
(GPL source distribution)
Java Runtime: OpenJDK Runtime Environment
JVM: OpenJDK 64-Bit Server VM
Default Encoding: UTF-8
Language: en
Country: GB
--></g></svg>