<svg width="512" height="512" viewBox="0 0 512 512" fill="none" xmlns="http://www.w3.org/2000/svg">
<path d="M490.667 207.147C491.722 176.611 485.044 146.304 471.253 119.04C461.897 107.853 448.911 100.303 434.56 97.7067C375.2 92.3205 315.595 90.1129 256 91.0933C196.622 90.0684 137.231 92.2048 78.08 97.4933C66.3855 99.6206 55.5631 105.106 46.9333 113.28C27.7333 130.987 25.6 161.28 23.4667 186.88C20.3715 232.908 20.3715 279.092 23.4667 325.12C24.0838 339.529 26.2292 353.831 29.8667 367.787C32.4389 378.561 37.6432 388.53 45.0133 396.8C53.7017 405.407 64.7762 411.204 76.8 413.44C122.793 419.117 169.135 421.47 215.467 420.48C290.133 421.547 355.627 420.48 433.067 414.507C445.386 412.408 456.772 406.604 465.707 397.867C471.679 391.892 476.14 384.578 478.72 376.533C486.349 353.122 490.097 328.621 489.813 304C490.667 292.053 490.667 219.947 490.667 207.147ZM207.787 316.8V184.747L334.08 251.093C298.667 270.72 251.947 292.907 207.787 316.8Z" fill="white"/>
</svg>
