<?xml version="1.0" encoding="UTF-8" standalone="no"?><svg xmlns="http://www.w3.org/2000/svg" xmlns:xlink="http://www.w3.org/1999/xlink" contentStyleType="text/css" height="584px" preserveAspectRatio="none" style="width:1619px;height:584px;background:#FFFFFF;" version="1.1" viewBox="0 0 1619 584" width="1619px" zoomAndPan="magnify"><defs/><g><rect fill="#FFFFFF" height="36.2969" rx="17.5" ry="17.5" style="stroke:#FF0000;stroke-width:1.0;stroke-dasharray:8.0,3.0;" width="119" x="10" y="273.3359"/><text fill="#000000" font-family="sans-serif" font-size="14" font-weight="bold" lengthAdjust="spacing" textLength="99" x="20" y="296.3311">Project_Root</text><rect fill="#F1F1F1" height="36.2969" rx="12.5" ry="12.5" style="stroke:#181818;stroke-width:1.5;" width="511" x="179" y="20"/><text fill="#000000" font-family="sans-serif" font-size="14" lengthAdjust="spacing" textLength="491" x="189" y="42.9951">Dockerfile : Docker configuration for building the application's container</text><path d="M129,291.4844 L139,291.4844 C154,291.4844 154,38.1484 169,38.1484 L179,38.1484 " fill="none" style="stroke:#181818;stroke-width:1.0;"/><rect fill="#F1F1F1" height="36.2969" rx="12.5" ry="12.5" style="stroke:#181818;stroke-width:1.5;" width="449" x="179" y="132.5938"/><text fill="#000000" font-family="sans-serif" font-size="14" lengthAdjust="spacing" textLength="429" x="189" y="155.5889">example : Directory containing example files for the application</text><rect fill="#F1F1F1" height="36.2969" rx="12.5" ry="12.5" style="stroke:#181818;stroke-width:1.5;" width="323" x="678" y="76.2969"/><text fill="#000000" font-family="sans-serif" font-size="14" lengthAdjust="spacing" textLength="303" x="688" y="99.292">composition.yaml : Example composition file</text><path d="M628,150.7422 L638,150.7422 C653,150.7422 653,94.4453 668,94.4453 L678,94.4453 " fill="none" style="stroke:#181818;stroke-width:1.0;"/><rect fill="#F1F1F1" height="36.2969" rx="12.5" ry="12.5" style="stroke:#181818;stroke-width:1.5;" width="352" x="678" y="132.5938"/><text fill="#000000" font-family="sans-serif" font-size="14" lengthAdjust="spacing" textLength="332" x="688" y="155.5889">functions.yaml : Example functions configuration</text><path d="M628,150.7422 L638,150.7422 C653,150.7422 653,150.7422 668,150.7422 L678,150.7422 " fill="none" style="stroke:#181818;stroke-width:1.0;"/><rect fill="#F1F1F1" height="36.2969" rx="12.5" ry="12.5" style="stroke:#181818;stroke-width:1.5;" width="409" x="678" y="188.8906"/><text fill="#000000" font-family="sans-serif" font-size="14" lengthAdjust="spacing" textLength="389" x="688" y="211.8857">xr.yaml : Example Crossplane resource (XR) specification</text><path d="M628,150.7422 L638,150.7422 C653,150.7422 653,207.0391 668,207.0391 L678,207.0391 " fill="none" style="stroke:#181818;stroke-width:1.0;"/><path d="M129,291.4844 L139,291.4844 C154,291.4844 154,150.7422 169,150.7422 L179,150.7422 " fill="none" style="stroke:#181818;stroke-width:1.0;"/><rect fill="#F1F1F1" height="36.2969" rx="12.5" ry="12.5" style="stroke:#181818;stroke-width:1.5;" width="317" x="179" y="188.8906"/><text fill="#000000" font-family="sans-serif" font-size="14" lengthAdjust="spacing" textLength="297" x="189" y="211.8857">fn.go : Main Go source file for function logic</text><path d="M129,291.4844 L139,291.4844 C154,291.4844 154,207.0391 169,207.0391 L179,207.0391 " fill="none" style="stroke:#181818;stroke-width:1.0;"/><rect fill="#F1F1F1" height="36.2969" rx="12.5" ry="12.5" style="stroke:#181818;stroke-width:1.5;" width="397" x="179" y="245.1875"/><text fill="#000000" font-family="sans-serif" font-size="14" lengthAdjust="spacing" textLength="377" x="189" y="268.1826">fn_test.go : Unit tests for function logic defined in fn.go</text><path d="M129,291.4844 L139,291.4844 C154,291.4844 154,263.3359 169,263.3359 L179,263.3359 " fill="none" style="stroke:#181818;stroke-width:1.0;"/><rect fill="#F1F1F1" height="36.2969" rx="12.5" ry="12.5" style="stroke:#181818;stroke-width:1.5;" width="245" x="179" y="343.707"/><text fill="#000000" font-family="sans-serif" font-size="14" lengthAdjust="spacing" textLength="225" x="189" y="366.7021">input : Directory containing input</text><rect fill="#F1F1F1" height="36.2969" rx="12.5" ry="12.5" style="stroke:#181818;stroke-width:1.5;" width="342" x="474" y="301.4844"/><text fill="#000000" font-family="sans-serif" font-size="14" lengthAdjust="spacing" textLength="322" x="484" y="324.4795">generate.go : Code generator for labeling logic</text><path d="M424,361.8555 L434,361.8555 C449,361.8555 449,319.6328 464,319.6328 L474,319.6328 " fill="none" style="stroke:#181818;stroke-width:1.0;"/><rect fill="#F1F1F1" height="36.2969" rx="12.5" ry="12.5" style="stroke:#181818;stroke-width:1.5;" width="380" x="474" y="357.7813"/><text fill="#000000" font-family="sans-serif" font-size="14" lengthAdjust="spacing" textLength="360" x="484" y="380.7764">v1beta1 : Versioned API directory for labeling feature</text><rect fill="#F1F1F1" height="36.2969" rx="12.5" ry="12.5" style="stroke:#181818;stroke-width:1.5;" width="304" x="904" y="329.6328"/><text fill="#000000" font-family="sans-serif" font-size="14" lengthAdjust="spacing" textLength="284" x="914" y="352.6279">input.go : Input definitions for labeling API</text><path d="M854,375.9297 L864,375.9297 C879,375.9297 879,347.7813 894,347.7813 L904,347.7813 " fill="none" style="stroke:#181818;stroke-width:1.0;"/><rect fill="#F1F1F1" height="36.2969" rx="12.5" ry="12.5" style="stroke:#181818;stroke-width:1.5;" width="534" x="904" y="385.9297"/><text fill="#000000" font-family="sans-serif" font-size="14" lengthAdjust="spacing" textLength="514" x="914" y="408.9248">zz_generated.deepcopy.go : Auto-generated deep copy logic for API types</text><path d="M854,375.9297 L864,375.9297 C879,375.9297 879,404.0781 894,404.0781 L904,404.0781 " fill="none" style="stroke:#181818;stroke-width:1.0;"/><path d="M424,361.8555 L434,361.8555 C449,361.8555 449,375.9297 464,375.9297 L474,375.9297 " fill="none" style="stroke:#181818;stroke-width:1.0;"/><path d="M129,291.4844 L139,291.4844 C154,291.4844 154,361.8555 169,361.8555 L179,361.8555 " fill="none" style="stroke:#181818;stroke-width:1.0;"/><rect fill="#F1F1F1" height="36.2969" rx="12.5" ry="12.5" style="stroke:#181818;stroke-width:1.5;" width="313" x="179" y="442.2266"/><text fill="#000000" font-family="sans-serif" font-size="14" lengthAdjust="spacing" textLength="293" x="189" y="465.2217">main.go : Entry point for the Go application</text><path d="M129,291.4844 L139,291.4844 C154,291.4844 154,460.375 169,460.375 L179,460.375 " fill="none" style="stroke:#181818;stroke-width:1.0;"/><rect fill="#F1F1F1" height="36.2969" rx="12.5" ry="12.5" style="stroke:#181818;stroke-width:1.5;" width="495" x="179" y="498.5234"/><text fill="#000000" font-family="sans-serif" font-size="14" lengthAdjust="spacing" textLength="475" x="189" y="521.5186">package : Directory containing package specifications for Crossplane</text><rect fill="#F1F1F1" height="36.2969" rx="12.5" ry="12.5" style="stroke:#181818;stroke-width:1.5;" width="339" x="724" y="470.375"/><text fill="#000000" font-family="sans-serif" font-size="14" lengthAdjust="spacing" textLength="319" x="734" y="493.3701">crossplane.yaml : Crossplane configuration file</text><path d="M674,516.6719 L684,516.6719 C699,516.6719 699,488.5234 714,488.5234 L724,488.5234 " fill="none" style="stroke:#181818;stroke-width:1.0;"/><rect fill="#F1F1F1" height="36.2969" rx="12.5" ry="12.5" style="stroke:#181818;stroke-width:1.5;" width="325" x="724" y="526.6719"/><text fill="#000000" font-family="sans-serif" font-size="14" lengthAdjust="spacing" textLength="305" x="734" y="549.667">input : Input directory for package templates</text><rect fill="#F1F1F1" height="36.2969" rx="12.5" ry="12.5" style="stroke:#181818;stroke-width:1.5;" width="508" x="1099" y="526.6719"/><text fill="#000000" font-family="sans-serif" font-size="14" lengthAdjust="spacing" textLength="488" x="1109" y="549.667">template.fn.crossplane.io_inputs.yaml : Template for Crossplane inputs</text><path d="M1049,544.8203 L1059,544.8203 C1074,544.8203 1074,544.8203 1089,544.8203 L1099,544.8203 " fill="none" style="stroke:#181818;stroke-width:1.0;"/><path d="M674,516.6719 L684,516.6719 C699,516.6719 699,544.8203 714,544.8203 L724,544.8203 " fill="none" style="stroke:#181818;stroke-width:1.0;"/><path d="M129,291.4844 L139,291.4844 C154,291.4844 154,516.6719 169,516.6719 L179,516.6719 " fill="none" style="stroke:#181818;stroke-width:1.0;"/><!--MD5=[4e321736ed3a31b3300416e8edecfdfd]
@startmindmap composition-funcion-mindmapk8s-config-mindmap
<style>
rootNode {
    LineStyle 8.0;3.0
    LineColor red
    BackgroundColor white
    LineThickness 1.0
    RoundCorner 35
    Shadowing 0.0
    FontStyle bold
}
</style>

+ Project_Root
++ Dockerfile : Docker configuration for building the application's container
++ example : Directory containing example files for the application
+++ composition.yaml : Example composition file
+++ functions.yaml : Example functions configuration
+++ xr.yaml : Example Crossplane resource (XR) specification
++ fn.go : Main Go source file for function logic
++ fn_test.go : Unit tests for function logic defined in fn.go
++ input : Directory containing input
+++ generate.go : Code generator for labeling logic
+++ v1beta1 : Versioned API directory for labeling feature
++++ input.go : Input definitions for labeling API
++++ zz_generated.deepcopy.go : Auto-generated deep copy logic for API types
++ main.go : Entry point for the Go application
++ package : Directory containing package specifications for Crossplane
+++ crossplane.yaml : Crossplane configuration file
+++ input : Input directory for package templates
++++ template.fn.crossplane.io_inputs.yaml : Template for Crossplane inputs
@endmindmap

PlantUML version 1.2022.3(Tue Mar 29 18:10:57 CEST 2022)
(GPL source distribution)
Java Runtime: OpenJDK Runtime Environment
JVM: OpenJDK 64-Bit Server VM
Default Encoding: UTF-8
Language: en
Country: GB
--></g></svg>