<?xml version="1.0" encoding="UTF-8" standalone="no"?><svg xmlns="http://www.w3.org/2000/svg" xmlns:xlink="http://www.w3.org/1999/xlink" contentScriptType="application/ecmascript" contentStyleType="text/css" height="1012px" preserveAspectRatio="none" style="width:2540px;height:1012px;" version="1.1" viewBox="0 0 2540 1012" width="2540px" zoomAndPan="magnify"><defs><filter height="300%" id="f1wmt3sy1qdtsl" width="300%" x="-1" y="-1"><feGaussianBlur result="blurOut" stdDeviation="2.0"/><feColorMatrix in="blurOut" result="blurOut2" type="matrix" values="0 0 0 0 0 0 0 0 0 0 0 0 0 0 0 0 0 0 .4 0"/><feOffset dx="4.0" dy="4.0" in="blurOut2" result="blurOut3"/><feBlend in="SourceGraphic" in2="blurOut3" mode="normal"/></filter></defs><g><rect fill="#2C5282" filter="url(#f1wmt3sy1qdtsl)" height="36.2969" rx="5" ry="5" style="stroke: #2C5282; stroke-width: 2.0;" width="304" x="1037.75" y="10"/><text fill="#FFFFFF" font-family="sans-serif" font-size="14" font-weight="bold" lengthAdjust="spacingAndGlyphs" textLength="284" x="1047.75" y="32.9951">Linux Distributions (High-Level Map)</text><line style="stroke: #A80036; stroke-width: 1.5;" x1="1189.75" x2="1189.75" y1="46.2969" y2="66.2969"/><line style="stroke: #A80036; stroke-width: 1.5;" x1="69.5" x2="69.5" y1="66.2969" y2="86.2969"/><rect fill="#4A90E2" filter="url(#f1wmt3sy1qdtsl)" height="33.9688" rx="5" ry="5" style="stroke: #2C5282; stroke-width: 2.0;" width="119" x="10" y="86.2969"/><text fill="#FFFFFF" font-family="sans-serif" font-size="12" font-weight="bold" lengthAdjust="spacingAndGlyphs" textLength="99" x="20" y="107.4355">Debian-based</text><line style="stroke: #A80036; stroke-width: 1.5;" x1="69.5" x2="79.5" y1="152.25" y2="152.25"/><rect fill="#7BB3F0" filter="url(#f1wmt3sy1qdtsl)" height="33.9688" rx="5" ry="5" style="stroke: #2C5282; stroke-width: 2.0;" width="64" x="79.5" y="135.2656"/><text fill="#1A365D" font-family="sans-serif" font-size="12" lengthAdjust="spacingAndGlyphs" textLength="44" x="89.5" y="156.4043">Debian</text><line style="stroke: #A80036; stroke-width: 1.5;" x1="111.5" x2="158" y1="201.2188" y2="201.2188"/><rect fill="#E8F4FD" filter="url(#f1wmt3sy1qdtsl)" height="33.9688" rx="5" ry="5" style="stroke: #2C5282; stroke-width: 2.0;" width="173" x="158" y="184.2344"/><text fill="#1A365D" font-family="sans-serif" font-size="12" lengthAdjust="spacingAndGlyphs" textLength="153" x="168" y="205.373">Ubuntu (official flavours)</text><line style="stroke: #A80036; stroke-width: 1.5;" x1="234.5" x2="244.5" y1="250.1875" y2="250.1875"/><rect fill="#E8F4FD" filter="url(#f1wmt3sy1qdtsl)" height="33.9688" rx="5" ry="5" style="stroke: #2C5282; stroke-width: 2.0;" width="72" x="162.5" y="233.2031"/><text fill="#1A365D" font-family="sans-serif" font-size="12" lengthAdjust="spacingAndGlyphs" textLength="52" x="172.5" y="254.3418">Kubuntu</text><line style="stroke: #A80036; stroke-width: 1.5;" x1="234.5" x2="244.5" y1="299.1563" y2="299.1563"/><rect fill="#E8F4FD" filter="url(#f1wmt3sy1qdtsl)" height="33.9688" rx="5" ry="5" style="stroke: #2C5282; stroke-width: 2.0;" width="71" x="163.5" y="282.1719"/><text fill="#1A365D" font-family="sans-serif" font-size="12" lengthAdjust="spacingAndGlyphs" textLength="51" x="173.5" y="303.3105">Lubuntu</text><line style="stroke: #A80036; stroke-width: 1.5;" x1="234.5" x2="244.5" y1="348.125" y2="348.125"/><rect fill="#E8F4FD" filter="url(#f1wmt3sy1qdtsl)" height="33.9688" rx="5" ry="5" style="stroke: #2C5282; stroke-width: 2.0;" width="113" x="121.5" y="331.1406"/><text fill="#1A365D" font-family="sans-serif" font-size="12" lengthAdjust="spacingAndGlyphs" textLength="93" x="131.5" y="352.2793">Ubuntu Budgie</text><line style="stroke: #A80036; stroke-width: 1.5;" x1="234.5" x2="244.5" y1="397.0938" y2="397.0938"/><rect fill="#E8F4FD" filter="url(#f1wmt3sy1qdtsl)" height="33.9688" rx="5" ry="5" style="stroke: #2C5282; stroke-width: 2.0;" width="110" x="124.5" y="380.1094"/><text fill="#1A365D" font-family="sans-serif" font-size="12" lengthAdjust="spacingAndGlyphs" textLength="90" x="134.5" y="401.248">Ubuntu Studio</text><line style="stroke: #A80036; stroke-width: 1.5;" x1="234.5" x2="244.5" y1="446.0625" y2="446.0625"/><rect fill="#E8F4FD" filter="url(#f1wmt3sy1qdtsl)" height="33.9688" rx="5" ry="5" style="stroke: #2C5282; stroke-width: 2.0;" width="101" x="133.5" y="429.0781"/><text fill="#1A365D" font-family="sans-serif" font-size="12" lengthAdjust="spacingAndGlyphs" textLength="81" x="143.5" y="450.2168">Ubuntu Unity</text><line style="stroke: #A80036; stroke-width: 1.5;" x1="244.5" x2="254.5" y1="250.1875" y2="250.1875"/><rect fill="#E8F4FD" filter="url(#f1wmt3sy1qdtsl)" height="33.9688" rx="5" ry="5" style="stroke: #2C5282; stroke-width: 2.0;" width="72" x="254.5" y="233.2031"/><text fill="#1A365D" font-family="sans-serif" font-size="12" lengthAdjust="spacingAndGlyphs" textLength="52" x="264.5" y="254.3418">Xubuntu</text><line style="stroke: #A80036; stroke-width: 1.5;" x1="244.5" x2="254.5" y1="299.1563" y2="299.1563"/><rect fill="#E8F4FD" filter="url(#f1wmt3sy1qdtsl)" height="33.9688" rx="5" ry="5" style="stroke: #2C5282; stroke-width: 2.0;" width="103" x="254.5" y="282.1719"/><text fill="#1A365D" font-family="sans-serif" font-size="12" lengthAdjust="spacingAndGlyphs" textLength="83" x="264.5" y="303.3105">Ubuntu MATE</text><line style="stroke: #A80036; stroke-width: 1.5;" x1="244.5" x2="254.5" y1="348.125" y2="348.125"/><rect fill="#E8F4FD" filter="url(#f1wmt3sy1qdtsl)" height="33.9688" rx="5" ry="5" style="stroke: #2C5282; stroke-width: 2.0;" width="97" x="254.5" y="331.1406"/><text fill="#1A365D" font-family="sans-serif" font-size="12" lengthAdjust="spacingAndGlyphs" textLength="77" x="264.5" y="352.2793">Ubuntu Kylin</text><line style="stroke: #A80036; stroke-width: 1.5;" x1="244.5" x2="254.5" y1="397.0938" y2="397.0938"/><rect fill="#E8F4FD" filter="url(#f1wmt3sy1qdtsl)" height="33.9688" rx="5" ry="5" style="stroke: #2C5282; stroke-width: 2.0;" width="81" x="254.5" y="380.1094"/><text fill="#1A365D" font-family="sans-serif" font-size="12" lengthAdjust="spacingAndGlyphs" textLength="61" x="264.5" y="401.248">Edubuntu</text><line style="stroke: #A80036; stroke-width: 1.5;" x1="244.5" x2="244.5" y1="218.2031" y2="446.0625"/><line style="stroke: #A80036; stroke-width: 1.5;" x1="111.5" x2="140.5" y1="495.0313" y2="495.0313"/><rect fill="#E8F4FD" filter="url(#f1wmt3sy1qdtsl)" height="33.9688" rx="5" ry="5" style="stroke: #2C5282; stroke-width: 2.0;" width="208" x="140.5" y="478.0469"/><text fill="#1A365D" font-family="sans-serif" font-size="12" lengthAdjust="spacingAndGlyphs" textLength="188" x="150.5" y="499.1855">Ubuntu derivatives (selection)</text><line style="stroke: #A80036; stroke-width: 1.5;" x1="234.5" x2="244.5" y1="544" y2="544"/><rect fill="#E8F4FD" filter="url(#f1wmt3sy1qdtsl)" height="33.9688" rx="5" ry="5" style="stroke: #2C5282; stroke-width: 2.0;" width="72" x="162.5" y="527.0156"/><text fill="#1A365D" font-family="sans-serif" font-size="12" lengthAdjust="spacingAndGlyphs" textLength="52" x="172.5" y="548.1543">Pop!_OS</text><line style="stroke: #A80036; stroke-width: 1.5;" x1="234.5" x2="244.5" y1="592.9688" y2="592.9688"/><rect fill="#E8F4FD" filter="url(#f1wmt3sy1qdtsl)" height="33.9688" rx="5" ry="5" style="stroke: #2C5282; stroke-width: 2.0;" width="111" x="123.5" y="575.9844"/><text fill="#1A365D" font-family="sans-serif" font-size="12" lengthAdjust="spacingAndGlyphs" textLength="91" x="133.5" y="597.123">elementary OS</text><line style="stroke: #A80036; stroke-width: 1.5;" x1="234.5" x2="244.5" y1="641.9375" y2="641.9375"/><rect fill="#E8F4FD" filter="url(#f1wmt3sy1qdtsl)" height="33.9688" rx="5" ry="5" style="stroke: #2C5282; stroke-width: 2.0;" width="80" x="154.5" y="624.9531"/><text fill="#1A365D" font-family="sans-serif" font-size="12" lengthAdjust="spacingAndGlyphs" textLength="60" x="164.5" y="646.0918">KDE neon</text><line style="stroke: #A80036; stroke-width: 1.5;" x1="234.5" x2="244.5" y1="690.9063" y2="690.9063"/><rect fill="#E8F4FD" filter="url(#f1wmt3sy1qdtsl)" height="33.9688" rx="5" ry="5" style="stroke: #2C5282; stroke-width: 2.0;" width="113" x="121.5" y="673.9219"/><text fill="#1A365D" font-family="sans-serif" font-size="12" lengthAdjust="spacingAndGlyphs" textLength="93" x="131.5" y="695.0605">Peppermint OS</text><line style="stroke: #A80036; stroke-width: 1.5;" x1="244.5" x2="254.5" y1="544" y2="544"/><rect fill="#E8F4FD" filter="url(#f1wmt3sy1qdtsl)" height="33.9688" rx="5" ry="5" style="stroke: #2C5282; stroke-width: 2.0;" width="81" x="254.5" y="527.0156"/><text fill="#1A365D" font-family="sans-serif" font-size="12" lengthAdjust="spacingAndGlyphs" textLength="61" x="264.5" y="548.1543">Linux Mint</text><line style="stroke: #A80036; stroke-width: 1.5;" x1="295" x2="305" y1="592.9688" y2="592.9688"/><rect fill="#E8F4FD" filter="url(#f1wmt3sy1qdtsl)" height="33.9688" rx="5" ry="5" style="stroke: #2C5282; stroke-width: 2.0;" width="53" x="305" y="575.9844"/><text fill="#1A365D" font-family="sans-serif" font-size="12" lengthAdjust="spacingAndGlyphs" textLength="33" x="315" y="597.123">LMDE</text><line style="stroke: #A80036; stroke-width: 1.5;" x1="295" x2="295" y1="560.9844" y2="592.9688"/><line style="stroke: #A80036; stroke-width: 1.5;" x1="244.5" x2="254.5" y1="641.9375" y2="641.9375"/><rect fill="#E8F4FD" filter="url(#f1wmt3sy1qdtsl)" height="33.9688" rx="5" ry="5" style="stroke: #2C5282; stroke-width: 2.0;" width="74" x="254.5" y="624.9531"/><text fill="#1A365D" font-family="sans-serif" font-size="12" lengthAdjust="spacingAndGlyphs" textLength="54" x="264.5" y="646.0918">Zorin OS</text><line style="stroke: #A80036; stroke-width: 1.5;" x1="244.5" x2="254.5" y1="690.9063" y2="690.9063"/><rect fill="#E8F4FD" filter="url(#f1wmt3sy1qdtsl)" height="33.9688" rx="5" ry="5" style="stroke: #2C5282; stroke-width: 2.0;" width="77" x="254.5" y="673.9219"/><text fill="#1A365D" font-family="sans-serif" font-size="12" lengthAdjust="spacingAndGlyphs" textLength="57" x="264.5" y="695.0605">Linux Lite</text><line style="stroke: #A80036; stroke-width: 1.5;" x1="244.5" x2="254.5" y1="739.875" y2="739.875"/><rect fill="#E8F4FD" filter="url(#f1wmt3sy1qdtsl)" height="33.9688" rx="5" ry="5" style="stroke: #2C5282; stroke-width: 2.0;" width="90" x="254.5" y="722.8906"/><text fill="#1A365D" font-family="sans-serif" font-size="12" lengthAdjust="spacingAndGlyphs" textLength="70" x="264.5" y="744.0293">Bodhi Linux</text><line style="stroke: #A80036; stroke-width: 1.5;" x1="244.5" x2="244.5" y1="512.0156" y2="739.875"/><line style="stroke: #A80036; stroke-width: 1.5;" x1="111.5" x2="121.5" y1="788.8438" y2="788.8438"/><rect fill="#E8F4FD" filter="url(#f1wmt3sy1qdtsl)" height="33.9688" rx="5" ry="5" style="stroke: #2C5282; stroke-width: 2.0;" width="217" x="121.5" y="771.8594"/><text fill="#1A365D" font-family="sans-serif" font-size="12" lengthAdjust="spacingAndGlyphs" textLength="197" x="131.5" y="792.998">Other Debian-based (selection)</text><line style="stroke: #A80036; stroke-width: 1.5;" x1="220" x2="230" y1="837.8125" y2="837.8125"/><rect fill="#E8F4FD" filter="url(#f1wmt3sy1qdtsl)" height="33.9688" rx="5" ry="5" style="stroke: #2C5282; stroke-width: 2.0;" width="67" x="153" y="820.8281"/><text fill="#1A365D" font-family="sans-serif" font-size="12" lengthAdjust="spacingAndGlyphs" textLength="47" x="163" y="841.9668">Devuan</text><line style="stroke: #A80036; stroke-width: 1.5;" x1="220" x2="230" y1="886.7813" y2="886.7813"/><rect fill="#E8F4FD" filter="url(#f1wmt3sy1qdtsl)" height="33.9688" rx="5" ry="5" style="stroke: #2C5282; stroke-width: 2.0;" width="72" x="148" y="869.7969"/><text fill="#1A365D" font-family="sans-serif" font-size="12" lengthAdjust="spacingAndGlyphs" textLength="52" x="158" y="890.9355">MX Linux</text><line style="stroke: #A80036; stroke-width: 1.5;" x1="220" x2="230" y1="935.75" y2="935.75"/><rect fill="#E8F4FD" filter="url(#f1wmt3sy1qdtsl)" height="33.9688" rx="5" ry="5" style="stroke: #2C5282; stroke-width: 2.0;" width="64" x="156" y="918.7656"/><text fill="#1A365D" font-family="sans-serif" font-size="12" lengthAdjust="spacingAndGlyphs" textLength="44" x="166" y="939.9043">Deepin</text><line style="stroke: #A80036; stroke-width: 1.5;" x1="220" x2="230" y1="984.7188" y2="984.7188"/><rect fill="#E8F4FD" filter="url(#f1wmt3sy1qdtsl)" height="33.9688" rx="5" ry="5" style="stroke: #2C5282; stroke-width: 2.0;" width="68" x="152" y="967.7344"/><text fill="#1A365D" font-family="sans-serif" font-size="12" lengthAdjust="spacingAndGlyphs" textLength="48" x="162" y="988.873">Knoppix</text><line style="stroke: #A80036; stroke-width: 1.5;" x1="230" x2="240" y1="837.8125" y2="837.8125"/><rect fill="#E8F4FD" filter="url(#f1wmt3sy1qdtsl)" height="33.9688" rx="5" ry="5" style="stroke: #2C5282; stroke-width: 2.0;" width="76" x="240" y="820.8281"/><text fill="#1A365D" font-family="sans-serif" font-size="12" lengthAdjust="spacingAndGlyphs" textLength="56" x="250" y="841.9668">Kali Linux</text><line style="stroke: #A80036; stroke-width: 1.5;" x1="230" x2="240" y1="886.7813" y2="886.7813"/><rect fill="#E8F4FD" filter="url(#f1wmt3sy1qdtsl)" height="33.9688" rx="5" ry="5" style="stroke: #2C5282; stroke-width: 2.0;" width="51" x="240" y="869.7969"/><text fill="#1A365D" font-family="sans-serif" font-size="12" lengthAdjust="spacingAndGlyphs" textLength="31" x="250" y="890.9355">antiX</text><line style="stroke: #A80036; stroke-width: 1.5;" x1="230" x2="240" y1="935.75" y2="935.75"/><rect fill="#E8F4FD" filter="url(#f1wmt3sy1qdtsl)" height="33.9688" rx="5" ry="5" style="stroke: #2C5282; stroke-width: 2.0;" width="48" x="240" y="918.7656"/><text fill="#1A365D" font-family="sans-serif" font-size="12" lengthAdjust="spacingAndGlyphs" textLength="28" x="250" y="939.9043">Tails</text><line style="stroke: #A80036; stroke-width: 1.5;" x1="230" x2="230" y1="805.8281" y2="984.7188"/><line style="stroke: #A80036; stroke-width: 1.5;" x1="111.5" x2="111.5" y1="169.2344" y2="788.8438"/><line style="stroke: #A80036; stroke-width: 1.5;" x1="69.5" x2="69.5" y1="120.2656" y2="152.25"/><line style="stroke: #A80036; stroke-width: 1.5;" x1="427.5" x2="427.5" y1="66.2969" y2="86.2969"/><rect fill="#4A90E2" filter="url(#f1wmt3sy1qdtsl)" height="33.9688" rx="5" ry="5" style="stroke: #2C5282; stroke-width: 2.0;" width="99" x="378" y="86.2969"/><text fill="#FFFFFF" font-family="sans-serif" font-size="12" font-weight="bold" lengthAdjust="spacingAndGlyphs" textLength="79" x="388" y="107.4355">RPM-based</text><line style="stroke: #A80036; stroke-width: 1.5;" x1="427.5" x2="437.5" y1="152.25" y2="152.25"/><rect fill="#7BB3F0" filter="url(#f1wmt3sy1qdtsl)" height="33.9688" rx="5" ry="5" style="stroke: #2C5282; stroke-width: 2.0;" width="133" x="437.5" y="135.2656"/><text fill="#1A365D" font-family="sans-serif" font-size="12" lengthAdjust="spacingAndGlyphs" textLength="113" x="447.5" y="156.4043">Fedora / RHEL line</text><line style="stroke: #A80036; stroke-width: 1.5;" x1="504" x2="514" y1="201.2188" y2="201.2188"/><rect fill="#E8F4FD" filter="url(#f1wmt3sy1qdtsl)" height="33.9688" rx="5" ry="5" style="stroke: #2C5282; stroke-width: 2.0;" width="64" x="514" y="184.2344"/><text fill="#1A365D" font-family="sans-serif" font-size="12" lengthAdjust="spacingAndGlyphs" textLength="44" x="524" y="205.373">Fedora</text><line style="stroke: #A80036; stroke-width: 1.5;" x1="504" x2="613.5" y1="250.1875" y2="250.1875"/><rect fill="#E8F4FD" filter="url(#f1wmt3sy1qdtsl)" height="33.9688" rx="5" ry="5" style="stroke: #2C5282; stroke-width: 2.0;" width="51" x="613.5" y="233.2031"/><text fill="#1A365D" font-family="sans-serif" font-size="12" lengthAdjust="spacingAndGlyphs" textLength="31" x="623.5" y="254.3418">RHEL</text><line style="stroke: #A80036; stroke-width: 1.5;" x1="629" x2="639" y1="299.1563" y2="299.1563"/><rect fill="#E8F4FD" filter="url(#f1wmt3sy1qdtsl)" height="33.9688" rx="5" ry="5" style="stroke: #2C5282; stroke-width: 2.0;" width="115" x="514" y="282.1719"/><text fill="#1A365D" font-family="sans-serif" font-size="12" lengthAdjust="spacingAndGlyphs" textLength="95" x="524" y="303.3105">CentOS Stream</text><line style="stroke: #A80036; stroke-width: 1.5;" x1="629" x2="639" y1="348.125" y2="348.125"/><rect fill="#E8F4FD" filter="url(#f1wmt3sy1qdtsl)" height="33.9688" rx="5" ry="5" style="stroke: #2C5282; stroke-width: 2.0;" width="81" x="548" y="331.1406"/><text fill="#1A365D" font-family="sans-serif" font-size="12" lengthAdjust="spacingAndGlyphs" textLength="61" x="558" y="352.2793">AlmaLinux</text><line style="stroke: #A80036; stroke-width: 1.5;" x1="629" x2="639" y1="397.0938" y2="397.0938"/><rect fill="#E8F4FD" filter="url(#f1wmt3sy1qdtsl)" height="33.9688" rx="5" ry="5" style="stroke: #2C5282; stroke-width: 2.0;" width="95" x="534" y="380.1094"/><text fill="#1A365D" font-family="sans-serif" font-size="12" lengthAdjust="spacingAndGlyphs" textLength="75" x="544" y="401.248">Oracle Linux</text><line style="stroke: #A80036; stroke-width: 1.5;" x1="639" x2="649" y1="299.1563" y2="299.1563"/><rect fill="#E8F4FD" filter="url(#f1wmt3sy1qdtsl)" height="33.9688" rx="5" ry="5" style="stroke: #2C5282; stroke-width: 2.0;" width="120" x="649" y="282.1719"/><text fill="#1A365D" font-family="sans-serif" font-size="12" lengthAdjust="spacingAndGlyphs" textLength="100" x="659" y="303.3105">CentOS (legacy)</text><line style="stroke: #A80036; stroke-width: 1.5;" x1="639" x2="649" y1="348.125" y2="348.125"/><rect fill="#E8F4FD" filter="url(#f1wmt3sy1qdtsl)" height="33.9688" rx="5" ry="5" style="stroke: #2C5282; stroke-width: 2.0;" width="91" x="649" y="331.1406"/><text fill="#1A365D" font-family="sans-serif" font-size="12" lengthAdjust="spacingAndGlyphs" textLength="71" x="659" y="352.2793">Rocky Linux</text><line style="stroke: #A80036; stroke-width: 1.5;" x1="639" x2="649" y1="397.0938" y2="397.0938"/><rect fill="#E8F4FD" filter="url(#f1wmt3sy1qdtsl)" height="33.9688" rx="5" ry="5" style="stroke: #2C5282; stroke-width: 2.0;" width="80" x="649" y="380.1094"/><text fill="#1A365D" font-family="sans-serif" font-size="12" lengthAdjust="spacingAndGlyphs" textLength="60" x="659" y="401.248">EuroLinux</text><line style="stroke: #A80036; stroke-width: 1.5;" x1="639" x2="639" y1="267.1719" y2="397.0938"/><line style="stroke: #A80036; stroke-width: 1.5;" x1="504" x2="504" y1="169.2344" y2="250.1875"/><line style="stroke: #A80036; stroke-width: 1.5;" x1="427.5" x2="437.5" y1="446.0625" y2="446.0625"/><rect fill="#7BB3F0" filter="url(#f1wmt3sy1qdtsl)" height="33.9688" rx="5" ry="5" style="stroke: #2C5282; stroke-width: 2.0;" width="128" x="437.5" y="429.0781"/><text fill="#1A365D" font-family="sans-serif" font-size="12" lengthAdjust="spacingAndGlyphs" textLength="108" x="447.5" y="450.2168">openSUSE-based</text><line style="stroke: #A80036; stroke-width: 1.5;" x1="501.5" x2="511.5" y1="495.0313" y2="495.0313"/><rect fill="#E8F4FD" filter="url(#f1wmt3sy1qdtsl)" height="33.9688" rx="5" ry="5" style="stroke: #2C5282; stroke-width: 2.0;" width="119" x="511.5" y="478.0469"/><text fill="#1A365D" font-family="sans-serif" font-size="12" lengthAdjust="spacingAndGlyphs" textLength="99" x="521.5" y="499.1855">openSUSE Leap</text><line style="stroke: #A80036; stroke-width: 1.5;" x1="501.5" x2="511.5" y1="544" y2="544"/><rect fill="#E8F4FD" filter="url(#f1wmt3sy1qdtsl)" height="33.9688" rx="5" ry="5" style="stroke: #2C5282; stroke-width: 2.0;" width="167" x="511.5" y="527.0156"/><text fill="#1A365D" font-family="sans-serif" font-size="12" lengthAdjust="spacingAndGlyphs" textLength="147" x="521.5" y="548.1543">openSUSE Tumbleweed</text><line style="stroke: #A80036; stroke-width: 1.5;" x1="501.5" x2="511.5" y1="592.9688" y2="592.9688"/><rect fill="#E8F4FD" filter="url(#f1wmt3sy1qdtsl)" height="33.9688" rx="5" ry="5" style="stroke: #2C5282; stroke-width: 2.0;" width="157" x="511.5" y="575.9844"/><text fill="#1A365D" font-family="sans-serif" font-size="12" lengthAdjust="spacingAndGlyphs" textLength="137" x="521.5" y="597.123">SUSE Linux Enterprise</text><line style="stroke: #A80036; stroke-width: 1.5;" x1="501.5" x2="511.5" y1="641.9375" y2="641.9375"/><rect fill="#E8F4FD" filter="url(#f1wmt3sy1qdtsl)" height="33.9688" rx="5" ry="5" style="stroke: #2C5282; stroke-width: 2.0;" width="90" x="511.5" y="624.9531"/><text fill="#1A365D" font-family="sans-serif" font-size="12" lengthAdjust="spacingAndGlyphs" textLength="70" x="521.5" y="646.0918">GeckoLinux</text><line style="stroke: #A80036; stroke-width: 1.5;" x1="501.5" x2="501.5" y1="463.0469" y2="641.9375"/><line style="stroke: #A80036; stroke-width: 1.5;" x1="427.5" x2="437.5" y1="690.9063" y2="690.9063"/><rect fill="#7BB3F0" filter="url(#f1wmt3sy1qdtsl)" height="33.9688" rx="5" ry="5" style="stroke: #2C5282; stroke-width: 2.0;" width="119" x="437.5" y="673.9219"/><text fill="#1A365D" font-family="sans-serif" font-size="12" lengthAdjust="spacingAndGlyphs" textLength="99" x="447.5" y="695.0605">Mandriva-based</text><line style="stroke: #A80036; stroke-width: 1.5;" x1="497" x2="507" y1="739.875" y2="739.875"/><rect fill="#E8F4FD" filter="url(#f1wmt3sy1qdtsl)" height="33.9688" rx="5" ry="5" style="stroke: #2C5282; stroke-width: 2.0;" width="65" x="507" y="722.8906"/><text fill="#1A365D" font-family="sans-serif" font-size="12" lengthAdjust="spacingAndGlyphs" textLength="45" x="517" y="744.0293">Mageia</text><line style="stroke: #A80036; stroke-width: 1.5;" x1="497" x2="507" y1="788.8438" y2="788.8438"/><rect fill="#E8F4FD" filter="url(#f1wmt3sy1qdtsl)" height="33.9688" rx="5" ry="5" style="stroke: #2C5282; stroke-width: 2.0;" width="109" x="507" y="771.8594"/><text fill="#1A365D" font-family="sans-serif" font-size="12" lengthAdjust="spacingAndGlyphs" textLength="89" x="517" y="792.998">OpenMandriva</text><line style="stroke: #A80036; stroke-width: 1.5;" x1="497" x2="507" y1="837.8125" y2="837.8125"/><rect fill="#E8F4FD" filter="url(#f1wmt3sy1qdtsl)" height="33.9688" rx="5" ry="5" style="stroke: #2C5282; stroke-width: 2.0;" width="84" x="507" y="820.8281"/><text fill="#1A365D" font-family="sans-serif" font-size="12" lengthAdjust="spacingAndGlyphs" textLength="64" x="517" y="841.9668">PCLinuxOS</text><line style="stroke: #A80036; stroke-width: 1.5;" x1="497" x2="507" y1="886.7813" y2="886.7813"/><rect fill="#E8F4FD" filter="url(#f1wmt3sy1qdtsl)" height="33.9688" rx="5" ry="5" style="stroke: #2C5282; stroke-width: 2.0;" width="53" x="507" y="869.7969"/><text fill="#1A365D" font-family="sans-serif" font-size="12" lengthAdjust="spacingAndGlyphs" textLength="33" x="517" y="890.9355">ROSA</text><line style="stroke: #A80036; stroke-width: 1.5;" x1="497" x2="497" y1="707.8906" y2="886.7813"/><line style="stroke: #A80036; stroke-width: 1.5;" x1="427.5" x2="427.5" y1="120.2656" y2="690.9063"/><line style="stroke: #A80036; stroke-width: 1.5;" x1="851" x2="851" y1="66.2969" y2="86.2969"/><rect fill="#4A90E2" filter="url(#f1wmt3sy1qdtsl)" height="33.9688" rx="5" ry="5" style="stroke: #2C5282; stroke-width: 2.0;" width="124" x="789" y="86.2969"/><text fill="#FFFFFF" font-family="sans-serif" font-size="12" font-weight="bold" lengthAdjust="spacingAndGlyphs" textLength="104" x="799" y="107.4355">Pacman-based</text><line style="stroke: #A80036; stroke-width: 1.5;" x1="851" x2="909.5" y1="152.25" y2="152.25"/><rect fill="#7BB3F0" filter="url(#f1wmt3sy1qdtsl)" height="33.9688" rx="5" ry="5" style="stroke: #2C5282; stroke-width: 2.0;" width="83" x="909.5" y="135.2656"/><text fill="#1A365D" font-family="sans-serif" font-size="12" lengthAdjust="spacingAndGlyphs" textLength="63" x="919.5" y="156.4043">Arch Linux</text><line style="stroke: #A80036; stroke-width: 1.5;" x1="941" x2="951" y1="201.2188" y2="201.2188"/><rect fill="#E8F4FD" filter="url(#f1wmt3sy1qdtsl)" height="33.9688" rx="5" ry="5" style="stroke: #2C5282; stroke-width: 2.0;" width="70" x="871" y="184.2344"/><text fill="#1A365D" font-family="sans-serif" font-size="12" lengthAdjust="spacingAndGlyphs" textLength="50" x="881" y="205.373">Manjaro</text><line style="stroke: #A80036; stroke-width: 1.5;" x1="941" x2="951" y1="250.1875" y2="250.1875"/><rect fill="#E8F4FD" filter="url(#f1wmt3sy1qdtsl)" height="33.9688" rx="5" ry="5" style="stroke: #2C5282; stroke-width: 2.0;" width="66" x="875" y="233.2031"/><text fill="#1A365D" font-family="sans-serif" font-size="12" lengthAdjust="spacingAndGlyphs" textLength="46" x="885" y="254.3418">Garuda</text><line style="stroke: #A80036; stroke-width: 1.5;" x1="941" x2="951" y1="299.1563" y2="299.1563"/><rect fill="#E8F4FD" filter="url(#f1wmt3sy1qdtsl)" height="33.9688" rx="5" ry="5" style="stroke: #2C5282; stroke-width: 2.0;" width="80" x="861" y="282.1719"/><text fill="#1A365D" font-family="sans-serif" font-size="12" lengthAdjust="spacingAndGlyphs" textLength="60" x="871" y="303.3105">ArchBang</text><line style="stroke: #A80036; stroke-width: 1.5;" x1="951" x2="961" y1="201.2188" y2="201.2188"/><rect fill="#E8F4FD" filter="url(#f1wmt3sy1qdtsl)" height="33.9688" rx="5" ry="5" style="stroke: #2C5282; stroke-width: 2.0;" width="104" x="961" y="184.2344"/><text fill="#1A365D" font-family="sans-serif" font-size="12" lengthAdjust="spacingAndGlyphs" textLength="84" x="971" y="205.373">EndeavourOS</text><line style="stroke: #A80036; stroke-width: 1.5;" x1="951" x2="961" y1="250.1875" y2="250.1875"/><rect fill="#E8F4FD" filter="url(#f1wmt3sy1qdtsl)" height="33.9688" rx="5" ry="5" style="stroke: #2C5282; stroke-width: 2.0;" width="79" x="961" y="233.2031"/><text fill="#1A365D" font-family="sans-serif" font-size="12" lengthAdjust="spacingAndGlyphs" textLength="59" x="971" y="254.3418">ArcoLinux</text><line style="stroke: #A80036; stroke-width: 1.5;" x1="951" x2="961" y1="299.1563" y2="299.1563"/><rect fill="#E8F4FD" filter="url(#f1wmt3sy1qdtsl)" height="33.9688" rx="5" ry="5" style="stroke: #2C5282; stroke-width: 2.0;" width="81" x="961" y="282.1719"/><text fill="#1A365D" font-family="sans-serif" font-size="12" lengthAdjust="spacingAndGlyphs" textLength="61" x="971" y="303.3105">BlackArch</text><line style="stroke: #A80036; stroke-width: 1.5;" x1="951" x2="951" y1="169.2344" y2="299.1563"/><line style="stroke: #A80036; stroke-width: 1.5;" x1="851" x2="861" y1="348.125" y2="348.125"/><rect fill="#7BB3F0" filter="url(#f1wmt3sy1qdtsl)" height="33.9688" rx="5" ry="5" style="stroke: #2C5282; stroke-width: 2.0;" width="152" x="861" y="331.1406"/><text fill="#1A365D" font-family="sans-serif" font-size="12" lengthAdjust="spacingAndGlyphs" textLength="132" x="871" y="352.2793">Other pacman-based</text><line style="stroke: #A80036; stroke-width: 1.5;" x1="937" x2="947" y1="397.0938" y2="397.0938"/><rect fill="#E8F4FD" filter="url(#f1wmt3sy1qdtsl)" height="33.9688" rx="5" ry="5" style="stroke: #2C5282; stroke-width: 2.0;" width="52" x="947" y="380.1094"/><text fill="#1A365D" font-family="sans-serif" font-size="12" lengthAdjust="spacingAndGlyphs" textLength="32" x="957" y="401.248">KaOS</text><line style="stroke: #A80036; stroke-width: 1.5;" x1="937" x2="937" y1="365.1094" y2="397.0938"/><line style="stroke: #A80036; stroke-width: 1.5;" x1="851" x2="851" y1="120.2656" y2="348.125"/><line style="stroke: #A80036; stroke-width: 1.5;" x1="1145.5" x2="1145.5" y1="66.2969" y2="86.2969"/><rect fill="#4A90E2" filter="url(#f1wmt3sy1qdtsl)" height="33.9688" rx="5" ry="5" style="stroke: #2C5282; stroke-width: 2.0;" width="121" x="1085" y="86.2969"/><text fill="#FFFFFF" font-family="sans-serif" font-size="12" font-weight="bold" lengthAdjust="spacingAndGlyphs" textLength="101" x="1095" y="107.4355">Gentoo-based</text><line style="stroke: #A80036; stroke-width: 1.5;" x1="1145.5" x2="1196.5" y1="152.25" y2="152.25"/><rect fill="#7BB3F0" filter="url(#f1wmt3sy1qdtsl)" height="33.9688" rx="5" ry="5" style="stroke: #2C5282; stroke-width: 2.0;" width="66" x="1196.5" y="135.2656"/><text fill="#1A365D" font-family="sans-serif" font-size="12" lengthAdjust="spacingAndGlyphs" textLength="46" x="1206.5" y="156.4043">Gentoo</text><line style="stroke: #A80036; stroke-width: 1.5;" x1="1219.5" x2="1229.5" y1="201.2188" y2="201.2188"/><rect fill="#E8F4FD" filter="url(#f1wmt3sy1qdtsl)" height="33.9688" rx="5" ry="5" style="stroke: #2C5282; stroke-width: 2.0;" width="64" x="1155.5" y="184.2344"/><text fill="#1A365D" font-family="sans-serif" font-size="12" lengthAdjust="spacingAndGlyphs" textLength="44" x="1165.5" y="205.373">Funtoo</text><line style="stroke: #A80036; stroke-width: 1.5;" x1="1229.5" x2="1239.5" y1="201.2188" y2="201.2188"/><rect fill="#E8F4FD" filter="url(#f1wmt3sy1qdtsl)" height="33.9688" rx="5" ry="5" style="stroke: #2C5282; stroke-width: 2.0;" width="113" x="1239.5" y="184.2344"/><text fill="#1A365D" font-family="sans-serif" font-size="12" lengthAdjust="spacingAndGlyphs" textLength="93" x="1249.5" y="205.373">Calculate Linux</text><line style="stroke: #A80036; stroke-width: 1.5;" x1="1229.5" x2="1229.5" y1="169.2344" y2="201.2188"/><line style="stroke: #A80036; stroke-width: 1.5;" x1="1145.5" x2="1145.5" y1="120.2656" y2="152.25"/><line style="stroke: #A80036; stroke-width: 1.5;" x1="1443.5" x2="1443.5" y1="66.2969" y2="86.2969"/><rect fill="#4A90E2" filter="url(#f1wmt3sy1qdtsl)" height="33.9688" rx="5" ry="5" style="stroke: #2C5282; stroke-width: 2.0;" width="142" x="1372.5" y="86.2969"/><text fill="#FFFFFF" font-family="sans-serif" font-size="12" font-weight="bold" lengthAdjust="spacingAndGlyphs" textLength="122" x="1382.5" y="107.4355">Slackware-based</text><line style="stroke: #A80036; stroke-width: 1.5;" x1="1443.5" x2="1491" y1="152.25" y2="152.25"/><rect fill="#7BB3F0" filter="url(#f1wmt3sy1qdtsl)" height="33.9688" rx="5" ry="5" style="stroke: #2C5282; stroke-width: 2.0;" width="83" x="1491" y="135.2656"/><text fill="#1A365D" font-family="sans-serif" font-size="12" lengthAdjust="spacingAndGlyphs" textLength="63" x="1501" y="156.4043">Slackware</text><line style="stroke: #A80036; stroke-width: 1.5;" x1="1522.5" x2="1532.5" y1="201.2188" y2="201.2188"/><rect fill="#E8F4FD" filter="url(#f1wmt3sy1qdtsl)" height="33.9688" rx="5" ry="5" style="stroke: #2C5282; stroke-width: 2.0;" width="48" x="1474.5" y="184.2344"/><text fill="#1A365D" font-family="sans-serif" font-size="12" lengthAdjust="spacingAndGlyphs" textLength="28" x="1484.5" y="205.373">Salix</text><line style="stroke: #A80036; stroke-width: 1.5;" x1="1522.5" x2="1532.5" y1="250.1875" y2="250.1875"/><rect fill="#E8F4FD" filter="url(#f1wmt3sy1qdtsl)" height="33.9688" rx="5" ry="5" style="stroke: #2C5282; stroke-width: 2.0;" width="69" x="1453.5" y="233.2031"/><text fill="#1A365D" font-family="sans-serif" font-size="12" lengthAdjust="spacingAndGlyphs" textLength="49" x="1463.5" y="254.3418">Porteus</text><line style="stroke: #A80036; stroke-width: 1.5;" x1="1532.5" x2="1542.5" y1="201.2188" y2="201.2188"/><rect fill="#E8F4FD" filter="url(#f1wmt3sy1qdtsl)" height="33.9688" rx="5" ry="5" style="stroke: #2C5282; stroke-width: 2.0;" width="72" x="1542.5" y="184.2344"/><text fill="#1A365D" font-family="sans-serif" font-size="12" lengthAdjust="spacingAndGlyphs" textLength="52" x="1552.5" y="205.373">Zenwalk</text><line style="stroke: #A80036; stroke-width: 1.5;" x1="1532.5" x2="1532.5" y1="169.2344" y2="250.1875"/><line style="stroke: #A80036; stroke-width: 1.5;" x1="1443.5" x2="1443.5" y1="120.2656" y2="152.25"/><line style="stroke: #A80036; stroke-width: 1.5;" x1="1691" x2="1691" y1="66.2969" y2="86.2969"/><rect fill="#4A90E2" filter="url(#f1wmt3sy1qdtsl)" height="33.9688" rx="5" ry="5" style="stroke: #2C5282; stroke-width: 2.0;" width="113" x="1634.5" y="86.2969"/><text fill="#FFFFFF" font-family="sans-serif" font-size="12" font-weight="bold" lengthAdjust="spacingAndGlyphs" textLength="93" x="1644.5" y="107.4355">Alpine-based</text><line style="stroke: #A80036; stroke-width: 1.5;" x1="1691" x2="1701" y1="152.25" y2="152.25"/><rect fill="#7BB3F0" filter="url(#f1wmt3sy1qdtsl)" height="33.9688" rx="5" ry="5" style="stroke: #2C5282; stroke-width: 2.0;" width="93" x="1701" y="135.2656"/><text fill="#1A365D" font-family="sans-serif" font-size="12" lengthAdjust="spacingAndGlyphs" textLength="73" x="1711" y="156.4043">Alpine Linux</text><line style="stroke: #A80036; stroke-width: 1.5;" x1="1747.5" x2="1757.5" y1="201.2188" y2="201.2188"/><rect fill="#E8F4FD" filter="url(#f1wmt3sy1qdtsl)" height="33.9688" rx="5" ry="5" style="stroke: #2C5282; stroke-width: 2.0;" width="109" x="1757.5" y="184.2344"/><text fill="#1A365D" font-family="sans-serif" font-size="12" lengthAdjust="spacingAndGlyphs" textLength="89" x="1767.5" y="205.373">postmarketOS</text><line style="stroke: #A80036; stroke-width: 1.5;" x1="1747.5" x2="1747.5" y1="169.2344" y2="201.2188"/><line style="stroke: #A80036; stroke-width: 1.5;" x1="1691" x2="1691" y1="120.2656" y2="152.25"/><line style="stroke: #A80036; stroke-width: 1.5;" x1="1917" x2="1917" y1="66.2969" y2="86.2969"/><rect fill="#4A90E2" filter="url(#f1wmt3sy1qdtsl)" height="33.9688" rx="5" ry="5" style="stroke: #2C5282; stroke-width: 2.0;" width="61" x="1886.5" y="86.2969"/><text fill="#FFFFFF" font-family="sans-serif" font-size="12" font-weight="bold" lengthAdjust="spacingAndGlyphs" textLength="41" x="1896.5" y="107.4355">NixOS</text><line style="stroke: #A80036; stroke-width: 1.5;" x1="1917" x2="1927" y1="152.25" y2="152.25"/><rect fill="#7BB3F0" filter="url(#f1wmt3sy1qdtsl)" height="33.9688" rx="5" ry="5" style="stroke: #2C5282; stroke-width: 2.0;" width="55" x="1927" y="135.2656"/><text fill="#1A365D" font-family="sans-serif" font-size="12" lengthAdjust="spacingAndGlyphs" textLength="35" x="1937" y="156.4043">NixOS</text><line style="stroke: #A80036; stroke-width: 1.5;" x1="1917" x2="1917" y1="120.2656" y2="152.25"/><line style="stroke: #A80036; stroke-width: 1.5;" x1="2105" x2="2105" y1="66.2969" y2="86.2969"/><rect fill="#4A90E2" filter="url(#f1wmt3sy1qdtsl)" height="33.9688" rx="5" ry="5" style="stroke: #2C5282; stroke-width: 2.0;" width="119" x="2045.5" y="86.2969"/><text fill="#FFFFFF" font-family="sans-serif" font-size="12" font-weight="bold" lengthAdjust="spacingAndGlyphs" textLength="99" x="2055.5" y="107.4355">Independents</text><line style="stroke: #A80036; stroke-width: 1.5;" x1="2095" x2="2105" y1="152.25" y2="152.25"/><rect fill="#7BB3F0" filter="url(#f1wmt3sy1qdtsl)" height="33.9688" rx="5" ry="5" style="stroke: #2C5282; stroke-width: 2.0;" width="82" x="2013" y="135.2656"/><text fill="#1A365D" font-family="sans-serif" font-size="12" lengthAdjust="spacingAndGlyphs" textLength="62" x="2023" y="156.4043">Void Linux</text><line style="stroke: #A80036; stroke-width: 1.5;" x1="2095" x2="2105" y1="201.2188" y2="201.2188"/><rect fill="#7BB3F0" filter="url(#f1wmt3sy1qdtsl)" height="33.9688" rx="5" ry="5" style="stroke: #2C5282; stroke-width: 2.0;" width="87" x="2008" y="184.2344"/><text fill="#1A365D" font-family="sans-serif" font-size="12" lengthAdjust="spacingAndGlyphs" textLength="67" x="2018" y="205.373">Clear Linux</text><line style="stroke: #A80036; stroke-width: 1.5;" x1="2095" x2="2105" y1="250.1875" y2="250.1875"/><rect fill="#7BB3F0" filter="url(#f1wmt3sy1qdtsl)" height="33.9688" rx="5" ry="5" style="stroke: #2C5282; stroke-width: 2.0;" width="93" x="2002" y="233.2031"/><text fill="#1A365D" font-family="sans-serif" font-size="12" lengthAdjust="spacingAndGlyphs" textLength="73" x="2012" y="254.3418">Puppy Linux</text><line style="stroke: #A80036; stroke-width: 1.5;" x1="2105" x2="2115" y1="152.25" y2="152.25"/><rect fill="#7BB3F0" filter="url(#f1wmt3sy1qdtsl)" height="33.9688" rx="5" ry="5" style="stroke: #2C5282; stroke-width: 2.0;" width="54" x="2115" y="135.2656"/><text fill="#1A365D" font-family="sans-serif" font-size="12" lengthAdjust="spacingAndGlyphs" textLength="34" x="2125" y="156.4043">Solus</text><line style="stroke: #A80036; stroke-width: 1.5;" x1="2105" x2="2115" y1="201.2188" y2="201.2188"/><rect fill="#7BB3F0" filter="url(#f1wmt3sy1qdtsl)" height="33.9688" rx="5" ry="5" style="stroke: #2C5282; stroke-width: 2.0;" width="77" x="2115" y="184.2344"/><text fill="#1A365D" font-family="sans-serif" font-size="12" lengthAdjust="spacingAndGlyphs" textLength="57" x="2125" y="205.373">Tiny Core</text><line style="stroke: #A80036; stroke-width: 1.5;" x1="2105" x2="2105" y1="120.2656" y2="250.1875"/><line style="stroke: #A80036; stroke-width: 1.5;" x1="2469" x2="2469" y1="66.2969" y2="86.2969"/><rect fill="#4A90E2" filter="url(#f1wmt3sy1qdtsl)" height="33.9688" rx="5" ry="5" style="stroke: #2C5282; stroke-width: 2.0;" width="121" x="2408.5" y="86.2969"/><text fill="#FFFFFF" font-family="sans-serif" font-size="12" font-weight="bold" lengthAdjust="spacingAndGlyphs" textLength="101" x="2418.5" y="107.4355">Miscellaneous</text><line style="stroke: #A80036; stroke-width: 1.5;" x1="2459" x2="2469" y1="152.25" y2="152.25"/><rect fill="#7BB3F0" filter="url(#f1wmt3sy1qdtsl)" height="33.9688" rx="5" ry="5" style="stroke: #2C5282; stroke-width: 2.0;" width="247" x="2212" y="135.2656"/><text fill="#1A365D" font-family="sans-serif" font-size="12" lengthAdjust="spacingAndGlyphs" textLength="227" x="2222" y="156.4043">(Room for additions you care about)</text><line style="stroke: #A80036; stroke-width: 1.5;" x1="2469" x2="2469" y1="120.2656" y2="152.25"/><line style="stroke: #A80036; stroke-width: 1.5;" x1="69.5" x2="2469" y1="66.2969" y2="66.2969"/><!--MD5=[b335b75ca13b3dcbda99176fbdef092f]
@startwbs
<style>
wbsDiagram {
  node {
    BackgroundColor #E8F4FD
    LineColor #2C5282
    LineThickness 2
    FontColor #1A365D
    FontSize 12
    RoundCorner 10
  }
  :depth(0) {
    BackgroundColor #2C5282
    FontColor white
    FontSize 14
    FontStyle bold
  }
  :depth(1) {
    BackgroundColor #4A90E2
    FontColor white
    FontStyle bold
  }
  :depth(2) {
    BackgroundColor #7BB3F0
    FontColor #1A365D
  }
}
</style>

* Linux Distributions (High-Level Map)
** Debian-based <<bold>>
*** Debian
**** Ubuntu (official flavours)
*****< Kubuntu
*****> Xubuntu
*****< Lubuntu
*****> Ubuntu MATE
*****< Ubuntu Budgie
*****> Ubuntu Kylin
*****< Ubuntu Studio
*****> Edubuntu
*****< Ubuntu Unity
**** Ubuntu derivatives (selection)
*****< Pop!_OS
*****> Linux Mint
****** LMDE
*****< elementary OS
*****> Zorin OS
*****< KDE neon
*****> Linux Lite
*****< Peppermint OS
*****> Bodhi Linux
**** Other Debian-based (selection)
*****< Devuan
*****> Kali Linux
*****< MX Linux
*****> antiX
*****< Deepin
*****> Tails
*****< Knoppix
** RPM-based <<bold>>
*** Fedora / RHEL line
**** Fedora
**** RHEL
*****< CentOS Stream
*****> CentOS (legacy)
*****< AlmaLinux
*****> Rocky Linux
*****< Oracle Linux
*****> EuroLinux
*** openSUSE-based
**** openSUSE Leap
**** openSUSE Tumbleweed
**** SUSE Linux Enterprise
**** GeckoLinux
*** Mandriva-based
**** Mageia
**** OpenMandriva
**** PCLinuxOS
**** ROSA
** Pacman-based <<bold>>
*** Arch Linux
****< Manjaro
****> EndeavourOS
****< Garuda
****> ArcoLinux
****< ArchBang
****> BlackArch
*** Other pacman-based
**** KaOS
** Gentoo-based <<bold>>
*** Gentoo
****< Funtoo
****> Calculate Linux
** Slackware-based <<bold>>
*** Slackware
****< Salix
****> Zenwalk
****< Porteus
** Alpine-based <<bold>>
*** Alpine Linux
**** postmarketOS
** NixOS <<bold>>
*** NixOS
** Independents <<bold>>
***< Void Linux
***> Solus
***< Clear Linux
***> Tiny Core
***< Puppy Linux
** Miscellaneous <<bold>>
***< (Room for additions you care about)
@endwbs

PlantUML version 1.2020.02(Sun Mar 01 11:22:07 CET 2020)
(GPL source distribution)
Java Runtime: OpenJDK Runtime Environment
JVM: OpenJDK 64-Bit Server VM
Java Version: 11.0.28+6-post-Ubuntu-1ubuntu122.04.1
Operating System: Linux
Default Encoding: UTF-8
Language: en
Country: US
--></g></svg>