<?xml version="1.0" encoding="us-ascii" standalone="no"?><svg xmlns="http://www.w3.org/2000/svg" xmlns:xlink="http://www.w3.org/1999/xlink" contentStyleType="text/css" height="1082.1491px" preserveAspectRatio="none" style="width:1905px;height:1082px;background:#F9F9F9;" version="1.1" viewBox="0 0 1905 1082" width="1905.128px" zoomAndPan="magnify"><defs><filter height="300%" id="fublgxetdw9qs" width="300%" x="-1" y="-1"><feGaussianBlur result="blurOut" stdDeviation="4.546844935615965"/><feColorMatrix in="blurOut" result="blurOut2" type="matrix" values="0 0 0 0 0 0 0 0 0 0 0 0 0 0 0 0 0 0 .4 0"/><feOffset dx="9.09368987123193" dy="9.09368987123193" in="blurOut2" result="blurOut3"/><feBlend in="SourceGraphic" in2="blurOut3" mode="normal"/></filter></defs><g><rect fill="#F9F9F9" height="1082.1491" style="stroke:none;stroke-width:2.2734224678079826;" width="1905.128" x="0" y="0"/><rect fill="#ADD8E6" height="970.2008" rx="7.957" ry="7.957" style="stroke:#181818;stroke-width:1.1367112339039913;" width="774.1004" x="363.7476" y="98.4321"/><text fill="#000000" font-family="sans-serif" font-size="29.5545" font-weight="bold" lengthAdjust="spacing" textLength="79.5698" x="711.0129" y="125.8652">Pepr</text><text fill="#000000" font-family="sans-serif" font-size="31.8279" font-weight="bold" lengthAdjust="spacing" textLength="404.6692" x="34.1013" y="63.6447">Pepr Deployment Flow</text><line style="stroke:#393939;stroke-width:1.1367112339039913;stroke-dasharray:5.0,5.0;" x1="98.8939" x2="98.8939" y1="322.2044" y2="1054.9924"/><line style="stroke:#393939;stroke-width:1.1367112339039913;stroke-dasharray:5.0,5.0;" x1="414.8996" x2="414.8996" y1="322.2044" y2="1054.9924"/><line style="stroke:#393939;stroke-width:1.1367112339039913;stroke-dasharray:5.0,5.0;" x1="762.7332" x2="762.7332" y1="322.2044" y2="1054.9924"/><line style="stroke:#393939;stroke-width:1.1367112339039913;stroke-dasharray:5.0,5.0;" x1="1013.9464" x2="1013.9464" y1="322.2044" y2="1054.9924"/><line style="stroke:#393939;stroke-width:1.1367112339039913;stroke-dasharray:5.0,5.0;" x1="1391.3346" x2="1391.3346" y1="322.2044" y2="1054.9924"/><text fill="#191919" font-family="sans-serif" font-size="31.8279" lengthAdjust="spacing" textLength="161.413" x="11.3671" y="314.6981">Developer</text><ellipse cx="98.8939" cy="161.2531" fill="#191919" filter="url(#fublgxetdw9qs)" rx="18.1874" ry="18.1874" style="stroke:#191919;stroke-width:1.1367112339039913;"/><path d="M98.8939,179.4405 L98.8939,240.8229 M69.3394,197.6279 L128.4484,197.6279 M98.8939,240.8229 L69.3394,274.9243 M98.8939,240.8229 L128.4484,274.9243 " fill="none" filter="url(#fublgxetdw9qs)" style="stroke:#191919;stroke-width:1.1367112339039913;"/><rect fill="#E55756" filter="url(#fublgxetdw9qs)" height="68.8776" rx="7.957" ry="7.957" style="stroke:#191919;stroke-width:3.410133701711974;" width="77.2964" x="372.8413" y="244.2331"/><text fill="#F9F9F9" font-family="sans-serif" font-size="31.8279" lengthAdjust="spacing" textLength="45.4684" x="388.7552" y="289.6904">CLI</text><text fill="#191919" font-family="sans-serif" font-size="31.8279" lengthAdjust="spacing" textLength="213.7017" x="649.0621" y="314.6981">Build Process</text><ellipse cx="762.7332" cy="248.7799" fill="#EFBABC" filter="url(#fublgxetdw9qs)" rx="27.2811" ry="27.2811" style="stroke:#191919;stroke-width:1.1367112339039913;"/><polygon fill="#191919" points="753.6395,221.4988,767.2801,210.1317,762.7332,221.4988,767.2801,232.866,753.6395,221.4988" style="stroke:#191919;stroke-width:2.2734224678079826;"/><rect fill="#E55756" filter="url(#fublgxetdw9qs)" height="68.8776" rx="7.957" ry="7.957" style="stroke:#191919;stroke-width:3.410133701711974;" width="222.7954" x="899.1386" y="244.2331"/><text fill="#F9F9F9" font-family="sans-serif" font-size="31.8279" lengthAdjust="spacing" textLength="190.9675" x="915.0525" y="289.6904">Deployment</text><rect fill="#E55756" filter="url(#fublgxetdw9qs)" height="68.8776" rx="7.957" ry="7.957" style="stroke:#191919;stroke-width:3.410133701711974;" width="336.4665" x="1219.6912" y="244.2331"/><text fill="#F9F9F9" font-family="sans-serif" font-size="31.8279" lengthAdjust="spacing" textLength="304.6386" x="1235.6051" y="289.6904">Kubernetes Cluster</text><polygon fill="#191919" points="387.6185,379.3419,410.3528,388.4355,387.6185,397.5292,396.7122,388.4355" style="stroke:#191919;stroke-width:2.2734224678079826;"/><line style="stroke:#191919;stroke-width:2.2734224678079826;" x1="98.8939" x2="401.2591" y1="388.4355" y2="388.4355"/><text fill="#000000" font-family="sans-serif" font-size="29.5545" font-weight="bold" lengthAdjust="spacing" textLength="20.4608" x="114.8078" y="376.9186">1</text><text fill="#000000" font-family="sans-serif" font-size="29.5545" lengthAdjust="spacing" textLength="204.608" x="144.3623" y="376.9186">npx pepr build</text><path d="M426.2667,425.947 L426.2667,466.8686 A7.957,7.957 0 0 0 434.2237,474.8256 L1166.2657,474.8256 A7.957,7.957 0 0 0 1174.2227,466.8686 L1174.2227,440.7243 L1151.4885,417.99 L434.2237,417.99 A7.957,7.957 0 0 0 426.2667,425.947 " fill="#E5E5E5" filter="url(#fublgxetdw9qs)" style="stroke:#191919;stroke-width:3.410133701711974;"/><path d="M1151.4885,417.99 L1151.4885,436.7458 A3.9785,3.9785 0 0 0 1155.467,440.7243 L1174.2227,440.7243 L1151.4885,417.99 " fill="#E5E5E5" style="stroke:#191919;stroke-width:3.410133701711974;"/><text fill="#191919" font-family="sans-serif" font-size="29.5545" lengthAdjust="spacing" textLength="700.2141" x="439.9072" y="456.7903">Generates module artifacts including helm chart</text><polygon fill="#191919" points="735.4522,532.265,758.1864,541.3587,735.4522,550.4524,744.5459,541.3587" style="stroke:#191919;stroke-width:2.2734224678079826;"/><line style="stroke:#191919;stroke-width:2.2734224678079826;" x1="414.8996" x2="749.0927" y1="541.3587" y2="541.3587"/><text fill="#000000" font-family="sans-serif" font-size="29.5545" font-weight="bold" lengthAdjust="spacing" textLength="20.4608" x="430.8136" y="529.8418">2</text><text fill="#000000" font-family="sans-serif" font-size="29.5545" lengthAdjust="spacing" textLength="263.717" x="460.368" y="529.8418">Generate artifacts</text><polygon fill="#191919" points="387.6185,598.4962,410.3528,607.5899,387.6185,616.6836,396.7122,607.5899" style="stroke:#191919;stroke-width:2.2734224678079826;"/><line style="stroke:#191919;stroke-width:2.2734224678079826;" x1="98.8939" x2="401.2591" y1="607.5899" y2="607.5899"/><text fill="#000000" font-family="sans-serif" font-size="29.5545" font-weight="bold" lengthAdjust="spacing" textLength="20.4608" x="114.8078" y="596.0729">3</text><text fill="#000000" font-family="sans-serif" font-size="29.5545" lengthAdjust="spacing" textLength="231.8891" x="144.3623" y="596.0729">npx pepr deploy</text><path d="M426.2667,645.1014 L426.2667,686.023 A7.957,7.957 0 0 0 434.2237,693.98 L795.6979,693.98 A7.957,7.957 0 0 0 803.6548,686.023 L803.6548,659.8786 L780.9206,637.1444 L434.2237,637.1444 A7.957,7.957 0 0 0 426.2667,645.1014 " fill="#E5E5E5" filter="url(#fublgxetdw9qs)" style="stroke:#191919;stroke-width:3.410133701711974;"/><path d="M780.9206,637.1444 L780.9206,655.9001 A3.9785,3.9785 0 0 0 784.8991,659.8786 L803.6548,659.8786 L780.9206,637.1444 " fill="#E5E5E5" style="stroke:#191919;stroke-width:3.410133701711974;"/><text fill="#191919" font-family="sans-serif" font-size="29.5545" lengthAdjust="spacing" textLength="329.6463" x="439.9072" y="675.9447">Deploys to Kubernetes</text><polygon fill="#191919" points="986.6654,751.4194,1009.3996,760.5131,986.6654,769.6068,995.759,760.5131" style="stroke:#191919;stroke-width:2.2734224678079826;"/><line style="stroke:#191919;stroke-width:2.2734224678079826;" x1="414.8996" x2="1000.3059" y1="760.5131" y2="760.5131"/><text fill="#000000" font-family="sans-serif" font-size="29.5545" font-weight="bold" lengthAdjust="spacing" textLength="20.4608" x="430.8136" y="748.9961">4</text><text fill="#000000" font-family="sans-serif" font-size="29.5545" lengthAdjust="spacing" textLength="218.2486" x="460.368" y="748.9961">Deploy module</text><polygon fill="#191919" points="1364.0535,817.6506,1386.7877,826.7443,1364.0535,835.838,1373.1472,826.7443" style="stroke:#191919;stroke-width:2.2734224678079826;"/><line style="stroke:#191919;stroke-width:2.2734224678079826;" x1="1013.9464" x2="1377.694" y1="826.7443" y2="826.7443"/><text fill="#000000" font-family="sans-serif" font-size="29.5545" font-weight="bold" lengthAdjust="spacing" textLength="20.4608" x="1029.8604" y="815.2273">5</text><text fill="#000000" font-family="sans-serif" font-size="29.5545" lengthAdjust="spacing" textLength="231.8891" x="1059.4149" y="815.2273">Apply manifests</text><path d="M1402.7017,864.2558 L1402.7017,939.2787 A7.957,7.957 0 0 0 1410.6586,947.2357 L1874.4368,947.2357 A7.957,7.957 0 0 0 1882.3938,939.2787 L1882.3938,879.033 L1859.6596,856.2988 L1410.6586,856.2988 A7.957,7.957 0 0 0 1402.7017,864.2558 " fill="#E5E5E5" filter="url(#fublgxetdw9qs)" style="stroke:#191919;stroke-width:3.410133701711974;"/><path d="M1859.6596,856.2988 L1859.6596,875.0545 A3.9785,3.9785 0 0 0 1863.6381,879.033 L1882.3938,879.033 L1859.6596,856.2988 " fill="#E5E5E5" style="stroke:#191919;stroke-width:3.410133701711974;"/><text fill="#191919" font-family="sans-serif" font-size="29.5545" lengthAdjust="spacing" textLength="431.9503" x="1416.3422" y="895.099">- Creates/Updates Controllers</text><text fill="#191919" font-family="sans-serif" font-size="29.5545" lengthAdjust="spacing" textLength="306.912" x="1416.3422" y="929.5023">- Initializes PeprStore</text><polygon fill="#191919" points="123.9015,1004.9771,101.1673,1014.0707,123.9015,1023.1644,114.8078,1014.0707" style="stroke:#191919;stroke-width:2.2734224678079826;"/><line style="stroke:#191919;stroke-width:2.2734224678079826;stroke-dasharray:2.0,2.0;" x1="110.261" x2="1389.0611" y1="1014.0707" y2="1014.0707"/><text fill="#000000" font-family="sans-serif" font-size="29.5545" font-weight="bold" lengthAdjust="spacing" textLength="20.4608" x="137.5421" y="1002.5538">6</text><text fill="#000000" font-family="sans-serif" font-size="29.5545" lengthAdjust="spacing" textLength="322.826" x="167.0966" y="1002.5538">Deployment complete</text><!--SRC=[TPBDRjim48JlV8gDSZPgvvJqK21sq2183WRQFW0jhYmY99SWbuwQfy-IKkkaFqTnbZFVZdWHapvw3Opq2fmAgWiUqIDudR8QhK4OYFX0azA5AHH_mAHohnt2vkPgFMtMrskLdss8EcaF1WTT77_7YM-TFGQFWS7XmEzcygWDlTXmd0FFmfQclJQcAfkrOiiIiiUOu0wZev_DwwkZ5wLqpvIWkyCJEegOEj1PiazAGA6hTpguVBB7aRTE8W0aW6rlenQBRlVqq2xqpehKK-143hfjiSx0Fb6FERU1Gptvy_OPPacjdmg3WThIXz778cq5PComSoNp0lfydPKIMbXzgGpm6KAS8DPDvyH0Z90gFj2mODvZmAIhbITJf9aQD4WH6MpeNMcrZUWyzAD83QZwA5KZ9AbPIzOlexF1_s2MrVv5CvUGWGdEI_wTEJk8vpo_eAlbM0Qa2b5lOtGYwc07pCBpCR7M1R22NSAw_wSVqRGUTlEFSvXc_I5OjjhPLz7g4_WcRmJVCTMiLOCw_IPgRwed7vqiy0O0]--></g></svg>