<?xml version="1.0" encoding="us-ascii" standalone="no"?><svg xmlns="http://www.w3.org/2000/svg" xmlns:xlink="http://www.w3.org/1999/xlink" contentStyleType="text/css" height="1080.6462px" preserveAspectRatio="none" style="width:1656px;height:1080px;background:#F9F9F9;" version="1.1" viewBox="0 0 1656 1080" width="1656.9909px" zoomAndPan="magnify"><defs/><g><rect fill="#F9F9F9" height="1080.6462" style="stroke:none;stroke-width:1.3341311355169951;" width="1656.9909" x="0" y="0"/><rect fill="#ADD8E6" height="1015.5656" rx="4.6695" ry="4.6695" style="stroke:#181818;stroke-width:0.6670655677584976;" width="220.1316" x="372.8897" y="57.7637"/><text fill="#000000" font-family="sans-serif" font-size="17.3437" font-weight="bold" lengthAdjust="spacing" textLength="188.1125" x="388.8992" y="73.8625">Local Development</text><rect fill="#90EE90" height="1015.5656" rx="4.6695" ry="4.6695" style="stroke:#181818;stroke-width:0.6670655677584976;" width="770.4607" x="635.7135" y="57.7637"/><text fill="#000000" font-family="sans-serif" font-size="17.3437" font-weight="bold" lengthAdjust="spacing" textLength="189.4466" x="926.2205" y="73.8625">Kubernetes Cluster</text><rect fill="#FFA07A" height="1015.5656" rx="4.6695" ry="4.6695" style="stroke:#181818;stroke-width:0.6670655677584976;" width="200.1197" x="1448.8664" y="57.7637"/><text fill="#000000" font-family="sans-serif" font-size="17.3437" font-weight="bold" lengthAdjust="spacing" textLength="168.1005" x="1464.876" y="73.8625">External Services</text><text fill="#000000" font-family="sans-serif" font-size="18.6778" font-weight="bold" lengthAdjust="spacing" textLength="372.2226" x="751.7829" y="37.3492">Shell Operator Setup and Workflow</text><line style="stroke:#393939;stroke-width:0.6670655677584976;stroke-dasharray:5.0,5.0;" x1="185.4442" x2="185.4442" y1="185.0794" y2="1065.3246"/><line style="stroke:#393939;stroke-width:0.6670655677584976;stroke-dasharray:5.0,5.0;" x1="482.9555" x2="482.9555" y1="185.0794" y2="1065.3246"/><line style="stroke:#393939;stroke-width:0.6670655677584976;stroke-dasharray:5.0,5.0;" x1="721.0979" x2="721.0979" y1="185.0794" y2="1065.3246"/><line style="stroke:#393939;stroke-width:0.6670655677584976;stroke-dasharray:5.0,5.0;" x1="1015.2738" x2="1015.2738" y1="401.1149" y2="1065.3246"/><rect fill="#FFFFFF" height="636.0158" style="stroke:#393939;stroke-width:1.3341311355169951;" width="13.3413" x="1008.6031" y="429.3088"/><line style="stroke:#393939;stroke-width:0.6670655677584976;stroke-dasharray:5.0,5.0;" x1="1346.1383" x2="1346.1383" y1="645.2087" y2="1065.3246"/><line style="stroke:#393939;stroke-width:0.6670655677584976;stroke-dasharray:5.0,5.0;" x1="1548.9262" x2="1548.9262" y1="185.0794" y2="1065.3246"/><text fill="#191919" font-family="sans-serif" font-size="18.6778" lengthAdjust="spacing" textLength="94.7233" x="134.0802" y="180.6744">Developer</text><ellipse cx="185.4442" cy="94.6295" fill="#191919" rx="10.673" ry="10.673" style="stroke:#191919;stroke-width:0.6670655677584976;"/><path d="M185.4442,105.3026 L185.4442,141.3241 M168.1005,115.9756 L202.7879,115.9756 M185.4442,141.3241 L168.1005,161.3361 M185.4442,141.3241 L202.7879,161.3361 " fill="none" style="stroke:#191919;stroke-width:0.6670655677584976;"/><rect fill="#E55756" height="40.42" rx="4.6695" ry="4.6695" style="stroke:#191919;stroke-width:2.0011967032754927;" width="186.7784" x="389.5663" y="143.3253"/><text fill="#F9F9F9" font-family="sans-serif" font-size="18.6778" lengthAdjust="spacing" textLength="168.1005" x="398.9052" y="170.0014">Local Environment</text><rect fill="#E55756" height="40.42" rx="4.6695" ry="4.6695" style="stroke:#191919;stroke-width:2.0011967032754927;" width="160.0957" x="641.05" y="143.3253"/><text fill="#F9F9F9" font-family="sans-serif" font-size="18.6778" lengthAdjust="spacing" textLength="141.4179" x="650.3889" y="170.0014">Kubernetes API</text><rect fill="#E55756" height="40.42" rx="4.6695" ry="4.6695" style="stroke:#191919;stroke-width:2.0011967032754927;" width="66.7066" x="1515.573" y="143.3253"/><text fill="#F9F9F9" font-family="sans-serif" font-size="18.6778" lengthAdjust="spacing" textLength="48.0287" x="1524.9119" y="170.0014">Slack</text><polygon fill="#191919" points="466.9459,218.6099,480.2872,223.9464,466.9459,229.2829,472.2824,223.9464" style="stroke:#191919;stroke-width:1.3341311355169951;"/><line style="stroke:#191919;stroke-width:1.3341311355169951;" x1="185.4442" x2="474.9507" y1="223.9464" y2="223.9464"/><text fill="#000000" font-family="sans-serif" font-size="17.3437" font-weight="bold" lengthAdjust="spacing" textLength="12.0072" x="201.4538" y="217.1878">1</text><text fill="#000000" font-family="sans-serif" font-size="17.3437" lengthAdjust="spacing" textLength="248.1484" x="218.7975" y="217.1878">Prepare Shell Operator setup</text><path d="M13.3413,245.9596 L13.3413,350.0218 A4.6695,4.6695 0 0 0 18.0108,354.6913 L471.6154,354.6913 A4.6695,4.6695 0 0 0 476.2848,350.0218 L476.2848,254.6314 L462.9435,241.2901 L18.0108,241.2901 A4.6695,4.6695 0 0 0 13.3413,245.9596 " fill="#E5E5E5" style="stroke:#191919;stroke-width:2.0011967032754927;"/><path d="M462.9435,241.2901 L462.9435,252.2967 A2.3347,2.3347 0 0 0 465.2782,254.6314 L476.2848,254.6314 L462.9435,241.2901 " fill="#E5E5E5" style="stroke:#191919;stroke-width:2.0011967032754927;"/><text fill="#191919" font-family="sans-serif" font-size="17.3437" lengthAdjust="spacing" textLength="330.8645" x="21.3461" y="264.0596">1. Create shell scripts in hook directory</text><text fill="#191919" font-family="sans-serif" font-size="17.3437" lengthAdjust="spacing" textLength="434.9268" x="21.3461" y="284.2488">2. Create Dockerfile based on shell-operator image</text><text fill="#191919" font-family="sans-serif" font-size="17.3437" lengthAdjust="spacing" textLength="393.5687" x="21.3461" y="304.4379">3. Add hook directory with scripts to Dockerfile</text><text fill="#191919" font-family="sans-serif" font-size="17.3437" lengthAdjust="spacing" textLength="352.2106" x="21.3461" y="324.6271">4. Create manifest for Shell Operator pod</text><text fill="#191919" font-family="sans-serif" font-size="17.3437" lengthAdjust="spacing" textLength="394.9028" x="21.3461" y="344.8162">5. Create RBAC permissions for Shell Operator</text><polygon fill="#191919" points="705.0883,385.1053,718.4296,390.4418,705.0883,395.7783,710.4248,390.4418" style="stroke:#191919;stroke-width:1.3341311355169951;"/><line style="stroke:#191919;stroke-width:1.3341311355169951;" x1="185.4442" x2="713.0931" y1="390.4418" y2="390.4418"/><text fill="#000000" font-family="sans-serif" font-size="17.3437" font-weight="bold" lengthAdjust="spacing" textLength="12.0072" x="233.8065" y="383.6832">2</text><text fill="#000000" font-family="sans-serif" font-size="17.3437" lengthAdjust="spacing" textLength="421.5854" x="251.1502" y="383.6832">Deploy RBAC permissions and Shell Operator pod</text><rect fill="#E55756" height="40.42" rx="4.6695" ry="4.6695" style="stroke:#191919;stroke-width:2.0011967032754927;" width="190.7808" x="913.2128" y="401.1149"/><text fill="#F9F9F9" font-family="sans-serif" font-size="18.6778" lengthAdjust="spacing" textLength="172.1029" x="922.5517" y="427.791">Shell Operator Pod</text><polygon fill="#191919" points="897.2032,423.9723,910.5445,429.3088,897.2032,434.6453,902.5397,429.3088" style="stroke:#191919;stroke-width:1.3341311355169951;"/><line style="stroke:#191919;stroke-width:1.3341311355169951;" x1="721.0979" x2="905.208" y1="429.3088" y2="429.3088"/><text fill="#000000" font-family="sans-serif" font-size="17.3437" font-weight="bold" lengthAdjust="spacing" textLength="12.0072" x="737.1075" y="422.5502">3</text><text fill="#000000" font-family="sans-serif" font-size="17.3437" lengthAdjust="spacing" textLength="142.752" x="754.4512" y="422.5502">Schedule/Deploy</text><path d="M143.4191,448.2055 L241.4777,448.2055 L241.4777,457.7216 L228.1364,471.0629 L138.7496,471.0629 L138.7496,452.875 A4.6695,4.6695 0 0 1 143.4191,448.2055 " fill="#EEEEEE" style="stroke:#393939;stroke-width:2.0011967032754927;"/><rect fill="none" height="490.0222" rx="4.6695" ry="4.6695" style="stroke:#393939;stroke-width:1.3341311355169951;" width="1464.876" x="138.7496" y="448.2055"/><text fill="#191919" font-family="sans-serif" font-size="17.3437" font-weight="bold" lengthAdjust="spacing" textLength="42.6922" x="158.7616" y="465.6385">loop</text><text fill="#393939" font-family="sans-serif" font-size="14.6754" font-weight="bold" lengthAdjust="spacing" textLength="201.4538" x="261.4897" y="464.4959">[Continuous Operation]</text><ellipse cx="720.4308" cy="511.5976" fill="none" rx="5.3365" ry="5.3365" style="stroke:#191919;stroke-width:2.0011967032754927;"/><polygon fill="#191919" points="743.111,507.2617,729.7697,512.5982,743.111,517.9347,737.7745,512.5982" style="stroke:#191919;stroke-width:1.3341311355169951;"/><ellipse cx="1007.9361" cy="511.5976" fill="none" rx="5.3365" ry="5.3365" style="stroke:#191919;stroke-width:2.0011967032754927;"/><line style="stroke:#191919;stroke-width:1.3341311355169951;" x1="740.4428" x2="1001.9325" y1="512.5982" y2="512.5982"/><text fill="#000000" font-family="sans-serif" font-size="17.3437" font-weight="bold" lengthAdjust="spacing" textLength="12.0072" x="778.7991" y="505.8396">4</text><text fill="#000000" font-family="sans-serif" font-size="17.3437" lengthAdjust="spacing" textLength="154.7592" x="796.1428" y="505.8396">Monitor for events</text><path d="M168.7676,528.6078 L249.4825,528.6078 L249.4825,538.1239 L236.1412,551.4652 L164.0981,551.4652 L164.0981,533.2772 A4.6695,4.6695 0 0 1 168.7676,528.6078 " fill="#EEEEEE" style="stroke:#393939;stroke-width:2.0011967032754927;"/><rect fill="none" height="390.9421" rx="4.6695" ry="4.6695" style="stroke:#393939;stroke-width:1.3341311355169951;" width="1406.1742" x="164.0981" y="528.6078"/><text fill="#191919" font-family="sans-serif" font-size="17.3437" font-weight="bold" lengthAdjust="spacing" textLength="25.3485" x="184.1101" y="546.0407">alt</text><text fill="#393939" font-family="sans-serif" font-size="14.6754" font-weight="bold" lengthAdjust="spacing" textLength="180.1077" x="269.4945" y="544.8981">[Pod Lifecycle Event]</text><polygon fill="#191919" points="705.0883,587.6639,718.4296,593.0004,705.0883,598.337,710.4248,593.0004" style="stroke:#191919;stroke-width:1.3341311355169951;"/><line style="stroke:#191919;stroke-width:1.3341311355169951;" x1="185.4442" x2="713.0931" y1="593.0004" y2="593.0004"/><text fill="#000000" font-family="sans-serif" font-size="17.3437" font-weight="bold" lengthAdjust="spacing" textLength="12.0072" x="341.204" y="586.2418">5</text><text fill="#000000" font-family="sans-serif" font-size="17.3437" lengthAdjust="spacing" textLength="206.7903" x="358.5477" y="586.2418">Create/Delete nginx pod</text><path d="M704.4212,609.01 L785.1362,609.01 L785.1362,618.5261 L771.7949,631.8674 L699.7518,631.8674 L699.7518,613.6795 A4.6695,4.6695 0 0 1 704.4212,609.01 " fill="#EEEEEE" style="stroke:#393939;stroke-width:2.0011967032754927;"/><rect fill="none" height="196.7843" rx="4.6695" ry="4.6695" style="stroke:#393939;stroke-width:1.3341311355169951;" width="722.432" x="699.7518" y="609.01"/><text fill="#191919" font-family="sans-serif" font-size="17.3437" font-weight="bold" lengthAdjust="spacing" textLength="25.3485" x="719.7637" y="626.443">alt</text><text fill="#393939" font-family="sans-serif" font-size="14.6754" font-weight="bold" lengthAdjust="spacing" textLength="124.0742" x="805.1481" y="625.3004">[Pod Creation]</text><line style="stroke:#393939;stroke-width:1.3341311355169951;stroke-dasharray:2.0,2.0;" x1="699.7518" x2="1422.1838" y1="740.5053" y2="740.5053"/><text fill="#393939" font-family="sans-serif" font-size="14.6754" font-weight="bold" lengthAdjust="spacing" textLength="122.7401" x="706.4224" y="756.7957">[Pod Deletion]</text><rect fill="#E55756" height="40.42" rx="4.6695" ry="4.6695" style="stroke:#191919;stroke-width:2.0011967032754927;" width="109.3988" x="1291.4389" y="645.2087"/><text fill="#F9F9F9" font-family="sans-serif" font-size="18.6778" lengthAdjust="spacing" textLength="90.7209" x="1300.7779" y="671.8849">nginx pod</text><polygon fill="#191919" points="1275.4294,668.0662,1288.7707,673.4027,1275.4294,678.7392,1280.7659,673.4027" style="stroke:#191919;stroke-width:1.3341311355169951;"/><line style="stroke:#191919;stroke-width:1.3341311355169951;" x1="721.0979" x2="1283.4342" y1="673.4027" y2="673.4027"/><text fill="#000000" font-family="sans-serif" font-size="17.3437" font-weight="bold" lengthAdjust="spacing" textLength="12.0072" x="919.5499" y="666.6441">6</text><text fill="#000000" font-family="sans-serif" font-size="17.3437" lengthAdjust="spacing" textLength="156.0933" x="936.8936" y="666.6441">Create/Delete pod</text><polygon fill="#191919" points="992.5936,709.8203,1005.9349,715.1568,992.5936,720.4934,997.9301,715.1568" style="stroke:#191919;stroke-width:1.3341311355169951;"/><line style="stroke:#191919;stroke-width:1.3341311355169951;" x1="721.0979" x2="1000.5984" y1="715.1568" y2="715.1568"/><text fill="#000000" font-family="sans-serif" font-size="17.3437" font-weight="bold" lengthAdjust="spacing" textLength="12.0072" x="756.7859" y="708.3982">7</text><text fill="#000000" font-family="sans-serif" font-size="17.3437" lengthAdjust="spacing" textLength="198.7855" x="774.1296" y="708.3982">Notify of creation event</text><polygon fill="#191919" points="992.5936,789.7848,1005.9349,795.1213,992.5936,800.4578,997.9301,795.1213" style="stroke:#191919;stroke-width:1.3341311355169951;"/><line style="stroke:#191919;stroke-width:1.3341311355169951;" x1="721.0979" x2="1000.5984" y1="795.1213" y2="795.1213"/><text fill="#000000" font-family="sans-serif" font-size="17.3437" font-weight="bold" lengthAdjust="spacing" textLength="12.0072" x="757.453" y="788.3627">8</text><text fill="#000000" font-family="sans-serif" font-size="17.3437" lengthAdjust="spacing" textLength="197.4514" x="774.7967" y="788.3627">Notify of deletion event</text><line style="stroke:#191919;stroke-width:1.3341311355169951;" x1="1021.9444" x2="1077.978" y1="852.6661" y2="852.6661"/><line style="stroke:#191919;stroke-width:1.3341311355169951;" x1="1077.978" x2="1077.978" y1="852.6661" y2="870.0098"/><line style="stroke:#191919;stroke-width:1.3341311355169951;" x1="1023.2786" x2="1077.978" y1="870.0098" y2="870.0098"/><polygon fill="#191919" points="1036.6199,864.6733,1023.2786,870.0098,1036.6199,875.3464,1031.2834,870.0098" style="stroke:#191919;stroke-width:1.3341311355169951;"/><text fill="#000000" font-family="sans-serif" font-size="17.3437" font-weight="bold" lengthAdjust="spacing" textLength="12.0072" x="1031.2834" y="845.9075">9</text><text fill="#000000" font-family="sans-serif" font-size="17.3437" lengthAdjust="spacing" textLength="288.1723" x="1048.6271" y="845.9075">Trigger Slack notification webhook</text><ellipse cx="1548.2592" cy="907.8762" fill="none" rx="5.3365" ry="5.3365" style="stroke:#191919;stroke-width:2.0011967032754927;"/><line style="stroke:#191919;stroke-width:1.3341311355169951;" x1="1538.9203" x2="1525.579" y1="908.8768" y2="903.5403"/><line style="stroke:#191919;stroke-width:1.3341311355169951;" x1="1538.9203" x2="1525.579" y1="908.8768" y2="914.2134"/><line style="stroke:#191919;stroke-width:1.3341311355169951;" x1="1021.9444" x2="1540.2544" y1="908.8768" y2="908.8768"/><text fill="#000000" font-family="sans-serif" font-size="17.3437" font-weight="bold" lengthAdjust="spacing" textLength="24.0144" x="1144.6845" y="902.1182">10</text><text fill="#000000" font-family="sans-serif" font-size="17.3437" lengthAdjust="spacing" textLength="252.1508" x="1174.0354" y="902.1182">Send pod lifecycle notification</text><polygon fill="#191919" points="992.5936,979.763,1005.9349,985.0995,992.5936,990.436,997.9301,985.0995" style="stroke:#191919;stroke-width:1.3341311355169951;"/><line style="stroke:#191919;stroke-width:1.3341311355169951;" x1="185.4442" x2="1000.5984" y1="985.0995" y2="985.0995"/><text fill="#000000" font-family="sans-serif" font-size="17.3437" font-weight="bold" lengthAdjust="spacing" textLength="24.0144" x="444.2657" y="978.3409">11</text><text fill="#000000" font-family="sans-serif" font-size="17.3437" lengthAdjust="spacing" textLength="276.1651" x="473.6166" y="978.3409">Update configuration (if needed)</text><line style="stroke:#191919;stroke-width:1.3341311355169951;" x1="1021.9444" x2="1077.978" y1="1023.9665" y2="1023.9665"/><line style="stroke:#191919;stroke-width:1.3341311355169951;" x1="1077.978" x2="1077.978" y1="1023.9665" y2="1041.3102"/><line style="stroke:#191919;stroke-width:1.3341311355169951;" x1="1023.2786" x2="1077.978" y1="1041.3102" y2="1041.3102"/><polygon fill="#191919" points="1036.6199,1035.9737,1023.2786,1041.3102,1036.6199,1046.6467,1031.2834,1041.3102" style="stroke:#191919;stroke-width:1.3341311355169951;"/><text fill="#000000" font-family="sans-serif" font-size="17.3437" font-weight="bold" lengthAdjust="spacing" textLength="24.0144" x="1031.2834" y="1017.2079">12</text><text fill="#000000" font-family="sans-serif" font-size="17.3437" lengthAdjust="spacing" textLength="118.7377" x="1060.6343" y="1017.2079">Reload scripts</text><!--SRC=[VLJ1SjCm4BthAvPmWKDBKc0e73gJfYt3K23JbE6iM6jR4rdhaUGavUjPoOxZk1qoYIUsdjxRVM_bLxMJHIKX8Fs5u1eKhqA95K8bdHUbLWWvKLZJNiWca6sgDJhXCsaGPfylfllPz78g_4RRMZfPWS9SDYOyuZxCZIviXJP0nfUugqVzf82d48Dv601yAHNjj2qWbyRZOEMQzakfL5oQJOK8Ed0bgnADWLyrEXd8mGf3KuEq2lwGs-I6TaB8BAvCRd2BXXWu0UcvsgtWrc1oJzmHT8kne0cyljT56QuDMmB0sa5dkfPSQWU-jLljoBPWvZBngK0MZMObrkyDcsKne8U5QNo8gYtjLuTenxm3-7pvBP5kBlqODUfrIIeXVNnCzHXj2sttK7UWT7TQu-sUoxBSpmhTLcVekSIxk_dqq_oPi97PfjMA_teQmIx2sLLh07o1fKFUzomK7qCHbfDFOGFbdMK0itDOE9Iyahe0dpbT1m_QGacq0QKTnlYU67lHOsyesw3BDUU_bXuLa6ttdz51KrUoYF6zFuUvKYCosEbGzbg11eIyvKElKqchS_I13u8RDyN6ClPZZtsudY-05oljlIRhNzYJV8iszCPno6pR3TQ6dfupn35-GJKR6CQnHmwcwcwPRfMLg1g3xrhUT03qThX566BaWcpGjg76T_mioYqTYEZiYhe2Vv3LKJssn0V5XZYQ_9Kcn2c4UtOfUyeuZjkuoYi09nss7d51XcSS-ibCm7GvC2LWMqVyTAssmzi-wjfjESRC1yuUTdI5NpmwVugpbtKQRIi9Z_ocIVg9vwZ_7nRL8GSiiMaV74TvB9WZFtPvu3cXV7IwA91d9HwjE1uwrrbRu0xNSN17UpcMT0nZr76Yk6amVG930j7gnzzXuewwlsiLlSt8vhfeslZXZSx18YfKRyMBrJxmQrAgmzaH_m00]--></g></svg>