<?xml version="1.0" encoding="UTF-8" standalone="no"?><svg xmlns="http://www.w3.org/2000/svg" xmlns:xlink="http://www.w3.org/1999/xlink" contentStyleType="text/css" height="590px" preserveAspectRatio="none" style="width:2009px;height:590px;background:#FFFFFF;" version="1.1" viewBox="0 0 2009 590" width="2009px" zoomAndPan="magnify"><defs/><g><rect fill="#F3807B" height="36.2969" rx="12.5" ry="12.5" style="stroke:#008000;stroke-width:1.5;" width="84" x="678" y="276.1523"/><text fill="#000000" font-family="sans-serif" font-size="14" lengthAdjust="spacing" textLength="64" x="688" y="299.1475">Upbound</text><rect fill="#FDCD3C" height="52.5938" rx="17.5" ry="17.5" style="stroke:#0000FF;stroke-width:1.0;" width="109" x="812" y="268.0039"/><text fill="#000000" font-family="sans-serif" font-size="14" font-weight="bold" lengthAdjust="spacing" textLength="89" x="822" y="290.999">Crossplane</text><text fill="#000000" font-family="sans-serif" font-size="14" font-weight="bold" lengthAdjust="spacing" textLength="34" x="847" y="307.2959">OOS</text><rect fill="#FDCD3C" height="36.2969" rx="17.5" ry="17.5" style="stroke:#000000;stroke-width:1.0;" width="111" x="971" y="20"/><text fill="#000000" font-family="sans-serif" font-size="14" lengthAdjust="spacing" textLength="91" x="981" y="42.9951">Open Source</text><path d="M921,294.3008 L931,294.3008 C946,294.3008 946,38.1484 961,38.1484 L971,38.1484 " fill="none" style="stroke:#0000FF;stroke-width:1.0;"/><rect fill="#FDCD3C" height="36.2969" rx="17.5" ry="17.5" style="stroke:#000000;stroke-width:1.0;" width="150" x="971" y="76.2969"/><text fill="#000000" font-family="sans-serif" font-size="14" lengthAdjust="spacing" textLength="130" x="981" y="99.292">Kubernetes Addon</text><path d="M921,294.3008 L931,294.3008 C946,294.3008 946,94.4453 961,94.4453 L971,94.4453 " fill="none" style="stroke:#0000FF;stroke-width:1.0;"/><rect fill="#FDCD3C" height="36.2969" rx="17.5" ry="17.5" style="stroke:#000000;stroke-width:1.0;" width="112" x="971" y="132.5938"/><text fill="#000000" font-family="sans-serif" font-size="14" lengthAdjust="spacing" textLength="92" x="981" y="155.5889">Control Plane</text><path d="M921,294.3008 L931,294.3008 C946,294.3008 946,150.7422 961,150.7422 L971,150.7422 " fill="none" style="stroke:#0000FF;stroke-width:1.0;"/><rect fill="#FDCD3C" height="36.2969" rx="17.5" ry="17.5" style="stroke:#000000;stroke-width:1.0;" width="94" x="971" y="188.8906"/><text fill="#000000" font-family="sans-serif" font-size="14" lengthAdjust="spacing" textLength="74" x="981" y="211.8857">API Centric</text><path d="M921,294.3008 L931,294.3008 C946,294.3008 946,207.0391 961,207.0391 L971,207.0391 " fill="none" style="stroke:#0000FF;stroke-width:1.0;"/><rect fill="#FDCD3C" height="36.2969" rx="17.5" ry="17.5" style="stroke:#000000;stroke-width:1.0;" width="122" x="971" y="245.1875"/><text fill="#000000" font-family="sans-serif" font-size="14" lengthAdjust="spacing" textLength="102" x="981" y="268.1826">Provider Types</text><rect fill="#F3807B" height="36.2969" rx="12.5" ry="12.5" style="stroke:#008000;stroke-width:1.5;" width="133" x="1143" y="179.7422"/><text fill="#000000" font-family="sans-serif" font-size="14" lengthAdjust="spacing" textLength="113" x="1153" y="202.7373">Regular Provider</text><a href="https://github.com/crossplane/crossplane/blob/master/docs/contributing/provider_development_guide.md" target="_top" title="https://github.com/crossplane/crossplane/blob/master/docs/contributing/provider_development_guide.md" xlink:actuate="onRequest" xlink:href="https://github.com/crossplane/crossplane/blob/master/docs/contributing/provider_development_guide.md" xlink:show="new" xlink:title="https://github.com/crossplane/crossplane/blob/master/docs/contributing/provider_development_guide.md" xlink:type="simple"><text fill="#0000FF" font-family="sans-serif" font-size="14" lengthAdjust="spacing" text-decoration="underline" textLength="107" x="1329" y="193.5889">Documentation</text></a><path d="M1276,197.8906 L1286,197.8906 C1301,197.8906 1301,188.7422 1316,188.7422 L1326,188.7422 " fill="none" style="stroke:#181818;stroke-width:1.0;"/><a href="https://github.com/crossplane/provider-template" target="_top" title="https://github.com/crossplane/provider-template" xlink:actuate="onRequest" xlink:href="https://github.com/crossplane/provider-template" xlink:show="new" xlink:title="https://github.com/crossplane/provider-template" xlink:type="simple"><text fill="#0000FF" font-family="sans-serif" font-size="14" lengthAdjust="spacing" text-decoration="underline" textLength="65" x="1329" y="211.8857">Template</text></a><text fill="#000000" font-family="sans-serif" font-size="14" lengthAdjust="spacing" textLength="4" x="1394" y="211.8857"> </text><path d="M1276,197.8906 L1286,197.8906 C1301,197.8906 1301,207.0391 1316,207.0391 L1326,207.0391 " fill="none" style="stroke:#181818;stroke-width:1.0;"/><path d="M1093,263.3359 L1103,263.3359 C1118,263.3359 1118,197.8906 1133,197.8906 L1143,197.8906 " fill="none" style="stroke:#000000;stroke-width:1.0;"/><rect fill="#F3807B" height="36.2969" rx="12.5" ry="12.5" style="stroke:#008000;stroke-width:1.5;" width="133" x="1143" y="236.0391"/><text fill="#000000" font-family="sans-serif" font-size="14" lengthAdjust="spacing" textLength="113" x="1153" y="259.0342">Terrajet Provider</text><a href="https://github.com/crossplane/terrajet/blob/main/docs/generating-a-provider.md" target="_top" title="https://github.com/crossplane/terrajet/blob/main/docs/generating-a-provider.md" xlink:actuate="onRequest" xlink:href="https://github.com/crossplane/terrajet/blob/main/docs/generating-a-provider.md" xlink:show="new" xlink:title="https://github.com/crossplane/terrajet/blob/main/docs/generating-a-provider.md" xlink:type="simple"><text fill="#0000FF" font-family="sans-serif" font-size="14" lengthAdjust="spacing" text-decoration="underline" textLength="107" x="1329" y="249.8857">Documentation</text></a><path d="M1276,254.1875 L1286,254.1875 C1301,254.1875 1301,245.0391 1316,245.0391 L1326,245.0391 " fill="none" style="stroke:#181818;stroke-width:1.0;"/><a href="https://github.com/crossplane-contrib/provider-jet-template" target="_top" title="https://github.com/crossplane-contrib/provider-jet-template" xlink:actuate="onRequest" xlink:href="https://github.com/crossplane-contrib/provider-jet-template" xlink:show="new" xlink:title="https://github.com/crossplane-contrib/provider-jet-template" xlink:type="simple"><text fill="#0000FF" font-family="sans-serif" font-size="14" lengthAdjust="spacing" text-decoration="underline" textLength="65" x="1329" y="268.1826">Template</text></a><text fill="#000000" font-family="sans-serif" font-size="14" lengthAdjust="spacing" textLength="4" x="1394" y="268.1826"> </text><path d="M1276,254.1875 L1286,254.1875 C1301,254.1875 1301,263.3359 1316,263.3359 L1326,263.3359 " fill="none" style="stroke:#181818;stroke-width:1.0;"/><path d="M1093,263.3359 L1103,263.3359 C1118,263.3359 1118,254.1875 1133,254.1875 L1143,254.1875 " fill="none" style="stroke:#000000;stroke-width:1.0;"/><rect fill="#F3807B" height="36.2969" rx="12.5" ry="12.5" style="stroke:#008000;stroke-width:1.5;" width="58" x="1143" y="301.4844"/><text fill="#000000" font-family="sans-serif" font-size="14" lengthAdjust="spacing" textLength="38" x="1153" y="324.4795">Tools</text><rect fill="#F3807B" height="36.2969" rx="12.5" ry="12.5" style="stroke:#008000;stroke-width:1.5;" width="76" x="1251" y="292.3359"/><a href="https://github.com/crossplane/crossplane-tools/blob/master/README.md" target="_top" title="https://github.com/crossplane/crossplane-tools/blob/master/README.md" xlink:actuate="onRequest" xlink:href="https://github.com/crossplane/crossplane-tools/blob/master/README.md" xlink:show="new" xlink:title="https://github.com/crossplane/crossplane-tools/blob/master/README.md" xlink:type="simple"><text fill="#0000FF" font-family="sans-serif" font-size="14" lengthAdjust="spacing" text-decoration="underline" textLength="56" x="1261" y="315.3311">Angryjet</text></a><path d="M1201,319.6328 L1211,319.6328 C1226,319.6328 1226,310.4844 1241,310.4844 L1251,310.4844 " fill="none" style="stroke:#181818;stroke-width:1.0;"/><text fill="#000000" font-family="sans-serif" font-size="14" lengthAdjust="spacing" textLength="361" x="1254" y="352.6279">Adds Crossplane required scaffold to resource kinds</text><path d="M1201,319.6328 L1211,319.6328 C1226,319.6328 1226,347.7813 1241,347.7813 L1251,347.7813 " fill="none" style="stroke:#181818;stroke-width:1.0;"/><path d="M1093,263.3359 L1103,263.3359 C1118,263.3359 1118,319.6328 1133,319.6328 L1143,319.6328 " fill="none" style="stroke:#000000;stroke-width:1.0;"/><path d="M921,294.3008 L931,294.3008 C946,294.3008 946,263.3359 961,263.3359 L971,263.3359 " fill="none" style="stroke:#0000FF;stroke-width:1.0;"/><rect fill="#FDCD3C" height="36.2969" rx="17.5" ry="17.5" style="stroke:#000000;stroke-width:1.0;" width="180" x="971" y="449.6172"/><text fill="#000000" font-family="sans-serif" font-size="14" lengthAdjust="spacing" textLength="160" x="981" y="472.6123">Managed Infrastructure</text><rect fill="#F3807B" height="36.2969" rx="12.5" ry="12.5" style="stroke:#008000;stroke-width:1.5;" width="178" x="1201" y="421.8203"/><text fill="#000000" font-family="sans-serif" font-size="14" lengthAdjust="spacing" textLength="158" x="1211" y="444.8154">Configuration resource</text><rect fill="#F3807B" height="36.2969" rx="12.5" ry="12.5" style="stroke:#008000;stroke-width:1.5;" width="155" x="1429" y="375.375"/><text fill="#000000" font-family="sans-serif" font-size="14" lengthAdjust="spacing" textLength="135" x="1439" y="398.3701">Managed Resource</text><text fill="#000000" font-family="sans-serif" font-size="14" lengthAdjust="spacing" textLength="105" x="1637" y="370.9248">Cluster scoped</text><path d="M1584,393.5234 L1594,393.5234 C1609,393.5234 1609,366.0781 1624,366.0781 L1634,366.0781 " fill="none" style="stroke:#181818;stroke-width:1.0;"/><text fill="#000000" font-family="sans-serif" font-size="14" lengthAdjust="spacing" textLength="78" x="1637" y="389.2217">High fidelity</text><path d="M1584,393.5234 L1594,393.5234 C1609,393.5234 1609,384.375 1624,384.375 L1634,384.375 " fill="none" style="stroke:#181818;stroke-width:1.0;"/><text fill="#000000" font-family="sans-serif" font-size="14" lengthAdjust="spacing" textLength="277" x="1637" y="407.5186">Represent resource in extenrnal system</text><path d="M1584,393.5234 L1594,393.5234 C1609,393.5234 1609,402.6719 1624,402.6719 L1634,402.6719 " fill="none" style="stroke:#181818;stroke-width:1.0;"/><text fill="#000000" font-family="sans-serif" font-size="14" lengthAdjust="spacing" textLength="134" x="1637" y="425.8154">Defined by provider</text><path d="M1584,393.5234 L1594,393.5234 C1609,393.5234 1609,420.9688 1624,420.9688 L1634,420.9688 " fill="none" style="stroke:#181818;stroke-width:1.0;"/><path d="M1379,439.9688 L1389,439.9688 C1404,439.9688 1404,393.5234 1419,393.5234 L1429,393.5234 " fill="none" style="stroke:#181818;stroke-width:1.0;"/><rect fill="#F3807B" height="36.2969" rx="12.5" ry="12.5" style="stroke:#008000;stroke-width:1.5;" width="76" x="1429" y="458.4141"/><text fill="#000000" font-family="sans-serif" font-size="14" lengthAdjust="spacing" textLength="56" x="1439" y="481.4092">Provider</text><rect fill="#F3807B" height="36.2969" rx="12.5" ry="12.5" style="stroke:#008000;stroke-width:1.5;" width="260" x="1555" y="440.1172"/><text fill="#000000" font-family="sans-serif" font-size="14" lengthAdjust="spacing" textLength="240" x="1565" y="463.1123">Enable access to extenrnal system</text><text fill="#000000" font-family="sans-serif" font-size="14" lengthAdjust="spacing" textLength="129" x="1868" y="453.9639">Kubernetes secret</text><path d="M1815,458.2656 L1825,458.2656 C1840,458.2656 1840,449.1172 1855,449.1172 L1865,449.1172 " fill="none" style="stroke:#181818;stroke-width:1.0;"/><text fill="#000000" font-family="sans-serif" font-size="14" lengthAdjust="spacing" textLength="108" x="1868" y="472.2607">Other metadata</text><path d="M1815,458.2656 L1825,458.2656 C1840,458.2656 1840,467.4141 1855,467.4141 L1865,467.4141 " fill="none" style="stroke:#181818;stroke-width:1.0;"/><path d="M1505,476.5625 L1515,476.5625 C1530,476.5625 1530,458.2656 1545,458.2656 L1555,458.2656 " fill="none" style="stroke:#181818;stroke-width:1.0;"/><text fill="#000000" font-family="sans-serif" font-size="14" lengthAdjust="spacing" textLength="105" x="1558" y="500.4092">Cluster scoped</text><path d="M1505,476.5625 L1515,476.5625 C1530,476.5625 1530,495.5625 1545,495.5625 L1555,495.5625 " fill="none" style="stroke:#181818;stroke-width:1.0;"/><text fill="#000000" font-family="sans-serif" font-size="14" lengthAdjust="spacing" textLength="166" x="1558" y="518.7061">ProviderConfig resource</text><path d="M1505,476.5625 L1515,476.5625 C1530,476.5625 1530,513.8594 1545,513.8594 L1555,513.8594 " fill="none" style="stroke:#181818;stroke-width:1.0;"/><path d="M1379,439.9688 L1389,439.9688 C1404,439.9688 1404,476.5625 1419,476.5625 L1429,476.5625 " fill="none" style="stroke:#181818;stroke-width:1.0;"/><path d="M1151,467.7656 L1161,467.7656 C1176,467.7656 1176,439.9688 1191,439.9688 L1201,439.9688 " fill="none" style="stroke:#000000;stroke-width:1.0;"/><rect fill="#F3807B" height="36.2969" rx="12.5" ry="12.5" style="stroke:#008000;stroke-width:1.5;" width="87" x="1201" y="532.3047"/><text fill="#000000" font-family="sans-serif" font-size="14" lengthAdjust="spacing" textLength="67" x="1211" y="555.2998">Controller</text><text fill="#000000" font-family="sans-serif" font-size="14" lengthAdjust="spacing" textLength="360" x="1341" y="537.0029">Watches for changes in managed resources (CRUD)</text><path d="M1288,550.4531 L1298,550.4531 C1313,550.4531 1313,532.1563 1328,532.1563 L1338,532.1563 " fill="none" style="stroke:#181818;stroke-width:1.0;"/><text fill="#000000" font-family="sans-serif" font-size="14" lengthAdjust="spacing" textLength="320" x="1341" y="555.2998">Calls provider API as a response to the change</text><path d="M1288,550.4531 L1298,550.4531 C1313,550.4531 1313,550.4531 1328,550.4531 L1338,550.4531 " fill="none" style="stroke:#181818;stroke-width:1.0;"/><text fill="#000000" font-family="sans-serif" font-size="14" lengthAdjust="spacing" textLength="256" x="1341" y="573.5967">Matches actual state to desired state</text><path d="M1288,550.4531 L1298,550.4531 C1313,550.4531 1313,568.75 1328,568.75 L1338,568.75 " fill="none" style="stroke:#181818;stroke-width:1.0;"/><path d="M1151,467.7656 L1161,467.7656 C1176,467.7656 1176,550.4531 1191,550.4531 L1201,550.4531 " fill="none" style="stroke:#000000;stroke-width:1.0;"/><path d="M921,294.3008 L931,294.3008 C946,294.3008 946,467.7656 961,467.7656 L971,467.7656 " fill="none" style="stroke:#0000FF;stroke-width:1.0;"/><path d="M762,294.3008 L772,294.3008 C787,294.3008 787,294.3008 802,294.3008 L812,294.3008 " fill="none" style="stroke:#181818;stroke-width:1.0;"/><rect fill="#FDCD3C" height="52.5938" rx="17.5" ry="17.5" style="stroke:#0000FF;stroke-width:1.0;" width="102" x="526" y="268.0039"/><text fill="#000000" font-family="sans-serif" font-size="14" font-weight="bold" lengthAdjust="spacing" textLength="82" x="536" y="290.999">Enterprise</text><text fill="#000000" font-family="sans-serif" font-size="14" font-weight="bold" lengthAdjust="spacing" textLength="71" x="541" y="307.2959">Products</text><rect fill="#FDCD3C" height="36.2969" rx="17.5" ry="17.5" style="stroke:#000000;stroke-width:1.0;" width="164" x="312" y="163.5586"/><a href="https://github.com/upbound/universal-crossplane" target="_top" title="https://github.com/upbound/universal-crossplane" xlink:actuate="onRequest" xlink:href="https://github.com/upbound/universal-crossplane" xlink:show="new" xlink:title="https://github.com/upbound/universal-crossplane" xlink:type="simple"><text fill="#0000FF" font-family="sans-serif" font-size="14" lengthAdjust="spacing" text-decoration="underline" textLength="144" x="322" y="186.5537">Universal Crossplane</text></a><rect fill="#F3807B" height="36.2969" rx="12.5" ry="12.5" style="stroke:#008000;stroke-width:1.5;" width="198" x="64" y="22.8164"/><text fill="#000000" font-family="sans-serif" font-size="14" lengthAdjust="spacing" textLength="178" x="74" y="45.8115">Distribution of Crossplane</text><path d="M312,181.707 L302,181.707 C287,181.707 287,40.9648 272,40.9648 L262,40.9648 " fill="none" style="stroke:#000000;stroke-width:1.0;"/><rect fill="#F3807B" height="36.2969" rx="12.5" ry="12.5" style="stroke:#008000;stroke-width:1.5;" width="228" x="34" y="79.1133"/><text fill="#000000" font-family="sans-serif" font-size="14" lengthAdjust="spacing" textLength="208" x="44" y="102.1084">Feature parity with Crossplane</text><path d="M312,181.707 L302,181.707 C287,181.707 287,97.2617 272,97.2617 L262,97.2617 " fill="none" style="stroke:#000000;stroke-width:1.0;"/><rect fill="#F3807B" height="36.2969" rx="12.5" ry="12.5" style="stroke:#008000;stroke-width:1.5;" width="174" x="88" y="135.4102"/><text fill="#000000" font-family="sans-serif" font-size="14" lengthAdjust="spacing" textLength="154" x="98" y="158.4053">Integrated with the CLI</text><path d="M312,181.707 L302,181.707 C287,181.707 287,153.5586 272,153.5586 L262,153.5586 " fill="none" style="stroke:#000000;stroke-width:1.0;"/><rect fill="#F3807B" height="36.2969" rx="12.5" ry="12.5" style="stroke:#008000;stroke-width:1.5;" width="246" x="16" y="191.707"/><text fill="#000000" font-family="sans-serif" font-size="14" lengthAdjust="spacing" textLength="226" x="26" y="214.7021">Stable 18 month version support</text><path d="M312,181.707 L302,181.707 C287,181.707 287,209.8555 272,209.8555 L262,209.8555 " fill="none" style="stroke:#000000;stroke-width:1.0;"/><rect fill="#F3807B" height="36.2969" rx="12.5" ry="12.5" style="stroke:#008000;stroke-width:1.5;" width="203" x="59" y="248.0039"/><text fill="#000000" font-family="sans-serif" font-size="14" lengthAdjust="spacing" textLength="183" x="69" y="270.999">Enables connectivity to UC</text><path d="M312,181.707 L302,181.707 C287,181.707 287,266.1523 272,266.1523 L262,266.1523 " fill="none" style="stroke:#000000;stroke-width:1.0;"/><rect fill="#F3807B" height="36.2969" rx="12.5" ry="12.5" style="stroke:#008000;stroke-width:1.5;" width="213" x="49" y="304.3008"/><text fill="#000000" font-family="sans-serif" font-size="14" lengthAdjust="spacing" textLength="193" x="59" y="327.2959">Language server integration</text><path d="M312,181.707 L302,181.707 C287,181.707 287,322.4492 272,322.4492 L262,322.4492 " fill="none" style="stroke:#000000;stroke-width:1.0;"/><path d="M526,294.3008 L516,294.3008 C501,294.3008 501,181.707 486,181.707 L476,181.707 " fill="none" style="stroke:#0000FF;stroke-width:1.0;"/><rect fill="#FDCD3C" height="36.2969" rx="17.5" ry="17.5" style="stroke:#000000;stroke-width:1.0;" width="60" x="416" y="219.8555"/><text fill="#000000" font-family="sans-serif" font-size="14" lengthAdjust="spacing" textLength="40" x="426" y="242.8506">Cloud</text><path d="M526,294.3008 L516,294.3008 C501,294.3008 501,238.0039 486,238.0039 L476,238.0039 " fill="none" style="stroke:#0000FF;stroke-width:1.0;"/><rect fill="#FDCD3C" height="36.2969" rx="17.5" ry="17.5" style="stroke:#000000;stroke-width:1.0;" width="165" x="311" y="416.8945"/><text fill="#000000" font-family="sans-serif" font-size="14" lengthAdjust="spacing" textLength="145" x="321" y="439.8896">Registry/Marketplace</text><rect fill="#F3807B" height="36.2969" rx="12.5" ry="12.5" style="stroke:#008000;stroke-width:1.5;" width="119" x="142" y="360.5977"/><text fill="#000000" font-family="sans-serif" font-size="14" lengthAdjust="spacing" textLength="99" x="152" y="383.5928">React frontent</text><path d="M311,435.043 L301,435.043 C286,435.043 286,378.7461 271,378.7461 L261,378.7461 " fill="none" style="stroke:#000000;stroke-width:1.0;"/><rect fill="#F3807B" height="36.2969" rx="12.5" ry="12.5" style="stroke:#008000;stroke-width:1.5;" width="81" x="180" y="445.043"/><text fill="#000000" font-family="sans-serif" font-size="14" lengthAdjust="spacing" textLength="61" x="190" y="468.0381">Artefacts</text><rect fill="#F3807B" height="36.2969" rx="12.5" ry="12.5" style="stroke:#008000;stroke-width:1.5;" width="84" x="46" y="416.8945"/><text fill="#000000" font-family="sans-serif" font-size="14" lengthAdjust="spacing" textLength="64" x="56" y="439.8896">Providers</text><path d="M180,463.1914 L170,463.1914 C155,463.1914 155,435.043 140,435.043 L130,435.043 " fill="none" style="stroke:#181818;stroke-width:1.0;"/><rect fill="#F3807B" height="36.2969" rx="12.5" ry="12.5" style="stroke:#008000;stroke-width:1.5;" width="120" x="10" y="473.1914"/><text fill="#000000" font-family="sans-serif" font-size="14" lengthAdjust="spacing" textLength="100" x="20" y="496.1865">Configurations</text><path d="M180,463.1914 L170,463.1914 C155,463.1914 155,491.3398 140,491.3398 L130,491.3398 " fill="none" style="stroke:#181818;stroke-width:1.0;"/><path d="M311,435.043 L301,435.043 C286,435.043 286,463.1914 271,463.1914 L261,463.1914 " fill="none" style="stroke:#000000;stroke-width:1.0;"/><path d="M526,294.3008 L516,294.3008 C501,294.3008 501,435.043 486,435.043 L476,435.043 " fill="none" style="stroke:#0000FF;stroke-width:1.0;"/><rect fill="#FDCD3C" height="36.2969" rx="17.5" ry="17.5" style="stroke:#000000;stroke-width:1.0;" width="40" x="436" y="501.3398"/><text fill="#000000" font-family="sans-serif" font-size="14" lengthAdjust="spacing" textLength="20" x="446" y="524.335">CLI</text><rect fill="#F3807B" height="36.2969" rx="12.5" ry="12.5" style="stroke:#008000;stroke-width:1.5;" width="40" x="346" y="473.1914"/><text fill="#000000" font-family="sans-serif" font-size="14" lengthAdjust="spacing" textLength="20" x="356" y="496.1865">Go</text><path d="M436,519.4883 L426,519.4883 C411,519.4883 411,491.3398 396,491.3398 L386,491.3398 " fill="none" style="stroke:#000000;stroke-width:1.0;"/><rect fill="#F3807B" height="36.2969" rx="12.5" ry="12.5" style="stroke:#008000;stroke-width:1.5;" width="38" x="348" y="529.4883"/><text fill="#000000" font-family="sans-serif" font-size="14" lengthAdjust="spacing" textLength="18" x="358" y="552.4834">up</text><path d="M436,519.4883 L426,519.4883 C411,519.4883 411,547.6367 396,547.6367 L386,547.6367 " fill="none" style="stroke:#000000;stroke-width:1.0;"/><path d="M526,294.3008 L516,294.3008 C501,294.3008 501,519.4883 486,519.4883 L476,519.4883 " fill="none" style="stroke:#0000FF;stroke-width:1.0;"/><path d="M678,294.3008 L668,294.3008 C653,294.3008 653,294.3008 638,294.3008 L628,294.3008 " fill="none" style="stroke:#181818;stroke-width:1.0;"/><!--MD5=[a74fad9ff2bb93c065716e2fa4d779c8]
@startmindmap
<style>
mindmapDiagram {
    node {
        BackgroundColor #f3807b
        LineColor green
    }
    :depth(1) {
      BackGroundColor #fdcd3c
      LineColor blue
      LineThickness 1.0
      RoundCorner 35
      Shadowing 0.0
      FontStyle bold
    }
    :depth(2) {
      BackGroundColor #fdcd3c
      LineColor black
      LineThickness 1.0
      RoundCorner 35
      Shadowing 0.0
    }
}
</style>
* Upbound
left
** Enterprise\n Products
*** [[https://github.com/upbound/universal-crossplane Universal Crossplane]]
**** Distribution of Crossplane
**** Feature parity with Crossplane
**** Integrated with the CLI
**** Stable 18 month version support
**** Enables connectivity to UC
**** Language server integration
*** Cloud
*** Registry/Marketplace
**** React frontent
**** Artefacts
***** Providers
***** Configurations
*** CLI
**** Go
**** up
right
** Crossplane\n     OOS
*** Open Source
*** Kubernetes Addon
*** Control Plane
*** API Centric
*** Provider Types
**** Regular Provider
*****_ [[https://github.com/crossplane/crossplane/blob/master/docs/contributing/provider_development_guide.md Documentation]]
*****_ [[https://github.com/crossplane/provider-template Template]] 
**** Terrajet Provider
*****_ [[https://github.com/crossplane/terrajet/blob/main/docs/generating-a-provider.md Documentation]]
*****_ [[https://github.com/crossplane-contrib/provider-jet-template Template]] 
**** Tools
***** [[https://github.com/crossplane/crossplane-tools/blob/master/README.md Angryjet]]
*****_ Adds Crossplane required scaffold to resource kinds
*** Managed Infrastructure
**** Configuration resource
***** Managed Resource
******_ Cluster scoped
******_ High fidelity
******_ Represent resource in extenrnal system
******_ Defined by provider
***** Provider
****** Enable access to extenrnal system
*******_ Kubernetes secret
*******_ Other metadata
******_ Cluster scoped
******_ ProviderConfig resource
**** Controller
*****_ Watches for changes in managed resources (CRUD)
*****_ Calls provider API as a response to the change
*****_ Matches actual state to desired state
@endmindmap

PlantUML version 1.2022.2(Sat Mar 05 17:30:19 CET 2022)
(GPL source distribution)
Java Runtime: OpenJDK Runtime Environment
JVM: OpenJDK 64-Bit Server VM
Default Encoding: UTF-8
Language: en
Country: GB
--></g></svg>