<svg id="Capa_1" enable-background="new 0 0 512.001 512.001" height="512" viewBox="0 0 512.001 512.001" width="512" xmlns="http://www.w3.org/2000/svg" xmlns:xlink="http://www.w3.org/1999/xlink"><linearGradient id="SVGID_1_" gradientUnits="userSpaceOnUse" x1="256.001" x2="256.001" y1="512.001" y2=".001"><stop offset="0" stop-color="#5558ff"/><stop offset="1" stop-color="#00c0ff"/></linearGradient><g><g><g><path d="m255 361.001h-120c-8.284 0-15 6.716-15 15s6.716 15 15 15h120c8.284 0 15-6.716 15-15s-6.716-15-15-15zm-120-270h120c8.284 0 15-6.716 15-15s-6.716-15-15-15h-120c-8.284 0-15 6.716-15 15s6.716 15 15 15zm-30 150h16.509c1.949 9.561 5.731 18.46 10.948 26.329l-11.704 11.703c-5.858 5.858-5.858 15.355 0 21.213 5.857 5.857 15.354 5.859 21.213 0l11.704-11.704c7.869 5.217 16.768 9 26.329 10.948v16.509c0 8.284 6.716 15 15 15s15-6.716 15-15v-16.509c9.561-1.949 18.46-5.731 26.329-10.948l11.704 11.704c5.857 5.858 15.355 5.858 21.213 0s5.858-15.355 0-21.213l-11.704-11.703c5.217-7.869 9-16.768 10.948-26.329h16.511c8.284 0 15-6.716 15-15s-6.716-15-15-15h-16.509c-1.949-9.561-5.731-18.46-10.948-26.329l11.704-11.703c5.858-5.858 5.858-15.355 0-21.213s-15.356-5.858-21.213 0l-11.704 11.704c-7.869-5.217-16.768-9-26.329-10.948v-16.509c0-8.284-6.716-15-15-15s-15 6.716-15 15v16.509c-9.561 1.949-18.46 5.731-26.329 10.948l-11.704-11.704c-5.857-5.858-15.355-5.858-21.213 0s-5.858 15.355 0 21.213l11.704 11.703c-5.218 7.869-9 16.768-10.948 26.329h-16.511c-8.284 0-15 6.716-15 15s6.716 15 15 15zm90-60c24.813 0 45 20.187 45 45s-20.187 45-45 45-45-20.187-45-45 20.187-45 45-45zm311 3-44-33 44-33c5.165-3.874 7.272-10.618 5.23-16.743s-7.774-10.257-14.23-10.257h-107v-76c0-8.284-6.716-15-15-15h-330c-24.813 0-45 20.187-45 45v422c0 24.813 20.187 45 45 45h330c8.284 0 15-6.716 15-15s-6.716-15-15-15c-8.271 0-15-6.729-15-15s6.729-15 15-15c8.284 0 15-6.716 15-15v-226h107c6.457 0 12.188-4.132 14.23-10.257s-.065-12.87-5.23-16.743zm-173.43 298h-287.57c-8.271 0-15-6.729-15-15s6.729-15 15-15h287.57c-1.664 4.694-2.57 9.743-2.57 15s.906 10.306 2.57 15zm27.43-60h-315c-5.258 0-10.305.915-15 2.58v-379.58c0-8.271 6.729-15 15-15h315zm68-259 24 18h-62v-60h62l-24 18c-8.003 6.001-7.985 18.011 0 24zm-233 78c8.284 0 15-6.716 15-15s-6.716-15-15-15-15 6.716-15 15 6.716 15 15 15z" fill="url(#SVGID_1_)"/></g></g></g></svg>