<svg xmlns="http://www.w3.org/2000/svg" width="512" height="512" fill-rule="evenodd" clip-rule="evenodd" image-rendering="optimizeQuality" shape-rendering="geometricPrecision" text-rendering="geometricPrecision" viewBox="0 0 512 512" id="medium">
    <defs>
        <linearGradient id="a" x1="67.83" x2="474.19" y1="82.42" y2="389.98" gradientUnits="userSpaceOnUse">
            <stop offset="0" stop-color="#1e1b1e"></stop>
            <stop offset="1" stop-color="#474747"></stop>
        </linearGradient>
    </defs>
    <path fill="url(#a)" d="M256 0c141.39,0 256,114.61 256,256 0,141.39 -114.61,256 -256,256 -141.39,0 -256,-114.61 -256,-256 0,-141.39 114.61,-256 256,-256z"></path>
    <path fill="#fff" d="M180.8 159.38c53.36,0 96.62,43.26 96.62,96.62 0,53.36 -43.26,96.62 -96.62,96.62 -53.35,0 -96.61,-43.26 -96.61,-96.62 0,-53.36 43.26,-96.62 96.61,-96.62zm229.98 15.26c9.41,0 17.03,36.43 17.03,81.36 0,44.93 -7.62,81.36 -17.03,81.36 -9.4,0 -17.03,-36.43 -17.03,-81.36 0,-44.93 7.63,-81.36 17.03,-81.36zm-75.38 -7.63c27,0 48.88,39.84 48.88,88.99 0,49.15 -21.88,88.99 -48.88,88.99 -27,0 -48.89,-39.84 -48.89,-88.99 0,-49.15 21.89,-88.99 48.89,-88.99z"></path>
</svg>